G75*
%MOIN*%
%OFA0B0*%
%FSLAX25Y25*%
%IPPOS*%
%LPD*%
%AMOC8*
5,1,8,0,0,1.08239X$1,22.5*
%
%ADD10C,0.00600*%
%ADD11C,0.00787*%
%ADD12C,0.00200*%
%ADD13C,0.00500*%
%ADD14C,0.00300*%
%ADD15C,0.00800*%
%ADD16C,0.00100*%
D10*
X0026300Y0001300D02*
X0001300Y0026300D01*
X0001300Y0096300D01*
X0031300Y0126300D01*
X0211300Y0126300D01*
X0246300Y0091300D01*
X0246300Y0031300D01*
X0216300Y0001300D01*
X0026300Y0001300D01*
X0181300Y0026300D02*
X0181303Y0026545D01*
X0181312Y0026791D01*
X0181327Y0027036D01*
X0181348Y0027280D01*
X0181375Y0027524D01*
X0181408Y0027767D01*
X0181447Y0028010D01*
X0181492Y0028251D01*
X0181543Y0028491D01*
X0181600Y0028730D01*
X0181662Y0028967D01*
X0181731Y0029203D01*
X0181805Y0029437D01*
X0181885Y0029669D01*
X0181970Y0029899D01*
X0182061Y0030127D01*
X0182158Y0030352D01*
X0182260Y0030576D01*
X0182368Y0030796D01*
X0182481Y0031014D01*
X0182599Y0031229D01*
X0182723Y0031441D01*
X0182851Y0031650D01*
X0182985Y0031856D01*
X0183124Y0032058D01*
X0183268Y0032257D01*
X0183417Y0032452D01*
X0183570Y0032644D01*
X0183728Y0032832D01*
X0183890Y0033016D01*
X0184058Y0033195D01*
X0184229Y0033371D01*
X0184405Y0033542D01*
X0184584Y0033710D01*
X0184768Y0033872D01*
X0184956Y0034030D01*
X0185148Y0034183D01*
X0185343Y0034332D01*
X0185542Y0034476D01*
X0185744Y0034615D01*
X0185950Y0034749D01*
X0186159Y0034877D01*
X0186371Y0035001D01*
X0186586Y0035119D01*
X0186804Y0035232D01*
X0187024Y0035340D01*
X0187248Y0035442D01*
X0187473Y0035539D01*
X0187701Y0035630D01*
X0187931Y0035715D01*
X0188163Y0035795D01*
X0188397Y0035869D01*
X0188633Y0035938D01*
X0188870Y0036000D01*
X0189109Y0036057D01*
X0189349Y0036108D01*
X0189590Y0036153D01*
X0189833Y0036192D01*
X0190076Y0036225D01*
X0190320Y0036252D01*
X0190564Y0036273D01*
X0190809Y0036288D01*
X0191055Y0036297D01*
X0191300Y0036300D01*
X0191545Y0036297D01*
X0191791Y0036288D01*
X0192036Y0036273D01*
X0192280Y0036252D01*
X0192524Y0036225D01*
X0192767Y0036192D01*
X0193010Y0036153D01*
X0193251Y0036108D01*
X0193491Y0036057D01*
X0193730Y0036000D01*
X0193967Y0035938D01*
X0194203Y0035869D01*
X0194437Y0035795D01*
X0194669Y0035715D01*
X0194899Y0035630D01*
X0195127Y0035539D01*
X0195352Y0035442D01*
X0195576Y0035340D01*
X0195796Y0035232D01*
X0196014Y0035119D01*
X0196229Y0035001D01*
X0196441Y0034877D01*
X0196650Y0034749D01*
X0196856Y0034615D01*
X0197058Y0034476D01*
X0197257Y0034332D01*
X0197452Y0034183D01*
X0197644Y0034030D01*
X0197832Y0033872D01*
X0198016Y0033710D01*
X0198195Y0033542D01*
X0198371Y0033371D01*
X0198542Y0033195D01*
X0198710Y0033016D01*
X0198872Y0032832D01*
X0199030Y0032644D01*
X0199183Y0032452D01*
X0199332Y0032257D01*
X0199476Y0032058D01*
X0199615Y0031856D01*
X0199749Y0031650D01*
X0199877Y0031441D01*
X0200001Y0031229D01*
X0200119Y0031014D01*
X0200232Y0030796D01*
X0200340Y0030576D01*
X0200442Y0030352D01*
X0200539Y0030127D01*
X0200630Y0029899D01*
X0200715Y0029669D01*
X0200795Y0029437D01*
X0200869Y0029203D01*
X0200938Y0028967D01*
X0201000Y0028730D01*
X0201057Y0028491D01*
X0201108Y0028251D01*
X0201153Y0028010D01*
X0201192Y0027767D01*
X0201225Y0027524D01*
X0201252Y0027280D01*
X0201273Y0027036D01*
X0201288Y0026791D01*
X0201297Y0026545D01*
X0201300Y0026300D01*
X0201297Y0026055D01*
X0201288Y0025809D01*
X0201273Y0025564D01*
X0201252Y0025320D01*
X0201225Y0025076D01*
X0201192Y0024833D01*
X0201153Y0024590D01*
X0201108Y0024349D01*
X0201057Y0024109D01*
X0201000Y0023870D01*
X0200938Y0023633D01*
X0200869Y0023397D01*
X0200795Y0023163D01*
X0200715Y0022931D01*
X0200630Y0022701D01*
X0200539Y0022473D01*
X0200442Y0022248D01*
X0200340Y0022024D01*
X0200232Y0021804D01*
X0200119Y0021586D01*
X0200001Y0021371D01*
X0199877Y0021159D01*
X0199749Y0020950D01*
X0199615Y0020744D01*
X0199476Y0020542D01*
X0199332Y0020343D01*
X0199183Y0020148D01*
X0199030Y0019956D01*
X0198872Y0019768D01*
X0198710Y0019584D01*
X0198542Y0019405D01*
X0198371Y0019229D01*
X0198195Y0019058D01*
X0198016Y0018890D01*
X0197832Y0018728D01*
X0197644Y0018570D01*
X0197452Y0018417D01*
X0197257Y0018268D01*
X0197058Y0018124D01*
X0196856Y0017985D01*
X0196650Y0017851D01*
X0196441Y0017723D01*
X0196229Y0017599D01*
X0196014Y0017481D01*
X0195796Y0017368D01*
X0195576Y0017260D01*
X0195352Y0017158D01*
X0195127Y0017061D01*
X0194899Y0016970D01*
X0194669Y0016885D01*
X0194437Y0016805D01*
X0194203Y0016731D01*
X0193967Y0016662D01*
X0193730Y0016600D01*
X0193491Y0016543D01*
X0193251Y0016492D01*
X0193010Y0016447D01*
X0192767Y0016408D01*
X0192524Y0016375D01*
X0192280Y0016348D01*
X0192036Y0016327D01*
X0191791Y0016312D01*
X0191545Y0016303D01*
X0191300Y0016300D01*
X0191055Y0016303D01*
X0190809Y0016312D01*
X0190564Y0016327D01*
X0190320Y0016348D01*
X0190076Y0016375D01*
X0189833Y0016408D01*
X0189590Y0016447D01*
X0189349Y0016492D01*
X0189109Y0016543D01*
X0188870Y0016600D01*
X0188633Y0016662D01*
X0188397Y0016731D01*
X0188163Y0016805D01*
X0187931Y0016885D01*
X0187701Y0016970D01*
X0187473Y0017061D01*
X0187248Y0017158D01*
X0187024Y0017260D01*
X0186804Y0017368D01*
X0186586Y0017481D01*
X0186371Y0017599D01*
X0186159Y0017723D01*
X0185950Y0017851D01*
X0185744Y0017985D01*
X0185542Y0018124D01*
X0185343Y0018268D01*
X0185148Y0018417D01*
X0184956Y0018570D01*
X0184768Y0018728D01*
X0184584Y0018890D01*
X0184405Y0019058D01*
X0184229Y0019229D01*
X0184058Y0019405D01*
X0183890Y0019584D01*
X0183728Y0019768D01*
X0183570Y0019956D01*
X0183417Y0020148D01*
X0183268Y0020343D01*
X0183124Y0020542D01*
X0182985Y0020744D01*
X0182851Y0020950D01*
X0182723Y0021159D01*
X0182599Y0021371D01*
X0182481Y0021586D01*
X0182368Y0021804D01*
X0182260Y0022024D01*
X0182158Y0022248D01*
X0182061Y0022473D01*
X0181970Y0022701D01*
X0181885Y0022931D01*
X0181805Y0023163D01*
X0181731Y0023397D01*
X0181662Y0023633D01*
X0181600Y0023870D01*
X0181543Y0024109D01*
X0181492Y0024349D01*
X0181447Y0024590D01*
X0181408Y0024833D01*
X0181375Y0025076D01*
X0181348Y0025320D01*
X0181327Y0025564D01*
X0181312Y0025809D01*
X0181303Y0026055D01*
X0181300Y0026300D01*
X0181300Y0056300D02*
X0181303Y0056545D01*
X0181312Y0056791D01*
X0181327Y0057036D01*
X0181348Y0057280D01*
X0181375Y0057524D01*
X0181408Y0057767D01*
X0181447Y0058010D01*
X0181492Y0058251D01*
X0181543Y0058491D01*
X0181600Y0058730D01*
X0181662Y0058967D01*
X0181731Y0059203D01*
X0181805Y0059437D01*
X0181885Y0059669D01*
X0181970Y0059899D01*
X0182061Y0060127D01*
X0182158Y0060352D01*
X0182260Y0060576D01*
X0182368Y0060796D01*
X0182481Y0061014D01*
X0182599Y0061229D01*
X0182723Y0061441D01*
X0182851Y0061650D01*
X0182985Y0061856D01*
X0183124Y0062058D01*
X0183268Y0062257D01*
X0183417Y0062452D01*
X0183570Y0062644D01*
X0183728Y0062832D01*
X0183890Y0063016D01*
X0184058Y0063195D01*
X0184229Y0063371D01*
X0184405Y0063542D01*
X0184584Y0063710D01*
X0184768Y0063872D01*
X0184956Y0064030D01*
X0185148Y0064183D01*
X0185343Y0064332D01*
X0185542Y0064476D01*
X0185744Y0064615D01*
X0185950Y0064749D01*
X0186159Y0064877D01*
X0186371Y0065001D01*
X0186586Y0065119D01*
X0186804Y0065232D01*
X0187024Y0065340D01*
X0187248Y0065442D01*
X0187473Y0065539D01*
X0187701Y0065630D01*
X0187931Y0065715D01*
X0188163Y0065795D01*
X0188397Y0065869D01*
X0188633Y0065938D01*
X0188870Y0066000D01*
X0189109Y0066057D01*
X0189349Y0066108D01*
X0189590Y0066153D01*
X0189833Y0066192D01*
X0190076Y0066225D01*
X0190320Y0066252D01*
X0190564Y0066273D01*
X0190809Y0066288D01*
X0191055Y0066297D01*
X0191300Y0066300D01*
X0191545Y0066297D01*
X0191791Y0066288D01*
X0192036Y0066273D01*
X0192280Y0066252D01*
X0192524Y0066225D01*
X0192767Y0066192D01*
X0193010Y0066153D01*
X0193251Y0066108D01*
X0193491Y0066057D01*
X0193730Y0066000D01*
X0193967Y0065938D01*
X0194203Y0065869D01*
X0194437Y0065795D01*
X0194669Y0065715D01*
X0194899Y0065630D01*
X0195127Y0065539D01*
X0195352Y0065442D01*
X0195576Y0065340D01*
X0195796Y0065232D01*
X0196014Y0065119D01*
X0196229Y0065001D01*
X0196441Y0064877D01*
X0196650Y0064749D01*
X0196856Y0064615D01*
X0197058Y0064476D01*
X0197257Y0064332D01*
X0197452Y0064183D01*
X0197644Y0064030D01*
X0197832Y0063872D01*
X0198016Y0063710D01*
X0198195Y0063542D01*
X0198371Y0063371D01*
X0198542Y0063195D01*
X0198710Y0063016D01*
X0198872Y0062832D01*
X0199030Y0062644D01*
X0199183Y0062452D01*
X0199332Y0062257D01*
X0199476Y0062058D01*
X0199615Y0061856D01*
X0199749Y0061650D01*
X0199877Y0061441D01*
X0200001Y0061229D01*
X0200119Y0061014D01*
X0200232Y0060796D01*
X0200340Y0060576D01*
X0200442Y0060352D01*
X0200539Y0060127D01*
X0200630Y0059899D01*
X0200715Y0059669D01*
X0200795Y0059437D01*
X0200869Y0059203D01*
X0200938Y0058967D01*
X0201000Y0058730D01*
X0201057Y0058491D01*
X0201108Y0058251D01*
X0201153Y0058010D01*
X0201192Y0057767D01*
X0201225Y0057524D01*
X0201252Y0057280D01*
X0201273Y0057036D01*
X0201288Y0056791D01*
X0201297Y0056545D01*
X0201300Y0056300D01*
X0201297Y0056055D01*
X0201288Y0055809D01*
X0201273Y0055564D01*
X0201252Y0055320D01*
X0201225Y0055076D01*
X0201192Y0054833D01*
X0201153Y0054590D01*
X0201108Y0054349D01*
X0201057Y0054109D01*
X0201000Y0053870D01*
X0200938Y0053633D01*
X0200869Y0053397D01*
X0200795Y0053163D01*
X0200715Y0052931D01*
X0200630Y0052701D01*
X0200539Y0052473D01*
X0200442Y0052248D01*
X0200340Y0052024D01*
X0200232Y0051804D01*
X0200119Y0051586D01*
X0200001Y0051371D01*
X0199877Y0051159D01*
X0199749Y0050950D01*
X0199615Y0050744D01*
X0199476Y0050542D01*
X0199332Y0050343D01*
X0199183Y0050148D01*
X0199030Y0049956D01*
X0198872Y0049768D01*
X0198710Y0049584D01*
X0198542Y0049405D01*
X0198371Y0049229D01*
X0198195Y0049058D01*
X0198016Y0048890D01*
X0197832Y0048728D01*
X0197644Y0048570D01*
X0197452Y0048417D01*
X0197257Y0048268D01*
X0197058Y0048124D01*
X0196856Y0047985D01*
X0196650Y0047851D01*
X0196441Y0047723D01*
X0196229Y0047599D01*
X0196014Y0047481D01*
X0195796Y0047368D01*
X0195576Y0047260D01*
X0195352Y0047158D01*
X0195127Y0047061D01*
X0194899Y0046970D01*
X0194669Y0046885D01*
X0194437Y0046805D01*
X0194203Y0046731D01*
X0193967Y0046662D01*
X0193730Y0046600D01*
X0193491Y0046543D01*
X0193251Y0046492D01*
X0193010Y0046447D01*
X0192767Y0046408D01*
X0192524Y0046375D01*
X0192280Y0046348D01*
X0192036Y0046327D01*
X0191791Y0046312D01*
X0191545Y0046303D01*
X0191300Y0046300D01*
X0191055Y0046303D01*
X0190809Y0046312D01*
X0190564Y0046327D01*
X0190320Y0046348D01*
X0190076Y0046375D01*
X0189833Y0046408D01*
X0189590Y0046447D01*
X0189349Y0046492D01*
X0189109Y0046543D01*
X0188870Y0046600D01*
X0188633Y0046662D01*
X0188397Y0046731D01*
X0188163Y0046805D01*
X0187931Y0046885D01*
X0187701Y0046970D01*
X0187473Y0047061D01*
X0187248Y0047158D01*
X0187024Y0047260D01*
X0186804Y0047368D01*
X0186586Y0047481D01*
X0186371Y0047599D01*
X0186159Y0047723D01*
X0185950Y0047851D01*
X0185744Y0047985D01*
X0185542Y0048124D01*
X0185343Y0048268D01*
X0185148Y0048417D01*
X0184956Y0048570D01*
X0184768Y0048728D01*
X0184584Y0048890D01*
X0184405Y0049058D01*
X0184229Y0049229D01*
X0184058Y0049405D01*
X0183890Y0049584D01*
X0183728Y0049768D01*
X0183570Y0049956D01*
X0183417Y0050148D01*
X0183268Y0050343D01*
X0183124Y0050542D01*
X0182985Y0050744D01*
X0182851Y0050950D01*
X0182723Y0051159D01*
X0182599Y0051371D01*
X0182481Y0051586D01*
X0182368Y0051804D01*
X0182260Y0052024D01*
X0182158Y0052248D01*
X0182061Y0052473D01*
X0181970Y0052701D01*
X0181885Y0052931D01*
X0181805Y0053163D01*
X0181731Y0053397D01*
X0181662Y0053633D01*
X0181600Y0053870D01*
X0181543Y0054109D01*
X0181492Y0054349D01*
X0181447Y0054590D01*
X0181408Y0054833D01*
X0181375Y0055076D01*
X0181348Y0055320D01*
X0181327Y0055564D01*
X0181312Y0055809D01*
X0181303Y0056055D01*
X0181300Y0056300D01*
X0181300Y0086300D02*
X0181303Y0086545D01*
X0181312Y0086791D01*
X0181327Y0087036D01*
X0181348Y0087280D01*
X0181375Y0087524D01*
X0181408Y0087767D01*
X0181447Y0088010D01*
X0181492Y0088251D01*
X0181543Y0088491D01*
X0181600Y0088730D01*
X0181662Y0088967D01*
X0181731Y0089203D01*
X0181805Y0089437D01*
X0181885Y0089669D01*
X0181970Y0089899D01*
X0182061Y0090127D01*
X0182158Y0090352D01*
X0182260Y0090576D01*
X0182368Y0090796D01*
X0182481Y0091014D01*
X0182599Y0091229D01*
X0182723Y0091441D01*
X0182851Y0091650D01*
X0182985Y0091856D01*
X0183124Y0092058D01*
X0183268Y0092257D01*
X0183417Y0092452D01*
X0183570Y0092644D01*
X0183728Y0092832D01*
X0183890Y0093016D01*
X0184058Y0093195D01*
X0184229Y0093371D01*
X0184405Y0093542D01*
X0184584Y0093710D01*
X0184768Y0093872D01*
X0184956Y0094030D01*
X0185148Y0094183D01*
X0185343Y0094332D01*
X0185542Y0094476D01*
X0185744Y0094615D01*
X0185950Y0094749D01*
X0186159Y0094877D01*
X0186371Y0095001D01*
X0186586Y0095119D01*
X0186804Y0095232D01*
X0187024Y0095340D01*
X0187248Y0095442D01*
X0187473Y0095539D01*
X0187701Y0095630D01*
X0187931Y0095715D01*
X0188163Y0095795D01*
X0188397Y0095869D01*
X0188633Y0095938D01*
X0188870Y0096000D01*
X0189109Y0096057D01*
X0189349Y0096108D01*
X0189590Y0096153D01*
X0189833Y0096192D01*
X0190076Y0096225D01*
X0190320Y0096252D01*
X0190564Y0096273D01*
X0190809Y0096288D01*
X0191055Y0096297D01*
X0191300Y0096300D01*
X0191545Y0096297D01*
X0191791Y0096288D01*
X0192036Y0096273D01*
X0192280Y0096252D01*
X0192524Y0096225D01*
X0192767Y0096192D01*
X0193010Y0096153D01*
X0193251Y0096108D01*
X0193491Y0096057D01*
X0193730Y0096000D01*
X0193967Y0095938D01*
X0194203Y0095869D01*
X0194437Y0095795D01*
X0194669Y0095715D01*
X0194899Y0095630D01*
X0195127Y0095539D01*
X0195352Y0095442D01*
X0195576Y0095340D01*
X0195796Y0095232D01*
X0196014Y0095119D01*
X0196229Y0095001D01*
X0196441Y0094877D01*
X0196650Y0094749D01*
X0196856Y0094615D01*
X0197058Y0094476D01*
X0197257Y0094332D01*
X0197452Y0094183D01*
X0197644Y0094030D01*
X0197832Y0093872D01*
X0198016Y0093710D01*
X0198195Y0093542D01*
X0198371Y0093371D01*
X0198542Y0093195D01*
X0198710Y0093016D01*
X0198872Y0092832D01*
X0199030Y0092644D01*
X0199183Y0092452D01*
X0199332Y0092257D01*
X0199476Y0092058D01*
X0199615Y0091856D01*
X0199749Y0091650D01*
X0199877Y0091441D01*
X0200001Y0091229D01*
X0200119Y0091014D01*
X0200232Y0090796D01*
X0200340Y0090576D01*
X0200442Y0090352D01*
X0200539Y0090127D01*
X0200630Y0089899D01*
X0200715Y0089669D01*
X0200795Y0089437D01*
X0200869Y0089203D01*
X0200938Y0088967D01*
X0201000Y0088730D01*
X0201057Y0088491D01*
X0201108Y0088251D01*
X0201153Y0088010D01*
X0201192Y0087767D01*
X0201225Y0087524D01*
X0201252Y0087280D01*
X0201273Y0087036D01*
X0201288Y0086791D01*
X0201297Y0086545D01*
X0201300Y0086300D01*
X0201297Y0086055D01*
X0201288Y0085809D01*
X0201273Y0085564D01*
X0201252Y0085320D01*
X0201225Y0085076D01*
X0201192Y0084833D01*
X0201153Y0084590D01*
X0201108Y0084349D01*
X0201057Y0084109D01*
X0201000Y0083870D01*
X0200938Y0083633D01*
X0200869Y0083397D01*
X0200795Y0083163D01*
X0200715Y0082931D01*
X0200630Y0082701D01*
X0200539Y0082473D01*
X0200442Y0082248D01*
X0200340Y0082024D01*
X0200232Y0081804D01*
X0200119Y0081586D01*
X0200001Y0081371D01*
X0199877Y0081159D01*
X0199749Y0080950D01*
X0199615Y0080744D01*
X0199476Y0080542D01*
X0199332Y0080343D01*
X0199183Y0080148D01*
X0199030Y0079956D01*
X0198872Y0079768D01*
X0198710Y0079584D01*
X0198542Y0079405D01*
X0198371Y0079229D01*
X0198195Y0079058D01*
X0198016Y0078890D01*
X0197832Y0078728D01*
X0197644Y0078570D01*
X0197452Y0078417D01*
X0197257Y0078268D01*
X0197058Y0078124D01*
X0196856Y0077985D01*
X0196650Y0077851D01*
X0196441Y0077723D01*
X0196229Y0077599D01*
X0196014Y0077481D01*
X0195796Y0077368D01*
X0195576Y0077260D01*
X0195352Y0077158D01*
X0195127Y0077061D01*
X0194899Y0076970D01*
X0194669Y0076885D01*
X0194437Y0076805D01*
X0194203Y0076731D01*
X0193967Y0076662D01*
X0193730Y0076600D01*
X0193491Y0076543D01*
X0193251Y0076492D01*
X0193010Y0076447D01*
X0192767Y0076408D01*
X0192524Y0076375D01*
X0192280Y0076348D01*
X0192036Y0076327D01*
X0191791Y0076312D01*
X0191545Y0076303D01*
X0191300Y0076300D01*
X0191055Y0076303D01*
X0190809Y0076312D01*
X0190564Y0076327D01*
X0190320Y0076348D01*
X0190076Y0076375D01*
X0189833Y0076408D01*
X0189590Y0076447D01*
X0189349Y0076492D01*
X0189109Y0076543D01*
X0188870Y0076600D01*
X0188633Y0076662D01*
X0188397Y0076731D01*
X0188163Y0076805D01*
X0187931Y0076885D01*
X0187701Y0076970D01*
X0187473Y0077061D01*
X0187248Y0077158D01*
X0187024Y0077260D01*
X0186804Y0077368D01*
X0186586Y0077481D01*
X0186371Y0077599D01*
X0186159Y0077723D01*
X0185950Y0077851D01*
X0185744Y0077985D01*
X0185542Y0078124D01*
X0185343Y0078268D01*
X0185148Y0078417D01*
X0184956Y0078570D01*
X0184768Y0078728D01*
X0184584Y0078890D01*
X0184405Y0079058D01*
X0184229Y0079229D01*
X0184058Y0079405D01*
X0183890Y0079584D01*
X0183728Y0079768D01*
X0183570Y0079956D01*
X0183417Y0080148D01*
X0183268Y0080343D01*
X0183124Y0080542D01*
X0182985Y0080744D01*
X0182851Y0080950D01*
X0182723Y0081159D01*
X0182599Y0081371D01*
X0182481Y0081586D01*
X0182368Y0081804D01*
X0182260Y0082024D01*
X0182158Y0082248D01*
X0182061Y0082473D01*
X0181970Y0082701D01*
X0181885Y0082931D01*
X0181805Y0083163D01*
X0181731Y0083397D01*
X0181662Y0083633D01*
X0181600Y0083870D01*
X0181543Y0084109D01*
X0181492Y0084349D01*
X0181447Y0084590D01*
X0181408Y0084833D01*
X0181375Y0085076D01*
X0181348Y0085320D01*
X0181327Y0085564D01*
X0181312Y0085809D01*
X0181303Y0086055D01*
X0181300Y0086300D01*
D11*
X0043505Y0090749D02*
X0043505Y0081300D01*
X0041930Y0081300D01*
X0030513Y0075788D02*
X0030515Y0075844D01*
X0030521Y0075899D01*
X0030531Y0075953D01*
X0030544Y0076007D01*
X0030562Y0076060D01*
X0030583Y0076111D01*
X0030607Y0076161D01*
X0030635Y0076209D01*
X0030667Y0076255D01*
X0030701Y0076299D01*
X0030739Y0076340D01*
X0030779Y0076378D01*
X0030822Y0076413D01*
X0030867Y0076445D01*
X0030915Y0076474D01*
X0030964Y0076500D01*
X0031015Y0076522D01*
X0031067Y0076540D01*
X0031121Y0076554D01*
X0031176Y0076565D01*
X0031231Y0076572D01*
X0031286Y0076575D01*
X0031342Y0076574D01*
X0031397Y0076569D01*
X0031452Y0076560D01*
X0031506Y0076548D01*
X0031559Y0076531D01*
X0031611Y0076511D01*
X0031661Y0076487D01*
X0031709Y0076460D01*
X0031756Y0076430D01*
X0031800Y0076396D01*
X0031842Y0076359D01*
X0031880Y0076319D01*
X0031917Y0076277D01*
X0031950Y0076232D01*
X0031979Y0076186D01*
X0032006Y0076137D01*
X0032028Y0076086D01*
X0032048Y0076034D01*
X0032063Y0075980D01*
X0032075Y0075926D01*
X0032083Y0075871D01*
X0032087Y0075816D01*
X0032087Y0075760D01*
X0032083Y0075705D01*
X0032075Y0075650D01*
X0032063Y0075596D01*
X0032048Y0075542D01*
X0032028Y0075490D01*
X0032006Y0075439D01*
X0031979Y0075390D01*
X0031950Y0075344D01*
X0031917Y0075299D01*
X0031880Y0075257D01*
X0031842Y0075217D01*
X0031800Y0075180D01*
X0031756Y0075146D01*
X0031709Y0075116D01*
X0031661Y0075089D01*
X0031611Y0075065D01*
X0031559Y0075045D01*
X0031506Y0075028D01*
X0031452Y0075016D01*
X0031397Y0075007D01*
X0031342Y0075002D01*
X0031286Y0075001D01*
X0031231Y0075004D01*
X0031176Y0075011D01*
X0031121Y0075022D01*
X0031067Y0075036D01*
X0031015Y0075054D01*
X0030964Y0075076D01*
X0030915Y0075102D01*
X0030867Y0075131D01*
X0030822Y0075163D01*
X0030779Y0075198D01*
X0030739Y0075236D01*
X0030701Y0075277D01*
X0030667Y0075321D01*
X0030635Y0075367D01*
X0030607Y0075415D01*
X0030583Y0075465D01*
X0030562Y0075516D01*
X0030544Y0075569D01*
X0030531Y0075623D01*
X0030521Y0075677D01*
X0030515Y0075732D01*
X0030513Y0075788D01*
X0028150Y0081300D02*
X0026576Y0081300D01*
X0026576Y0090749D01*
X0028150Y0090749D01*
X0041930Y0090749D02*
X0043505Y0090749D01*
D12*
X0045178Y0087193D02*
X0045538Y0086472D01*
X0046260Y0085750D01*
X0046260Y0086832D01*
X0046620Y0087193D01*
X0046981Y0087193D01*
X0047342Y0086832D01*
X0047342Y0086111D01*
X0046981Y0085750D01*
X0046260Y0085750D01*
X0046620Y0085018D02*
X0046260Y0084657D01*
X0046260Y0083936D01*
X0045899Y0083575D01*
X0045538Y0083575D01*
X0045178Y0083936D01*
X0045178Y0084657D01*
X0045538Y0085018D01*
X0044817Y0084296D02*
X0047702Y0084296D01*
X0047342Y0083936D02*
X0047342Y0084657D01*
X0046981Y0085018D01*
X0046620Y0085018D01*
X0047342Y0083936D02*
X0046981Y0083575D01*
X0046981Y0082843D02*
X0045178Y0082843D01*
X0045178Y0081400D02*
X0046981Y0081400D01*
X0047342Y0081761D01*
X0047342Y0082482D01*
X0046981Y0082843D01*
D13*
X0027579Y0066369D02*
X0027579Y0063833D01*
X0027896Y0064150D02*
X0028213Y0064467D01*
X0028213Y0064784D01*
X0027896Y0065101D01*
X0027262Y0065101D01*
X0026945Y0065418D01*
X0026945Y0065735D01*
X0027262Y0066052D01*
X0027896Y0066052D01*
X0028213Y0065735D01*
X0029155Y0065735D02*
X0029155Y0065418D01*
X0029472Y0065101D01*
X0030106Y0065101D01*
X0030423Y0064784D01*
X0030423Y0064467D01*
X0030106Y0064150D01*
X0029472Y0064150D01*
X0029155Y0064467D01*
X0029155Y0064784D01*
X0029472Y0065101D01*
X0030106Y0065101D02*
X0030423Y0065418D01*
X0030423Y0065735D01*
X0030106Y0066052D01*
X0029472Y0066052D01*
X0029155Y0065735D01*
X0027896Y0064150D02*
X0027262Y0064150D01*
X0026945Y0064467D01*
X0026003Y0064467D02*
X0026003Y0066052D01*
X0024735Y0066052D02*
X0024735Y0064467D01*
X0025052Y0064150D01*
X0025686Y0064150D01*
X0026003Y0064467D01*
X0047648Y0044711D02*
X0048599Y0043760D01*
X0048599Y0045028D01*
X0049550Y0044711D02*
X0047648Y0044711D01*
X0047965Y0042818D02*
X0047648Y0042501D01*
X0047648Y0041867D01*
X0047965Y0041550D01*
X0047965Y0040608D02*
X0047648Y0040291D01*
X0047648Y0039657D01*
X0047965Y0039340D01*
X0048282Y0039340D01*
X0048599Y0039657D01*
X0048599Y0040291D01*
X0048916Y0040608D01*
X0049233Y0040608D01*
X0049550Y0040291D01*
X0049550Y0039657D01*
X0049233Y0039340D01*
X0049867Y0039974D02*
X0047331Y0039974D01*
X0047648Y0038398D02*
X0049233Y0038398D01*
X0049550Y0038081D01*
X0049550Y0037447D01*
X0049233Y0037130D01*
X0047648Y0037130D01*
X0049550Y0041550D02*
X0048282Y0042818D01*
X0047965Y0042818D01*
X0049550Y0042818D02*
X0049550Y0041550D01*
X0059130Y0041552D02*
X0059130Y0039967D01*
X0059447Y0039650D01*
X0060081Y0039650D01*
X0060398Y0039967D01*
X0060398Y0041552D01*
X0061340Y0041235D02*
X0061657Y0041552D01*
X0062291Y0041552D01*
X0062608Y0041235D01*
X0062291Y0040601D02*
X0061657Y0040601D01*
X0061340Y0040918D01*
X0061340Y0041235D01*
X0061974Y0041869D02*
X0061974Y0039333D01*
X0061657Y0039650D02*
X0062291Y0039650D01*
X0062608Y0039967D01*
X0062608Y0040284D01*
X0062291Y0040601D01*
X0061340Y0039967D02*
X0061657Y0039650D01*
X0063550Y0039650D02*
X0064818Y0040918D01*
X0064818Y0041235D01*
X0064501Y0041552D01*
X0063867Y0041552D01*
X0063550Y0041235D01*
X0063550Y0039650D02*
X0064818Y0039650D01*
X0065760Y0039650D02*
X0065760Y0039967D01*
X0067028Y0041235D01*
X0067028Y0041552D01*
X0065760Y0041552D01*
X0064233Y0033528D02*
X0063916Y0033528D01*
X0063599Y0033211D01*
X0063599Y0032260D01*
X0064233Y0032260D01*
X0064550Y0032577D01*
X0064550Y0033211D01*
X0064233Y0033528D01*
X0062965Y0032894D02*
X0062648Y0033528D01*
X0062965Y0032894D02*
X0063599Y0032260D01*
X0063282Y0031318D02*
X0062965Y0031318D01*
X0062648Y0031001D01*
X0062648Y0030367D01*
X0062965Y0030050D01*
X0062965Y0029108D02*
X0062648Y0028791D01*
X0062648Y0028157D01*
X0062965Y0027840D01*
X0063282Y0027840D01*
X0063599Y0028157D01*
X0063599Y0028791D01*
X0063916Y0029108D01*
X0064233Y0029108D01*
X0064550Y0028791D01*
X0064550Y0028157D01*
X0064233Y0027840D01*
X0064867Y0028474D02*
X0062331Y0028474D01*
X0062648Y0026898D02*
X0064233Y0026898D01*
X0064550Y0026581D01*
X0064550Y0025947D01*
X0064233Y0025630D01*
X0062648Y0025630D01*
X0064550Y0030050D02*
X0063282Y0031318D01*
X0064550Y0031318D02*
X0064550Y0030050D01*
X0106148Y0037130D02*
X0107733Y0037130D01*
X0108050Y0037447D01*
X0108050Y0038081D01*
X0107733Y0038398D01*
X0106148Y0038398D01*
X0106465Y0039340D02*
X0106148Y0039657D01*
X0106148Y0040291D01*
X0106465Y0040608D01*
X0107099Y0040291D02*
X0107099Y0039657D01*
X0106782Y0039340D01*
X0106465Y0039340D01*
X0105831Y0039974D02*
X0108367Y0039974D01*
X0108050Y0040291D02*
X0107733Y0040608D01*
X0107416Y0040608D01*
X0107099Y0040291D01*
X0108050Y0040291D02*
X0108050Y0039657D01*
X0107733Y0039340D01*
X0108050Y0041550D02*
X0106782Y0042818D01*
X0106465Y0042818D01*
X0106148Y0042501D01*
X0106148Y0041867D01*
X0106465Y0041550D01*
X0108050Y0041550D02*
X0108050Y0042818D01*
X0107733Y0043760D02*
X0108050Y0044077D01*
X0108050Y0044711D01*
X0107733Y0045028D01*
X0106465Y0045028D01*
X0106148Y0044711D01*
X0106148Y0044077D01*
X0106465Y0043760D01*
X0106782Y0043760D01*
X0107099Y0044077D01*
X0107099Y0045028D01*
X0114548Y0052130D02*
X0116133Y0052130D01*
X0116450Y0052447D01*
X0116450Y0053081D01*
X0116133Y0053398D01*
X0114548Y0053398D01*
X0114865Y0054340D02*
X0114548Y0054657D01*
X0114548Y0055291D01*
X0114865Y0055608D01*
X0115499Y0055291D02*
X0115499Y0054657D01*
X0115182Y0054340D01*
X0114865Y0054340D01*
X0114231Y0054974D02*
X0116767Y0054974D01*
X0116450Y0055291D02*
X0116133Y0055608D01*
X0115816Y0055608D01*
X0115499Y0055291D01*
X0116450Y0055291D02*
X0116450Y0054657D01*
X0116133Y0054340D01*
X0116450Y0056550D02*
X0115182Y0057818D01*
X0114865Y0057818D01*
X0114548Y0057501D01*
X0114548Y0056867D01*
X0114865Y0056550D01*
X0116450Y0056550D02*
X0116450Y0057818D01*
X0116450Y0058760D02*
X0115182Y0060028D01*
X0114865Y0060028D01*
X0114548Y0059711D01*
X0114548Y0059077D01*
X0114865Y0058760D01*
X0116450Y0058760D02*
X0116450Y0060028D01*
X0123426Y0068898D02*
X0123426Y0043702D01*
X0139174Y0043702D02*
X0139174Y0068898D01*
X0169548Y0065291D02*
X0169548Y0064657D01*
X0169865Y0064340D01*
X0169548Y0063398D02*
X0169548Y0062764D01*
X0169548Y0063081D02*
X0171133Y0063081D01*
X0171450Y0062764D01*
X0171450Y0062447D01*
X0171133Y0062130D01*
X0171450Y0064340D02*
X0170182Y0065608D01*
X0169865Y0065608D01*
X0169548Y0065291D01*
X0171450Y0065608D02*
X0171450Y0064340D01*
X0189340Y0070800D02*
X0190291Y0070800D01*
X0190608Y0071117D01*
X0190608Y0072385D01*
X0190291Y0072702D01*
X0189340Y0072702D01*
X0189340Y0070800D01*
X0191550Y0070800D02*
X0192818Y0072068D01*
X0192818Y0072385D01*
X0192501Y0072702D01*
X0191867Y0072702D01*
X0191550Y0072385D01*
X0191550Y0070800D02*
X0192818Y0070800D01*
X0214548Y0063606D02*
X0215499Y0062655D01*
X0215499Y0063923D01*
X0216450Y0063606D02*
X0214548Y0063606D01*
X0214865Y0061713D02*
X0214548Y0061396D01*
X0214548Y0060762D01*
X0214865Y0060445D01*
X0215182Y0060445D01*
X0215499Y0060762D01*
X0215499Y0061396D01*
X0215816Y0061713D01*
X0216133Y0061713D01*
X0216450Y0061396D01*
X0216450Y0060762D01*
X0216133Y0060445D01*
X0216767Y0061079D02*
X0214231Y0061079D01*
X0214548Y0059503D02*
X0216133Y0059503D01*
X0216450Y0059186D01*
X0216450Y0058552D01*
X0216133Y0058235D01*
X0214548Y0058235D01*
X0224548Y0058235D02*
X0226133Y0058235D01*
X0226450Y0058552D01*
X0226450Y0059186D01*
X0226133Y0059503D01*
X0224548Y0059503D01*
X0224865Y0060445D02*
X0224548Y0060762D01*
X0224548Y0061396D01*
X0224865Y0061713D01*
X0225499Y0061396D02*
X0225499Y0060762D01*
X0225182Y0060445D01*
X0224865Y0060445D01*
X0224231Y0061079D02*
X0226767Y0061079D01*
X0226450Y0060762D02*
X0226450Y0061396D01*
X0226133Y0061713D01*
X0225816Y0061713D01*
X0225499Y0061396D01*
X0226133Y0060445D02*
X0226450Y0060762D01*
X0226133Y0062655D02*
X0226450Y0062972D01*
X0226450Y0063606D01*
X0226133Y0063923D01*
X0225816Y0063923D01*
X0225499Y0063606D01*
X0225499Y0063289D01*
X0225499Y0063606D02*
X0225182Y0063923D01*
X0224865Y0063923D01*
X0224548Y0063606D01*
X0224548Y0062972D01*
X0224865Y0062655D01*
X0192818Y0042385D02*
X0192818Y0042068D01*
X0192501Y0041751D01*
X0192818Y0041434D01*
X0192818Y0041117D01*
X0192501Y0040800D01*
X0191867Y0040800D01*
X0191550Y0041117D01*
X0192184Y0041751D02*
X0192501Y0041751D01*
X0192818Y0042385D02*
X0192501Y0042702D01*
X0191867Y0042702D01*
X0191550Y0042385D01*
X0190608Y0042385D02*
X0190608Y0041117D01*
X0190291Y0040800D01*
X0189340Y0040800D01*
X0189340Y0042702D01*
X0190291Y0042702D01*
X0190608Y0042385D01*
X0170450Y0030291D02*
X0168548Y0030291D01*
X0169499Y0029340D01*
X0169499Y0030608D01*
X0168548Y0028398D02*
X0168548Y0027764D01*
X0168548Y0028081D02*
X0170133Y0028081D01*
X0170450Y0027764D01*
X0170450Y0027447D01*
X0170133Y0027130D01*
X0189340Y0012702D02*
X0190291Y0012702D01*
X0190608Y0012385D01*
X0190608Y0011117D01*
X0190291Y0010800D01*
X0189340Y0010800D01*
X0189340Y0012702D01*
X0191550Y0012068D02*
X0192184Y0012702D01*
X0192184Y0010800D01*
X0191550Y0010800D02*
X0192818Y0010800D01*
X0094568Y0062324D02*
X0094568Y0063505D01*
X0078032Y0063505D01*
X0078032Y0062324D01*
X0074096Y0063898D02*
X0074098Y0063954D01*
X0074104Y0064009D01*
X0074114Y0064063D01*
X0074127Y0064117D01*
X0074145Y0064170D01*
X0074166Y0064221D01*
X0074190Y0064271D01*
X0074218Y0064319D01*
X0074250Y0064365D01*
X0074284Y0064409D01*
X0074322Y0064450D01*
X0074362Y0064488D01*
X0074405Y0064523D01*
X0074450Y0064555D01*
X0074498Y0064584D01*
X0074547Y0064610D01*
X0074598Y0064632D01*
X0074650Y0064650D01*
X0074704Y0064664D01*
X0074759Y0064675D01*
X0074814Y0064682D01*
X0074869Y0064685D01*
X0074925Y0064684D01*
X0074980Y0064679D01*
X0075035Y0064670D01*
X0075089Y0064658D01*
X0075142Y0064641D01*
X0075194Y0064621D01*
X0075244Y0064597D01*
X0075292Y0064570D01*
X0075339Y0064540D01*
X0075383Y0064506D01*
X0075425Y0064469D01*
X0075463Y0064429D01*
X0075500Y0064387D01*
X0075533Y0064342D01*
X0075562Y0064296D01*
X0075589Y0064247D01*
X0075611Y0064196D01*
X0075631Y0064144D01*
X0075646Y0064090D01*
X0075658Y0064036D01*
X0075666Y0063981D01*
X0075670Y0063926D01*
X0075670Y0063870D01*
X0075666Y0063815D01*
X0075658Y0063760D01*
X0075646Y0063706D01*
X0075631Y0063652D01*
X0075611Y0063600D01*
X0075589Y0063549D01*
X0075562Y0063500D01*
X0075533Y0063454D01*
X0075500Y0063409D01*
X0075463Y0063367D01*
X0075425Y0063327D01*
X0075383Y0063290D01*
X0075339Y0063256D01*
X0075292Y0063226D01*
X0075244Y0063199D01*
X0075194Y0063175D01*
X0075142Y0063155D01*
X0075089Y0063138D01*
X0075035Y0063126D01*
X0074980Y0063117D01*
X0074925Y0063112D01*
X0074869Y0063111D01*
X0074814Y0063114D01*
X0074759Y0063121D01*
X0074704Y0063132D01*
X0074650Y0063146D01*
X0074598Y0063164D01*
X0074547Y0063186D01*
X0074498Y0063212D01*
X0074450Y0063241D01*
X0074405Y0063273D01*
X0074362Y0063308D01*
X0074322Y0063346D01*
X0074284Y0063387D01*
X0074250Y0063431D01*
X0074218Y0063477D01*
X0074190Y0063525D01*
X0074166Y0063575D01*
X0074145Y0063626D01*
X0074127Y0063679D01*
X0074114Y0063733D01*
X0074104Y0063787D01*
X0074098Y0063842D01*
X0074096Y0063898D01*
X0033923Y0102867D02*
X0033923Y0104135D01*
X0033606Y0104452D01*
X0032972Y0104452D01*
X0032655Y0104135D01*
X0032655Y0103818D01*
X0032972Y0103501D01*
X0033923Y0103501D01*
X0033923Y0102867D02*
X0033606Y0102550D01*
X0032972Y0102550D01*
X0032655Y0102867D01*
X0031713Y0102867D02*
X0031713Y0103184D01*
X0031396Y0103501D01*
X0030762Y0103501D01*
X0030445Y0103818D01*
X0030445Y0104135D01*
X0030762Y0104452D01*
X0031396Y0104452D01*
X0031713Y0104135D01*
X0031079Y0104769D02*
X0031079Y0102233D01*
X0031396Y0102550D02*
X0031713Y0102867D01*
X0031396Y0102550D02*
X0030762Y0102550D01*
X0030445Y0102867D01*
X0029503Y0102867D02*
X0029503Y0104452D01*
X0028235Y0104452D02*
X0028235Y0102867D01*
X0028552Y0102550D01*
X0029186Y0102550D01*
X0029503Y0102867D01*
X0041867Y0119550D02*
X0042184Y0119550D01*
X0042501Y0119867D01*
X0042501Y0121452D01*
X0042184Y0121452D02*
X0042818Y0121452D01*
X0043760Y0121135D02*
X0044077Y0121452D01*
X0044711Y0121452D01*
X0045028Y0121135D01*
X0045028Y0120818D01*
X0044711Y0120501D01*
X0045028Y0120184D01*
X0045028Y0119867D01*
X0044711Y0119550D01*
X0044077Y0119550D01*
X0043760Y0119867D01*
X0044394Y0120501D02*
X0044711Y0120501D01*
X0041867Y0119550D02*
X0041550Y0119867D01*
X0169548Y0099974D02*
X0170182Y0099340D01*
X0169548Y0099974D02*
X0171450Y0099974D01*
X0171450Y0099340D02*
X0171450Y0100608D01*
X0169548Y0098398D02*
X0169548Y0097764D01*
X0169548Y0098081D02*
X0171133Y0098081D01*
X0171450Y0097764D01*
X0171450Y0097447D01*
X0171133Y0097130D01*
X0206148Y0091606D02*
X0206148Y0090972D01*
X0206465Y0090655D01*
X0206465Y0089713D02*
X0206148Y0089396D01*
X0206148Y0088762D01*
X0206465Y0088445D01*
X0206782Y0088445D01*
X0207099Y0088762D01*
X0207099Y0089396D01*
X0207416Y0089713D01*
X0207733Y0089713D01*
X0208050Y0089396D01*
X0208050Y0088762D01*
X0207733Y0088445D01*
X0208367Y0089079D02*
X0205831Y0089079D01*
X0206148Y0087503D02*
X0207733Y0087503D01*
X0208050Y0087186D01*
X0208050Y0086552D01*
X0207733Y0086235D01*
X0206148Y0086235D01*
X0208050Y0090655D02*
X0206782Y0091923D01*
X0206465Y0091923D01*
X0206148Y0091606D01*
X0208050Y0091923D02*
X0208050Y0090655D01*
D14*
X0146150Y0054351D02*
X0145533Y0054968D01*
X0144916Y0054968D01*
X0144298Y0054351D01*
X0144298Y0053734D01*
X0144298Y0054351D02*
X0143681Y0054968D01*
X0143064Y0054968D01*
X0142447Y0054351D01*
X0142447Y0053117D01*
X0143064Y0052499D01*
X0143064Y0051285D02*
X0142447Y0050668D01*
X0142447Y0049433D01*
X0143064Y0048816D01*
X0143064Y0047602D02*
X0142447Y0046985D01*
X0142447Y0045750D01*
X0143064Y0045133D01*
X0143681Y0045133D01*
X0144298Y0045750D01*
X0144298Y0046985D01*
X0144916Y0047602D01*
X0145533Y0047602D01*
X0146150Y0046985D01*
X0146150Y0045750D01*
X0145533Y0045133D01*
X0145533Y0043919D02*
X0142447Y0043919D01*
X0145533Y0043919D02*
X0146150Y0043302D01*
X0146150Y0042067D01*
X0145533Y0041450D01*
X0142447Y0041450D01*
X0141830Y0046368D02*
X0146767Y0046368D01*
X0146150Y0048816D02*
X0143681Y0051285D01*
X0143064Y0051285D01*
X0145533Y0052499D02*
X0146150Y0053117D01*
X0146150Y0054351D01*
X0146150Y0051285D02*
X0146150Y0048816D01*
X0120126Y0044775D02*
X0118913Y0045989D01*
X0117700Y0045989D01*
X0116486Y0044775D01*
X0118306Y0043577D02*
X0118306Y0041150D01*
X0116486Y0039947D02*
X0117700Y0038733D01*
X0118913Y0038733D01*
X0120126Y0039947D01*
X0118913Y0067080D02*
X0117700Y0067080D01*
X0116486Y0068293D01*
X0118306Y0069497D02*
X0118306Y0071923D01*
X0117093Y0070710D02*
X0119520Y0070710D01*
X0120126Y0073122D02*
X0118913Y0074335D01*
X0117700Y0074335D01*
X0116486Y0073122D01*
X0120126Y0068293D02*
X0118913Y0067080D01*
X0089965Y0071883D02*
X0088064Y0071883D01*
X0089014Y0071883D02*
X0089014Y0074735D01*
X0088064Y0073784D01*
X0087065Y0073784D02*
X0087065Y0074260D01*
X0086590Y0074735D01*
X0085639Y0074735D01*
X0085164Y0074260D01*
X0084165Y0074260D02*
X0083690Y0074735D01*
X0082739Y0074735D01*
X0082263Y0074260D01*
X0082263Y0073784D01*
X0082739Y0073309D01*
X0083690Y0073309D01*
X0084165Y0072834D01*
X0084165Y0072358D01*
X0083690Y0071883D01*
X0082739Y0071883D01*
X0082263Y0072358D01*
X0081265Y0072358D02*
X0081265Y0074735D01*
X0079363Y0074735D02*
X0079363Y0072358D01*
X0079839Y0071883D01*
X0080789Y0071883D01*
X0081265Y0072358D01*
X0083214Y0071408D02*
X0083214Y0075210D01*
X0085164Y0071883D02*
X0087065Y0073784D01*
X0087065Y0071883D02*
X0085164Y0071883D01*
X0067369Y0080917D02*
X0066893Y0080442D01*
X0065943Y0080442D01*
X0065467Y0080917D01*
X0065467Y0081868D02*
X0066418Y0082343D01*
X0066893Y0082343D01*
X0067369Y0081868D01*
X0067369Y0080917D01*
X0065467Y0081868D02*
X0065467Y0083294D01*
X0067369Y0083294D01*
X0064468Y0082819D02*
X0063993Y0083294D01*
X0063042Y0083294D01*
X0062567Y0082819D01*
X0061568Y0082819D02*
X0061093Y0083294D01*
X0060142Y0083294D01*
X0059667Y0082819D01*
X0059667Y0082343D01*
X0060142Y0081868D01*
X0061093Y0081868D01*
X0061568Y0081393D01*
X0061568Y0080917D01*
X0061093Y0080442D01*
X0060142Y0080442D01*
X0059667Y0080917D01*
X0058668Y0080917D02*
X0058668Y0083294D01*
X0056767Y0083294D02*
X0056767Y0080917D01*
X0057242Y0080442D01*
X0058193Y0080442D01*
X0058668Y0080917D01*
X0060618Y0079967D02*
X0060618Y0083770D01*
X0062567Y0080442D02*
X0064468Y0082343D01*
X0064468Y0082819D01*
X0064468Y0080442D02*
X0062567Y0080442D01*
D15*
X0151300Y0028800D02*
X0153800Y0031300D01*
X0158800Y0031300D01*
X0151300Y0028800D02*
X0151300Y0023800D01*
X0153800Y0021300D01*
X0158800Y0021300D01*
X0181300Y0018800D02*
X0181300Y0033800D01*
X0181300Y0048800D02*
X0181300Y0063800D01*
X0181300Y0078800D02*
X0181300Y0093800D01*
D16*
X0180971Y0078491D02*
X0181691Y0079031D01*
X0181690Y0079030D02*
X0181871Y0078797D01*
X0182057Y0078569D01*
X0182249Y0078345D01*
X0182446Y0078126D01*
X0182648Y0077912D01*
X0182856Y0077703D01*
X0183069Y0077500D01*
X0183286Y0077301D01*
X0183509Y0077108D01*
X0183736Y0076920D01*
X0183967Y0076738D01*
X0184203Y0076561D01*
X0184444Y0076391D01*
X0184688Y0076226D01*
X0184936Y0076068D01*
X0185188Y0075915D01*
X0185444Y0075769D01*
X0185703Y0075629D01*
X0185966Y0075495D01*
X0186231Y0075368D01*
X0186500Y0075247D01*
X0186772Y0075133D01*
X0187046Y0075026D01*
X0187323Y0074925D01*
X0187602Y0074831D01*
X0187884Y0074744D01*
X0188167Y0074664D01*
X0188453Y0074591D01*
X0188740Y0074525D01*
X0189029Y0074466D01*
X0189319Y0074414D01*
X0189610Y0074369D01*
X0189902Y0074331D01*
X0190195Y0074301D01*
X0190489Y0074277D01*
X0190783Y0074261D01*
X0191077Y0074252D01*
X0191372Y0074250D01*
X0191667Y0074256D01*
X0191961Y0074268D01*
X0192255Y0074288D01*
X0192548Y0074315D01*
X0192841Y0074349D01*
X0193133Y0074390D01*
X0193423Y0074439D01*
X0193713Y0074494D01*
X0194000Y0074556D01*
X0194287Y0074626D01*
X0194571Y0074703D01*
X0194854Y0074786D01*
X0195134Y0074876D01*
X0195412Y0074973D01*
X0195688Y0075077D01*
X0195961Y0075188D01*
X0196231Y0075305D01*
X0196499Y0075429D01*
X0196763Y0075559D01*
X0197024Y0075696D01*
X0197281Y0075839D01*
X0197535Y0075989D01*
X0197786Y0076144D01*
X0198032Y0076306D01*
X0198274Y0076473D01*
X0198512Y0076647D01*
X0198746Y0076826D01*
X0198976Y0077011D01*
X0199200Y0077201D01*
X0199421Y0077397D01*
X0199636Y0077598D01*
X0199846Y0077805D01*
X0200051Y0078016D01*
X0200251Y0078233D01*
X0200446Y0078454D01*
X0200635Y0078680D01*
X0200818Y0078910D01*
X0200996Y0079145D01*
X0201168Y0079385D01*
X0201334Y0079628D01*
X0201494Y0079875D01*
X0201648Y0080126D01*
X0201796Y0080381D01*
X0201938Y0080640D01*
X0202073Y0080901D01*
X0202202Y0081166D01*
X0202324Y0081434D01*
X0202440Y0081705D01*
X0202549Y0081979D01*
X0202651Y0082255D01*
X0202746Y0082534D01*
X0202835Y0082815D01*
X0202917Y0083098D01*
X0202992Y0083383D01*
X0203059Y0083670D01*
X0203120Y0083958D01*
X0203174Y0084248D01*
X0203221Y0084539D01*
X0203260Y0084831D01*
X0203292Y0085123D01*
X0203318Y0085417D01*
X0203336Y0085711D01*
X0203346Y0086005D01*
X0203350Y0086300D01*
X0203346Y0086595D01*
X0203336Y0086889D01*
X0203318Y0087183D01*
X0203292Y0087477D01*
X0203260Y0087769D01*
X0203221Y0088061D01*
X0203174Y0088352D01*
X0203120Y0088642D01*
X0203059Y0088930D01*
X0202992Y0089217D01*
X0202917Y0089502D01*
X0202835Y0089785D01*
X0202746Y0090066D01*
X0202651Y0090345D01*
X0202549Y0090621D01*
X0202440Y0090895D01*
X0202324Y0091166D01*
X0202202Y0091434D01*
X0202073Y0091699D01*
X0201938Y0091960D01*
X0201796Y0092219D01*
X0201648Y0092474D01*
X0201494Y0092725D01*
X0201334Y0092972D01*
X0201168Y0093215D01*
X0200996Y0093455D01*
X0200818Y0093690D01*
X0200635Y0093920D01*
X0200446Y0094146D01*
X0200251Y0094367D01*
X0200051Y0094584D01*
X0199846Y0094795D01*
X0199636Y0095002D01*
X0199421Y0095203D01*
X0199200Y0095399D01*
X0198976Y0095589D01*
X0198746Y0095774D01*
X0198512Y0095953D01*
X0198274Y0096127D01*
X0198032Y0096294D01*
X0197786Y0096456D01*
X0197535Y0096611D01*
X0197281Y0096761D01*
X0197024Y0096904D01*
X0196763Y0097041D01*
X0196499Y0097171D01*
X0196231Y0097295D01*
X0195961Y0097412D01*
X0195688Y0097523D01*
X0195412Y0097627D01*
X0195134Y0097724D01*
X0194854Y0097814D01*
X0194571Y0097897D01*
X0194287Y0097974D01*
X0194000Y0098044D01*
X0193713Y0098106D01*
X0193423Y0098161D01*
X0193133Y0098210D01*
X0192841Y0098251D01*
X0192548Y0098285D01*
X0192255Y0098312D01*
X0191961Y0098332D01*
X0191667Y0098344D01*
X0191372Y0098350D01*
X0191077Y0098348D01*
X0190783Y0098339D01*
X0190489Y0098323D01*
X0190195Y0098299D01*
X0189902Y0098269D01*
X0189610Y0098231D01*
X0189319Y0098186D01*
X0189029Y0098134D01*
X0188740Y0098075D01*
X0188453Y0098009D01*
X0188167Y0097936D01*
X0187884Y0097856D01*
X0187602Y0097769D01*
X0187323Y0097675D01*
X0187046Y0097574D01*
X0186772Y0097467D01*
X0186500Y0097353D01*
X0186231Y0097232D01*
X0185966Y0097105D01*
X0185703Y0096971D01*
X0185444Y0096831D01*
X0185188Y0096685D01*
X0184936Y0096532D01*
X0184688Y0096374D01*
X0184444Y0096209D01*
X0184203Y0096039D01*
X0183967Y0095862D01*
X0183736Y0095680D01*
X0183509Y0095492D01*
X0183286Y0095299D01*
X0183069Y0095100D01*
X0182856Y0094897D01*
X0182648Y0094688D01*
X0182446Y0094474D01*
X0182249Y0094255D01*
X0182057Y0094031D01*
X0181871Y0093803D01*
X0181690Y0093570D01*
X0180971Y0094109D01*
X0180970Y0094110D01*
X0181164Y0094360D01*
X0181364Y0094606D01*
X0181570Y0094846D01*
X0181782Y0095081D01*
X0182000Y0095311D01*
X0182223Y0095536D01*
X0182451Y0095755D01*
X0182685Y0095969D01*
X0182924Y0096177D01*
X0183168Y0096379D01*
X0183417Y0096574D01*
X0183671Y0096764D01*
X0183929Y0096947D01*
X0184191Y0097124D01*
X0184458Y0097295D01*
X0184729Y0097459D01*
X0185004Y0097616D01*
X0185282Y0097767D01*
X0185565Y0097911D01*
X0185850Y0098047D01*
X0186139Y0098177D01*
X0186431Y0098300D01*
X0186726Y0098415D01*
X0187023Y0098523D01*
X0187324Y0098624D01*
X0187626Y0098718D01*
X0187931Y0098804D01*
X0188238Y0098883D01*
X0188546Y0098954D01*
X0188856Y0099017D01*
X0189168Y0099073D01*
X0189481Y0099122D01*
X0189795Y0099162D01*
X0190110Y0099195D01*
X0190426Y0099220D01*
X0190742Y0099238D01*
X0191058Y0099248D01*
X0191375Y0099250D01*
X0191692Y0099244D01*
X0192008Y0099231D01*
X0192324Y0099209D01*
X0192639Y0099181D01*
X0192954Y0099144D01*
X0193267Y0099100D01*
X0193580Y0099048D01*
X0193891Y0098988D01*
X0194200Y0098921D01*
X0194508Y0098846D01*
X0194814Y0098764D01*
X0195117Y0098675D01*
X0195419Y0098578D01*
X0195718Y0098473D01*
X0196014Y0098361D01*
X0196308Y0098243D01*
X0196598Y0098117D01*
X0196885Y0097984D01*
X0197170Y0097843D01*
X0197450Y0097696D01*
X0197727Y0097543D01*
X0198000Y0097382D01*
X0198269Y0097215D01*
X0198534Y0097041D01*
X0198794Y0096861D01*
X0199050Y0096675D01*
X0199301Y0096482D01*
X0199548Y0096284D01*
X0199790Y0096079D01*
X0200026Y0095869D01*
X0200258Y0095652D01*
X0200483Y0095430D01*
X0200704Y0095203D01*
X0200919Y0094971D01*
X0201128Y0094733D01*
X0201331Y0094490D01*
X0201529Y0094242D01*
X0201720Y0093990D01*
X0201905Y0093733D01*
X0202083Y0093471D01*
X0202255Y0093205D01*
X0202421Y0092936D01*
X0202580Y0092662D01*
X0202732Y0092384D01*
X0202877Y0092103D01*
X0203016Y0091818D01*
X0203147Y0091530D01*
X0203271Y0091238D01*
X0203389Y0090944D01*
X0203499Y0090647D01*
X0203601Y0090348D01*
X0203696Y0090046D01*
X0203784Y0089742D01*
X0203865Y0089435D01*
X0203938Y0089127D01*
X0204003Y0088817D01*
X0204061Y0088506D01*
X0204111Y0088193D01*
X0204153Y0087879D01*
X0204188Y0087565D01*
X0204215Y0087249D01*
X0204235Y0086933D01*
X0204246Y0086617D01*
X0204250Y0086300D01*
X0204246Y0085983D01*
X0204235Y0085667D01*
X0204215Y0085351D01*
X0204188Y0085035D01*
X0204153Y0084721D01*
X0204111Y0084407D01*
X0204061Y0084094D01*
X0204003Y0083783D01*
X0203938Y0083473D01*
X0203865Y0083165D01*
X0203784Y0082858D01*
X0203696Y0082554D01*
X0203601Y0082252D01*
X0203499Y0081953D01*
X0203389Y0081656D01*
X0203271Y0081362D01*
X0203147Y0081070D01*
X0203016Y0080782D01*
X0202877Y0080497D01*
X0202732Y0080216D01*
X0202580Y0079938D01*
X0202421Y0079664D01*
X0202255Y0079395D01*
X0202083Y0079129D01*
X0201905Y0078867D01*
X0201720Y0078610D01*
X0201529Y0078358D01*
X0201331Y0078110D01*
X0201128Y0077867D01*
X0200919Y0077629D01*
X0200704Y0077397D01*
X0200483Y0077170D01*
X0200258Y0076948D01*
X0200026Y0076731D01*
X0199790Y0076521D01*
X0199548Y0076316D01*
X0199301Y0076118D01*
X0199050Y0075925D01*
X0198794Y0075739D01*
X0198534Y0075559D01*
X0198269Y0075385D01*
X0198000Y0075218D01*
X0197727Y0075057D01*
X0197450Y0074904D01*
X0197170Y0074757D01*
X0196885Y0074616D01*
X0196598Y0074483D01*
X0196308Y0074357D01*
X0196014Y0074239D01*
X0195718Y0074127D01*
X0195419Y0074022D01*
X0195117Y0073925D01*
X0194814Y0073836D01*
X0194508Y0073754D01*
X0194200Y0073679D01*
X0193891Y0073612D01*
X0193580Y0073552D01*
X0193267Y0073500D01*
X0192954Y0073456D01*
X0192639Y0073419D01*
X0192324Y0073391D01*
X0192008Y0073369D01*
X0191692Y0073356D01*
X0191375Y0073350D01*
X0191058Y0073352D01*
X0190742Y0073362D01*
X0190426Y0073380D01*
X0190110Y0073405D01*
X0189795Y0073438D01*
X0189481Y0073478D01*
X0189168Y0073527D01*
X0188856Y0073583D01*
X0188546Y0073646D01*
X0188238Y0073717D01*
X0187931Y0073796D01*
X0187626Y0073882D01*
X0187324Y0073976D01*
X0187023Y0074077D01*
X0186726Y0074185D01*
X0186431Y0074300D01*
X0186139Y0074423D01*
X0185850Y0074553D01*
X0185565Y0074689D01*
X0185282Y0074833D01*
X0185004Y0074984D01*
X0184729Y0075141D01*
X0184458Y0075305D01*
X0184191Y0075476D01*
X0183929Y0075653D01*
X0183671Y0075836D01*
X0183417Y0076026D01*
X0183168Y0076221D01*
X0182924Y0076423D01*
X0182685Y0076631D01*
X0182451Y0076845D01*
X0182223Y0077064D01*
X0182000Y0077289D01*
X0181782Y0077519D01*
X0181570Y0077754D01*
X0181364Y0077994D01*
X0181164Y0078240D01*
X0180970Y0078490D01*
X0181045Y0078546D01*
X0181238Y0078298D01*
X0181437Y0078054D01*
X0181641Y0077816D01*
X0181851Y0077582D01*
X0182067Y0077354D01*
X0182289Y0077131D01*
X0182516Y0076913D01*
X0182748Y0076701D01*
X0182985Y0076495D01*
X0183227Y0076294D01*
X0183475Y0076100D01*
X0183726Y0075912D01*
X0183983Y0075730D01*
X0184243Y0075554D01*
X0184508Y0075385D01*
X0184777Y0075222D01*
X0185050Y0075066D01*
X0185326Y0074916D01*
X0185606Y0074774D01*
X0185890Y0074638D01*
X0186177Y0074509D01*
X0186467Y0074387D01*
X0186759Y0074273D01*
X0187055Y0074165D01*
X0187353Y0074065D01*
X0187653Y0073972D01*
X0187956Y0073887D01*
X0188260Y0073809D01*
X0188566Y0073738D01*
X0188874Y0073675D01*
X0189184Y0073619D01*
X0189494Y0073571D01*
X0189806Y0073531D01*
X0190119Y0073498D01*
X0190432Y0073473D01*
X0190746Y0073456D01*
X0191060Y0073446D01*
X0191375Y0073444D01*
X0191689Y0073450D01*
X0192003Y0073463D01*
X0192317Y0073484D01*
X0192630Y0073513D01*
X0192942Y0073549D01*
X0193253Y0073593D01*
X0193563Y0073645D01*
X0193872Y0073704D01*
X0194179Y0073771D01*
X0194485Y0073845D01*
X0194788Y0073926D01*
X0195090Y0074015D01*
X0195389Y0074112D01*
X0195686Y0074215D01*
X0195980Y0074326D01*
X0196271Y0074444D01*
X0196560Y0074569D01*
X0196845Y0074701D01*
X0197127Y0074840D01*
X0197405Y0074986D01*
X0197680Y0075139D01*
X0197951Y0075298D01*
X0198218Y0075464D01*
X0198481Y0075637D01*
X0198740Y0075815D01*
X0198994Y0076000D01*
X0199243Y0076192D01*
X0199488Y0076389D01*
X0199728Y0076592D01*
X0199963Y0076801D01*
X0200193Y0077016D01*
X0200417Y0077236D01*
X0200636Y0077461D01*
X0200849Y0077692D01*
X0201057Y0077928D01*
X0201259Y0078170D01*
X0201454Y0078415D01*
X0201644Y0078666D01*
X0201828Y0078921D01*
X0202005Y0079181D01*
X0202176Y0079445D01*
X0202340Y0079713D01*
X0202498Y0079985D01*
X0202649Y0080260D01*
X0202793Y0080540D01*
X0202931Y0080822D01*
X0203061Y0081108D01*
X0203185Y0081397D01*
X0203301Y0081690D01*
X0203410Y0081984D01*
X0203512Y0082282D01*
X0203606Y0082581D01*
X0203694Y0082884D01*
X0203774Y0083188D01*
X0203846Y0083493D01*
X0203911Y0083801D01*
X0203968Y0084110D01*
X0204018Y0084421D01*
X0204060Y0084732D01*
X0204095Y0085045D01*
X0204121Y0085358D01*
X0204141Y0085672D01*
X0204152Y0085986D01*
X0204156Y0086300D01*
X0204152Y0086614D01*
X0204141Y0086928D01*
X0204121Y0087242D01*
X0204095Y0087555D01*
X0204060Y0087868D01*
X0204018Y0088179D01*
X0203968Y0088490D01*
X0203911Y0088799D01*
X0203846Y0089107D01*
X0203774Y0089412D01*
X0203694Y0089716D01*
X0203606Y0090019D01*
X0203512Y0090318D01*
X0203410Y0090616D01*
X0203301Y0090910D01*
X0203185Y0091203D01*
X0203061Y0091492D01*
X0202931Y0091778D01*
X0202793Y0092060D01*
X0202649Y0092340D01*
X0202498Y0092615D01*
X0202340Y0092887D01*
X0202176Y0093155D01*
X0202005Y0093419D01*
X0201828Y0093679D01*
X0201644Y0093934D01*
X0201454Y0094185D01*
X0201259Y0094430D01*
X0201057Y0094672D01*
X0200849Y0094908D01*
X0200636Y0095139D01*
X0200417Y0095364D01*
X0200193Y0095584D01*
X0199963Y0095799D01*
X0199728Y0096008D01*
X0199488Y0096211D01*
X0199243Y0096408D01*
X0198994Y0096600D01*
X0198740Y0096785D01*
X0198481Y0096963D01*
X0198218Y0097136D01*
X0197951Y0097302D01*
X0197680Y0097461D01*
X0197405Y0097614D01*
X0197127Y0097760D01*
X0196845Y0097899D01*
X0196560Y0098031D01*
X0196271Y0098156D01*
X0195980Y0098274D01*
X0195686Y0098385D01*
X0195389Y0098488D01*
X0195090Y0098585D01*
X0194788Y0098674D01*
X0194485Y0098755D01*
X0194179Y0098829D01*
X0193872Y0098896D01*
X0193563Y0098955D01*
X0193253Y0099007D01*
X0192942Y0099051D01*
X0192630Y0099087D01*
X0192317Y0099116D01*
X0192003Y0099137D01*
X0191689Y0099150D01*
X0191375Y0099156D01*
X0191060Y0099154D01*
X0190746Y0099144D01*
X0190432Y0099127D01*
X0190119Y0099102D01*
X0189806Y0099069D01*
X0189494Y0099029D01*
X0189184Y0098981D01*
X0188874Y0098925D01*
X0188566Y0098862D01*
X0188260Y0098791D01*
X0187956Y0098713D01*
X0187653Y0098628D01*
X0187353Y0098535D01*
X0187055Y0098435D01*
X0186759Y0098327D01*
X0186467Y0098213D01*
X0186177Y0098091D01*
X0185890Y0097962D01*
X0185606Y0097826D01*
X0185326Y0097684D01*
X0185050Y0097534D01*
X0184777Y0097378D01*
X0184508Y0097215D01*
X0184243Y0097046D01*
X0183983Y0096870D01*
X0183726Y0096688D01*
X0183475Y0096500D01*
X0183227Y0096306D01*
X0182985Y0096105D01*
X0182748Y0095899D01*
X0182516Y0095687D01*
X0182289Y0095469D01*
X0182067Y0095246D01*
X0181851Y0095018D01*
X0181641Y0094784D01*
X0181437Y0094546D01*
X0181238Y0094302D01*
X0181045Y0094054D01*
X0181120Y0093997D01*
X0181312Y0094244D01*
X0181509Y0094486D01*
X0181712Y0094723D01*
X0181921Y0094954D01*
X0182135Y0095181D01*
X0182355Y0095403D01*
X0182580Y0095619D01*
X0182811Y0095829D01*
X0183046Y0096034D01*
X0183287Y0096233D01*
X0183532Y0096426D01*
X0183782Y0096612D01*
X0184036Y0096793D01*
X0184295Y0096968D01*
X0184558Y0097136D01*
X0184825Y0097297D01*
X0185096Y0097452D01*
X0185370Y0097601D01*
X0185648Y0097742D01*
X0185930Y0097877D01*
X0186214Y0098005D01*
X0186502Y0098126D01*
X0186793Y0098240D01*
X0187086Y0098346D01*
X0187382Y0098446D01*
X0187680Y0098538D01*
X0187980Y0098623D01*
X0188283Y0098700D01*
X0188587Y0098770D01*
X0188892Y0098833D01*
X0189199Y0098888D01*
X0189508Y0098936D01*
X0189817Y0098976D01*
X0190128Y0099008D01*
X0190439Y0099033D01*
X0190750Y0099050D01*
X0191062Y0099060D01*
X0191374Y0099062D01*
X0191686Y0099056D01*
X0191998Y0099043D01*
X0192309Y0099022D01*
X0192620Y0098994D01*
X0192930Y0098957D01*
X0193239Y0098914D01*
X0193547Y0098863D01*
X0193854Y0098804D01*
X0194158Y0098738D01*
X0194462Y0098664D01*
X0194763Y0098583D01*
X0195062Y0098495D01*
X0195359Y0098399D01*
X0195654Y0098296D01*
X0195946Y0098186D01*
X0196235Y0098069D01*
X0196522Y0097945D01*
X0196805Y0097814D01*
X0197085Y0097676D01*
X0197361Y0097531D01*
X0197634Y0097379D01*
X0197903Y0097221D01*
X0198168Y0097056D01*
X0198429Y0096885D01*
X0198685Y0096708D01*
X0198938Y0096524D01*
X0199185Y0096334D01*
X0199428Y0096139D01*
X0199667Y0095937D01*
X0199900Y0095729D01*
X0200128Y0095516D01*
X0200350Y0095298D01*
X0200568Y0095074D01*
X0200779Y0094845D01*
X0200985Y0094610D01*
X0201186Y0094371D01*
X0201380Y0094127D01*
X0201568Y0093878D01*
X0201751Y0093625D01*
X0201927Y0093367D01*
X0202096Y0093105D01*
X0202259Y0092839D01*
X0202416Y0092569D01*
X0202566Y0092295D01*
X0202709Y0092018D01*
X0202846Y0091738D01*
X0202975Y0091454D01*
X0203098Y0091167D01*
X0203213Y0090877D01*
X0203321Y0090584D01*
X0203423Y0090289D01*
X0203517Y0089991D01*
X0203603Y0089691D01*
X0203682Y0089390D01*
X0203754Y0089086D01*
X0203819Y0088781D01*
X0203876Y0088474D01*
X0203925Y0088166D01*
X0203967Y0087856D01*
X0204001Y0087546D01*
X0204028Y0087235D01*
X0204047Y0086924D01*
X0204058Y0086612D01*
X0204062Y0086300D01*
X0204058Y0085988D01*
X0204047Y0085676D01*
X0204028Y0085365D01*
X0204001Y0085054D01*
X0203967Y0084744D01*
X0203925Y0084434D01*
X0203876Y0084126D01*
X0203819Y0083819D01*
X0203754Y0083514D01*
X0203682Y0083210D01*
X0203603Y0082909D01*
X0203517Y0082609D01*
X0203423Y0082311D01*
X0203321Y0082016D01*
X0203213Y0081723D01*
X0203098Y0081433D01*
X0202975Y0081146D01*
X0202846Y0080862D01*
X0202709Y0080582D01*
X0202566Y0080305D01*
X0202416Y0080031D01*
X0202259Y0079761D01*
X0202096Y0079495D01*
X0201927Y0079233D01*
X0201751Y0078975D01*
X0201568Y0078722D01*
X0201380Y0078473D01*
X0201186Y0078229D01*
X0200985Y0077990D01*
X0200779Y0077755D01*
X0200568Y0077526D01*
X0200350Y0077302D01*
X0200128Y0077084D01*
X0199900Y0076871D01*
X0199667Y0076663D01*
X0199428Y0076461D01*
X0199185Y0076266D01*
X0198938Y0076076D01*
X0198685Y0075892D01*
X0198429Y0075715D01*
X0198168Y0075544D01*
X0197903Y0075379D01*
X0197634Y0075221D01*
X0197361Y0075069D01*
X0197085Y0074924D01*
X0196805Y0074786D01*
X0196522Y0074655D01*
X0196235Y0074531D01*
X0195946Y0074414D01*
X0195654Y0074304D01*
X0195359Y0074201D01*
X0195062Y0074105D01*
X0194763Y0074017D01*
X0194462Y0073936D01*
X0194158Y0073862D01*
X0193854Y0073796D01*
X0193547Y0073737D01*
X0193239Y0073686D01*
X0192930Y0073643D01*
X0192620Y0073606D01*
X0192309Y0073578D01*
X0191998Y0073557D01*
X0191686Y0073544D01*
X0191374Y0073538D01*
X0191062Y0073540D01*
X0190750Y0073550D01*
X0190439Y0073567D01*
X0190128Y0073592D01*
X0189817Y0073624D01*
X0189508Y0073664D01*
X0189199Y0073712D01*
X0188892Y0073767D01*
X0188587Y0073830D01*
X0188283Y0073900D01*
X0187980Y0073977D01*
X0187680Y0074062D01*
X0187382Y0074154D01*
X0187086Y0074254D01*
X0186793Y0074360D01*
X0186502Y0074474D01*
X0186214Y0074595D01*
X0185930Y0074723D01*
X0185648Y0074858D01*
X0185370Y0074999D01*
X0185096Y0075148D01*
X0184825Y0075303D01*
X0184558Y0075464D01*
X0184295Y0075632D01*
X0184036Y0075807D01*
X0183782Y0075988D01*
X0183532Y0076174D01*
X0183287Y0076367D01*
X0183046Y0076566D01*
X0182811Y0076771D01*
X0182580Y0076981D01*
X0182355Y0077197D01*
X0182135Y0077419D01*
X0181921Y0077646D01*
X0181712Y0077877D01*
X0181509Y0078114D01*
X0181312Y0078356D01*
X0181120Y0078603D01*
X0181196Y0078659D01*
X0181386Y0078414D01*
X0181581Y0078174D01*
X0181783Y0077939D01*
X0181990Y0077709D01*
X0182203Y0077484D01*
X0182421Y0077264D01*
X0182645Y0077050D01*
X0182874Y0076841D01*
X0183107Y0076638D01*
X0183346Y0076440D01*
X0183589Y0076249D01*
X0183838Y0076063D01*
X0184090Y0075884D01*
X0184347Y0075711D01*
X0184608Y0075544D01*
X0184873Y0075383D01*
X0185142Y0075230D01*
X0185414Y0075082D01*
X0185690Y0074942D01*
X0185970Y0074808D01*
X0186252Y0074681D01*
X0186538Y0074561D01*
X0186826Y0074448D01*
X0187117Y0074342D01*
X0187411Y0074244D01*
X0187707Y0074152D01*
X0188005Y0074068D01*
X0188305Y0073991D01*
X0188607Y0073922D01*
X0188910Y0073859D01*
X0189215Y0073805D01*
X0189521Y0073757D01*
X0189829Y0073718D01*
X0190137Y0073686D01*
X0190445Y0073661D01*
X0190755Y0073644D01*
X0191064Y0073634D01*
X0191374Y0073632D01*
X0191684Y0073638D01*
X0191993Y0073651D01*
X0192302Y0073672D01*
X0192611Y0073700D01*
X0192918Y0073736D01*
X0193225Y0073779D01*
X0193531Y0073830D01*
X0193835Y0073888D01*
X0194138Y0073954D01*
X0194439Y0074027D01*
X0194738Y0074107D01*
X0195035Y0074195D01*
X0195330Y0074290D01*
X0195622Y0074392D01*
X0195912Y0074501D01*
X0196199Y0074618D01*
X0196483Y0074741D01*
X0196764Y0074871D01*
X0197042Y0075008D01*
X0197316Y0075152D01*
X0197587Y0075302D01*
X0197854Y0075459D01*
X0198117Y0075623D01*
X0198376Y0075793D01*
X0198631Y0075969D01*
X0198882Y0076151D01*
X0199127Y0076340D01*
X0199369Y0076534D01*
X0199605Y0076734D01*
X0199836Y0076940D01*
X0200063Y0077152D01*
X0200284Y0077369D01*
X0200499Y0077591D01*
X0200710Y0077818D01*
X0200914Y0078051D01*
X0201113Y0078289D01*
X0201306Y0078531D01*
X0201493Y0078778D01*
X0201674Y0079029D01*
X0201848Y0079285D01*
X0202017Y0079545D01*
X0202179Y0079809D01*
X0202334Y0080077D01*
X0202483Y0080349D01*
X0202625Y0080624D01*
X0202761Y0080903D01*
X0202889Y0081184D01*
X0203011Y0081469D01*
X0203125Y0081757D01*
X0203233Y0082048D01*
X0203333Y0082341D01*
X0203427Y0082636D01*
X0203513Y0082934D01*
X0203591Y0083233D01*
X0203662Y0083535D01*
X0203726Y0083838D01*
X0203783Y0084142D01*
X0203832Y0084448D01*
X0203873Y0084755D01*
X0203907Y0085063D01*
X0203934Y0085372D01*
X0203953Y0085681D01*
X0203964Y0085990D01*
X0203968Y0086300D01*
X0203964Y0086610D01*
X0203953Y0086919D01*
X0203934Y0087228D01*
X0203907Y0087537D01*
X0203873Y0087845D01*
X0203832Y0088152D01*
X0203783Y0088458D01*
X0203726Y0088762D01*
X0203662Y0089065D01*
X0203591Y0089367D01*
X0203513Y0089666D01*
X0203427Y0089964D01*
X0203333Y0090259D01*
X0203233Y0090552D01*
X0203125Y0090843D01*
X0203011Y0091131D01*
X0202889Y0091416D01*
X0202761Y0091697D01*
X0202625Y0091976D01*
X0202483Y0092251D01*
X0202334Y0092523D01*
X0202179Y0092791D01*
X0202017Y0093055D01*
X0201848Y0093315D01*
X0201674Y0093571D01*
X0201493Y0093822D01*
X0201306Y0094069D01*
X0201113Y0094311D01*
X0200914Y0094549D01*
X0200710Y0094782D01*
X0200499Y0095009D01*
X0200284Y0095231D01*
X0200063Y0095448D01*
X0199836Y0095660D01*
X0199605Y0095866D01*
X0199369Y0096066D01*
X0199127Y0096260D01*
X0198882Y0096449D01*
X0198631Y0096631D01*
X0198376Y0096807D01*
X0198117Y0096977D01*
X0197854Y0097141D01*
X0197587Y0097298D01*
X0197316Y0097448D01*
X0197042Y0097592D01*
X0196764Y0097729D01*
X0196483Y0097859D01*
X0196199Y0097982D01*
X0195912Y0098099D01*
X0195622Y0098208D01*
X0195330Y0098310D01*
X0195035Y0098405D01*
X0194738Y0098493D01*
X0194439Y0098573D01*
X0194138Y0098646D01*
X0193835Y0098712D01*
X0193531Y0098770D01*
X0193225Y0098821D01*
X0192918Y0098864D01*
X0192611Y0098900D01*
X0192302Y0098928D01*
X0191993Y0098949D01*
X0191684Y0098962D01*
X0191374Y0098968D01*
X0191064Y0098966D01*
X0190755Y0098956D01*
X0190445Y0098939D01*
X0190137Y0098914D01*
X0189829Y0098882D01*
X0189521Y0098843D01*
X0189215Y0098795D01*
X0188910Y0098741D01*
X0188607Y0098678D01*
X0188305Y0098609D01*
X0188005Y0098532D01*
X0187707Y0098448D01*
X0187411Y0098356D01*
X0187117Y0098258D01*
X0186826Y0098152D01*
X0186538Y0098039D01*
X0186252Y0097919D01*
X0185970Y0097792D01*
X0185690Y0097658D01*
X0185414Y0097518D01*
X0185142Y0097370D01*
X0184873Y0097217D01*
X0184608Y0097056D01*
X0184347Y0096889D01*
X0184090Y0096716D01*
X0183838Y0096537D01*
X0183589Y0096351D01*
X0183346Y0096160D01*
X0183107Y0095962D01*
X0182874Y0095759D01*
X0182645Y0095550D01*
X0182421Y0095336D01*
X0182203Y0095116D01*
X0181990Y0094891D01*
X0181783Y0094661D01*
X0181581Y0094426D01*
X0181386Y0094186D01*
X0181196Y0093941D01*
X0181271Y0093884D01*
X0181459Y0094127D01*
X0181654Y0094366D01*
X0181854Y0094599D01*
X0182059Y0094827D01*
X0182271Y0095051D01*
X0182487Y0095269D01*
X0182709Y0095482D01*
X0182936Y0095689D01*
X0183168Y0095891D01*
X0183405Y0096087D01*
X0183647Y0096277D01*
X0183893Y0096461D01*
X0184144Y0096639D01*
X0184399Y0096811D01*
X0184658Y0096976D01*
X0184921Y0097136D01*
X0185188Y0097288D01*
X0185458Y0097435D01*
X0185732Y0097574D01*
X0186009Y0097707D01*
X0186290Y0097833D01*
X0186573Y0097952D01*
X0186860Y0098064D01*
X0187149Y0098169D01*
X0187440Y0098267D01*
X0187734Y0098358D01*
X0188030Y0098441D01*
X0188327Y0098518D01*
X0188627Y0098587D01*
X0188928Y0098648D01*
X0189231Y0098703D01*
X0189535Y0098749D01*
X0189840Y0098789D01*
X0190145Y0098821D01*
X0190452Y0098845D01*
X0190759Y0098862D01*
X0191066Y0098872D01*
X0191374Y0098874D01*
X0191681Y0098868D01*
X0191988Y0098855D01*
X0192295Y0098835D01*
X0192601Y0098806D01*
X0192907Y0098771D01*
X0193211Y0098728D01*
X0193514Y0098677D01*
X0193816Y0098620D01*
X0194117Y0098554D01*
X0194416Y0098482D01*
X0194712Y0098402D01*
X0195007Y0098315D01*
X0195300Y0098221D01*
X0195590Y0098119D01*
X0195878Y0098011D01*
X0196163Y0097896D01*
X0196445Y0097773D01*
X0196724Y0097644D01*
X0197000Y0097508D01*
X0197272Y0097365D01*
X0197541Y0097216D01*
X0197806Y0097060D01*
X0198067Y0096898D01*
X0198324Y0096729D01*
X0198577Y0096554D01*
X0198825Y0096373D01*
X0199069Y0096186D01*
X0199309Y0095993D01*
X0199543Y0095795D01*
X0199773Y0095590D01*
X0199998Y0095380D01*
X0200217Y0095165D01*
X0200431Y0094944D01*
X0200640Y0094719D01*
X0200843Y0094488D01*
X0201040Y0094252D01*
X0201232Y0094011D01*
X0201417Y0093766D01*
X0201597Y0093517D01*
X0201770Y0093263D01*
X0201937Y0093005D01*
X0202098Y0092743D01*
X0202252Y0092477D01*
X0202400Y0092207D01*
X0202541Y0091934D01*
X0202676Y0091657D01*
X0202803Y0091378D01*
X0202924Y0091095D01*
X0203038Y0090809D01*
X0203144Y0090521D01*
X0203244Y0090230D01*
X0203337Y0089937D01*
X0203422Y0089641D01*
X0203500Y0089344D01*
X0203571Y0089045D01*
X0203634Y0088744D01*
X0203690Y0088442D01*
X0203739Y0088138D01*
X0203780Y0087833D01*
X0203814Y0087528D01*
X0203840Y0087222D01*
X0203859Y0086915D01*
X0203870Y0086607D01*
X0203874Y0086300D01*
X0203870Y0085993D01*
X0203859Y0085685D01*
X0203840Y0085378D01*
X0203814Y0085072D01*
X0203780Y0084767D01*
X0203739Y0084462D01*
X0203690Y0084158D01*
X0203634Y0083856D01*
X0203571Y0083555D01*
X0203500Y0083256D01*
X0203422Y0082959D01*
X0203337Y0082663D01*
X0203244Y0082370D01*
X0203144Y0082079D01*
X0203038Y0081791D01*
X0202924Y0081505D01*
X0202803Y0081222D01*
X0202676Y0080943D01*
X0202541Y0080666D01*
X0202400Y0080393D01*
X0202252Y0080123D01*
X0202098Y0079857D01*
X0201937Y0079595D01*
X0201770Y0079337D01*
X0201597Y0079083D01*
X0201417Y0078834D01*
X0201232Y0078589D01*
X0201040Y0078348D01*
X0200843Y0078112D01*
X0200640Y0077881D01*
X0200431Y0077656D01*
X0200217Y0077435D01*
X0199998Y0077220D01*
X0199773Y0077010D01*
X0199543Y0076805D01*
X0199309Y0076607D01*
X0199069Y0076414D01*
X0198825Y0076227D01*
X0198577Y0076046D01*
X0198324Y0075871D01*
X0198067Y0075702D01*
X0197806Y0075540D01*
X0197541Y0075384D01*
X0197272Y0075235D01*
X0197000Y0075092D01*
X0196724Y0074956D01*
X0196445Y0074827D01*
X0196163Y0074704D01*
X0195878Y0074589D01*
X0195590Y0074481D01*
X0195300Y0074379D01*
X0195007Y0074285D01*
X0194712Y0074198D01*
X0194416Y0074118D01*
X0194117Y0074046D01*
X0193816Y0073980D01*
X0193514Y0073923D01*
X0193211Y0073872D01*
X0192907Y0073829D01*
X0192601Y0073794D01*
X0192295Y0073765D01*
X0191988Y0073745D01*
X0191681Y0073732D01*
X0191374Y0073726D01*
X0191066Y0073728D01*
X0190759Y0073738D01*
X0190452Y0073755D01*
X0190145Y0073779D01*
X0189840Y0073811D01*
X0189535Y0073851D01*
X0189231Y0073897D01*
X0188928Y0073952D01*
X0188627Y0074013D01*
X0188327Y0074082D01*
X0188030Y0074159D01*
X0187734Y0074242D01*
X0187440Y0074333D01*
X0187149Y0074431D01*
X0186860Y0074536D01*
X0186573Y0074648D01*
X0186290Y0074767D01*
X0186009Y0074893D01*
X0185732Y0075026D01*
X0185458Y0075165D01*
X0185188Y0075312D01*
X0184921Y0075464D01*
X0184658Y0075624D01*
X0184399Y0075789D01*
X0184144Y0075961D01*
X0183893Y0076139D01*
X0183647Y0076323D01*
X0183405Y0076513D01*
X0183168Y0076709D01*
X0182936Y0076911D01*
X0182709Y0077118D01*
X0182487Y0077331D01*
X0182271Y0077549D01*
X0182059Y0077773D01*
X0181854Y0078001D01*
X0181654Y0078234D01*
X0181459Y0078473D01*
X0181271Y0078716D01*
X0181346Y0078772D01*
X0181533Y0078531D01*
X0181726Y0078294D01*
X0181925Y0078063D01*
X0182129Y0077836D01*
X0182338Y0077614D01*
X0182553Y0077398D01*
X0182774Y0077187D01*
X0182999Y0076981D01*
X0183229Y0076781D01*
X0183465Y0076586D01*
X0183704Y0076398D01*
X0183949Y0076215D01*
X0184198Y0076038D01*
X0184451Y0075868D01*
X0184708Y0075703D01*
X0184969Y0075545D01*
X0185234Y0075394D01*
X0185502Y0075249D01*
X0185774Y0075110D01*
X0186049Y0074978D01*
X0186328Y0074853D01*
X0186609Y0074735D01*
X0186893Y0074624D01*
X0187180Y0074520D01*
X0187469Y0074422D01*
X0187761Y0074332D01*
X0188054Y0074249D01*
X0188350Y0074174D01*
X0188647Y0074105D01*
X0188946Y0074044D01*
X0189247Y0073990D01*
X0189548Y0073944D01*
X0189851Y0073904D01*
X0190154Y0073873D01*
X0190459Y0073848D01*
X0190763Y0073832D01*
X0191068Y0073822D01*
X0191373Y0073820D01*
X0191678Y0073826D01*
X0191983Y0073839D01*
X0192288Y0073859D01*
X0192592Y0073887D01*
X0192895Y0073922D01*
X0193197Y0073965D01*
X0193498Y0074015D01*
X0193798Y0074072D01*
X0194096Y0074137D01*
X0194392Y0074209D01*
X0194687Y0074288D01*
X0194980Y0074375D01*
X0195270Y0074468D01*
X0195558Y0074569D01*
X0195844Y0074677D01*
X0196127Y0074791D01*
X0196407Y0074913D01*
X0196684Y0075041D01*
X0196957Y0075176D01*
X0197227Y0075317D01*
X0197494Y0075466D01*
X0197757Y0075620D01*
X0198016Y0075781D01*
X0198272Y0075949D01*
X0198523Y0076122D01*
X0198769Y0076302D01*
X0199011Y0076488D01*
X0199249Y0076679D01*
X0199482Y0076876D01*
X0199710Y0077079D01*
X0199933Y0077288D01*
X0200151Y0077501D01*
X0200363Y0077720D01*
X0200570Y0077944D01*
X0200772Y0078174D01*
X0200968Y0078408D01*
X0201158Y0078646D01*
X0201342Y0078890D01*
X0201520Y0079137D01*
X0201692Y0079389D01*
X0201858Y0079646D01*
X0202017Y0079906D01*
X0202171Y0080170D01*
X0202317Y0080437D01*
X0202457Y0080708D01*
X0202591Y0080983D01*
X0202717Y0081260D01*
X0202837Y0081541D01*
X0202950Y0081825D01*
X0203056Y0082111D01*
X0203155Y0082399D01*
X0203247Y0082690D01*
X0203331Y0082984D01*
X0203409Y0083279D01*
X0203479Y0083576D01*
X0203542Y0083874D01*
X0203598Y0084174D01*
X0203646Y0084476D01*
X0203687Y0084778D01*
X0203720Y0085081D01*
X0203746Y0085385D01*
X0203765Y0085690D01*
X0203776Y0085995D01*
X0203780Y0086300D01*
X0203776Y0086605D01*
X0203765Y0086910D01*
X0203746Y0087215D01*
X0203720Y0087519D01*
X0203687Y0087822D01*
X0203646Y0088124D01*
X0203598Y0088426D01*
X0203542Y0088726D01*
X0203479Y0089024D01*
X0203409Y0089321D01*
X0203331Y0089616D01*
X0203247Y0089910D01*
X0203155Y0090201D01*
X0203056Y0090489D01*
X0202950Y0090775D01*
X0202837Y0091059D01*
X0202717Y0091340D01*
X0202591Y0091617D01*
X0202457Y0091892D01*
X0202317Y0092163D01*
X0202171Y0092430D01*
X0202017Y0092694D01*
X0201858Y0092954D01*
X0201692Y0093211D01*
X0201520Y0093463D01*
X0201342Y0093710D01*
X0201158Y0093954D01*
X0200968Y0094192D01*
X0200772Y0094426D01*
X0200570Y0094656D01*
X0200363Y0094880D01*
X0200151Y0095099D01*
X0199933Y0095312D01*
X0199710Y0095521D01*
X0199482Y0095724D01*
X0199249Y0095921D01*
X0199011Y0096112D01*
X0198769Y0096298D01*
X0198523Y0096478D01*
X0198272Y0096651D01*
X0198016Y0096819D01*
X0197757Y0096980D01*
X0197494Y0097134D01*
X0197227Y0097283D01*
X0196957Y0097424D01*
X0196684Y0097559D01*
X0196407Y0097687D01*
X0196127Y0097809D01*
X0195844Y0097923D01*
X0195558Y0098031D01*
X0195270Y0098132D01*
X0194980Y0098225D01*
X0194687Y0098312D01*
X0194392Y0098391D01*
X0194096Y0098463D01*
X0193798Y0098528D01*
X0193498Y0098585D01*
X0193197Y0098635D01*
X0192895Y0098678D01*
X0192592Y0098713D01*
X0192288Y0098741D01*
X0191983Y0098761D01*
X0191678Y0098774D01*
X0191373Y0098780D01*
X0191068Y0098778D01*
X0190763Y0098768D01*
X0190459Y0098752D01*
X0190154Y0098727D01*
X0189851Y0098696D01*
X0189548Y0098656D01*
X0189247Y0098610D01*
X0188946Y0098556D01*
X0188647Y0098495D01*
X0188350Y0098426D01*
X0188054Y0098351D01*
X0187761Y0098268D01*
X0187469Y0098178D01*
X0187180Y0098080D01*
X0186893Y0097976D01*
X0186609Y0097865D01*
X0186328Y0097747D01*
X0186049Y0097622D01*
X0185774Y0097490D01*
X0185502Y0097351D01*
X0185234Y0097206D01*
X0184969Y0097055D01*
X0184708Y0096897D01*
X0184451Y0096732D01*
X0184198Y0096562D01*
X0183949Y0096385D01*
X0183704Y0096202D01*
X0183465Y0096014D01*
X0183229Y0095819D01*
X0182999Y0095619D01*
X0182774Y0095413D01*
X0182553Y0095202D01*
X0182338Y0094986D01*
X0182129Y0094764D01*
X0181925Y0094537D01*
X0181726Y0094306D01*
X0181533Y0094069D01*
X0181346Y0093828D01*
X0181421Y0093772D01*
X0181607Y0094011D01*
X0181798Y0094246D01*
X0181995Y0094475D01*
X0182198Y0094700D01*
X0182406Y0094921D01*
X0182620Y0095135D01*
X0182838Y0095345D01*
X0183062Y0095549D01*
X0183290Y0095748D01*
X0183524Y0095941D01*
X0183762Y0096128D01*
X0184004Y0096309D01*
X0184251Y0096485D01*
X0184502Y0096654D01*
X0184758Y0096817D01*
X0185017Y0096974D01*
X0185280Y0097124D01*
X0185546Y0097268D01*
X0185816Y0097406D01*
X0186089Y0097537D01*
X0186365Y0097661D01*
X0186645Y0097778D01*
X0186927Y0097888D01*
X0187211Y0097992D01*
X0187498Y0098088D01*
X0187788Y0098178D01*
X0188079Y0098260D01*
X0188372Y0098335D01*
X0188668Y0098403D01*
X0188964Y0098464D01*
X0189262Y0098517D01*
X0189562Y0098563D01*
X0189862Y0098602D01*
X0190163Y0098634D01*
X0190465Y0098658D01*
X0190768Y0098675D01*
X0191070Y0098684D01*
X0191373Y0098686D01*
X0191676Y0098680D01*
X0191978Y0098667D01*
X0192281Y0098647D01*
X0192582Y0098619D01*
X0192883Y0098584D01*
X0193183Y0098542D01*
X0193482Y0098492D01*
X0193779Y0098435D01*
X0194075Y0098371D01*
X0194369Y0098300D01*
X0194662Y0098221D01*
X0194952Y0098135D01*
X0195241Y0098042D01*
X0195526Y0097943D01*
X0195810Y0097836D01*
X0196090Y0097722D01*
X0196368Y0097602D01*
X0196643Y0097474D01*
X0196915Y0097340D01*
X0197183Y0097200D01*
X0197448Y0097053D01*
X0197709Y0096899D01*
X0197966Y0096739D01*
X0198219Y0096573D01*
X0198468Y0096401D01*
X0198713Y0096223D01*
X0198954Y0096038D01*
X0199189Y0095848D01*
X0199420Y0095653D01*
X0199647Y0095451D01*
X0199868Y0095245D01*
X0200084Y0095032D01*
X0200295Y0094815D01*
X0200500Y0094593D01*
X0200700Y0094365D01*
X0200895Y0094133D01*
X0201083Y0093896D01*
X0201266Y0093654D01*
X0201443Y0093409D01*
X0201614Y0093158D01*
X0201778Y0092904D01*
X0201937Y0092646D01*
X0202089Y0092384D01*
X0202234Y0092119D01*
X0202373Y0091850D01*
X0202506Y0091577D01*
X0202631Y0091302D01*
X0202750Y0091023D01*
X0202862Y0090742D01*
X0202967Y0090458D01*
X0203066Y0090171D01*
X0203157Y0089882D01*
X0203241Y0089591D01*
X0203318Y0089298D01*
X0203387Y0089004D01*
X0203450Y0088707D01*
X0203505Y0088410D01*
X0203553Y0088111D01*
X0203594Y0087811D01*
X0203627Y0087509D01*
X0203653Y0087208D01*
X0203671Y0086905D01*
X0203682Y0086603D01*
X0203686Y0086300D01*
X0203682Y0085997D01*
X0203671Y0085695D01*
X0203653Y0085392D01*
X0203627Y0085091D01*
X0203594Y0084789D01*
X0203553Y0084489D01*
X0203505Y0084190D01*
X0203450Y0083893D01*
X0203387Y0083596D01*
X0203318Y0083302D01*
X0203241Y0083009D01*
X0203157Y0082718D01*
X0203066Y0082429D01*
X0202967Y0082142D01*
X0202862Y0081858D01*
X0202750Y0081577D01*
X0202631Y0081298D01*
X0202506Y0081023D01*
X0202373Y0080750D01*
X0202234Y0080481D01*
X0202089Y0080216D01*
X0201937Y0079954D01*
X0201778Y0079696D01*
X0201614Y0079442D01*
X0201443Y0079191D01*
X0201266Y0078946D01*
X0201083Y0078704D01*
X0200895Y0078467D01*
X0200700Y0078235D01*
X0200500Y0078007D01*
X0200295Y0077785D01*
X0200084Y0077568D01*
X0199868Y0077355D01*
X0199647Y0077149D01*
X0199420Y0076947D01*
X0199189Y0076752D01*
X0198954Y0076562D01*
X0198713Y0076377D01*
X0198468Y0076199D01*
X0198219Y0076027D01*
X0197966Y0075861D01*
X0197709Y0075701D01*
X0197448Y0075547D01*
X0197183Y0075400D01*
X0196915Y0075260D01*
X0196643Y0075126D01*
X0196368Y0074998D01*
X0196090Y0074878D01*
X0195810Y0074764D01*
X0195526Y0074657D01*
X0195241Y0074558D01*
X0194952Y0074465D01*
X0194662Y0074379D01*
X0194369Y0074300D01*
X0194075Y0074229D01*
X0193779Y0074165D01*
X0193482Y0074108D01*
X0193183Y0074058D01*
X0192883Y0074016D01*
X0192582Y0073981D01*
X0192281Y0073953D01*
X0191978Y0073933D01*
X0191676Y0073920D01*
X0191373Y0073914D01*
X0191070Y0073916D01*
X0190768Y0073925D01*
X0190465Y0073942D01*
X0190163Y0073966D01*
X0189862Y0073998D01*
X0189562Y0074037D01*
X0189262Y0074083D01*
X0188964Y0074136D01*
X0188668Y0074197D01*
X0188372Y0074265D01*
X0188079Y0074340D01*
X0187788Y0074422D01*
X0187498Y0074512D01*
X0187211Y0074608D01*
X0186927Y0074712D01*
X0186645Y0074822D01*
X0186365Y0074939D01*
X0186089Y0075063D01*
X0185816Y0075194D01*
X0185546Y0075332D01*
X0185280Y0075476D01*
X0185017Y0075626D01*
X0184758Y0075783D01*
X0184502Y0075946D01*
X0184251Y0076115D01*
X0184004Y0076291D01*
X0183762Y0076472D01*
X0183524Y0076659D01*
X0183290Y0076852D01*
X0183062Y0077051D01*
X0182838Y0077255D01*
X0182620Y0077465D01*
X0182406Y0077679D01*
X0182198Y0077900D01*
X0181995Y0078125D01*
X0181798Y0078354D01*
X0181607Y0078589D01*
X0181421Y0078828D01*
X0181496Y0078885D01*
X0181681Y0078647D01*
X0181871Y0078415D01*
X0182066Y0078186D01*
X0182267Y0077963D01*
X0182474Y0077745D01*
X0182686Y0077531D01*
X0182903Y0077323D01*
X0183125Y0077121D01*
X0183352Y0076924D01*
X0183583Y0076732D01*
X0183819Y0076546D01*
X0184060Y0076366D01*
X0184305Y0076192D01*
X0184554Y0076024D01*
X0184808Y0075862D01*
X0185065Y0075707D01*
X0185326Y0075558D01*
X0185590Y0075415D01*
X0185858Y0075278D01*
X0186129Y0075149D01*
X0186403Y0075026D01*
X0186680Y0074909D01*
X0186960Y0074800D01*
X0187243Y0074697D01*
X0187527Y0074601D01*
X0187815Y0074513D01*
X0188104Y0074431D01*
X0188395Y0074356D01*
X0188688Y0074289D01*
X0188982Y0074228D01*
X0189278Y0074175D01*
X0189575Y0074130D01*
X0189873Y0074091D01*
X0190172Y0074060D01*
X0190472Y0074036D01*
X0190772Y0074019D01*
X0191072Y0074010D01*
X0191373Y0074008D01*
X0191673Y0074014D01*
X0191974Y0074026D01*
X0192273Y0074047D01*
X0192573Y0074074D01*
X0192871Y0074109D01*
X0193169Y0074151D01*
X0193465Y0074200D01*
X0193760Y0074257D01*
X0194054Y0074321D01*
X0194346Y0074391D01*
X0194636Y0074469D01*
X0194925Y0074555D01*
X0195211Y0074647D01*
X0195495Y0074746D01*
X0195776Y0074852D01*
X0196054Y0074965D01*
X0196330Y0075084D01*
X0196603Y0075211D01*
X0196872Y0075344D01*
X0197138Y0075483D01*
X0197401Y0075629D01*
X0197660Y0075781D01*
X0197916Y0075940D01*
X0198167Y0076105D01*
X0198414Y0076276D01*
X0198657Y0076453D01*
X0198896Y0076636D01*
X0199130Y0076824D01*
X0199359Y0077018D01*
X0199583Y0077218D01*
X0199803Y0077423D01*
X0200017Y0077634D01*
X0200227Y0077850D01*
X0200431Y0078070D01*
X0200629Y0078296D01*
X0200822Y0078527D01*
X0201009Y0078762D01*
X0201191Y0079001D01*
X0201366Y0079245D01*
X0201536Y0079494D01*
X0201699Y0079746D01*
X0201856Y0080002D01*
X0202007Y0080262D01*
X0202151Y0080526D01*
X0202289Y0080793D01*
X0202421Y0081063D01*
X0202545Y0081336D01*
X0202663Y0081613D01*
X0202774Y0081892D01*
X0202879Y0082174D01*
X0202976Y0082458D01*
X0203067Y0082745D01*
X0203150Y0083034D01*
X0203226Y0083324D01*
X0203296Y0083617D01*
X0203358Y0083911D01*
X0203412Y0084206D01*
X0203460Y0084503D01*
X0203500Y0084801D01*
X0203533Y0085100D01*
X0203559Y0085399D01*
X0203577Y0085699D01*
X0203588Y0085999D01*
X0203592Y0086300D01*
X0203588Y0086601D01*
X0203577Y0086901D01*
X0203559Y0087201D01*
X0203533Y0087500D01*
X0203500Y0087799D01*
X0203460Y0088097D01*
X0203412Y0088394D01*
X0203358Y0088689D01*
X0203296Y0088983D01*
X0203226Y0089276D01*
X0203150Y0089566D01*
X0203067Y0089855D01*
X0202976Y0090142D01*
X0202879Y0090426D01*
X0202774Y0090708D01*
X0202663Y0090987D01*
X0202545Y0091264D01*
X0202421Y0091537D01*
X0202289Y0091807D01*
X0202151Y0092074D01*
X0202007Y0092338D01*
X0201856Y0092598D01*
X0201699Y0092854D01*
X0201536Y0093106D01*
X0201366Y0093355D01*
X0201191Y0093599D01*
X0201009Y0093838D01*
X0200822Y0094073D01*
X0200629Y0094304D01*
X0200431Y0094530D01*
X0200227Y0094750D01*
X0200017Y0094966D01*
X0199803Y0095177D01*
X0199583Y0095382D01*
X0199359Y0095582D01*
X0199130Y0095776D01*
X0198896Y0095964D01*
X0198657Y0096147D01*
X0198414Y0096324D01*
X0198167Y0096495D01*
X0197916Y0096660D01*
X0197660Y0096819D01*
X0197401Y0096971D01*
X0197138Y0097117D01*
X0196872Y0097256D01*
X0196603Y0097389D01*
X0196330Y0097516D01*
X0196054Y0097635D01*
X0195776Y0097748D01*
X0195495Y0097854D01*
X0195211Y0097953D01*
X0194925Y0098045D01*
X0194636Y0098131D01*
X0194346Y0098209D01*
X0194054Y0098279D01*
X0193760Y0098343D01*
X0193465Y0098400D01*
X0193169Y0098449D01*
X0192871Y0098491D01*
X0192573Y0098526D01*
X0192273Y0098553D01*
X0191974Y0098574D01*
X0191673Y0098586D01*
X0191373Y0098592D01*
X0191072Y0098590D01*
X0190772Y0098581D01*
X0190472Y0098564D01*
X0190172Y0098540D01*
X0189873Y0098509D01*
X0189575Y0098470D01*
X0189278Y0098425D01*
X0188982Y0098372D01*
X0188688Y0098311D01*
X0188395Y0098244D01*
X0188104Y0098169D01*
X0187815Y0098087D01*
X0187527Y0097999D01*
X0187243Y0097903D01*
X0186960Y0097800D01*
X0186680Y0097691D01*
X0186403Y0097574D01*
X0186129Y0097451D01*
X0185858Y0097322D01*
X0185590Y0097185D01*
X0185326Y0097042D01*
X0185065Y0096893D01*
X0184808Y0096738D01*
X0184554Y0096576D01*
X0184305Y0096408D01*
X0184060Y0096234D01*
X0183819Y0096054D01*
X0183583Y0095868D01*
X0183352Y0095676D01*
X0183125Y0095479D01*
X0182903Y0095277D01*
X0182686Y0095069D01*
X0182474Y0094855D01*
X0182267Y0094637D01*
X0182066Y0094414D01*
X0181871Y0094185D01*
X0181681Y0093953D01*
X0181496Y0093715D01*
X0181572Y0093659D01*
X0181754Y0093894D01*
X0181943Y0094125D01*
X0182137Y0094352D01*
X0182337Y0094574D01*
X0182542Y0094790D01*
X0182752Y0095002D01*
X0182967Y0095208D01*
X0183187Y0095409D01*
X0183413Y0095605D01*
X0183642Y0095795D01*
X0183877Y0095979D01*
X0184116Y0096158D01*
X0184359Y0096331D01*
X0184606Y0096497D01*
X0184858Y0096658D01*
X0185113Y0096812D01*
X0185372Y0096960D01*
X0185634Y0097102D01*
X0185900Y0097237D01*
X0186169Y0097366D01*
X0186441Y0097488D01*
X0186716Y0097604D01*
X0186994Y0097713D01*
X0187274Y0097814D01*
X0187557Y0097909D01*
X0187842Y0097997D01*
X0188129Y0098078D01*
X0188417Y0098153D01*
X0188708Y0098219D01*
X0189000Y0098279D01*
X0189294Y0098332D01*
X0189589Y0098377D01*
X0189884Y0098416D01*
X0190181Y0098447D01*
X0190478Y0098470D01*
X0190776Y0098487D01*
X0191074Y0098496D01*
X0191372Y0098498D01*
X0191671Y0098492D01*
X0191969Y0098480D01*
X0192266Y0098460D01*
X0192563Y0098432D01*
X0192859Y0098398D01*
X0193155Y0098356D01*
X0193449Y0098307D01*
X0193742Y0098251D01*
X0194033Y0098188D01*
X0194323Y0098117D01*
X0194611Y0098040D01*
X0194897Y0097956D01*
X0195181Y0097864D01*
X0195463Y0097766D01*
X0195742Y0097661D01*
X0196018Y0097549D01*
X0196292Y0097430D01*
X0196562Y0097305D01*
X0196830Y0097173D01*
X0197094Y0097034D01*
X0197355Y0096889D01*
X0197612Y0096738D01*
X0197865Y0096581D01*
X0198114Y0096417D01*
X0198360Y0096247D01*
X0198601Y0096072D01*
X0198838Y0095890D01*
X0199070Y0095703D01*
X0199297Y0095511D01*
X0199520Y0095312D01*
X0199738Y0095109D01*
X0199951Y0094900D01*
X0200159Y0094686D01*
X0200361Y0094466D01*
X0200558Y0094243D01*
X0200749Y0094014D01*
X0200935Y0093780D01*
X0201115Y0093543D01*
X0201289Y0093301D01*
X0201457Y0093054D01*
X0201619Y0092804D01*
X0201775Y0092550D01*
X0201925Y0092292D01*
X0202068Y0092030D01*
X0202205Y0091765D01*
X0202336Y0091497D01*
X0202459Y0091226D01*
X0202576Y0090951D01*
X0202687Y0090674D01*
X0202790Y0090394D01*
X0202887Y0090112D01*
X0202977Y0089828D01*
X0203059Y0089541D01*
X0203135Y0089253D01*
X0203204Y0088963D01*
X0203265Y0088671D01*
X0203320Y0088378D01*
X0203367Y0088083D01*
X0203407Y0087788D01*
X0203440Y0087491D01*
X0203465Y0087194D01*
X0203483Y0086896D01*
X0203494Y0086598D01*
X0203498Y0086300D01*
X0203494Y0086002D01*
X0203483Y0085704D01*
X0203465Y0085406D01*
X0203440Y0085109D01*
X0203407Y0084812D01*
X0203367Y0084517D01*
X0203320Y0084222D01*
X0203265Y0083929D01*
X0203204Y0083637D01*
X0203135Y0083347D01*
X0203059Y0083059D01*
X0202977Y0082772D01*
X0202887Y0082488D01*
X0202790Y0082206D01*
X0202687Y0081926D01*
X0202576Y0081649D01*
X0202459Y0081374D01*
X0202336Y0081103D01*
X0202205Y0080835D01*
X0202068Y0080570D01*
X0201925Y0080308D01*
X0201775Y0080050D01*
X0201619Y0079796D01*
X0201457Y0079546D01*
X0201289Y0079299D01*
X0201115Y0079057D01*
X0200935Y0078820D01*
X0200749Y0078586D01*
X0200558Y0078357D01*
X0200361Y0078134D01*
X0200159Y0077914D01*
X0199951Y0077700D01*
X0199738Y0077491D01*
X0199520Y0077288D01*
X0199297Y0077089D01*
X0199070Y0076897D01*
X0198838Y0076710D01*
X0198601Y0076528D01*
X0198360Y0076353D01*
X0198114Y0076183D01*
X0197865Y0076019D01*
X0197612Y0075862D01*
X0197355Y0075711D01*
X0197094Y0075566D01*
X0196830Y0075427D01*
X0196562Y0075295D01*
X0196292Y0075170D01*
X0196018Y0075051D01*
X0195742Y0074939D01*
X0195463Y0074834D01*
X0195181Y0074736D01*
X0194897Y0074644D01*
X0194611Y0074560D01*
X0194323Y0074483D01*
X0194033Y0074412D01*
X0193742Y0074349D01*
X0193449Y0074293D01*
X0193155Y0074244D01*
X0192859Y0074202D01*
X0192563Y0074168D01*
X0192266Y0074140D01*
X0191969Y0074120D01*
X0191671Y0074108D01*
X0191372Y0074102D01*
X0191074Y0074104D01*
X0190776Y0074113D01*
X0190478Y0074130D01*
X0190181Y0074153D01*
X0189884Y0074184D01*
X0189589Y0074223D01*
X0189294Y0074268D01*
X0189000Y0074321D01*
X0188708Y0074381D01*
X0188417Y0074447D01*
X0188129Y0074522D01*
X0187842Y0074603D01*
X0187557Y0074691D01*
X0187274Y0074786D01*
X0186994Y0074887D01*
X0186716Y0074996D01*
X0186441Y0075112D01*
X0186169Y0075234D01*
X0185900Y0075363D01*
X0185634Y0075498D01*
X0185372Y0075640D01*
X0185113Y0075788D01*
X0184858Y0075942D01*
X0184606Y0076103D01*
X0184359Y0076269D01*
X0184116Y0076442D01*
X0183877Y0076621D01*
X0183642Y0076805D01*
X0183413Y0076995D01*
X0183187Y0077191D01*
X0182967Y0077392D01*
X0182752Y0077598D01*
X0182542Y0077810D01*
X0182337Y0078026D01*
X0182137Y0078248D01*
X0181943Y0078475D01*
X0181754Y0078706D01*
X0181572Y0078941D01*
X0181647Y0078998D01*
X0181828Y0078764D01*
X0182015Y0078535D01*
X0182208Y0078310D01*
X0182406Y0078090D01*
X0182609Y0077875D01*
X0182818Y0077665D01*
X0183032Y0077460D01*
X0183250Y0077261D01*
X0183474Y0077067D01*
X0183702Y0076878D01*
X0183934Y0076695D01*
X0184171Y0076518D01*
X0184413Y0076347D01*
X0184658Y0076181D01*
X0184907Y0076022D01*
X0185161Y0075869D01*
X0185417Y0075722D01*
X0185678Y0075581D01*
X0185942Y0075447D01*
X0186209Y0075319D01*
X0186479Y0075198D01*
X0186751Y0075083D01*
X0187027Y0074975D01*
X0187305Y0074874D01*
X0187586Y0074780D01*
X0187868Y0074693D01*
X0188153Y0074612D01*
X0188440Y0074539D01*
X0188728Y0074472D01*
X0189018Y0074413D01*
X0189310Y0074361D01*
X0189602Y0074316D01*
X0189896Y0074278D01*
X0190190Y0074247D01*
X0190485Y0074223D01*
X0190780Y0074207D01*
X0191076Y0074198D01*
X0191372Y0074196D01*
X0191668Y0074202D01*
X0191964Y0074214D01*
X0192259Y0074234D01*
X0192554Y0074261D01*
X0192848Y0074295D01*
X0193141Y0074337D01*
X0193433Y0074385D01*
X0193723Y0074441D01*
X0194012Y0074504D01*
X0194300Y0074574D01*
X0194586Y0074651D01*
X0194870Y0074734D01*
X0195151Y0074825D01*
X0195431Y0074923D01*
X0195708Y0075027D01*
X0195982Y0075138D01*
X0196253Y0075256D01*
X0196522Y0075380D01*
X0196787Y0075511D01*
X0197049Y0075649D01*
X0197308Y0075792D01*
X0197563Y0075942D01*
X0197815Y0076099D01*
X0198062Y0076261D01*
X0198305Y0076429D01*
X0198545Y0076604D01*
X0198780Y0076784D01*
X0199010Y0076969D01*
X0199236Y0077161D01*
X0199457Y0077357D01*
X0199673Y0077559D01*
X0199884Y0077767D01*
X0200090Y0077979D01*
X0200291Y0078197D01*
X0200487Y0078419D01*
X0200677Y0078646D01*
X0200861Y0078877D01*
X0201039Y0079113D01*
X0201212Y0079353D01*
X0201379Y0079598D01*
X0201540Y0079846D01*
X0201695Y0080099D01*
X0201843Y0080355D01*
X0201985Y0080614D01*
X0202121Y0080877D01*
X0202251Y0081143D01*
X0202373Y0081412D01*
X0202490Y0081685D01*
X0202599Y0081960D01*
X0202702Y0082237D01*
X0202798Y0082517D01*
X0202887Y0082799D01*
X0202969Y0083084D01*
X0203044Y0083370D01*
X0203112Y0083658D01*
X0203173Y0083947D01*
X0203227Y0084238D01*
X0203274Y0084531D01*
X0203314Y0084824D01*
X0203346Y0085118D01*
X0203371Y0085413D01*
X0203390Y0085708D01*
X0203400Y0086004D01*
X0203404Y0086300D01*
X0203400Y0086596D01*
X0203390Y0086892D01*
X0203371Y0087187D01*
X0203346Y0087482D01*
X0203314Y0087776D01*
X0203274Y0088069D01*
X0203227Y0088362D01*
X0203173Y0088653D01*
X0203112Y0088942D01*
X0203044Y0089230D01*
X0202969Y0089516D01*
X0202887Y0089801D01*
X0202798Y0090083D01*
X0202702Y0090363D01*
X0202599Y0090640D01*
X0202490Y0090915D01*
X0202373Y0091188D01*
X0202251Y0091457D01*
X0202121Y0091723D01*
X0201985Y0091986D01*
X0201843Y0092245D01*
X0201695Y0092501D01*
X0201540Y0092754D01*
X0201379Y0093002D01*
X0201212Y0093247D01*
X0201039Y0093487D01*
X0200861Y0093723D01*
X0200677Y0093954D01*
X0200487Y0094181D01*
X0200291Y0094403D01*
X0200090Y0094621D01*
X0199884Y0094833D01*
X0199673Y0095041D01*
X0199457Y0095243D01*
X0199236Y0095439D01*
X0199010Y0095631D01*
X0198780Y0095816D01*
X0198545Y0095996D01*
X0198305Y0096171D01*
X0198062Y0096339D01*
X0197815Y0096501D01*
X0197563Y0096658D01*
X0197308Y0096808D01*
X0197049Y0096951D01*
X0196787Y0097089D01*
X0196522Y0097220D01*
X0196253Y0097344D01*
X0195982Y0097462D01*
X0195708Y0097573D01*
X0195431Y0097677D01*
X0195151Y0097775D01*
X0194870Y0097866D01*
X0194586Y0097949D01*
X0194300Y0098026D01*
X0194012Y0098096D01*
X0193723Y0098159D01*
X0193433Y0098215D01*
X0193141Y0098263D01*
X0192848Y0098305D01*
X0192554Y0098339D01*
X0192259Y0098366D01*
X0191964Y0098386D01*
X0191668Y0098398D01*
X0191372Y0098404D01*
X0191076Y0098402D01*
X0190780Y0098393D01*
X0190485Y0098377D01*
X0190190Y0098353D01*
X0189896Y0098322D01*
X0189602Y0098284D01*
X0189310Y0098239D01*
X0189018Y0098187D01*
X0188728Y0098128D01*
X0188440Y0098061D01*
X0188153Y0097988D01*
X0187868Y0097907D01*
X0187586Y0097820D01*
X0187305Y0097726D01*
X0187027Y0097625D01*
X0186751Y0097517D01*
X0186479Y0097402D01*
X0186209Y0097281D01*
X0185942Y0097153D01*
X0185678Y0097019D01*
X0185417Y0096878D01*
X0185161Y0096731D01*
X0184907Y0096578D01*
X0184658Y0096419D01*
X0184413Y0096253D01*
X0184171Y0096082D01*
X0183934Y0095905D01*
X0183702Y0095722D01*
X0183474Y0095533D01*
X0183250Y0095339D01*
X0183032Y0095140D01*
X0182818Y0094935D01*
X0182609Y0094725D01*
X0182406Y0094510D01*
X0182208Y0094290D01*
X0182015Y0094065D01*
X0181828Y0093836D01*
X0181647Y0093602D01*
X0180971Y0048491D02*
X0181691Y0049031D01*
X0181690Y0049030D02*
X0181871Y0048797D01*
X0182057Y0048569D01*
X0182249Y0048345D01*
X0182446Y0048126D01*
X0182648Y0047912D01*
X0182856Y0047703D01*
X0183069Y0047500D01*
X0183286Y0047301D01*
X0183509Y0047108D01*
X0183736Y0046920D01*
X0183967Y0046738D01*
X0184203Y0046561D01*
X0184444Y0046391D01*
X0184688Y0046226D01*
X0184936Y0046068D01*
X0185188Y0045915D01*
X0185444Y0045769D01*
X0185703Y0045629D01*
X0185966Y0045495D01*
X0186231Y0045368D01*
X0186500Y0045247D01*
X0186772Y0045133D01*
X0187046Y0045026D01*
X0187323Y0044925D01*
X0187602Y0044831D01*
X0187884Y0044744D01*
X0188167Y0044664D01*
X0188453Y0044591D01*
X0188740Y0044525D01*
X0189029Y0044466D01*
X0189319Y0044414D01*
X0189610Y0044369D01*
X0189902Y0044331D01*
X0190195Y0044301D01*
X0190489Y0044277D01*
X0190783Y0044261D01*
X0191077Y0044252D01*
X0191372Y0044250D01*
X0191667Y0044256D01*
X0191961Y0044268D01*
X0192255Y0044288D01*
X0192548Y0044315D01*
X0192841Y0044349D01*
X0193133Y0044390D01*
X0193423Y0044439D01*
X0193713Y0044494D01*
X0194000Y0044556D01*
X0194287Y0044626D01*
X0194571Y0044703D01*
X0194854Y0044786D01*
X0195134Y0044876D01*
X0195412Y0044973D01*
X0195688Y0045077D01*
X0195961Y0045188D01*
X0196231Y0045305D01*
X0196499Y0045429D01*
X0196763Y0045559D01*
X0197024Y0045696D01*
X0197281Y0045839D01*
X0197535Y0045989D01*
X0197786Y0046144D01*
X0198032Y0046306D01*
X0198274Y0046473D01*
X0198512Y0046647D01*
X0198746Y0046826D01*
X0198976Y0047011D01*
X0199200Y0047201D01*
X0199421Y0047397D01*
X0199636Y0047598D01*
X0199846Y0047805D01*
X0200051Y0048016D01*
X0200251Y0048233D01*
X0200446Y0048454D01*
X0200635Y0048680D01*
X0200818Y0048910D01*
X0200996Y0049145D01*
X0201168Y0049385D01*
X0201334Y0049628D01*
X0201494Y0049875D01*
X0201648Y0050126D01*
X0201796Y0050381D01*
X0201938Y0050640D01*
X0202073Y0050901D01*
X0202202Y0051166D01*
X0202324Y0051434D01*
X0202440Y0051705D01*
X0202549Y0051979D01*
X0202651Y0052255D01*
X0202746Y0052534D01*
X0202835Y0052815D01*
X0202917Y0053098D01*
X0202992Y0053383D01*
X0203059Y0053670D01*
X0203120Y0053958D01*
X0203174Y0054248D01*
X0203221Y0054539D01*
X0203260Y0054831D01*
X0203292Y0055123D01*
X0203318Y0055417D01*
X0203336Y0055711D01*
X0203346Y0056005D01*
X0203350Y0056300D01*
X0203346Y0056595D01*
X0203336Y0056889D01*
X0203318Y0057183D01*
X0203292Y0057477D01*
X0203260Y0057769D01*
X0203221Y0058061D01*
X0203174Y0058352D01*
X0203120Y0058642D01*
X0203059Y0058930D01*
X0202992Y0059217D01*
X0202917Y0059502D01*
X0202835Y0059785D01*
X0202746Y0060066D01*
X0202651Y0060345D01*
X0202549Y0060621D01*
X0202440Y0060895D01*
X0202324Y0061166D01*
X0202202Y0061434D01*
X0202073Y0061699D01*
X0201938Y0061960D01*
X0201796Y0062219D01*
X0201648Y0062474D01*
X0201494Y0062725D01*
X0201334Y0062972D01*
X0201168Y0063215D01*
X0200996Y0063455D01*
X0200818Y0063690D01*
X0200635Y0063920D01*
X0200446Y0064146D01*
X0200251Y0064367D01*
X0200051Y0064584D01*
X0199846Y0064795D01*
X0199636Y0065002D01*
X0199421Y0065203D01*
X0199200Y0065399D01*
X0198976Y0065589D01*
X0198746Y0065774D01*
X0198512Y0065953D01*
X0198274Y0066127D01*
X0198032Y0066294D01*
X0197786Y0066456D01*
X0197535Y0066611D01*
X0197281Y0066761D01*
X0197024Y0066904D01*
X0196763Y0067041D01*
X0196499Y0067171D01*
X0196231Y0067295D01*
X0195961Y0067412D01*
X0195688Y0067523D01*
X0195412Y0067627D01*
X0195134Y0067724D01*
X0194854Y0067814D01*
X0194571Y0067897D01*
X0194287Y0067974D01*
X0194000Y0068044D01*
X0193713Y0068106D01*
X0193423Y0068161D01*
X0193133Y0068210D01*
X0192841Y0068251D01*
X0192548Y0068285D01*
X0192255Y0068312D01*
X0191961Y0068332D01*
X0191667Y0068344D01*
X0191372Y0068350D01*
X0191077Y0068348D01*
X0190783Y0068339D01*
X0190489Y0068323D01*
X0190195Y0068299D01*
X0189902Y0068269D01*
X0189610Y0068231D01*
X0189319Y0068186D01*
X0189029Y0068134D01*
X0188740Y0068075D01*
X0188453Y0068009D01*
X0188167Y0067936D01*
X0187884Y0067856D01*
X0187602Y0067769D01*
X0187323Y0067675D01*
X0187046Y0067574D01*
X0186772Y0067467D01*
X0186500Y0067353D01*
X0186231Y0067232D01*
X0185966Y0067105D01*
X0185703Y0066971D01*
X0185444Y0066831D01*
X0185188Y0066685D01*
X0184936Y0066532D01*
X0184688Y0066374D01*
X0184444Y0066209D01*
X0184203Y0066039D01*
X0183967Y0065862D01*
X0183736Y0065680D01*
X0183509Y0065492D01*
X0183286Y0065299D01*
X0183069Y0065100D01*
X0182856Y0064897D01*
X0182648Y0064688D01*
X0182446Y0064474D01*
X0182249Y0064255D01*
X0182057Y0064031D01*
X0181871Y0063803D01*
X0181690Y0063570D01*
X0180971Y0064109D01*
X0180970Y0064110D01*
X0181164Y0064360D01*
X0181364Y0064606D01*
X0181570Y0064846D01*
X0181782Y0065081D01*
X0182000Y0065311D01*
X0182223Y0065536D01*
X0182451Y0065755D01*
X0182685Y0065969D01*
X0182924Y0066177D01*
X0183168Y0066379D01*
X0183417Y0066574D01*
X0183671Y0066764D01*
X0183929Y0066947D01*
X0184191Y0067124D01*
X0184458Y0067295D01*
X0184729Y0067459D01*
X0185004Y0067616D01*
X0185282Y0067767D01*
X0185565Y0067911D01*
X0185850Y0068047D01*
X0186139Y0068177D01*
X0186431Y0068300D01*
X0186726Y0068415D01*
X0187023Y0068523D01*
X0187324Y0068624D01*
X0187626Y0068718D01*
X0187931Y0068804D01*
X0188238Y0068883D01*
X0188546Y0068954D01*
X0188856Y0069017D01*
X0189168Y0069073D01*
X0189481Y0069122D01*
X0189795Y0069162D01*
X0190110Y0069195D01*
X0190426Y0069220D01*
X0190742Y0069238D01*
X0191058Y0069248D01*
X0191375Y0069250D01*
X0191692Y0069244D01*
X0192008Y0069231D01*
X0192324Y0069209D01*
X0192639Y0069181D01*
X0192954Y0069144D01*
X0193267Y0069100D01*
X0193580Y0069048D01*
X0193891Y0068988D01*
X0194200Y0068921D01*
X0194508Y0068846D01*
X0194814Y0068764D01*
X0195117Y0068675D01*
X0195419Y0068578D01*
X0195718Y0068473D01*
X0196014Y0068361D01*
X0196308Y0068243D01*
X0196598Y0068117D01*
X0196885Y0067984D01*
X0197170Y0067843D01*
X0197450Y0067696D01*
X0197727Y0067543D01*
X0198000Y0067382D01*
X0198269Y0067215D01*
X0198534Y0067041D01*
X0198794Y0066861D01*
X0199050Y0066675D01*
X0199301Y0066482D01*
X0199548Y0066284D01*
X0199790Y0066079D01*
X0200026Y0065869D01*
X0200258Y0065652D01*
X0200483Y0065430D01*
X0200704Y0065203D01*
X0200919Y0064971D01*
X0201128Y0064733D01*
X0201331Y0064490D01*
X0201529Y0064242D01*
X0201720Y0063990D01*
X0201905Y0063733D01*
X0202083Y0063471D01*
X0202255Y0063205D01*
X0202421Y0062936D01*
X0202580Y0062662D01*
X0202732Y0062384D01*
X0202877Y0062103D01*
X0203016Y0061818D01*
X0203147Y0061530D01*
X0203271Y0061238D01*
X0203389Y0060944D01*
X0203499Y0060647D01*
X0203601Y0060348D01*
X0203696Y0060046D01*
X0203784Y0059742D01*
X0203865Y0059435D01*
X0203938Y0059127D01*
X0204003Y0058817D01*
X0204061Y0058506D01*
X0204111Y0058193D01*
X0204153Y0057879D01*
X0204188Y0057565D01*
X0204215Y0057249D01*
X0204235Y0056933D01*
X0204246Y0056617D01*
X0204250Y0056300D01*
X0204246Y0055983D01*
X0204235Y0055667D01*
X0204215Y0055351D01*
X0204188Y0055035D01*
X0204153Y0054721D01*
X0204111Y0054407D01*
X0204061Y0054094D01*
X0204003Y0053783D01*
X0203938Y0053473D01*
X0203865Y0053165D01*
X0203784Y0052858D01*
X0203696Y0052554D01*
X0203601Y0052252D01*
X0203499Y0051953D01*
X0203389Y0051656D01*
X0203271Y0051362D01*
X0203147Y0051070D01*
X0203016Y0050782D01*
X0202877Y0050497D01*
X0202732Y0050216D01*
X0202580Y0049938D01*
X0202421Y0049664D01*
X0202255Y0049395D01*
X0202083Y0049129D01*
X0201905Y0048867D01*
X0201720Y0048610D01*
X0201529Y0048358D01*
X0201331Y0048110D01*
X0201128Y0047867D01*
X0200919Y0047629D01*
X0200704Y0047397D01*
X0200483Y0047170D01*
X0200258Y0046948D01*
X0200026Y0046731D01*
X0199790Y0046521D01*
X0199548Y0046316D01*
X0199301Y0046118D01*
X0199050Y0045925D01*
X0198794Y0045739D01*
X0198534Y0045559D01*
X0198269Y0045385D01*
X0198000Y0045218D01*
X0197727Y0045057D01*
X0197450Y0044904D01*
X0197170Y0044757D01*
X0196885Y0044616D01*
X0196598Y0044483D01*
X0196308Y0044357D01*
X0196014Y0044239D01*
X0195718Y0044127D01*
X0195419Y0044022D01*
X0195117Y0043925D01*
X0194814Y0043836D01*
X0194508Y0043754D01*
X0194200Y0043679D01*
X0193891Y0043612D01*
X0193580Y0043552D01*
X0193267Y0043500D01*
X0192954Y0043456D01*
X0192639Y0043419D01*
X0192324Y0043391D01*
X0192008Y0043369D01*
X0191692Y0043356D01*
X0191375Y0043350D01*
X0191058Y0043352D01*
X0190742Y0043362D01*
X0190426Y0043380D01*
X0190110Y0043405D01*
X0189795Y0043438D01*
X0189481Y0043478D01*
X0189168Y0043527D01*
X0188856Y0043583D01*
X0188546Y0043646D01*
X0188238Y0043717D01*
X0187931Y0043796D01*
X0187626Y0043882D01*
X0187324Y0043976D01*
X0187023Y0044077D01*
X0186726Y0044185D01*
X0186431Y0044300D01*
X0186139Y0044423D01*
X0185850Y0044553D01*
X0185565Y0044689D01*
X0185282Y0044833D01*
X0185004Y0044984D01*
X0184729Y0045141D01*
X0184458Y0045305D01*
X0184191Y0045476D01*
X0183929Y0045653D01*
X0183671Y0045836D01*
X0183417Y0046026D01*
X0183168Y0046221D01*
X0182924Y0046423D01*
X0182685Y0046631D01*
X0182451Y0046845D01*
X0182223Y0047064D01*
X0182000Y0047289D01*
X0181782Y0047519D01*
X0181570Y0047754D01*
X0181364Y0047994D01*
X0181164Y0048240D01*
X0180970Y0048490D01*
X0181045Y0048546D01*
X0181238Y0048298D01*
X0181437Y0048054D01*
X0181641Y0047816D01*
X0181851Y0047582D01*
X0182067Y0047354D01*
X0182289Y0047131D01*
X0182516Y0046913D01*
X0182748Y0046701D01*
X0182985Y0046495D01*
X0183227Y0046294D01*
X0183475Y0046100D01*
X0183726Y0045912D01*
X0183983Y0045730D01*
X0184243Y0045554D01*
X0184508Y0045385D01*
X0184777Y0045222D01*
X0185050Y0045066D01*
X0185326Y0044916D01*
X0185606Y0044774D01*
X0185890Y0044638D01*
X0186177Y0044509D01*
X0186467Y0044387D01*
X0186759Y0044273D01*
X0187055Y0044165D01*
X0187353Y0044065D01*
X0187653Y0043972D01*
X0187956Y0043887D01*
X0188260Y0043809D01*
X0188566Y0043738D01*
X0188874Y0043675D01*
X0189184Y0043619D01*
X0189494Y0043571D01*
X0189806Y0043531D01*
X0190119Y0043498D01*
X0190432Y0043473D01*
X0190746Y0043456D01*
X0191060Y0043446D01*
X0191375Y0043444D01*
X0191689Y0043450D01*
X0192003Y0043463D01*
X0192317Y0043484D01*
X0192630Y0043513D01*
X0192942Y0043549D01*
X0193253Y0043593D01*
X0193563Y0043645D01*
X0193872Y0043704D01*
X0194179Y0043771D01*
X0194485Y0043845D01*
X0194788Y0043926D01*
X0195090Y0044015D01*
X0195389Y0044112D01*
X0195686Y0044215D01*
X0195980Y0044326D01*
X0196271Y0044444D01*
X0196560Y0044569D01*
X0196845Y0044701D01*
X0197127Y0044840D01*
X0197405Y0044986D01*
X0197680Y0045139D01*
X0197951Y0045298D01*
X0198218Y0045464D01*
X0198481Y0045637D01*
X0198740Y0045815D01*
X0198994Y0046000D01*
X0199243Y0046192D01*
X0199488Y0046389D01*
X0199728Y0046592D01*
X0199963Y0046801D01*
X0200193Y0047016D01*
X0200417Y0047236D01*
X0200636Y0047461D01*
X0200849Y0047692D01*
X0201057Y0047928D01*
X0201259Y0048170D01*
X0201454Y0048415D01*
X0201644Y0048666D01*
X0201828Y0048921D01*
X0202005Y0049181D01*
X0202176Y0049445D01*
X0202340Y0049713D01*
X0202498Y0049985D01*
X0202649Y0050260D01*
X0202793Y0050540D01*
X0202931Y0050822D01*
X0203061Y0051108D01*
X0203185Y0051397D01*
X0203301Y0051690D01*
X0203410Y0051984D01*
X0203512Y0052282D01*
X0203606Y0052581D01*
X0203694Y0052884D01*
X0203774Y0053188D01*
X0203846Y0053493D01*
X0203911Y0053801D01*
X0203968Y0054110D01*
X0204018Y0054421D01*
X0204060Y0054732D01*
X0204095Y0055045D01*
X0204121Y0055358D01*
X0204141Y0055672D01*
X0204152Y0055986D01*
X0204156Y0056300D01*
X0204152Y0056614D01*
X0204141Y0056928D01*
X0204121Y0057242D01*
X0204095Y0057555D01*
X0204060Y0057868D01*
X0204018Y0058179D01*
X0203968Y0058490D01*
X0203911Y0058799D01*
X0203846Y0059107D01*
X0203774Y0059412D01*
X0203694Y0059716D01*
X0203606Y0060019D01*
X0203512Y0060318D01*
X0203410Y0060616D01*
X0203301Y0060910D01*
X0203185Y0061203D01*
X0203061Y0061492D01*
X0202931Y0061778D01*
X0202793Y0062060D01*
X0202649Y0062340D01*
X0202498Y0062615D01*
X0202340Y0062887D01*
X0202176Y0063155D01*
X0202005Y0063419D01*
X0201828Y0063679D01*
X0201644Y0063934D01*
X0201454Y0064185D01*
X0201259Y0064430D01*
X0201057Y0064672D01*
X0200849Y0064908D01*
X0200636Y0065139D01*
X0200417Y0065364D01*
X0200193Y0065584D01*
X0199963Y0065799D01*
X0199728Y0066008D01*
X0199488Y0066211D01*
X0199243Y0066408D01*
X0198994Y0066600D01*
X0198740Y0066785D01*
X0198481Y0066963D01*
X0198218Y0067136D01*
X0197951Y0067302D01*
X0197680Y0067461D01*
X0197405Y0067614D01*
X0197127Y0067760D01*
X0196845Y0067899D01*
X0196560Y0068031D01*
X0196271Y0068156D01*
X0195980Y0068274D01*
X0195686Y0068385D01*
X0195389Y0068488D01*
X0195090Y0068585D01*
X0194788Y0068674D01*
X0194485Y0068755D01*
X0194179Y0068829D01*
X0193872Y0068896D01*
X0193563Y0068955D01*
X0193253Y0069007D01*
X0192942Y0069051D01*
X0192630Y0069087D01*
X0192317Y0069116D01*
X0192003Y0069137D01*
X0191689Y0069150D01*
X0191375Y0069156D01*
X0191060Y0069154D01*
X0190746Y0069144D01*
X0190432Y0069127D01*
X0190119Y0069102D01*
X0189806Y0069069D01*
X0189494Y0069029D01*
X0189184Y0068981D01*
X0188874Y0068925D01*
X0188566Y0068862D01*
X0188260Y0068791D01*
X0187956Y0068713D01*
X0187653Y0068628D01*
X0187353Y0068535D01*
X0187055Y0068435D01*
X0186759Y0068327D01*
X0186467Y0068213D01*
X0186177Y0068091D01*
X0185890Y0067962D01*
X0185606Y0067826D01*
X0185326Y0067684D01*
X0185050Y0067534D01*
X0184777Y0067378D01*
X0184508Y0067215D01*
X0184243Y0067046D01*
X0183983Y0066870D01*
X0183726Y0066688D01*
X0183475Y0066500D01*
X0183227Y0066306D01*
X0182985Y0066105D01*
X0182748Y0065899D01*
X0182516Y0065687D01*
X0182289Y0065469D01*
X0182067Y0065246D01*
X0181851Y0065018D01*
X0181641Y0064784D01*
X0181437Y0064546D01*
X0181238Y0064302D01*
X0181045Y0064054D01*
X0181120Y0063997D01*
X0181312Y0064244D01*
X0181509Y0064486D01*
X0181712Y0064723D01*
X0181921Y0064954D01*
X0182135Y0065181D01*
X0182355Y0065403D01*
X0182580Y0065619D01*
X0182811Y0065829D01*
X0183046Y0066034D01*
X0183287Y0066233D01*
X0183532Y0066426D01*
X0183782Y0066612D01*
X0184036Y0066793D01*
X0184295Y0066968D01*
X0184558Y0067136D01*
X0184825Y0067297D01*
X0185096Y0067452D01*
X0185370Y0067601D01*
X0185648Y0067742D01*
X0185930Y0067877D01*
X0186214Y0068005D01*
X0186502Y0068126D01*
X0186793Y0068240D01*
X0187086Y0068346D01*
X0187382Y0068446D01*
X0187680Y0068538D01*
X0187980Y0068623D01*
X0188283Y0068700D01*
X0188587Y0068770D01*
X0188892Y0068833D01*
X0189199Y0068888D01*
X0189508Y0068936D01*
X0189817Y0068976D01*
X0190128Y0069008D01*
X0190439Y0069033D01*
X0190750Y0069050D01*
X0191062Y0069060D01*
X0191374Y0069062D01*
X0191686Y0069056D01*
X0191998Y0069043D01*
X0192309Y0069022D01*
X0192620Y0068994D01*
X0192930Y0068957D01*
X0193239Y0068914D01*
X0193547Y0068863D01*
X0193854Y0068804D01*
X0194158Y0068738D01*
X0194462Y0068664D01*
X0194763Y0068583D01*
X0195062Y0068495D01*
X0195359Y0068399D01*
X0195654Y0068296D01*
X0195946Y0068186D01*
X0196235Y0068069D01*
X0196522Y0067945D01*
X0196805Y0067814D01*
X0197085Y0067676D01*
X0197361Y0067531D01*
X0197634Y0067379D01*
X0197903Y0067221D01*
X0198168Y0067056D01*
X0198429Y0066885D01*
X0198685Y0066708D01*
X0198938Y0066524D01*
X0199185Y0066334D01*
X0199428Y0066139D01*
X0199667Y0065937D01*
X0199900Y0065729D01*
X0200128Y0065516D01*
X0200350Y0065298D01*
X0200568Y0065074D01*
X0200779Y0064845D01*
X0200985Y0064610D01*
X0201186Y0064371D01*
X0201380Y0064127D01*
X0201568Y0063878D01*
X0201751Y0063625D01*
X0201927Y0063367D01*
X0202096Y0063105D01*
X0202259Y0062839D01*
X0202416Y0062569D01*
X0202566Y0062295D01*
X0202709Y0062018D01*
X0202846Y0061738D01*
X0202975Y0061454D01*
X0203098Y0061167D01*
X0203213Y0060877D01*
X0203321Y0060584D01*
X0203423Y0060289D01*
X0203517Y0059991D01*
X0203603Y0059691D01*
X0203682Y0059390D01*
X0203754Y0059086D01*
X0203819Y0058781D01*
X0203876Y0058474D01*
X0203925Y0058166D01*
X0203967Y0057856D01*
X0204001Y0057546D01*
X0204028Y0057235D01*
X0204047Y0056924D01*
X0204058Y0056612D01*
X0204062Y0056300D01*
X0204058Y0055988D01*
X0204047Y0055676D01*
X0204028Y0055365D01*
X0204001Y0055054D01*
X0203967Y0054744D01*
X0203925Y0054434D01*
X0203876Y0054126D01*
X0203819Y0053819D01*
X0203754Y0053514D01*
X0203682Y0053210D01*
X0203603Y0052909D01*
X0203517Y0052609D01*
X0203423Y0052311D01*
X0203321Y0052016D01*
X0203213Y0051723D01*
X0203098Y0051433D01*
X0202975Y0051146D01*
X0202846Y0050862D01*
X0202709Y0050582D01*
X0202566Y0050305D01*
X0202416Y0050031D01*
X0202259Y0049761D01*
X0202096Y0049495D01*
X0201927Y0049233D01*
X0201751Y0048975D01*
X0201568Y0048722D01*
X0201380Y0048473D01*
X0201186Y0048229D01*
X0200985Y0047990D01*
X0200779Y0047755D01*
X0200568Y0047526D01*
X0200350Y0047302D01*
X0200128Y0047084D01*
X0199900Y0046871D01*
X0199667Y0046663D01*
X0199428Y0046461D01*
X0199185Y0046266D01*
X0198938Y0046076D01*
X0198685Y0045892D01*
X0198429Y0045715D01*
X0198168Y0045544D01*
X0197903Y0045379D01*
X0197634Y0045221D01*
X0197361Y0045069D01*
X0197085Y0044924D01*
X0196805Y0044786D01*
X0196522Y0044655D01*
X0196235Y0044531D01*
X0195946Y0044414D01*
X0195654Y0044304D01*
X0195359Y0044201D01*
X0195062Y0044105D01*
X0194763Y0044017D01*
X0194462Y0043936D01*
X0194158Y0043862D01*
X0193854Y0043796D01*
X0193547Y0043737D01*
X0193239Y0043686D01*
X0192930Y0043643D01*
X0192620Y0043606D01*
X0192309Y0043578D01*
X0191998Y0043557D01*
X0191686Y0043544D01*
X0191374Y0043538D01*
X0191062Y0043540D01*
X0190750Y0043550D01*
X0190439Y0043567D01*
X0190128Y0043592D01*
X0189817Y0043624D01*
X0189508Y0043664D01*
X0189199Y0043712D01*
X0188892Y0043767D01*
X0188587Y0043830D01*
X0188283Y0043900D01*
X0187980Y0043977D01*
X0187680Y0044062D01*
X0187382Y0044154D01*
X0187086Y0044254D01*
X0186793Y0044360D01*
X0186502Y0044474D01*
X0186214Y0044595D01*
X0185930Y0044723D01*
X0185648Y0044858D01*
X0185370Y0044999D01*
X0185096Y0045148D01*
X0184825Y0045303D01*
X0184558Y0045464D01*
X0184295Y0045632D01*
X0184036Y0045807D01*
X0183782Y0045988D01*
X0183532Y0046174D01*
X0183287Y0046367D01*
X0183046Y0046566D01*
X0182811Y0046771D01*
X0182580Y0046981D01*
X0182355Y0047197D01*
X0182135Y0047419D01*
X0181921Y0047646D01*
X0181712Y0047877D01*
X0181509Y0048114D01*
X0181312Y0048356D01*
X0181120Y0048603D01*
X0181196Y0048659D01*
X0181386Y0048414D01*
X0181581Y0048174D01*
X0181783Y0047939D01*
X0181990Y0047709D01*
X0182203Y0047484D01*
X0182421Y0047264D01*
X0182645Y0047050D01*
X0182874Y0046841D01*
X0183107Y0046638D01*
X0183346Y0046440D01*
X0183589Y0046249D01*
X0183838Y0046063D01*
X0184090Y0045884D01*
X0184347Y0045711D01*
X0184608Y0045544D01*
X0184873Y0045383D01*
X0185142Y0045230D01*
X0185414Y0045082D01*
X0185690Y0044942D01*
X0185970Y0044808D01*
X0186252Y0044681D01*
X0186538Y0044561D01*
X0186826Y0044448D01*
X0187117Y0044342D01*
X0187411Y0044244D01*
X0187707Y0044152D01*
X0188005Y0044068D01*
X0188305Y0043991D01*
X0188607Y0043922D01*
X0188910Y0043859D01*
X0189215Y0043805D01*
X0189521Y0043757D01*
X0189829Y0043718D01*
X0190137Y0043686D01*
X0190445Y0043661D01*
X0190755Y0043644D01*
X0191064Y0043634D01*
X0191374Y0043632D01*
X0191684Y0043638D01*
X0191993Y0043651D01*
X0192302Y0043672D01*
X0192611Y0043700D01*
X0192918Y0043736D01*
X0193225Y0043779D01*
X0193531Y0043830D01*
X0193835Y0043888D01*
X0194138Y0043954D01*
X0194439Y0044027D01*
X0194738Y0044107D01*
X0195035Y0044195D01*
X0195330Y0044290D01*
X0195622Y0044392D01*
X0195912Y0044501D01*
X0196199Y0044618D01*
X0196483Y0044741D01*
X0196764Y0044871D01*
X0197042Y0045008D01*
X0197316Y0045152D01*
X0197587Y0045302D01*
X0197854Y0045459D01*
X0198117Y0045623D01*
X0198376Y0045793D01*
X0198631Y0045969D01*
X0198882Y0046151D01*
X0199127Y0046340D01*
X0199369Y0046534D01*
X0199605Y0046734D01*
X0199836Y0046940D01*
X0200063Y0047152D01*
X0200284Y0047369D01*
X0200499Y0047591D01*
X0200710Y0047818D01*
X0200914Y0048051D01*
X0201113Y0048289D01*
X0201306Y0048531D01*
X0201493Y0048778D01*
X0201674Y0049029D01*
X0201848Y0049285D01*
X0202017Y0049545D01*
X0202179Y0049809D01*
X0202334Y0050077D01*
X0202483Y0050349D01*
X0202625Y0050624D01*
X0202761Y0050903D01*
X0202889Y0051184D01*
X0203011Y0051469D01*
X0203125Y0051757D01*
X0203233Y0052048D01*
X0203333Y0052341D01*
X0203427Y0052636D01*
X0203513Y0052934D01*
X0203591Y0053233D01*
X0203662Y0053535D01*
X0203726Y0053838D01*
X0203783Y0054142D01*
X0203832Y0054448D01*
X0203873Y0054755D01*
X0203907Y0055063D01*
X0203934Y0055372D01*
X0203953Y0055681D01*
X0203964Y0055990D01*
X0203968Y0056300D01*
X0203964Y0056610D01*
X0203953Y0056919D01*
X0203934Y0057228D01*
X0203907Y0057537D01*
X0203873Y0057845D01*
X0203832Y0058152D01*
X0203783Y0058458D01*
X0203726Y0058762D01*
X0203662Y0059065D01*
X0203591Y0059367D01*
X0203513Y0059666D01*
X0203427Y0059964D01*
X0203333Y0060259D01*
X0203233Y0060552D01*
X0203125Y0060843D01*
X0203011Y0061131D01*
X0202889Y0061416D01*
X0202761Y0061697D01*
X0202625Y0061976D01*
X0202483Y0062251D01*
X0202334Y0062523D01*
X0202179Y0062791D01*
X0202017Y0063055D01*
X0201848Y0063315D01*
X0201674Y0063571D01*
X0201493Y0063822D01*
X0201306Y0064069D01*
X0201113Y0064311D01*
X0200914Y0064549D01*
X0200710Y0064782D01*
X0200499Y0065009D01*
X0200284Y0065231D01*
X0200063Y0065448D01*
X0199836Y0065660D01*
X0199605Y0065866D01*
X0199369Y0066066D01*
X0199127Y0066260D01*
X0198882Y0066449D01*
X0198631Y0066631D01*
X0198376Y0066807D01*
X0198117Y0066977D01*
X0197854Y0067141D01*
X0197587Y0067298D01*
X0197316Y0067448D01*
X0197042Y0067592D01*
X0196764Y0067729D01*
X0196483Y0067859D01*
X0196199Y0067982D01*
X0195912Y0068099D01*
X0195622Y0068208D01*
X0195330Y0068310D01*
X0195035Y0068405D01*
X0194738Y0068493D01*
X0194439Y0068573D01*
X0194138Y0068646D01*
X0193835Y0068712D01*
X0193531Y0068770D01*
X0193225Y0068821D01*
X0192918Y0068864D01*
X0192611Y0068900D01*
X0192302Y0068928D01*
X0191993Y0068949D01*
X0191684Y0068962D01*
X0191374Y0068968D01*
X0191064Y0068966D01*
X0190755Y0068956D01*
X0190445Y0068939D01*
X0190137Y0068914D01*
X0189829Y0068882D01*
X0189521Y0068843D01*
X0189215Y0068795D01*
X0188910Y0068741D01*
X0188607Y0068678D01*
X0188305Y0068609D01*
X0188005Y0068532D01*
X0187707Y0068448D01*
X0187411Y0068356D01*
X0187117Y0068258D01*
X0186826Y0068152D01*
X0186538Y0068039D01*
X0186252Y0067919D01*
X0185970Y0067792D01*
X0185690Y0067658D01*
X0185414Y0067518D01*
X0185142Y0067370D01*
X0184873Y0067217D01*
X0184608Y0067056D01*
X0184347Y0066889D01*
X0184090Y0066716D01*
X0183838Y0066537D01*
X0183589Y0066351D01*
X0183346Y0066160D01*
X0183107Y0065962D01*
X0182874Y0065759D01*
X0182645Y0065550D01*
X0182421Y0065336D01*
X0182203Y0065116D01*
X0181990Y0064891D01*
X0181783Y0064661D01*
X0181581Y0064426D01*
X0181386Y0064186D01*
X0181196Y0063941D01*
X0181271Y0063884D01*
X0181459Y0064127D01*
X0181654Y0064366D01*
X0181854Y0064599D01*
X0182059Y0064827D01*
X0182271Y0065051D01*
X0182487Y0065269D01*
X0182709Y0065482D01*
X0182936Y0065689D01*
X0183168Y0065891D01*
X0183405Y0066087D01*
X0183647Y0066277D01*
X0183893Y0066461D01*
X0184144Y0066639D01*
X0184399Y0066811D01*
X0184658Y0066976D01*
X0184921Y0067136D01*
X0185188Y0067288D01*
X0185458Y0067435D01*
X0185732Y0067574D01*
X0186009Y0067707D01*
X0186290Y0067833D01*
X0186573Y0067952D01*
X0186860Y0068064D01*
X0187149Y0068169D01*
X0187440Y0068267D01*
X0187734Y0068358D01*
X0188030Y0068441D01*
X0188327Y0068518D01*
X0188627Y0068587D01*
X0188928Y0068648D01*
X0189231Y0068703D01*
X0189535Y0068749D01*
X0189840Y0068789D01*
X0190145Y0068821D01*
X0190452Y0068845D01*
X0190759Y0068862D01*
X0191066Y0068872D01*
X0191374Y0068874D01*
X0191681Y0068868D01*
X0191988Y0068855D01*
X0192295Y0068835D01*
X0192601Y0068806D01*
X0192907Y0068771D01*
X0193211Y0068728D01*
X0193514Y0068677D01*
X0193816Y0068620D01*
X0194117Y0068554D01*
X0194416Y0068482D01*
X0194712Y0068402D01*
X0195007Y0068315D01*
X0195300Y0068221D01*
X0195590Y0068119D01*
X0195878Y0068011D01*
X0196163Y0067896D01*
X0196445Y0067773D01*
X0196724Y0067644D01*
X0197000Y0067508D01*
X0197272Y0067365D01*
X0197541Y0067216D01*
X0197806Y0067060D01*
X0198067Y0066898D01*
X0198324Y0066729D01*
X0198577Y0066554D01*
X0198825Y0066373D01*
X0199069Y0066186D01*
X0199309Y0065993D01*
X0199543Y0065795D01*
X0199773Y0065590D01*
X0199998Y0065380D01*
X0200217Y0065165D01*
X0200431Y0064944D01*
X0200640Y0064719D01*
X0200843Y0064488D01*
X0201040Y0064252D01*
X0201232Y0064011D01*
X0201417Y0063766D01*
X0201597Y0063517D01*
X0201770Y0063263D01*
X0201937Y0063005D01*
X0202098Y0062743D01*
X0202252Y0062477D01*
X0202400Y0062207D01*
X0202541Y0061934D01*
X0202676Y0061657D01*
X0202803Y0061378D01*
X0202924Y0061095D01*
X0203038Y0060809D01*
X0203144Y0060521D01*
X0203244Y0060230D01*
X0203337Y0059937D01*
X0203422Y0059641D01*
X0203500Y0059344D01*
X0203571Y0059045D01*
X0203634Y0058744D01*
X0203690Y0058442D01*
X0203739Y0058138D01*
X0203780Y0057833D01*
X0203814Y0057528D01*
X0203840Y0057222D01*
X0203859Y0056915D01*
X0203870Y0056607D01*
X0203874Y0056300D01*
X0203870Y0055993D01*
X0203859Y0055685D01*
X0203840Y0055378D01*
X0203814Y0055072D01*
X0203780Y0054767D01*
X0203739Y0054462D01*
X0203690Y0054158D01*
X0203634Y0053856D01*
X0203571Y0053555D01*
X0203500Y0053256D01*
X0203422Y0052959D01*
X0203337Y0052663D01*
X0203244Y0052370D01*
X0203144Y0052079D01*
X0203038Y0051791D01*
X0202924Y0051505D01*
X0202803Y0051222D01*
X0202676Y0050943D01*
X0202541Y0050666D01*
X0202400Y0050393D01*
X0202252Y0050123D01*
X0202098Y0049857D01*
X0201937Y0049595D01*
X0201770Y0049337D01*
X0201597Y0049083D01*
X0201417Y0048834D01*
X0201232Y0048589D01*
X0201040Y0048348D01*
X0200843Y0048112D01*
X0200640Y0047881D01*
X0200431Y0047656D01*
X0200217Y0047435D01*
X0199998Y0047220D01*
X0199773Y0047010D01*
X0199543Y0046805D01*
X0199309Y0046607D01*
X0199069Y0046414D01*
X0198825Y0046227D01*
X0198577Y0046046D01*
X0198324Y0045871D01*
X0198067Y0045702D01*
X0197806Y0045540D01*
X0197541Y0045384D01*
X0197272Y0045235D01*
X0197000Y0045092D01*
X0196724Y0044956D01*
X0196445Y0044827D01*
X0196163Y0044704D01*
X0195878Y0044589D01*
X0195590Y0044481D01*
X0195300Y0044379D01*
X0195007Y0044285D01*
X0194712Y0044198D01*
X0194416Y0044118D01*
X0194117Y0044046D01*
X0193816Y0043980D01*
X0193514Y0043923D01*
X0193211Y0043872D01*
X0192907Y0043829D01*
X0192601Y0043794D01*
X0192295Y0043765D01*
X0191988Y0043745D01*
X0191681Y0043732D01*
X0191374Y0043726D01*
X0191066Y0043728D01*
X0190759Y0043738D01*
X0190452Y0043755D01*
X0190145Y0043779D01*
X0189840Y0043811D01*
X0189535Y0043851D01*
X0189231Y0043897D01*
X0188928Y0043952D01*
X0188627Y0044013D01*
X0188327Y0044082D01*
X0188030Y0044159D01*
X0187734Y0044242D01*
X0187440Y0044333D01*
X0187149Y0044431D01*
X0186860Y0044536D01*
X0186573Y0044648D01*
X0186290Y0044767D01*
X0186009Y0044893D01*
X0185732Y0045026D01*
X0185458Y0045165D01*
X0185188Y0045312D01*
X0184921Y0045464D01*
X0184658Y0045624D01*
X0184399Y0045789D01*
X0184144Y0045961D01*
X0183893Y0046139D01*
X0183647Y0046323D01*
X0183405Y0046513D01*
X0183168Y0046709D01*
X0182936Y0046911D01*
X0182709Y0047118D01*
X0182487Y0047331D01*
X0182271Y0047549D01*
X0182059Y0047773D01*
X0181854Y0048001D01*
X0181654Y0048234D01*
X0181459Y0048473D01*
X0181271Y0048716D01*
X0181346Y0048772D01*
X0181533Y0048531D01*
X0181726Y0048294D01*
X0181925Y0048063D01*
X0182129Y0047836D01*
X0182338Y0047614D01*
X0182553Y0047398D01*
X0182774Y0047187D01*
X0182999Y0046981D01*
X0183229Y0046781D01*
X0183465Y0046586D01*
X0183704Y0046398D01*
X0183949Y0046215D01*
X0184198Y0046038D01*
X0184451Y0045868D01*
X0184708Y0045703D01*
X0184969Y0045545D01*
X0185234Y0045394D01*
X0185502Y0045249D01*
X0185774Y0045110D01*
X0186049Y0044978D01*
X0186328Y0044853D01*
X0186609Y0044735D01*
X0186893Y0044624D01*
X0187180Y0044520D01*
X0187469Y0044422D01*
X0187761Y0044332D01*
X0188054Y0044249D01*
X0188350Y0044174D01*
X0188647Y0044105D01*
X0188946Y0044044D01*
X0189247Y0043990D01*
X0189548Y0043944D01*
X0189851Y0043904D01*
X0190154Y0043873D01*
X0190459Y0043848D01*
X0190763Y0043832D01*
X0191068Y0043822D01*
X0191373Y0043820D01*
X0191678Y0043826D01*
X0191983Y0043839D01*
X0192288Y0043859D01*
X0192592Y0043887D01*
X0192895Y0043922D01*
X0193197Y0043965D01*
X0193498Y0044015D01*
X0193798Y0044072D01*
X0194096Y0044137D01*
X0194392Y0044209D01*
X0194687Y0044288D01*
X0194980Y0044375D01*
X0195270Y0044468D01*
X0195558Y0044569D01*
X0195844Y0044677D01*
X0196127Y0044791D01*
X0196407Y0044913D01*
X0196684Y0045041D01*
X0196957Y0045176D01*
X0197227Y0045317D01*
X0197494Y0045466D01*
X0197757Y0045620D01*
X0198016Y0045781D01*
X0198272Y0045949D01*
X0198523Y0046122D01*
X0198769Y0046302D01*
X0199011Y0046488D01*
X0199249Y0046679D01*
X0199482Y0046876D01*
X0199710Y0047079D01*
X0199933Y0047288D01*
X0200151Y0047501D01*
X0200363Y0047720D01*
X0200570Y0047944D01*
X0200772Y0048174D01*
X0200968Y0048408D01*
X0201158Y0048646D01*
X0201342Y0048890D01*
X0201520Y0049137D01*
X0201692Y0049389D01*
X0201858Y0049646D01*
X0202017Y0049906D01*
X0202171Y0050170D01*
X0202317Y0050437D01*
X0202457Y0050708D01*
X0202591Y0050983D01*
X0202717Y0051260D01*
X0202837Y0051541D01*
X0202950Y0051825D01*
X0203056Y0052111D01*
X0203155Y0052399D01*
X0203247Y0052690D01*
X0203331Y0052984D01*
X0203409Y0053279D01*
X0203479Y0053576D01*
X0203542Y0053874D01*
X0203598Y0054174D01*
X0203646Y0054476D01*
X0203687Y0054778D01*
X0203720Y0055081D01*
X0203746Y0055385D01*
X0203765Y0055690D01*
X0203776Y0055995D01*
X0203780Y0056300D01*
X0203776Y0056605D01*
X0203765Y0056910D01*
X0203746Y0057215D01*
X0203720Y0057519D01*
X0203687Y0057822D01*
X0203646Y0058124D01*
X0203598Y0058426D01*
X0203542Y0058726D01*
X0203479Y0059024D01*
X0203409Y0059321D01*
X0203331Y0059616D01*
X0203247Y0059910D01*
X0203155Y0060201D01*
X0203056Y0060489D01*
X0202950Y0060775D01*
X0202837Y0061059D01*
X0202717Y0061340D01*
X0202591Y0061617D01*
X0202457Y0061892D01*
X0202317Y0062163D01*
X0202171Y0062430D01*
X0202017Y0062694D01*
X0201858Y0062954D01*
X0201692Y0063211D01*
X0201520Y0063463D01*
X0201342Y0063710D01*
X0201158Y0063954D01*
X0200968Y0064192D01*
X0200772Y0064426D01*
X0200570Y0064656D01*
X0200363Y0064880D01*
X0200151Y0065099D01*
X0199933Y0065312D01*
X0199710Y0065521D01*
X0199482Y0065724D01*
X0199249Y0065921D01*
X0199011Y0066112D01*
X0198769Y0066298D01*
X0198523Y0066478D01*
X0198272Y0066651D01*
X0198016Y0066819D01*
X0197757Y0066980D01*
X0197494Y0067134D01*
X0197227Y0067283D01*
X0196957Y0067424D01*
X0196684Y0067559D01*
X0196407Y0067687D01*
X0196127Y0067809D01*
X0195844Y0067923D01*
X0195558Y0068031D01*
X0195270Y0068132D01*
X0194980Y0068225D01*
X0194687Y0068312D01*
X0194392Y0068391D01*
X0194096Y0068463D01*
X0193798Y0068528D01*
X0193498Y0068585D01*
X0193197Y0068635D01*
X0192895Y0068678D01*
X0192592Y0068713D01*
X0192288Y0068741D01*
X0191983Y0068761D01*
X0191678Y0068774D01*
X0191373Y0068780D01*
X0191068Y0068778D01*
X0190763Y0068768D01*
X0190459Y0068752D01*
X0190154Y0068727D01*
X0189851Y0068696D01*
X0189548Y0068656D01*
X0189247Y0068610D01*
X0188946Y0068556D01*
X0188647Y0068495D01*
X0188350Y0068426D01*
X0188054Y0068351D01*
X0187761Y0068268D01*
X0187469Y0068178D01*
X0187180Y0068080D01*
X0186893Y0067976D01*
X0186609Y0067865D01*
X0186328Y0067747D01*
X0186049Y0067622D01*
X0185774Y0067490D01*
X0185502Y0067351D01*
X0185234Y0067206D01*
X0184969Y0067055D01*
X0184708Y0066897D01*
X0184451Y0066732D01*
X0184198Y0066562D01*
X0183949Y0066385D01*
X0183704Y0066202D01*
X0183465Y0066014D01*
X0183229Y0065819D01*
X0182999Y0065619D01*
X0182774Y0065413D01*
X0182553Y0065202D01*
X0182338Y0064986D01*
X0182129Y0064764D01*
X0181925Y0064537D01*
X0181726Y0064306D01*
X0181533Y0064069D01*
X0181346Y0063828D01*
X0181421Y0063772D01*
X0181607Y0064011D01*
X0181798Y0064246D01*
X0181995Y0064475D01*
X0182198Y0064700D01*
X0182406Y0064921D01*
X0182620Y0065135D01*
X0182838Y0065345D01*
X0183062Y0065549D01*
X0183290Y0065748D01*
X0183524Y0065941D01*
X0183762Y0066128D01*
X0184004Y0066309D01*
X0184251Y0066485D01*
X0184502Y0066654D01*
X0184758Y0066817D01*
X0185017Y0066974D01*
X0185280Y0067124D01*
X0185546Y0067268D01*
X0185816Y0067406D01*
X0186089Y0067537D01*
X0186365Y0067661D01*
X0186645Y0067778D01*
X0186927Y0067888D01*
X0187211Y0067992D01*
X0187498Y0068088D01*
X0187788Y0068178D01*
X0188079Y0068260D01*
X0188372Y0068335D01*
X0188668Y0068403D01*
X0188964Y0068464D01*
X0189262Y0068517D01*
X0189562Y0068563D01*
X0189862Y0068602D01*
X0190163Y0068634D01*
X0190465Y0068658D01*
X0190768Y0068675D01*
X0191070Y0068684D01*
X0191373Y0068686D01*
X0191676Y0068680D01*
X0191978Y0068667D01*
X0192281Y0068647D01*
X0192582Y0068619D01*
X0192883Y0068584D01*
X0193183Y0068542D01*
X0193482Y0068492D01*
X0193779Y0068435D01*
X0194075Y0068371D01*
X0194369Y0068300D01*
X0194662Y0068221D01*
X0194952Y0068135D01*
X0195241Y0068042D01*
X0195526Y0067943D01*
X0195810Y0067836D01*
X0196090Y0067722D01*
X0196368Y0067602D01*
X0196643Y0067474D01*
X0196915Y0067340D01*
X0197183Y0067200D01*
X0197448Y0067053D01*
X0197709Y0066899D01*
X0197966Y0066739D01*
X0198219Y0066573D01*
X0198468Y0066401D01*
X0198713Y0066223D01*
X0198954Y0066038D01*
X0199189Y0065848D01*
X0199420Y0065653D01*
X0199647Y0065451D01*
X0199868Y0065245D01*
X0200084Y0065032D01*
X0200295Y0064815D01*
X0200500Y0064593D01*
X0200700Y0064365D01*
X0200895Y0064133D01*
X0201083Y0063896D01*
X0201266Y0063654D01*
X0201443Y0063409D01*
X0201614Y0063158D01*
X0201778Y0062904D01*
X0201937Y0062646D01*
X0202089Y0062384D01*
X0202234Y0062119D01*
X0202373Y0061850D01*
X0202506Y0061577D01*
X0202631Y0061302D01*
X0202750Y0061023D01*
X0202862Y0060742D01*
X0202967Y0060458D01*
X0203066Y0060171D01*
X0203157Y0059882D01*
X0203241Y0059591D01*
X0203318Y0059298D01*
X0203387Y0059004D01*
X0203450Y0058707D01*
X0203505Y0058410D01*
X0203553Y0058111D01*
X0203594Y0057811D01*
X0203627Y0057509D01*
X0203653Y0057208D01*
X0203671Y0056905D01*
X0203682Y0056603D01*
X0203686Y0056300D01*
X0203682Y0055997D01*
X0203671Y0055695D01*
X0203653Y0055392D01*
X0203627Y0055091D01*
X0203594Y0054789D01*
X0203553Y0054489D01*
X0203505Y0054190D01*
X0203450Y0053893D01*
X0203387Y0053596D01*
X0203318Y0053302D01*
X0203241Y0053009D01*
X0203157Y0052718D01*
X0203066Y0052429D01*
X0202967Y0052142D01*
X0202862Y0051858D01*
X0202750Y0051577D01*
X0202631Y0051298D01*
X0202506Y0051023D01*
X0202373Y0050750D01*
X0202234Y0050481D01*
X0202089Y0050216D01*
X0201937Y0049954D01*
X0201778Y0049696D01*
X0201614Y0049442D01*
X0201443Y0049191D01*
X0201266Y0048946D01*
X0201083Y0048704D01*
X0200895Y0048467D01*
X0200700Y0048235D01*
X0200500Y0048007D01*
X0200295Y0047785D01*
X0200084Y0047568D01*
X0199868Y0047355D01*
X0199647Y0047149D01*
X0199420Y0046947D01*
X0199189Y0046752D01*
X0198954Y0046562D01*
X0198713Y0046377D01*
X0198468Y0046199D01*
X0198219Y0046027D01*
X0197966Y0045861D01*
X0197709Y0045701D01*
X0197448Y0045547D01*
X0197183Y0045400D01*
X0196915Y0045260D01*
X0196643Y0045126D01*
X0196368Y0044998D01*
X0196090Y0044878D01*
X0195810Y0044764D01*
X0195526Y0044657D01*
X0195241Y0044558D01*
X0194952Y0044465D01*
X0194662Y0044379D01*
X0194369Y0044300D01*
X0194075Y0044229D01*
X0193779Y0044165D01*
X0193482Y0044108D01*
X0193183Y0044058D01*
X0192883Y0044016D01*
X0192582Y0043981D01*
X0192281Y0043953D01*
X0191978Y0043933D01*
X0191676Y0043920D01*
X0191373Y0043914D01*
X0191070Y0043916D01*
X0190768Y0043925D01*
X0190465Y0043942D01*
X0190163Y0043966D01*
X0189862Y0043998D01*
X0189562Y0044037D01*
X0189262Y0044083D01*
X0188964Y0044136D01*
X0188668Y0044197D01*
X0188372Y0044265D01*
X0188079Y0044340D01*
X0187788Y0044422D01*
X0187498Y0044512D01*
X0187211Y0044608D01*
X0186927Y0044712D01*
X0186645Y0044822D01*
X0186365Y0044939D01*
X0186089Y0045063D01*
X0185816Y0045194D01*
X0185546Y0045332D01*
X0185280Y0045476D01*
X0185017Y0045626D01*
X0184758Y0045783D01*
X0184502Y0045946D01*
X0184251Y0046115D01*
X0184004Y0046291D01*
X0183762Y0046472D01*
X0183524Y0046659D01*
X0183290Y0046852D01*
X0183062Y0047051D01*
X0182838Y0047255D01*
X0182620Y0047465D01*
X0182406Y0047679D01*
X0182198Y0047900D01*
X0181995Y0048125D01*
X0181798Y0048354D01*
X0181607Y0048589D01*
X0181421Y0048828D01*
X0181496Y0048885D01*
X0181681Y0048647D01*
X0181871Y0048415D01*
X0182066Y0048186D01*
X0182267Y0047963D01*
X0182474Y0047745D01*
X0182686Y0047531D01*
X0182903Y0047323D01*
X0183125Y0047121D01*
X0183352Y0046924D01*
X0183583Y0046732D01*
X0183819Y0046546D01*
X0184060Y0046366D01*
X0184305Y0046192D01*
X0184554Y0046024D01*
X0184808Y0045862D01*
X0185065Y0045707D01*
X0185326Y0045558D01*
X0185590Y0045415D01*
X0185858Y0045278D01*
X0186129Y0045149D01*
X0186403Y0045026D01*
X0186680Y0044909D01*
X0186960Y0044800D01*
X0187243Y0044697D01*
X0187527Y0044601D01*
X0187815Y0044513D01*
X0188104Y0044431D01*
X0188395Y0044356D01*
X0188688Y0044289D01*
X0188982Y0044228D01*
X0189278Y0044175D01*
X0189575Y0044130D01*
X0189873Y0044091D01*
X0190172Y0044060D01*
X0190472Y0044036D01*
X0190772Y0044019D01*
X0191072Y0044010D01*
X0191373Y0044008D01*
X0191673Y0044014D01*
X0191974Y0044026D01*
X0192273Y0044047D01*
X0192573Y0044074D01*
X0192871Y0044109D01*
X0193169Y0044151D01*
X0193465Y0044200D01*
X0193760Y0044257D01*
X0194054Y0044321D01*
X0194346Y0044391D01*
X0194636Y0044469D01*
X0194925Y0044555D01*
X0195211Y0044647D01*
X0195495Y0044746D01*
X0195776Y0044852D01*
X0196054Y0044965D01*
X0196330Y0045084D01*
X0196603Y0045211D01*
X0196872Y0045344D01*
X0197138Y0045483D01*
X0197401Y0045629D01*
X0197660Y0045781D01*
X0197916Y0045940D01*
X0198167Y0046105D01*
X0198414Y0046276D01*
X0198657Y0046453D01*
X0198896Y0046636D01*
X0199130Y0046824D01*
X0199359Y0047018D01*
X0199583Y0047218D01*
X0199803Y0047423D01*
X0200017Y0047634D01*
X0200227Y0047850D01*
X0200431Y0048070D01*
X0200629Y0048296D01*
X0200822Y0048527D01*
X0201009Y0048762D01*
X0201191Y0049001D01*
X0201366Y0049245D01*
X0201536Y0049494D01*
X0201699Y0049746D01*
X0201856Y0050002D01*
X0202007Y0050262D01*
X0202151Y0050526D01*
X0202289Y0050793D01*
X0202421Y0051063D01*
X0202545Y0051336D01*
X0202663Y0051613D01*
X0202774Y0051892D01*
X0202879Y0052174D01*
X0202976Y0052458D01*
X0203067Y0052745D01*
X0203150Y0053034D01*
X0203226Y0053324D01*
X0203296Y0053617D01*
X0203358Y0053911D01*
X0203412Y0054206D01*
X0203460Y0054503D01*
X0203500Y0054801D01*
X0203533Y0055100D01*
X0203559Y0055399D01*
X0203577Y0055699D01*
X0203588Y0055999D01*
X0203592Y0056300D01*
X0203588Y0056601D01*
X0203577Y0056901D01*
X0203559Y0057201D01*
X0203533Y0057500D01*
X0203500Y0057799D01*
X0203460Y0058097D01*
X0203412Y0058394D01*
X0203358Y0058689D01*
X0203296Y0058983D01*
X0203226Y0059276D01*
X0203150Y0059566D01*
X0203067Y0059855D01*
X0202976Y0060142D01*
X0202879Y0060426D01*
X0202774Y0060708D01*
X0202663Y0060987D01*
X0202545Y0061264D01*
X0202421Y0061537D01*
X0202289Y0061807D01*
X0202151Y0062074D01*
X0202007Y0062338D01*
X0201856Y0062598D01*
X0201699Y0062854D01*
X0201536Y0063106D01*
X0201366Y0063355D01*
X0201191Y0063599D01*
X0201009Y0063838D01*
X0200822Y0064073D01*
X0200629Y0064304D01*
X0200431Y0064530D01*
X0200227Y0064750D01*
X0200017Y0064966D01*
X0199803Y0065177D01*
X0199583Y0065382D01*
X0199359Y0065582D01*
X0199130Y0065776D01*
X0198896Y0065964D01*
X0198657Y0066147D01*
X0198414Y0066324D01*
X0198167Y0066495D01*
X0197916Y0066660D01*
X0197660Y0066819D01*
X0197401Y0066971D01*
X0197138Y0067117D01*
X0196872Y0067256D01*
X0196603Y0067389D01*
X0196330Y0067516D01*
X0196054Y0067635D01*
X0195776Y0067748D01*
X0195495Y0067854D01*
X0195211Y0067953D01*
X0194925Y0068045D01*
X0194636Y0068131D01*
X0194346Y0068209D01*
X0194054Y0068279D01*
X0193760Y0068343D01*
X0193465Y0068400D01*
X0193169Y0068449D01*
X0192871Y0068491D01*
X0192573Y0068526D01*
X0192273Y0068553D01*
X0191974Y0068574D01*
X0191673Y0068586D01*
X0191373Y0068592D01*
X0191072Y0068590D01*
X0190772Y0068581D01*
X0190472Y0068564D01*
X0190172Y0068540D01*
X0189873Y0068509D01*
X0189575Y0068470D01*
X0189278Y0068425D01*
X0188982Y0068372D01*
X0188688Y0068311D01*
X0188395Y0068244D01*
X0188104Y0068169D01*
X0187815Y0068087D01*
X0187527Y0067999D01*
X0187243Y0067903D01*
X0186960Y0067800D01*
X0186680Y0067691D01*
X0186403Y0067574D01*
X0186129Y0067451D01*
X0185858Y0067322D01*
X0185590Y0067185D01*
X0185326Y0067042D01*
X0185065Y0066893D01*
X0184808Y0066738D01*
X0184554Y0066576D01*
X0184305Y0066408D01*
X0184060Y0066234D01*
X0183819Y0066054D01*
X0183583Y0065868D01*
X0183352Y0065676D01*
X0183125Y0065479D01*
X0182903Y0065277D01*
X0182686Y0065069D01*
X0182474Y0064855D01*
X0182267Y0064637D01*
X0182066Y0064414D01*
X0181871Y0064185D01*
X0181681Y0063953D01*
X0181496Y0063715D01*
X0181572Y0063659D01*
X0181754Y0063894D01*
X0181943Y0064125D01*
X0182137Y0064352D01*
X0182337Y0064574D01*
X0182542Y0064790D01*
X0182752Y0065002D01*
X0182967Y0065208D01*
X0183187Y0065409D01*
X0183413Y0065605D01*
X0183642Y0065795D01*
X0183877Y0065979D01*
X0184116Y0066158D01*
X0184359Y0066331D01*
X0184606Y0066497D01*
X0184858Y0066658D01*
X0185113Y0066812D01*
X0185372Y0066960D01*
X0185634Y0067102D01*
X0185900Y0067237D01*
X0186169Y0067366D01*
X0186441Y0067488D01*
X0186716Y0067604D01*
X0186994Y0067713D01*
X0187274Y0067814D01*
X0187557Y0067909D01*
X0187842Y0067997D01*
X0188129Y0068078D01*
X0188417Y0068153D01*
X0188708Y0068219D01*
X0189000Y0068279D01*
X0189294Y0068332D01*
X0189589Y0068377D01*
X0189884Y0068416D01*
X0190181Y0068447D01*
X0190478Y0068470D01*
X0190776Y0068487D01*
X0191074Y0068496D01*
X0191372Y0068498D01*
X0191671Y0068492D01*
X0191969Y0068480D01*
X0192266Y0068460D01*
X0192563Y0068432D01*
X0192859Y0068398D01*
X0193155Y0068356D01*
X0193449Y0068307D01*
X0193742Y0068251D01*
X0194033Y0068188D01*
X0194323Y0068117D01*
X0194611Y0068040D01*
X0194897Y0067956D01*
X0195181Y0067864D01*
X0195463Y0067766D01*
X0195742Y0067661D01*
X0196018Y0067549D01*
X0196292Y0067430D01*
X0196562Y0067305D01*
X0196830Y0067173D01*
X0197094Y0067034D01*
X0197355Y0066889D01*
X0197612Y0066738D01*
X0197865Y0066581D01*
X0198114Y0066417D01*
X0198360Y0066247D01*
X0198601Y0066072D01*
X0198838Y0065890D01*
X0199070Y0065703D01*
X0199297Y0065511D01*
X0199520Y0065312D01*
X0199738Y0065109D01*
X0199951Y0064900D01*
X0200159Y0064686D01*
X0200361Y0064466D01*
X0200558Y0064243D01*
X0200749Y0064014D01*
X0200935Y0063780D01*
X0201115Y0063543D01*
X0201289Y0063301D01*
X0201457Y0063054D01*
X0201619Y0062804D01*
X0201775Y0062550D01*
X0201925Y0062292D01*
X0202068Y0062030D01*
X0202205Y0061765D01*
X0202336Y0061497D01*
X0202459Y0061226D01*
X0202576Y0060951D01*
X0202687Y0060674D01*
X0202790Y0060394D01*
X0202887Y0060112D01*
X0202977Y0059828D01*
X0203059Y0059541D01*
X0203135Y0059253D01*
X0203204Y0058963D01*
X0203265Y0058671D01*
X0203320Y0058378D01*
X0203367Y0058083D01*
X0203407Y0057788D01*
X0203440Y0057491D01*
X0203465Y0057194D01*
X0203483Y0056896D01*
X0203494Y0056598D01*
X0203498Y0056300D01*
X0203494Y0056002D01*
X0203483Y0055704D01*
X0203465Y0055406D01*
X0203440Y0055109D01*
X0203407Y0054812D01*
X0203367Y0054517D01*
X0203320Y0054222D01*
X0203265Y0053929D01*
X0203204Y0053637D01*
X0203135Y0053347D01*
X0203059Y0053059D01*
X0202977Y0052772D01*
X0202887Y0052488D01*
X0202790Y0052206D01*
X0202687Y0051926D01*
X0202576Y0051649D01*
X0202459Y0051374D01*
X0202336Y0051103D01*
X0202205Y0050835D01*
X0202068Y0050570D01*
X0201925Y0050308D01*
X0201775Y0050050D01*
X0201619Y0049796D01*
X0201457Y0049546D01*
X0201289Y0049299D01*
X0201115Y0049057D01*
X0200935Y0048820D01*
X0200749Y0048586D01*
X0200558Y0048357D01*
X0200361Y0048134D01*
X0200159Y0047914D01*
X0199951Y0047700D01*
X0199738Y0047491D01*
X0199520Y0047288D01*
X0199297Y0047089D01*
X0199070Y0046897D01*
X0198838Y0046710D01*
X0198601Y0046528D01*
X0198360Y0046353D01*
X0198114Y0046183D01*
X0197865Y0046019D01*
X0197612Y0045862D01*
X0197355Y0045711D01*
X0197094Y0045566D01*
X0196830Y0045427D01*
X0196562Y0045295D01*
X0196292Y0045170D01*
X0196018Y0045051D01*
X0195742Y0044939D01*
X0195463Y0044834D01*
X0195181Y0044736D01*
X0194897Y0044644D01*
X0194611Y0044560D01*
X0194323Y0044483D01*
X0194033Y0044412D01*
X0193742Y0044349D01*
X0193449Y0044293D01*
X0193155Y0044244D01*
X0192859Y0044202D01*
X0192563Y0044168D01*
X0192266Y0044140D01*
X0191969Y0044120D01*
X0191671Y0044108D01*
X0191372Y0044102D01*
X0191074Y0044104D01*
X0190776Y0044113D01*
X0190478Y0044130D01*
X0190181Y0044153D01*
X0189884Y0044184D01*
X0189589Y0044223D01*
X0189294Y0044268D01*
X0189000Y0044321D01*
X0188708Y0044381D01*
X0188417Y0044447D01*
X0188129Y0044522D01*
X0187842Y0044603D01*
X0187557Y0044691D01*
X0187274Y0044786D01*
X0186994Y0044887D01*
X0186716Y0044996D01*
X0186441Y0045112D01*
X0186169Y0045234D01*
X0185900Y0045363D01*
X0185634Y0045498D01*
X0185372Y0045640D01*
X0185113Y0045788D01*
X0184858Y0045942D01*
X0184606Y0046103D01*
X0184359Y0046269D01*
X0184116Y0046442D01*
X0183877Y0046621D01*
X0183642Y0046805D01*
X0183413Y0046995D01*
X0183187Y0047191D01*
X0182967Y0047392D01*
X0182752Y0047598D01*
X0182542Y0047810D01*
X0182337Y0048026D01*
X0182137Y0048248D01*
X0181943Y0048475D01*
X0181754Y0048706D01*
X0181572Y0048941D01*
X0181647Y0048998D01*
X0181828Y0048764D01*
X0182015Y0048535D01*
X0182208Y0048310D01*
X0182406Y0048090D01*
X0182609Y0047875D01*
X0182818Y0047665D01*
X0183032Y0047460D01*
X0183250Y0047261D01*
X0183474Y0047067D01*
X0183702Y0046878D01*
X0183934Y0046695D01*
X0184171Y0046518D01*
X0184413Y0046347D01*
X0184658Y0046181D01*
X0184907Y0046022D01*
X0185161Y0045869D01*
X0185417Y0045722D01*
X0185678Y0045581D01*
X0185942Y0045447D01*
X0186209Y0045319D01*
X0186479Y0045198D01*
X0186751Y0045083D01*
X0187027Y0044975D01*
X0187305Y0044874D01*
X0187586Y0044780D01*
X0187868Y0044693D01*
X0188153Y0044612D01*
X0188440Y0044539D01*
X0188728Y0044472D01*
X0189018Y0044413D01*
X0189310Y0044361D01*
X0189602Y0044316D01*
X0189896Y0044278D01*
X0190190Y0044247D01*
X0190485Y0044223D01*
X0190780Y0044207D01*
X0191076Y0044198D01*
X0191372Y0044196D01*
X0191668Y0044202D01*
X0191964Y0044214D01*
X0192259Y0044234D01*
X0192554Y0044261D01*
X0192848Y0044295D01*
X0193141Y0044337D01*
X0193433Y0044385D01*
X0193723Y0044441D01*
X0194012Y0044504D01*
X0194300Y0044574D01*
X0194586Y0044651D01*
X0194870Y0044734D01*
X0195151Y0044825D01*
X0195431Y0044923D01*
X0195708Y0045027D01*
X0195982Y0045138D01*
X0196253Y0045256D01*
X0196522Y0045380D01*
X0196787Y0045511D01*
X0197049Y0045649D01*
X0197308Y0045792D01*
X0197563Y0045942D01*
X0197815Y0046099D01*
X0198062Y0046261D01*
X0198305Y0046429D01*
X0198545Y0046604D01*
X0198780Y0046784D01*
X0199010Y0046969D01*
X0199236Y0047161D01*
X0199457Y0047357D01*
X0199673Y0047559D01*
X0199884Y0047767D01*
X0200090Y0047979D01*
X0200291Y0048197D01*
X0200487Y0048419D01*
X0200677Y0048646D01*
X0200861Y0048877D01*
X0201039Y0049113D01*
X0201212Y0049353D01*
X0201379Y0049598D01*
X0201540Y0049846D01*
X0201695Y0050099D01*
X0201843Y0050355D01*
X0201985Y0050614D01*
X0202121Y0050877D01*
X0202251Y0051143D01*
X0202373Y0051412D01*
X0202490Y0051685D01*
X0202599Y0051960D01*
X0202702Y0052237D01*
X0202798Y0052517D01*
X0202887Y0052799D01*
X0202969Y0053084D01*
X0203044Y0053370D01*
X0203112Y0053658D01*
X0203173Y0053947D01*
X0203227Y0054238D01*
X0203274Y0054531D01*
X0203314Y0054824D01*
X0203346Y0055118D01*
X0203371Y0055413D01*
X0203390Y0055708D01*
X0203400Y0056004D01*
X0203404Y0056300D01*
X0203400Y0056596D01*
X0203390Y0056892D01*
X0203371Y0057187D01*
X0203346Y0057482D01*
X0203314Y0057776D01*
X0203274Y0058069D01*
X0203227Y0058362D01*
X0203173Y0058653D01*
X0203112Y0058942D01*
X0203044Y0059230D01*
X0202969Y0059516D01*
X0202887Y0059801D01*
X0202798Y0060083D01*
X0202702Y0060363D01*
X0202599Y0060640D01*
X0202490Y0060915D01*
X0202373Y0061188D01*
X0202251Y0061457D01*
X0202121Y0061723D01*
X0201985Y0061986D01*
X0201843Y0062245D01*
X0201695Y0062501D01*
X0201540Y0062754D01*
X0201379Y0063002D01*
X0201212Y0063247D01*
X0201039Y0063487D01*
X0200861Y0063723D01*
X0200677Y0063954D01*
X0200487Y0064181D01*
X0200291Y0064403D01*
X0200090Y0064621D01*
X0199884Y0064833D01*
X0199673Y0065041D01*
X0199457Y0065243D01*
X0199236Y0065439D01*
X0199010Y0065631D01*
X0198780Y0065816D01*
X0198545Y0065996D01*
X0198305Y0066171D01*
X0198062Y0066339D01*
X0197815Y0066501D01*
X0197563Y0066658D01*
X0197308Y0066808D01*
X0197049Y0066951D01*
X0196787Y0067089D01*
X0196522Y0067220D01*
X0196253Y0067344D01*
X0195982Y0067462D01*
X0195708Y0067573D01*
X0195431Y0067677D01*
X0195151Y0067775D01*
X0194870Y0067866D01*
X0194586Y0067949D01*
X0194300Y0068026D01*
X0194012Y0068096D01*
X0193723Y0068159D01*
X0193433Y0068215D01*
X0193141Y0068263D01*
X0192848Y0068305D01*
X0192554Y0068339D01*
X0192259Y0068366D01*
X0191964Y0068386D01*
X0191668Y0068398D01*
X0191372Y0068404D01*
X0191076Y0068402D01*
X0190780Y0068393D01*
X0190485Y0068377D01*
X0190190Y0068353D01*
X0189896Y0068322D01*
X0189602Y0068284D01*
X0189310Y0068239D01*
X0189018Y0068187D01*
X0188728Y0068128D01*
X0188440Y0068061D01*
X0188153Y0067988D01*
X0187868Y0067907D01*
X0187586Y0067820D01*
X0187305Y0067726D01*
X0187027Y0067625D01*
X0186751Y0067517D01*
X0186479Y0067402D01*
X0186209Y0067281D01*
X0185942Y0067153D01*
X0185678Y0067019D01*
X0185417Y0066878D01*
X0185161Y0066731D01*
X0184907Y0066578D01*
X0184658Y0066419D01*
X0184413Y0066253D01*
X0184171Y0066082D01*
X0183934Y0065905D01*
X0183702Y0065722D01*
X0183474Y0065533D01*
X0183250Y0065339D01*
X0183032Y0065140D01*
X0182818Y0064935D01*
X0182609Y0064725D01*
X0182406Y0064510D01*
X0182208Y0064290D01*
X0182015Y0064065D01*
X0181828Y0063836D01*
X0181647Y0063602D01*
X0180971Y0018491D02*
X0181691Y0019031D01*
X0181690Y0019030D02*
X0181871Y0018797D01*
X0182057Y0018569D01*
X0182249Y0018345D01*
X0182446Y0018126D01*
X0182648Y0017912D01*
X0182856Y0017703D01*
X0183069Y0017500D01*
X0183286Y0017301D01*
X0183509Y0017108D01*
X0183736Y0016920D01*
X0183967Y0016738D01*
X0184203Y0016561D01*
X0184444Y0016391D01*
X0184688Y0016226D01*
X0184936Y0016068D01*
X0185188Y0015915D01*
X0185444Y0015769D01*
X0185703Y0015629D01*
X0185966Y0015495D01*
X0186231Y0015368D01*
X0186500Y0015247D01*
X0186772Y0015133D01*
X0187046Y0015026D01*
X0187323Y0014925D01*
X0187602Y0014831D01*
X0187884Y0014744D01*
X0188167Y0014664D01*
X0188453Y0014591D01*
X0188740Y0014525D01*
X0189029Y0014466D01*
X0189319Y0014414D01*
X0189610Y0014369D01*
X0189902Y0014331D01*
X0190195Y0014301D01*
X0190489Y0014277D01*
X0190783Y0014261D01*
X0191077Y0014252D01*
X0191372Y0014250D01*
X0191667Y0014256D01*
X0191961Y0014268D01*
X0192255Y0014288D01*
X0192548Y0014315D01*
X0192841Y0014349D01*
X0193133Y0014390D01*
X0193423Y0014439D01*
X0193713Y0014494D01*
X0194000Y0014556D01*
X0194287Y0014626D01*
X0194571Y0014703D01*
X0194854Y0014786D01*
X0195134Y0014876D01*
X0195412Y0014973D01*
X0195688Y0015077D01*
X0195961Y0015188D01*
X0196231Y0015305D01*
X0196499Y0015429D01*
X0196763Y0015559D01*
X0197024Y0015696D01*
X0197281Y0015839D01*
X0197535Y0015989D01*
X0197786Y0016144D01*
X0198032Y0016306D01*
X0198274Y0016473D01*
X0198512Y0016647D01*
X0198746Y0016826D01*
X0198976Y0017011D01*
X0199200Y0017201D01*
X0199421Y0017397D01*
X0199636Y0017598D01*
X0199846Y0017805D01*
X0200051Y0018016D01*
X0200251Y0018233D01*
X0200446Y0018454D01*
X0200635Y0018680D01*
X0200818Y0018910D01*
X0200996Y0019145D01*
X0201168Y0019385D01*
X0201334Y0019628D01*
X0201494Y0019875D01*
X0201648Y0020126D01*
X0201796Y0020381D01*
X0201938Y0020640D01*
X0202073Y0020901D01*
X0202202Y0021166D01*
X0202324Y0021434D01*
X0202440Y0021705D01*
X0202549Y0021979D01*
X0202651Y0022255D01*
X0202746Y0022534D01*
X0202835Y0022815D01*
X0202917Y0023098D01*
X0202992Y0023383D01*
X0203059Y0023670D01*
X0203120Y0023958D01*
X0203174Y0024248D01*
X0203221Y0024539D01*
X0203260Y0024831D01*
X0203292Y0025123D01*
X0203318Y0025417D01*
X0203336Y0025711D01*
X0203346Y0026005D01*
X0203350Y0026300D01*
X0203346Y0026595D01*
X0203336Y0026889D01*
X0203318Y0027183D01*
X0203292Y0027477D01*
X0203260Y0027769D01*
X0203221Y0028061D01*
X0203174Y0028352D01*
X0203120Y0028642D01*
X0203059Y0028930D01*
X0202992Y0029217D01*
X0202917Y0029502D01*
X0202835Y0029785D01*
X0202746Y0030066D01*
X0202651Y0030345D01*
X0202549Y0030621D01*
X0202440Y0030895D01*
X0202324Y0031166D01*
X0202202Y0031434D01*
X0202073Y0031699D01*
X0201938Y0031960D01*
X0201796Y0032219D01*
X0201648Y0032474D01*
X0201494Y0032725D01*
X0201334Y0032972D01*
X0201168Y0033215D01*
X0200996Y0033455D01*
X0200818Y0033690D01*
X0200635Y0033920D01*
X0200446Y0034146D01*
X0200251Y0034367D01*
X0200051Y0034584D01*
X0199846Y0034795D01*
X0199636Y0035002D01*
X0199421Y0035203D01*
X0199200Y0035399D01*
X0198976Y0035589D01*
X0198746Y0035774D01*
X0198512Y0035953D01*
X0198274Y0036127D01*
X0198032Y0036294D01*
X0197786Y0036456D01*
X0197535Y0036611D01*
X0197281Y0036761D01*
X0197024Y0036904D01*
X0196763Y0037041D01*
X0196499Y0037171D01*
X0196231Y0037295D01*
X0195961Y0037412D01*
X0195688Y0037523D01*
X0195412Y0037627D01*
X0195134Y0037724D01*
X0194854Y0037814D01*
X0194571Y0037897D01*
X0194287Y0037974D01*
X0194000Y0038044D01*
X0193713Y0038106D01*
X0193423Y0038161D01*
X0193133Y0038210D01*
X0192841Y0038251D01*
X0192548Y0038285D01*
X0192255Y0038312D01*
X0191961Y0038332D01*
X0191667Y0038344D01*
X0191372Y0038350D01*
X0191077Y0038348D01*
X0190783Y0038339D01*
X0190489Y0038323D01*
X0190195Y0038299D01*
X0189902Y0038269D01*
X0189610Y0038231D01*
X0189319Y0038186D01*
X0189029Y0038134D01*
X0188740Y0038075D01*
X0188453Y0038009D01*
X0188167Y0037936D01*
X0187884Y0037856D01*
X0187602Y0037769D01*
X0187323Y0037675D01*
X0187046Y0037574D01*
X0186772Y0037467D01*
X0186500Y0037353D01*
X0186231Y0037232D01*
X0185966Y0037105D01*
X0185703Y0036971D01*
X0185444Y0036831D01*
X0185188Y0036685D01*
X0184936Y0036532D01*
X0184688Y0036374D01*
X0184444Y0036209D01*
X0184203Y0036039D01*
X0183967Y0035862D01*
X0183736Y0035680D01*
X0183509Y0035492D01*
X0183286Y0035299D01*
X0183069Y0035100D01*
X0182856Y0034897D01*
X0182648Y0034688D01*
X0182446Y0034474D01*
X0182249Y0034255D01*
X0182057Y0034031D01*
X0181871Y0033803D01*
X0181690Y0033570D01*
X0180971Y0034109D01*
X0180970Y0034110D01*
X0181164Y0034360D01*
X0181364Y0034606D01*
X0181570Y0034846D01*
X0181782Y0035081D01*
X0182000Y0035311D01*
X0182223Y0035536D01*
X0182451Y0035755D01*
X0182685Y0035969D01*
X0182924Y0036177D01*
X0183168Y0036379D01*
X0183417Y0036574D01*
X0183671Y0036764D01*
X0183929Y0036947D01*
X0184191Y0037124D01*
X0184458Y0037295D01*
X0184729Y0037459D01*
X0185004Y0037616D01*
X0185282Y0037767D01*
X0185565Y0037911D01*
X0185850Y0038047D01*
X0186139Y0038177D01*
X0186431Y0038300D01*
X0186726Y0038415D01*
X0187023Y0038523D01*
X0187324Y0038624D01*
X0187626Y0038718D01*
X0187931Y0038804D01*
X0188238Y0038883D01*
X0188546Y0038954D01*
X0188856Y0039017D01*
X0189168Y0039073D01*
X0189481Y0039122D01*
X0189795Y0039162D01*
X0190110Y0039195D01*
X0190426Y0039220D01*
X0190742Y0039238D01*
X0191058Y0039248D01*
X0191375Y0039250D01*
X0191692Y0039244D01*
X0192008Y0039231D01*
X0192324Y0039209D01*
X0192639Y0039181D01*
X0192954Y0039144D01*
X0193267Y0039100D01*
X0193580Y0039048D01*
X0193891Y0038988D01*
X0194200Y0038921D01*
X0194508Y0038846D01*
X0194814Y0038764D01*
X0195117Y0038675D01*
X0195419Y0038578D01*
X0195718Y0038473D01*
X0196014Y0038361D01*
X0196308Y0038243D01*
X0196598Y0038117D01*
X0196885Y0037984D01*
X0197170Y0037843D01*
X0197450Y0037696D01*
X0197727Y0037543D01*
X0198000Y0037382D01*
X0198269Y0037215D01*
X0198534Y0037041D01*
X0198794Y0036861D01*
X0199050Y0036675D01*
X0199301Y0036482D01*
X0199548Y0036284D01*
X0199790Y0036079D01*
X0200026Y0035869D01*
X0200258Y0035652D01*
X0200483Y0035430D01*
X0200704Y0035203D01*
X0200919Y0034971D01*
X0201128Y0034733D01*
X0201331Y0034490D01*
X0201529Y0034242D01*
X0201720Y0033990D01*
X0201905Y0033733D01*
X0202083Y0033471D01*
X0202255Y0033205D01*
X0202421Y0032936D01*
X0202580Y0032662D01*
X0202732Y0032384D01*
X0202877Y0032103D01*
X0203016Y0031818D01*
X0203147Y0031530D01*
X0203271Y0031238D01*
X0203389Y0030944D01*
X0203499Y0030647D01*
X0203601Y0030348D01*
X0203696Y0030046D01*
X0203784Y0029742D01*
X0203865Y0029435D01*
X0203938Y0029127D01*
X0204003Y0028817D01*
X0204061Y0028506D01*
X0204111Y0028193D01*
X0204153Y0027879D01*
X0204188Y0027565D01*
X0204215Y0027249D01*
X0204235Y0026933D01*
X0204246Y0026617D01*
X0204250Y0026300D01*
X0204246Y0025983D01*
X0204235Y0025667D01*
X0204215Y0025351D01*
X0204188Y0025035D01*
X0204153Y0024721D01*
X0204111Y0024407D01*
X0204061Y0024094D01*
X0204003Y0023783D01*
X0203938Y0023473D01*
X0203865Y0023165D01*
X0203784Y0022858D01*
X0203696Y0022554D01*
X0203601Y0022252D01*
X0203499Y0021953D01*
X0203389Y0021656D01*
X0203271Y0021362D01*
X0203147Y0021070D01*
X0203016Y0020782D01*
X0202877Y0020497D01*
X0202732Y0020216D01*
X0202580Y0019938D01*
X0202421Y0019664D01*
X0202255Y0019395D01*
X0202083Y0019129D01*
X0201905Y0018867D01*
X0201720Y0018610D01*
X0201529Y0018358D01*
X0201331Y0018110D01*
X0201128Y0017867D01*
X0200919Y0017629D01*
X0200704Y0017397D01*
X0200483Y0017170D01*
X0200258Y0016948D01*
X0200026Y0016731D01*
X0199790Y0016521D01*
X0199548Y0016316D01*
X0199301Y0016118D01*
X0199050Y0015925D01*
X0198794Y0015739D01*
X0198534Y0015559D01*
X0198269Y0015385D01*
X0198000Y0015218D01*
X0197727Y0015057D01*
X0197450Y0014904D01*
X0197170Y0014757D01*
X0196885Y0014616D01*
X0196598Y0014483D01*
X0196308Y0014357D01*
X0196014Y0014239D01*
X0195718Y0014127D01*
X0195419Y0014022D01*
X0195117Y0013925D01*
X0194814Y0013836D01*
X0194508Y0013754D01*
X0194200Y0013679D01*
X0193891Y0013612D01*
X0193580Y0013552D01*
X0193267Y0013500D01*
X0192954Y0013456D01*
X0192639Y0013419D01*
X0192324Y0013391D01*
X0192008Y0013369D01*
X0191692Y0013356D01*
X0191375Y0013350D01*
X0191058Y0013352D01*
X0190742Y0013362D01*
X0190426Y0013380D01*
X0190110Y0013405D01*
X0189795Y0013438D01*
X0189481Y0013478D01*
X0189168Y0013527D01*
X0188856Y0013583D01*
X0188546Y0013646D01*
X0188238Y0013717D01*
X0187931Y0013796D01*
X0187626Y0013882D01*
X0187324Y0013976D01*
X0187023Y0014077D01*
X0186726Y0014185D01*
X0186431Y0014300D01*
X0186139Y0014423D01*
X0185850Y0014553D01*
X0185565Y0014689D01*
X0185282Y0014833D01*
X0185004Y0014984D01*
X0184729Y0015141D01*
X0184458Y0015305D01*
X0184191Y0015476D01*
X0183929Y0015653D01*
X0183671Y0015836D01*
X0183417Y0016026D01*
X0183168Y0016221D01*
X0182924Y0016423D01*
X0182685Y0016631D01*
X0182451Y0016845D01*
X0182223Y0017064D01*
X0182000Y0017289D01*
X0181782Y0017519D01*
X0181570Y0017754D01*
X0181364Y0017994D01*
X0181164Y0018240D01*
X0180970Y0018490D01*
X0181045Y0018546D01*
X0181238Y0018298D01*
X0181437Y0018054D01*
X0181641Y0017816D01*
X0181851Y0017582D01*
X0182067Y0017354D01*
X0182289Y0017131D01*
X0182516Y0016913D01*
X0182748Y0016701D01*
X0182985Y0016495D01*
X0183227Y0016294D01*
X0183475Y0016100D01*
X0183726Y0015912D01*
X0183983Y0015730D01*
X0184243Y0015554D01*
X0184508Y0015385D01*
X0184777Y0015222D01*
X0185050Y0015066D01*
X0185326Y0014916D01*
X0185606Y0014774D01*
X0185890Y0014638D01*
X0186177Y0014509D01*
X0186467Y0014387D01*
X0186759Y0014273D01*
X0187055Y0014165D01*
X0187353Y0014065D01*
X0187653Y0013972D01*
X0187956Y0013887D01*
X0188260Y0013809D01*
X0188566Y0013738D01*
X0188874Y0013675D01*
X0189184Y0013619D01*
X0189494Y0013571D01*
X0189806Y0013531D01*
X0190119Y0013498D01*
X0190432Y0013473D01*
X0190746Y0013456D01*
X0191060Y0013446D01*
X0191375Y0013444D01*
X0191689Y0013450D01*
X0192003Y0013463D01*
X0192317Y0013484D01*
X0192630Y0013513D01*
X0192942Y0013549D01*
X0193253Y0013593D01*
X0193563Y0013645D01*
X0193872Y0013704D01*
X0194179Y0013771D01*
X0194485Y0013845D01*
X0194788Y0013926D01*
X0195090Y0014015D01*
X0195389Y0014112D01*
X0195686Y0014215D01*
X0195980Y0014326D01*
X0196271Y0014444D01*
X0196560Y0014569D01*
X0196845Y0014701D01*
X0197127Y0014840D01*
X0197405Y0014986D01*
X0197680Y0015139D01*
X0197951Y0015298D01*
X0198218Y0015464D01*
X0198481Y0015637D01*
X0198740Y0015815D01*
X0198994Y0016000D01*
X0199243Y0016192D01*
X0199488Y0016389D01*
X0199728Y0016592D01*
X0199963Y0016801D01*
X0200193Y0017016D01*
X0200417Y0017236D01*
X0200636Y0017461D01*
X0200849Y0017692D01*
X0201057Y0017928D01*
X0201259Y0018170D01*
X0201454Y0018415D01*
X0201644Y0018666D01*
X0201828Y0018921D01*
X0202005Y0019181D01*
X0202176Y0019445D01*
X0202340Y0019713D01*
X0202498Y0019985D01*
X0202649Y0020260D01*
X0202793Y0020540D01*
X0202931Y0020822D01*
X0203061Y0021108D01*
X0203185Y0021397D01*
X0203301Y0021690D01*
X0203410Y0021984D01*
X0203512Y0022282D01*
X0203606Y0022581D01*
X0203694Y0022884D01*
X0203774Y0023188D01*
X0203846Y0023493D01*
X0203911Y0023801D01*
X0203968Y0024110D01*
X0204018Y0024421D01*
X0204060Y0024732D01*
X0204095Y0025045D01*
X0204121Y0025358D01*
X0204141Y0025672D01*
X0204152Y0025986D01*
X0204156Y0026300D01*
X0204152Y0026614D01*
X0204141Y0026928D01*
X0204121Y0027242D01*
X0204095Y0027555D01*
X0204060Y0027868D01*
X0204018Y0028179D01*
X0203968Y0028490D01*
X0203911Y0028799D01*
X0203846Y0029107D01*
X0203774Y0029412D01*
X0203694Y0029716D01*
X0203606Y0030019D01*
X0203512Y0030318D01*
X0203410Y0030616D01*
X0203301Y0030910D01*
X0203185Y0031203D01*
X0203061Y0031492D01*
X0202931Y0031778D01*
X0202793Y0032060D01*
X0202649Y0032340D01*
X0202498Y0032615D01*
X0202340Y0032887D01*
X0202176Y0033155D01*
X0202005Y0033419D01*
X0201828Y0033679D01*
X0201644Y0033934D01*
X0201454Y0034185D01*
X0201259Y0034430D01*
X0201057Y0034672D01*
X0200849Y0034908D01*
X0200636Y0035139D01*
X0200417Y0035364D01*
X0200193Y0035584D01*
X0199963Y0035799D01*
X0199728Y0036008D01*
X0199488Y0036211D01*
X0199243Y0036408D01*
X0198994Y0036600D01*
X0198740Y0036785D01*
X0198481Y0036963D01*
X0198218Y0037136D01*
X0197951Y0037302D01*
X0197680Y0037461D01*
X0197405Y0037614D01*
X0197127Y0037760D01*
X0196845Y0037899D01*
X0196560Y0038031D01*
X0196271Y0038156D01*
X0195980Y0038274D01*
X0195686Y0038385D01*
X0195389Y0038488D01*
X0195090Y0038585D01*
X0194788Y0038674D01*
X0194485Y0038755D01*
X0194179Y0038829D01*
X0193872Y0038896D01*
X0193563Y0038955D01*
X0193253Y0039007D01*
X0192942Y0039051D01*
X0192630Y0039087D01*
X0192317Y0039116D01*
X0192003Y0039137D01*
X0191689Y0039150D01*
X0191375Y0039156D01*
X0191060Y0039154D01*
X0190746Y0039144D01*
X0190432Y0039127D01*
X0190119Y0039102D01*
X0189806Y0039069D01*
X0189494Y0039029D01*
X0189184Y0038981D01*
X0188874Y0038925D01*
X0188566Y0038862D01*
X0188260Y0038791D01*
X0187956Y0038713D01*
X0187653Y0038628D01*
X0187353Y0038535D01*
X0187055Y0038435D01*
X0186759Y0038327D01*
X0186467Y0038213D01*
X0186177Y0038091D01*
X0185890Y0037962D01*
X0185606Y0037826D01*
X0185326Y0037684D01*
X0185050Y0037534D01*
X0184777Y0037378D01*
X0184508Y0037215D01*
X0184243Y0037046D01*
X0183983Y0036870D01*
X0183726Y0036688D01*
X0183475Y0036500D01*
X0183227Y0036306D01*
X0182985Y0036105D01*
X0182748Y0035899D01*
X0182516Y0035687D01*
X0182289Y0035469D01*
X0182067Y0035246D01*
X0181851Y0035018D01*
X0181641Y0034784D01*
X0181437Y0034546D01*
X0181238Y0034302D01*
X0181045Y0034054D01*
X0181120Y0033997D01*
X0181312Y0034244D01*
X0181509Y0034486D01*
X0181712Y0034723D01*
X0181921Y0034954D01*
X0182135Y0035181D01*
X0182355Y0035403D01*
X0182580Y0035619D01*
X0182811Y0035829D01*
X0183046Y0036034D01*
X0183287Y0036233D01*
X0183532Y0036426D01*
X0183782Y0036612D01*
X0184036Y0036793D01*
X0184295Y0036968D01*
X0184558Y0037136D01*
X0184825Y0037297D01*
X0185096Y0037452D01*
X0185370Y0037601D01*
X0185648Y0037742D01*
X0185930Y0037877D01*
X0186214Y0038005D01*
X0186502Y0038126D01*
X0186793Y0038240D01*
X0187086Y0038346D01*
X0187382Y0038446D01*
X0187680Y0038538D01*
X0187980Y0038623D01*
X0188283Y0038700D01*
X0188587Y0038770D01*
X0188892Y0038833D01*
X0189199Y0038888D01*
X0189508Y0038936D01*
X0189817Y0038976D01*
X0190128Y0039008D01*
X0190439Y0039033D01*
X0190750Y0039050D01*
X0191062Y0039060D01*
X0191374Y0039062D01*
X0191686Y0039056D01*
X0191998Y0039043D01*
X0192309Y0039022D01*
X0192620Y0038994D01*
X0192930Y0038957D01*
X0193239Y0038914D01*
X0193547Y0038863D01*
X0193854Y0038804D01*
X0194158Y0038738D01*
X0194462Y0038664D01*
X0194763Y0038583D01*
X0195062Y0038495D01*
X0195359Y0038399D01*
X0195654Y0038296D01*
X0195946Y0038186D01*
X0196235Y0038069D01*
X0196522Y0037945D01*
X0196805Y0037814D01*
X0197085Y0037676D01*
X0197361Y0037531D01*
X0197634Y0037379D01*
X0197903Y0037221D01*
X0198168Y0037056D01*
X0198429Y0036885D01*
X0198685Y0036708D01*
X0198938Y0036524D01*
X0199185Y0036334D01*
X0199428Y0036139D01*
X0199667Y0035937D01*
X0199900Y0035729D01*
X0200128Y0035516D01*
X0200350Y0035298D01*
X0200568Y0035074D01*
X0200779Y0034845D01*
X0200985Y0034610D01*
X0201186Y0034371D01*
X0201380Y0034127D01*
X0201568Y0033878D01*
X0201751Y0033625D01*
X0201927Y0033367D01*
X0202096Y0033105D01*
X0202259Y0032839D01*
X0202416Y0032569D01*
X0202566Y0032295D01*
X0202709Y0032018D01*
X0202846Y0031738D01*
X0202975Y0031454D01*
X0203098Y0031167D01*
X0203213Y0030877D01*
X0203321Y0030584D01*
X0203423Y0030289D01*
X0203517Y0029991D01*
X0203603Y0029691D01*
X0203682Y0029390D01*
X0203754Y0029086D01*
X0203819Y0028781D01*
X0203876Y0028474D01*
X0203925Y0028166D01*
X0203967Y0027856D01*
X0204001Y0027546D01*
X0204028Y0027235D01*
X0204047Y0026924D01*
X0204058Y0026612D01*
X0204062Y0026300D01*
X0204058Y0025988D01*
X0204047Y0025676D01*
X0204028Y0025365D01*
X0204001Y0025054D01*
X0203967Y0024744D01*
X0203925Y0024434D01*
X0203876Y0024126D01*
X0203819Y0023819D01*
X0203754Y0023514D01*
X0203682Y0023210D01*
X0203603Y0022909D01*
X0203517Y0022609D01*
X0203423Y0022311D01*
X0203321Y0022016D01*
X0203213Y0021723D01*
X0203098Y0021433D01*
X0202975Y0021146D01*
X0202846Y0020862D01*
X0202709Y0020582D01*
X0202566Y0020305D01*
X0202416Y0020031D01*
X0202259Y0019761D01*
X0202096Y0019495D01*
X0201927Y0019233D01*
X0201751Y0018975D01*
X0201568Y0018722D01*
X0201380Y0018473D01*
X0201186Y0018229D01*
X0200985Y0017990D01*
X0200779Y0017755D01*
X0200568Y0017526D01*
X0200350Y0017302D01*
X0200128Y0017084D01*
X0199900Y0016871D01*
X0199667Y0016663D01*
X0199428Y0016461D01*
X0199185Y0016266D01*
X0198938Y0016076D01*
X0198685Y0015892D01*
X0198429Y0015715D01*
X0198168Y0015544D01*
X0197903Y0015379D01*
X0197634Y0015221D01*
X0197361Y0015069D01*
X0197085Y0014924D01*
X0196805Y0014786D01*
X0196522Y0014655D01*
X0196235Y0014531D01*
X0195946Y0014414D01*
X0195654Y0014304D01*
X0195359Y0014201D01*
X0195062Y0014105D01*
X0194763Y0014017D01*
X0194462Y0013936D01*
X0194158Y0013862D01*
X0193854Y0013796D01*
X0193547Y0013737D01*
X0193239Y0013686D01*
X0192930Y0013643D01*
X0192620Y0013606D01*
X0192309Y0013578D01*
X0191998Y0013557D01*
X0191686Y0013544D01*
X0191374Y0013538D01*
X0191062Y0013540D01*
X0190750Y0013550D01*
X0190439Y0013567D01*
X0190128Y0013592D01*
X0189817Y0013624D01*
X0189508Y0013664D01*
X0189199Y0013712D01*
X0188892Y0013767D01*
X0188587Y0013830D01*
X0188283Y0013900D01*
X0187980Y0013977D01*
X0187680Y0014062D01*
X0187382Y0014154D01*
X0187086Y0014254D01*
X0186793Y0014360D01*
X0186502Y0014474D01*
X0186214Y0014595D01*
X0185930Y0014723D01*
X0185648Y0014858D01*
X0185370Y0014999D01*
X0185096Y0015148D01*
X0184825Y0015303D01*
X0184558Y0015464D01*
X0184295Y0015632D01*
X0184036Y0015807D01*
X0183782Y0015988D01*
X0183532Y0016174D01*
X0183287Y0016367D01*
X0183046Y0016566D01*
X0182811Y0016771D01*
X0182580Y0016981D01*
X0182355Y0017197D01*
X0182135Y0017419D01*
X0181921Y0017646D01*
X0181712Y0017877D01*
X0181509Y0018114D01*
X0181312Y0018356D01*
X0181120Y0018603D01*
X0181196Y0018659D01*
X0181386Y0018414D01*
X0181581Y0018174D01*
X0181783Y0017939D01*
X0181990Y0017709D01*
X0182203Y0017484D01*
X0182421Y0017264D01*
X0182645Y0017050D01*
X0182874Y0016841D01*
X0183107Y0016638D01*
X0183346Y0016440D01*
X0183589Y0016249D01*
X0183838Y0016063D01*
X0184090Y0015884D01*
X0184347Y0015711D01*
X0184608Y0015544D01*
X0184873Y0015383D01*
X0185142Y0015230D01*
X0185414Y0015082D01*
X0185690Y0014942D01*
X0185970Y0014808D01*
X0186252Y0014681D01*
X0186538Y0014561D01*
X0186826Y0014448D01*
X0187117Y0014342D01*
X0187411Y0014244D01*
X0187707Y0014152D01*
X0188005Y0014068D01*
X0188305Y0013991D01*
X0188607Y0013922D01*
X0188910Y0013859D01*
X0189215Y0013805D01*
X0189521Y0013757D01*
X0189829Y0013718D01*
X0190137Y0013686D01*
X0190445Y0013661D01*
X0190755Y0013644D01*
X0191064Y0013634D01*
X0191374Y0013632D01*
X0191684Y0013638D01*
X0191993Y0013651D01*
X0192302Y0013672D01*
X0192611Y0013700D01*
X0192918Y0013736D01*
X0193225Y0013779D01*
X0193531Y0013830D01*
X0193835Y0013888D01*
X0194138Y0013954D01*
X0194439Y0014027D01*
X0194738Y0014107D01*
X0195035Y0014195D01*
X0195330Y0014290D01*
X0195622Y0014392D01*
X0195912Y0014501D01*
X0196199Y0014618D01*
X0196483Y0014741D01*
X0196764Y0014871D01*
X0197042Y0015008D01*
X0197316Y0015152D01*
X0197587Y0015302D01*
X0197854Y0015459D01*
X0198117Y0015623D01*
X0198376Y0015793D01*
X0198631Y0015969D01*
X0198882Y0016151D01*
X0199127Y0016340D01*
X0199369Y0016534D01*
X0199605Y0016734D01*
X0199836Y0016940D01*
X0200063Y0017152D01*
X0200284Y0017369D01*
X0200499Y0017591D01*
X0200710Y0017818D01*
X0200914Y0018051D01*
X0201113Y0018289D01*
X0201306Y0018531D01*
X0201493Y0018778D01*
X0201674Y0019029D01*
X0201848Y0019285D01*
X0202017Y0019545D01*
X0202179Y0019809D01*
X0202334Y0020077D01*
X0202483Y0020349D01*
X0202625Y0020624D01*
X0202761Y0020903D01*
X0202889Y0021184D01*
X0203011Y0021469D01*
X0203125Y0021757D01*
X0203233Y0022048D01*
X0203333Y0022341D01*
X0203427Y0022636D01*
X0203513Y0022934D01*
X0203591Y0023233D01*
X0203662Y0023535D01*
X0203726Y0023838D01*
X0203783Y0024142D01*
X0203832Y0024448D01*
X0203873Y0024755D01*
X0203907Y0025063D01*
X0203934Y0025372D01*
X0203953Y0025681D01*
X0203964Y0025990D01*
X0203968Y0026300D01*
X0203964Y0026610D01*
X0203953Y0026919D01*
X0203934Y0027228D01*
X0203907Y0027537D01*
X0203873Y0027845D01*
X0203832Y0028152D01*
X0203783Y0028458D01*
X0203726Y0028762D01*
X0203662Y0029065D01*
X0203591Y0029367D01*
X0203513Y0029666D01*
X0203427Y0029964D01*
X0203333Y0030259D01*
X0203233Y0030552D01*
X0203125Y0030843D01*
X0203011Y0031131D01*
X0202889Y0031416D01*
X0202761Y0031697D01*
X0202625Y0031976D01*
X0202483Y0032251D01*
X0202334Y0032523D01*
X0202179Y0032791D01*
X0202017Y0033055D01*
X0201848Y0033315D01*
X0201674Y0033571D01*
X0201493Y0033822D01*
X0201306Y0034069D01*
X0201113Y0034311D01*
X0200914Y0034549D01*
X0200710Y0034782D01*
X0200499Y0035009D01*
X0200284Y0035231D01*
X0200063Y0035448D01*
X0199836Y0035660D01*
X0199605Y0035866D01*
X0199369Y0036066D01*
X0199127Y0036260D01*
X0198882Y0036449D01*
X0198631Y0036631D01*
X0198376Y0036807D01*
X0198117Y0036977D01*
X0197854Y0037141D01*
X0197587Y0037298D01*
X0197316Y0037448D01*
X0197042Y0037592D01*
X0196764Y0037729D01*
X0196483Y0037859D01*
X0196199Y0037982D01*
X0195912Y0038099D01*
X0195622Y0038208D01*
X0195330Y0038310D01*
X0195035Y0038405D01*
X0194738Y0038493D01*
X0194439Y0038573D01*
X0194138Y0038646D01*
X0193835Y0038712D01*
X0193531Y0038770D01*
X0193225Y0038821D01*
X0192918Y0038864D01*
X0192611Y0038900D01*
X0192302Y0038928D01*
X0191993Y0038949D01*
X0191684Y0038962D01*
X0191374Y0038968D01*
X0191064Y0038966D01*
X0190755Y0038956D01*
X0190445Y0038939D01*
X0190137Y0038914D01*
X0189829Y0038882D01*
X0189521Y0038843D01*
X0189215Y0038795D01*
X0188910Y0038741D01*
X0188607Y0038678D01*
X0188305Y0038609D01*
X0188005Y0038532D01*
X0187707Y0038448D01*
X0187411Y0038356D01*
X0187117Y0038258D01*
X0186826Y0038152D01*
X0186538Y0038039D01*
X0186252Y0037919D01*
X0185970Y0037792D01*
X0185690Y0037658D01*
X0185414Y0037518D01*
X0185142Y0037370D01*
X0184873Y0037217D01*
X0184608Y0037056D01*
X0184347Y0036889D01*
X0184090Y0036716D01*
X0183838Y0036537D01*
X0183589Y0036351D01*
X0183346Y0036160D01*
X0183107Y0035962D01*
X0182874Y0035759D01*
X0182645Y0035550D01*
X0182421Y0035336D01*
X0182203Y0035116D01*
X0181990Y0034891D01*
X0181783Y0034661D01*
X0181581Y0034426D01*
X0181386Y0034186D01*
X0181196Y0033941D01*
X0181271Y0033884D01*
X0181459Y0034127D01*
X0181654Y0034366D01*
X0181854Y0034599D01*
X0182059Y0034827D01*
X0182271Y0035051D01*
X0182487Y0035269D01*
X0182709Y0035482D01*
X0182936Y0035689D01*
X0183168Y0035891D01*
X0183405Y0036087D01*
X0183647Y0036277D01*
X0183893Y0036461D01*
X0184144Y0036639D01*
X0184399Y0036811D01*
X0184658Y0036976D01*
X0184921Y0037136D01*
X0185188Y0037288D01*
X0185458Y0037435D01*
X0185732Y0037574D01*
X0186009Y0037707D01*
X0186290Y0037833D01*
X0186573Y0037952D01*
X0186860Y0038064D01*
X0187149Y0038169D01*
X0187440Y0038267D01*
X0187734Y0038358D01*
X0188030Y0038441D01*
X0188327Y0038518D01*
X0188627Y0038587D01*
X0188928Y0038648D01*
X0189231Y0038703D01*
X0189535Y0038749D01*
X0189840Y0038789D01*
X0190145Y0038821D01*
X0190452Y0038845D01*
X0190759Y0038862D01*
X0191066Y0038872D01*
X0191374Y0038874D01*
X0191681Y0038868D01*
X0191988Y0038855D01*
X0192295Y0038835D01*
X0192601Y0038806D01*
X0192907Y0038771D01*
X0193211Y0038728D01*
X0193514Y0038677D01*
X0193816Y0038620D01*
X0194117Y0038554D01*
X0194416Y0038482D01*
X0194712Y0038402D01*
X0195007Y0038315D01*
X0195300Y0038221D01*
X0195590Y0038119D01*
X0195878Y0038011D01*
X0196163Y0037896D01*
X0196445Y0037773D01*
X0196724Y0037644D01*
X0197000Y0037508D01*
X0197272Y0037365D01*
X0197541Y0037216D01*
X0197806Y0037060D01*
X0198067Y0036898D01*
X0198324Y0036729D01*
X0198577Y0036554D01*
X0198825Y0036373D01*
X0199069Y0036186D01*
X0199309Y0035993D01*
X0199543Y0035795D01*
X0199773Y0035590D01*
X0199998Y0035380D01*
X0200217Y0035165D01*
X0200431Y0034944D01*
X0200640Y0034719D01*
X0200843Y0034488D01*
X0201040Y0034252D01*
X0201232Y0034011D01*
X0201417Y0033766D01*
X0201597Y0033517D01*
X0201770Y0033263D01*
X0201937Y0033005D01*
X0202098Y0032743D01*
X0202252Y0032477D01*
X0202400Y0032207D01*
X0202541Y0031934D01*
X0202676Y0031657D01*
X0202803Y0031378D01*
X0202924Y0031095D01*
X0203038Y0030809D01*
X0203144Y0030521D01*
X0203244Y0030230D01*
X0203337Y0029937D01*
X0203422Y0029641D01*
X0203500Y0029344D01*
X0203571Y0029045D01*
X0203634Y0028744D01*
X0203690Y0028442D01*
X0203739Y0028138D01*
X0203780Y0027833D01*
X0203814Y0027528D01*
X0203840Y0027222D01*
X0203859Y0026915D01*
X0203870Y0026607D01*
X0203874Y0026300D01*
X0203870Y0025993D01*
X0203859Y0025685D01*
X0203840Y0025378D01*
X0203814Y0025072D01*
X0203780Y0024767D01*
X0203739Y0024462D01*
X0203690Y0024158D01*
X0203634Y0023856D01*
X0203571Y0023555D01*
X0203500Y0023256D01*
X0203422Y0022959D01*
X0203337Y0022663D01*
X0203244Y0022370D01*
X0203144Y0022079D01*
X0203038Y0021791D01*
X0202924Y0021505D01*
X0202803Y0021222D01*
X0202676Y0020943D01*
X0202541Y0020666D01*
X0202400Y0020393D01*
X0202252Y0020123D01*
X0202098Y0019857D01*
X0201937Y0019595D01*
X0201770Y0019337D01*
X0201597Y0019083D01*
X0201417Y0018834D01*
X0201232Y0018589D01*
X0201040Y0018348D01*
X0200843Y0018112D01*
X0200640Y0017881D01*
X0200431Y0017656D01*
X0200217Y0017435D01*
X0199998Y0017220D01*
X0199773Y0017010D01*
X0199543Y0016805D01*
X0199309Y0016607D01*
X0199069Y0016414D01*
X0198825Y0016227D01*
X0198577Y0016046D01*
X0198324Y0015871D01*
X0198067Y0015702D01*
X0197806Y0015540D01*
X0197541Y0015384D01*
X0197272Y0015235D01*
X0197000Y0015092D01*
X0196724Y0014956D01*
X0196445Y0014827D01*
X0196163Y0014704D01*
X0195878Y0014589D01*
X0195590Y0014481D01*
X0195300Y0014379D01*
X0195007Y0014285D01*
X0194712Y0014198D01*
X0194416Y0014118D01*
X0194117Y0014046D01*
X0193816Y0013980D01*
X0193514Y0013923D01*
X0193211Y0013872D01*
X0192907Y0013829D01*
X0192601Y0013794D01*
X0192295Y0013765D01*
X0191988Y0013745D01*
X0191681Y0013732D01*
X0191374Y0013726D01*
X0191066Y0013728D01*
X0190759Y0013738D01*
X0190452Y0013755D01*
X0190145Y0013779D01*
X0189840Y0013811D01*
X0189535Y0013851D01*
X0189231Y0013897D01*
X0188928Y0013952D01*
X0188627Y0014013D01*
X0188327Y0014082D01*
X0188030Y0014159D01*
X0187734Y0014242D01*
X0187440Y0014333D01*
X0187149Y0014431D01*
X0186860Y0014536D01*
X0186573Y0014648D01*
X0186290Y0014767D01*
X0186009Y0014893D01*
X0185732Y0015026D01*
X0185458Y0015165D01*
X0185188Y0015312D01*
X0184921Y0015464D01*
X0184658Y0015624D01*
X0184399Y0015789D01*
X0184144Y0015961D01*
X0183893Y0016139D01*
X0183647Y0016323D01*
X0183405Y0016513D01*
X0183168Y0016709D01*
X0182936Y0016911D01*
X0182709Y0017118D01*
X0182487Y0017331D01*
X0182271Y0017549D01*
X0182059Y0017773D01*
X0181854Y0018001D01*
X0181654Y0018234D01*
X0181459Y0018473D01*
X0181271Y0018716D01*
X0181346Y0018772D01*
X0181533Y0018531D01*
X0181726Y0018294D01*
X0181925Y0018063D01*
X0182129Y0017836D01*
X0182338Y0017614D01*
X0182553Y0017398D01*
X0182774Y0017187D01*
X0182999Y0016981D01*
X0183229Y0016781D01*
X0183465Y0016586D01*
X0183704Y0016398D01*
X0183949Y0016215D01*
X0184198Y0016038D01*
X0184451Y0015868D01*
X0184708Y0015703D01*
X0184969Y0015545D01*
X0185234Y0015394D01*
X0185502Y0015249D01*
X0185774Y0015110D01*
X0186049Y0014978D01*
X0186328Y0014853D01*
X0186609Y0014735D01*
X0186893Y0014624D01*
X0187180Y0014520D01*
X0187469Y0014422D01*
X0187761Y0014332D01*
X0188054Y0014249D01*
X0188350Y0014174D01*
X0188647Y0014105D01*
X0188946Y0014044D01*
X0189247Y0013990D01*
X0189548Y0013944D01*
X0189851Y0013904D01*
X0190154Y0013873D01*
X0190459Y0013848D01*
X0190763Y0013832D01*
X0191068Y0013822D01*
X0191373Y0013820D01*
X0191678Y0013826D01*
X0191983Y0013839D01*
X0192288Y0013859D01*
X0192592Y0013887D01*
X0192895Y0013922D01*
X0193197Y0013965D01*
X0193498Y0014015D01*
X0193798Y0014072D01*
X0194096Y0014137D01*
X0194392Y0014209D01*
X0194687Y0014288D01*
X0194980Y0014375D01*
X0195270Y0014468D01*
X0195558Y0014569D01*
X0195844Y0014677D01*
X0196127Y0014791D01*
X0196407Y0014913D01*
X0196684Y0015041D01*
X0196957Y0015176D01*
X0197227Y0015317D01*
X0197494Y0015466D01*
X0197757Y0015620D01*
X0198016Y0015781D01*
X0198272Y0015949D01*
X0198523Y0016122D01*
X0198769Y0016302D01*
X0199011Y0016488D01*
X0199249Y0016679D01*
X0199482Y0016876D01*
X0199710Y0017079D01*
X0199933Y0017288D01*
X0200151Y0017501D01*
X0200363Y0017720D01*
X0200570Y0017944D01*
X0200772Y0018174D01*
X0200968Y0018408D01*
X0201158Y0018646D01*
X0201342Y0018890D01*
X0201520Y0019137D01*
X0201692Y0019389D01*
X0201858Y0019646D01*
X0202017Y0019906D01*
X0202171Y0020170D01*
X0202317Y0020437D01*
X0202457Y0020708D01*
X0202591Y0020983D01*
X0202717Y0021260D01*
X0202837Y0021541D01*
X0202950Y0021825D01*
X0203056Y0022111D01*
X0203155Y0022399D01*
X0203247Y0022690D01*
X0203331Y0022984D01*
X0203409Y0023279D01*
X0203479Y0023576D01*
X0203542Y0023874D01*
X0203598Y0024174D01*
X0203646Y0024476D01*
X0203687Y0024778D01*
X0203720Y0025081D01*
X0203746Y0025385D01*
X0203765Y0025690D01*
X0203776Y0025995D01*
X0203780Y0026300D01*
X0203776Y0026605D01*
X0203765Y0026910D01*
X0203746Y0027215D01*
X0203720Y0027519D01*
X0203687Y0027822D01*
X0203646Y0028124D01*
X0203598Y0028426D01*
X0203542Y0028726D01*
X0203479Y0029024D01*
X0203409Y0029321D01*
X0203331Y0029616D01*
X0203247Y0029910D01*
X0203155Y0030201D01*
X0203056Y0030489D01*
X0202950Y0030775D01*
X0202837Y0031059D01*
X0202717Y0031340D01*
X0202591Y0031617D01*
X0202457Y0031892D01*
X0202317Y0032163D01*
X0202171Y0032430D01*
X0202017Y0032694D01*
X0201858Y0032954D01*
X0201692Y0033211D01*
X0201520Y0033463D01*
X0201342Y0033710D01*
X0201158Y0033954D01*
X0200968Y0034192D01*
X0200772Y0034426D01*
X0200570Y0034656D01*
X0200363Y0034880D01*
X0200151Y0035099D01*
X0199933Y0035312D01*
X0199710Y0035521D01*
X0199482Y0035724D01*
X0199249Y0035921D01*
X0199011Y0036112D01*
X0198769Y0036298D01*
X0198523Y0036478D01*
X0198272Y0036651D01*
X0198016Y0036819D01*
X0197757Y0036980D01*
X0197494Y0037134D01*
X0197227Y0037283D01*
X0196957Y0037424D01*
X0196684Y0037559D01*
X0196407Y0037687D01*
X0196127Y0037809D01*
X0195844Y0037923D01*
X0195558Y0038031D01*
X0195270Y0038132D01*
X0194980Y0038225D01*
X0194687Y0038312D01*
X0194392Y0038391D01*
X0194096Y0038463D01*
X0193798Y0038528D01*
X0193498Y0038585D01*
X0193197Y0038635D01*
X0192895Y0038678D01*
X0192592Y0038713D01*
X0192288Y0038741D01*
X0191983Y0038761D01*
X0191678Y0038774D01*
X0191373Y0038780D01*
X0191068Y0038778D01*
X0190763Y0038768D01*
X0190459Y0038752D01*
X0190154Y0038727D01*
X0189851Y0038696D01*
X0189548Y0038656D01*
X0189247Y0038610D01*
X0188946Y0038556D01*
X0188647Y0038495D01*
X0188350Y0038426D01*
X0188054Y0038351D01*
X0187761Y0038268D01*
X0187469Y0038178D01*
X0187180Y0038080D01*
X0186893Y0037976D01*
X0186609Y0037865D01*
X0186328Y0037747D01*
X0186049Y0037622D01*
X0185774Y0037490D01*
X0185502Y0037351D01*
X0185234Y0037206D01*
X0184969Y0037055D01*
X0184708Y0036897D01*
X0184451Y0036732D01*
X0184198Y0036562D01*
X0183949Y0036385D01*
X0183704Y0036202D01*
X0183465Y0036014D01*
X0183229Y0035819D01*
X0182999Y0035619D01*
X0182774Y0035413D01*
X0182553Y0035202D01*
X0182338Y0034986D01*
X0182129Y0034764D01*
X0181925Y0034537D01*
X0181726Y0034306D01*
X0181533Y0034069D01*
X0181346Y0033828D01*
X0181421Y0033772D01*
X0181607Y0034011D01*
X0181798Y0034246D01*
X0181995Y0034475D01*
X0182198Y0034700D01*
X0182406Y0034921D01*
X0182620Y0035135D01*
X0182838Y0035345D01*
X0183062Y0035549D01*
X0183290Y0035748D01*
X0183524Y0035941D01*
X0183762Y0036128D01*
X0184004Y0036309D01*
X0184251Y0036485D01*
X0184502Y0036654D01*
X0184758Y0036817D01*
X0185017Y0036974D01*
X0185280Y0037124D01*
X0185546Y0037268D01*
X0185816Y0037406D01*
X0186089Y0037537D01*
X0186365Y0037661D01*
X0186645Y0037778D01*
X0186927Y0037888D01*
X0187211Y0037992D01*
X0187498Y0038088D01*
X0187788Y0038178D01*
X0188079Y0038260D01*
X0188372Y0038335D01*
X0188668Y0038403D01*
X0188964Y0038464D01*
X0189262Y0038517D01*
X0189562Y0038563D01*
X0189862Y0038602D01*
X0190163Y0038634D01*
X0190465Y0038658D01*
X0190768Y0038675D01*
X0191070Y0038684D01*
X0191373Y0038686D01*
X0191676Y0038680D01*
X0191978Y0038667D01*
X0192281Y0038647D01*
X0192582Y0038619D01*
X0192883Y0038584D01*
X0193183Y0038542D01*
X0193482Y0038492D01*
X0193779Y0038435D01*
X0194075Y0038371D01*
X0194369Y0038300D01*
X0194662Y0038221D01*
X0194952Y0038135D01*
X0195241Y0038042D01*
X0195526Y0037943D01*
X0195810Y0037836D01*
X0196090Y0037722D01*
X0196368Y0037602D01*
X0196643Y0037474D01*
X0196915Y0037340D01*
X0197183Y0037200D01*
X0197448Y0037053D01*
X0197709Y0036899D01*
X0197966Y0036739D01*
X0198219Y0036573D01*
X0198468Y0036401D01*
X0198713Y0036223D01*
X0198954Y0036038D01*
X0199189Y0035848D01*
X0199420Y0035653D01*
X0199647Y0035451D01*
X0199868Y0035245D01*
X0200084Y0035032D01*
X0200295Y0034815D01*
X0200500Y0034593D01*
X0200700Y0034365D01*
X0200895Y0034133D01*
X0201083Y0033896D01*
X0201266Y0033654D01*
X0201443Y0033409D01*
X0201614Y0033158D01*
X0201778Y0032904D01*
X0201937Y0032646D01*
X0202089Y0032384D01*
X0202234Y0032119D01*
X0202373Y0031850D01*
X0202506Y0031577D01*
X0202631Y0031302D01*
X0202750Y0031023D01*
X0202862Y0030742D01*
X0202967Y0030458D01*
X0203066Y0030171D01*
X0203157Y0029882D01*
X0203241Y0029591D01*
X0203318Y0029298D01*
X0203387Y0029004D01*
X0203450Y0028707D01*
X0203505Y0028410D01*
X0203553Y0028111D01*
X0203594Y0027811D01*
X0203627Y0027509D01*
X0203653Y0027208D01*
X0203671Y0026905D01*
X0203682Y0026603D01*
X0203686Y0026300D01*
X0203682Y0025997D01*
X0203671Y0025695D01*
X0203653Y0025392D01*
X0203627Y0025091D01*
X0203594Y0024789D01*
X0203553Y0024489D01*
X0203505Y0024190D01*
X0203450Y0023893D01*
X0203387Y0023596D01*
X0203318Y0023302D01*
X0203241Y0023009D01*
X0203157Y0022718D01*
X0203066Y0022429D01*
X0202967Y0022142D01*
X0202862Y0021858D01*
X0202750Y0021577D01*
X0202631Y0021298D01*
X0202506Y0021023D01*
X0202373Y0020750D01*
X0202234Y0020481D01*
X0202089Y0020216D01*
X0201937Y0019954D01*
X0201778Y0019696D01*
X0201614Y0019442D01*
X0201443Y0019191D01*
X0201266Y0018946D01*
X0201083Y0018704D01*
X0200895Y0018467D01*
X0200700Y0018235D01*
X0200500Y0018007D01*
X0200295Y0017785D01*
X0200084Y0017568D01*
X0199868Y0017355D01*
X0199647Y0017149D01*
X0199420Y0016947D01*
X0199189Y0016752D01*
X0198954Y0016562D01*
X0198713Y0016377D01*
X0198468Y0016199D01*
X0198219Y0016027D01*
X0197966Y0015861D01*
X0197709Y0015701D01*
X0197448Y0015547D01*
X0197183Y0015400D01*
X0196915Y0015260D01*
X0196643Y0015126D01*
X0196368Y0014998D01*
X0196090Y0014878D01*
X0195810Y0014764D01*
X0195526Y0014657D01*
X0195241Y0014558D01*
X0194952Y0014465D01*
X0194662Y0014379D01*
X0194369Y0014300D01*
X0194075Y0014229D01*
X0193779Y0014165D01*
X0193482Y0014108D01*
X0193183Y0014058D01*
X0192883Y0014016D01*
X0192582Y0013981D01*
X0192281Y0013953D01*
X0191978Y0013933D01*
X0191676Y0013920D01*
X0191373Y0013914D01*
X0191070Y0013916D01*
X0190768Y0013925D01*
X0190465Y0013942D01*
X0190163Y0013966D01*
X0189862Y0013998D01*
X0189562Y0014037D01*
X0189262Y0014083D01*
X0188964Y0014136D01*
X0188668Y0014197D01*
X0188372Y0014265D01*
X0188079Y0014340D01*
X0187788Y0014422D01*
X0187498Y0014512D01*
X0187211Y0014608D01*
X0186927Y0014712D01*
X0186645Y0014822D01*
X0186365Y0014939D01*
X0186089Y0015063D01*
X0185816Y0015194D01*
X0185546Y0015332D01*
X0185280Y0015476D01*
X0185017Y0015626D01*
X0184758Y0015783D01*
X0184502Y0015946D01*
X0184251Y0016115D01*
X0184004Y0016291D01*
X0183762Y0016472D01*
X0183524Y0016659D01*
X0183290Y0016852D01*
X0183062Y0017051D01*
X0182838Y0017255D01*
X0182620Y0017465D01*
X0182406Y0017679D01*
X0182198Y0017900D01*
X0181995Y0018125D01*
X0181798Y0018354D01*
X0181607Y0018589D01*
X0181421Y0018828D01*
X0181496Y0018885D01*
X0181681Y0018647D01*
X0181871Y0018415D01*
X0182066Y0018186D01*
X0182267Y0017963D01*
X0182474Y0017745D01*
X0182686Y0017531D01*
X0182903Y0017323D01*
X0183125Y0017121D01*
X0183352Y0016924D01*
X0183583Y0016732D01*
X0183819Y0016546D01*
X0184060Y0016366D01*
X0184305Y0016192D01*
X0184554Y0016024D01*
X0184808Y0015862D01*
X0185065Y0015707D01*
X0185326Y0015558D01*
X0185590Y0015415D01*
X0185858Y0015278D01*
X0186129Y0015149D01*
X0186403Y0015026D01*
X0186680Y0014909D01*
X0186960Y0014800D01*
X0187243Y0014697D01*
X0187527Y0014601D01*
X0187815Y0014513D01*
X0188104Y0014431D01*
X0188395Y0014356D01*
X0188688Y0014289D01*
X0188982Y0014228D01*
X0189278Y0014175D01*
X0189575Y0014130D01*
X0189873Y0014091D01*
X0190172Y0014060D01*
X0190472Y0014036D01*
X0190772Y0014019D01*
X0191072Y0014010D01*
X0191373Y0014008D01*
X0191673Y0014014D01*
X0191974Y0014026D01*
X0192273Y0014047D01*
X0192573Y0014074D01*
X0192871Y0014109D01*
X0193169Y0014151D01*
X0193465Y0014200D01*
X0193760Y0014257D01*
X0194054Y0014321D01*
X0194346Y0014391D01*
X0194636Y0014469D01*
X0194925Y0014555D01*
X0195211Y0014647D01*
X0195495Y0014746D01*
X0195776Y0014852D01*
X0196054Y0014965D01*
X0196330Y0015084D01*
X0196603Y0015211D01*
X0196872Y0015344D01*
X0197138Y0015483D01*
X0197401Y0015629D01*
X0197660Y0015781D01*
X0197916Y0015940D01*
X0198167Y0016105D01*
X0198414Y0016276D01*
X0198657Y0016453D01*
X0198896Y0016636D01*
X0199130Y0016824D01*
X0199359Y0017018D01*
X0199583Y0017218D01*
X0199803Y0017423D01*
X0200017Y0017634D01*
X0200227Y0017850D01*
X0200431Y0018070D01*
X0200629Y0018296D01*
X0200822Y0018527D01*
X0201009Y0018762D01*
X0201191Y0019001D01*
X0201366Y0019245D01*
X0201536Y0019494D01*
X0201699Y0019746D01*
X0201856Y0020002D01*
X0202007Y0020262D01*
X0202151Y0020526D01*
X0202289Y0020793D01*
X0202421Y0021063D01*
X0202545Y0021336D01*
X0202663Y0021613D01*
X0202774Y0021892D01*
X0202879Y0022174D01*
X0202976Y0022458D01*
X0203067Y0022745D01*
X0203150Y0023034D01*
X0203226Y0023324D01*
X0203296Y0023617D01*
X0203358Y0023911D01*
X0203412Y0024206D01*
X0203460Y0024503D01*
X0203500Y0024801D01*
X0203533Y0025100D01*
X0203559Y0025399D01*
X0203577Y0025699D01*
X0203588Y0025999D01*
X0203592Y0026300D01*
X0203588Y0026601D01*
X0203577Y0026901D01*
X0203559Y0027201D01*
X0203533Y0027500D01*
X0203500Y0027799D01*
X0203460Y0028097D01*
X0203412Y0028394D01*
X0203358Y0028689D01*
X0203296Y0028983D01*
X0203226Y0029276D01*
X0203150Y0029566D01*
X0203067Y0029855D01*
X0202976Y0030142D01*
X0202879Y0030426D01*
X0202774Y0030708D01*
X0202663Y0030987D01*
X0202545Y0031264D01*
X0202421Y0031537D01*
X0202289Y0031807D01*
X0202151Y0032074D01*
X0202007Y0032338D01*
X0201856Y0032598D01*
X0201699Y0032854D01*
X0201536Y0033106D01*
X0201366Y0033355D01*
X0201191Y0033599D01*
X0201009Y0033838D01*
X0200822Y0034073D01*
X0200629Y0034304D01*
X0200431Y0034530D01*
X0200227Y0034750D01*
X0200017Y0034966D01*
X0199803Y0035177D01*
X0199583Y0035382D01*
X0199359Y0035582D01*
X0199130Y0035776D01*
X0198896Y0035964D01*
X0198657Y0036147D01*
X0198414Y0036324D01*
X0198167Y0036495D01*
X0197916Y0036660D01*
X0197660Y0036819D01*
X0197401Y0036971D01*
X0197138Y0037117D01*
X0196872Y0037256D01*
X0196603Y0037389D01*
X0196330Y0037516D01*
X0196054Y0037635D01*
X0195776Y0037748D01*
X0195495Y0037854D01*
X0195211Y0037953D01*
X0194925Y0038045D01*
X0194636Y0038131D01*
X0194346Y0038209D01*
X0194054Y0038279D01*
X0193760Y0038343D01*
X0193465Y0038400D01*
X0193169Y0038449D01*
X0192871Y0038491D01*
X0192573Y0038526D01*
X0192273Y0038553D01*
X0191974Y0038574D01*
X0191673Y0038586D01*
X0191373Y0038592D01*
X0191072Y0038590D01*
X0190772Y0038581D01*
X0190472Y0038564D01*
X0190172Y0038540D01*
X0189873Y0038509D01*
X0189575Y0038470D01*
X0189278Y0038425D01*
X0188982Y0038372D01*
X0188688Y0038311D01*
X0188395Y0038244D01*
X0188104Y0038169D01*
X0187815Y0038087D01*
X0187527Y0037999D01*
X0187243Y0037903D01*
X0186960Y0037800D01*
X0186680Y0037691D01*
X0186403Y0037574D01*
X0186129Y0037451D01*
X0185858Y0037322D01*
X0185590Y0037185D01*
X0185326Y0037042D01*
X0185065Y0036893D01*
X0184808Y0036738D01*
X0184554Y0036576D01*
X0184305Y0036408D01*
X0184060Y0036234D01*
X0183819Y0036054D01*
X0183583Y0035868D01*
X0183352Y0035676D01*
X0183125Y0035479D01*
X0182903Y0035277D01*
X0182686Y0035069D01*
X0182474Y0034855D01*
X0182267Y0034637D01*
X0182066Y0034414D01*
X0181871Y0034185D01*
X0181681Y0033953D01*
X0181496Y0033715D01*
X0181572Y0033659D01*
X0181754Y0033894D01*
X0181943Y0034125D01*
X0182137Y0034352D01*
X0182337Y0034574D01*
X0182542Y0034790D01*
X0182752Y0035002D01*
X0182967Y0035208D01*
X0183187Y0035409D01*
X0183413Y0035605D01*
X0183642Y0035795D01*
X0183877Y0035979D01*
X0184116Y0036158D01*
X0184359Y0036331D01*
X0184606Y0036497D01*
X0184858Y0036658D01*
X0185113Y0036812D01*
X0185372Y0036960D01*
X0185634Y0037102D01*
X0185900Y0037237D01*
X0186169Y0037366D01*
X0186441Y0037488D01*
X0186716Y0037604D01*
X0186994Y0037713D01*
X0187274Y0037814D01*
X0187557Y0037909D01*
X0187842Y0037997D01*
X0188129Y0038078D01*
X0188417Y0038153D01*
X0188708Y0038219D01*
X0189000Y0038279D01*
X0189294Y0038332D01*
X0189589Y0038377D01*
X0189884Y0038416D01*
X0190181Y0038447D01*
X0190478Y0038470D01*
X0190776Y0038487D01*
X0191074Y0038496D01*
X0191372Y0038498D01*
X0191671Y0038492D01*
X0191969Y0038480D01*
X0192266Y0038460D01*
X0192563Y0038432D01*
X0192859Y0038398D01*
X0193155Y0038356D01*
X0193449Y0038307D01*
X0193742Y0038251D01*
X0194033Y0038188D01*
X0194323Y0038117D01*
X0194611Y0038040D01*
X0194897Y0037956D01*
X0195181Y0037864D01*
X0195463Y0037766D01*
X0195742Y0037661D01*
X0196018Y0037549D01*
X0196292Y0037430D01*
X0196562Y0037305D01*
X0196830Y0037173D01*
X0197094Y0037034D01*
X0197355Y0036889D01*
X0197612Y0036738D01*
X0197865Y0036581D01*
X0198114Y0036417D01*
X0198360Y0036247D01*
X0198601Y0036072D01*
X0198838Y0035890D01*
X0199070Y0035703D01*
X0199297Y0035511D01*
X0199520Y0035312D01*
X0199738Y0035109D01*
X0199951Y0034900D01*
X0200159Y0034686D01*
X0200361Y0034466D01*
X0200558Y0034243D01*
X0200749Y0034014D01*
X0200935Y0033780D01*
X0201115Y0033543D01*
X0201289Y0033301D01*
X0201457Y0033054D01*
X0201619Y0032804D01*
X0201775Y0032550D01*
X0201925Y0032292D01*
X0202068Y0032030D01*
X0202205Y0031765D01*
X0202336Y0031497D01*
X0202459Y0031226D01*
X0202576Y0030951D01*
X0202687Y0030674D01*
X0202790Y0030394D01*
X0202887Y0030112D01*
X0202977Y0029828D01*
X0203059Y0029541D01*
X0203135Y0029253D01*
X0203204Y0028963D01*
X0203265Y0028671D01*
X0203320Y0028378D01*
X0203367Y0028083D01*
X0203407Y0027788D01*
X0203440Y0027491D01*
X0203465Y0027194D01*
X0203483Y0026896D01*
X0203494Y0026598D01*
X0203498Y0026300D01*
X0203494Y0026002D01*
X0203483Y0025704D01*
X0203465Y0025406D01*
X0203440Y0025109D01*
X0203407Y0024812D01*
X0203367Y0024517D01*
X0203320Y0024222D01*
X0203265Y0023929D01*
X0203204Y0023637D01*
X0203135Y0023347D01*
X0203059Y0023059D01*
X0202977Y0022772D01*
X0202887Y0022488D01*
X0202790Y0022206D01*
X0202687Y0021926D01*
X0202576Y0021649D01*
X0202459Y0021374D01*
X0202336Y0021103D01*
X0202205Y0020835D01*
X0202068Y0020570D01*
X0201925Y0020308D01*
X0201775Y0020050D01*
X0201619Y0019796D01*
X0201457Y0019546D01*
X0201289Y0019299D01*
X0201115Y0019057D01*
X0200935Y0018820D01*
X0200749Y0018586D01*
X0200558Y0018357D01*
X0200361Y0018134D01*
X0200159Y0017914D01*
X0199951Y0017700D01*
X0199738Y0017491D01*
X0199520Y0017288D01*
X0199297Y0017089D01*
X0199070Y0016897D01*
X0198838Y0016710D01*
X0198601Y0016528D01*
X0198360Y0016353D01*
X0198114Y0016183D01*
X0197865Y0016019D01*
X0197612Y0015862D01*
X0197355Y0015711D01*
X0197094Y0015566D01*
X0196830Y0015427D01*
X0196562Y0015295D01*
X0196292Y0015170D01*
X0196018Y0015051D01*
X0195742Y0014939D01*
X0195463Y0014834D01*
X0195181Y0014736D01*
X0194897Y0014644D01*
X0194611Y0014560D01*
X0194323Y0014483D01*
X0194033Y0014412D01*
X0193742Y0014349D01*
X0193449Y0014293D01*
X0193155Y0014244D01*
X0192859Y0014202D01*
X0192563Y0014168D01*
X0192266Y0014140D01*
X0191969Y0014120D01*
X0191671Y0014108D01*
X0191372Y0014102D01*
X0191074Y0014104D01*
X0190776Y0014113D01*
X0190478Y0014130D01*
X0190181Y0014153D01*
X0189884Y0014184D01*
X0189589Y0014223D01*
X0189294Y0014268D01*
X0189000Y0014321D01*
X0188708Y0014381D01*
X0188417Y0014447D01*
X0188129Y0014522D01*
X0187842Y0014603D01*
X0187557Y0014691D01*
X0187274Y0014786D01*
X0186994Y0014887D01*
X0186716Y0014996D01*
X0186441Y0015112D01*
X0186169Y0015234D01*
X0185900Y0015363D01*
X0185634Y0015498D01*
X0185372Y0015640D01*
X0185113Y0015788D01*
X0184858Y0015942D01*
X0184606Y0016103D01*
X0184359Y0016269D01*
X0184116Y0016442D01*
X0183877Y0016621D01*
X0183642Y0016805D01*
X0183413Y0016995D01*
X0183187Y0017191D01*
X0182967Y0017392D01*
X0182752Y0017598D01*
X0182542Y0017810D01*
X0182337Y0018026D01*
X0182137Y0018248D01*
X0181943Y0018475D01*
X0181754Y0018706D01*
X0181572Y0018941D01*
X0181647Y0018998D01*
X0181828Y0018764D01*
X0182015Y0018535D01*
X0182208Y0018310D01*
X0182406Y0018090D01*
X0182609Y0017875D01*
X0182818Y0017665D01*
X0183032Y0017460D01*
X0183250Y0017261D01*
X0183474Y0017067D01*
X0183702Y0016878D01*
X0183934Y0016695D01*
X0184171Y0016518D01*
X0184413Y0016347D01*
X0184658Y0016181D01*
X0184907Y0016022D01*
X0185161Y0015869D01*
X0185417Y0015722D01*
X0185678Y0015581D01*
X0185942Y0015447D01*
X0186209Y0015319D01*
X0186479Y0015198D01*
X0186751Y0015083D01*
X0187027Y0014975D01*
X0187305Y0014874D01*
X0187586Y0014780D01*
X0187868Y0014693D01*
X0188153Y0014612D01*
X0188440Y0014539D01*
X0188728Y0014472D01*
X0189018Y0014413D01*
X0189310Y0014361D01*
X0189602Y0014316D01*
X0189896Y0014278D01*
X0190190Y0014247D01*
X0190485Y0014223D01*
X0190780Y0014207D01*
X0191076Y0014198D01*
X0191372Y0014196D01*
X0191668Y0014202D01*
X0191964Y0014214D01*
X0192259Y0014234D01*
X0192554Y0014261D01*
X0192848Y0014295D01*
X0193141Y0014337D01*
X0193433Y0014385D01*
X0193723Y0014441D01*
X0194012Y0014504D01*
X0194300Y0014574D01*
X0194586Y0014651D01*
X0194870Y0014734D01*
X0195151Y0014825D01*
X0195431Y0014923D01*
X0195708Y0015027D01*
X0195982Y0015138D01*
X0196253Y0015256D01*
X0196522Y0015380D01*
X0196787Y0015511D01*
X0197049Y0015649D01*
X0197308Y0015792D01*
X0197563Y0015942D01*
X0197815Y0016099D01*
X0198062Y0016261D01*
X0198305Y0016429D01*
X0198545Y0016604D01*
X0198780Y0016784D01*
X0199010Y0016969D01*
X0199236Y0017161D01*
X0199457Y0017357D01*
X0199673Y0017559D01*
X0199884Y0017767D01*
X0200090Y0017979D01*
X0200291Y0018197D01*
X0200487Y0018419D01*
X0200677Y0018646D01*
X0200861Y0018877D01*
X0201039Y0019113D01*
X0201212Y0019353D01*
X0201379Y0019598D01*
X0201540Y0019846D01*
X0201695Y0020099D01*
X0201843Y0020355D01*
X0201985Y0020614D01*
X0202121Y0020877D01*
X0202251Y0021143D01*
X0202373Y0021412D01*
X0202490Y0021685D01*
X0202599Y0021960D01*
X0202702Y0022237D01*
X0202798Y0022517D01*
X0202887Y0022799D01*
X0202969Y0023084D01*
X0203044Y0023370D01*
X0203112Y0023658D01*
X0203173Y0023947D01*
X0203227Y0024238D01*
X0203274Y0024531D01*
X0203314Y0024824D01*
X0203346Y0025118D01*
X0203371Y0025413D01*
X0203390Y0025708D01*
X0203400Y0026004D01*
X0203404Y0026300D01*
X0203400Y0026596D01*
X0203390Y0026892D01*
X0203371Y0027187D01*
X0203346Y0027482D01*
X0203314Y0027776D01*
X0203274Y0028069D01*
X0203227Y0028362D01*
X0203173Y0028653D01*
X0203112Y0028942D01*
X0203044Y0029230D01*
X0202969Y0029516D01*
X0202887Y0029801D01*
X0202798Y0030083D01*
X0202702Y0030363D01*
X0202599Y0030640D01*
X0202490Y0030915D01*
X0202373Y0031188D01*
X0202251Y0031457D01*
X0202121Y0031723D01*
X0201985Y0031986D01*
X0201843Y0032245D01*
X0201695Y0032501D01*
X0201540Y0032754D01*
X0201379Y0033002D01*
X0201212Y0033247D01*
X0201039Y0033487D01*
X0200861Y0033723D01*
X0200677Y0033954D01*
X0200487Y0034181D01*
X0200291Y0034403D01*
X0200090Y0034621D01*
X0199884Y0034833D01*
X0199673Y0035041D01*
X0199457Y0035243D01*
X0199236Y0035439D01*
X0199010Y0035631D01*
X0198780Y0035816D01*
X0198545Y0035996D01*
X0198305Y0036171D01*
X0198062Y0036339D01*
X0197815Y0036501D01*
X0197563Y0036658D01*
X0197308Y0036808D01*
X0197049Y0036951D01*
X0196787Y0037089D01*
X0196522Y0037220D01*
X0196253Y0037344D01*
X0195982Y0037462D01*
X0195708Y0037573D01*
X0195431Y0037677D01*
X0195151Y0037775D01*
X0194870Y0037866D01*
X0194586Y0037949D01*
X0194300Y0038026D01*
X0194012Y0038096D01*
X0193723Y0038159D01*
X0193433Y0038215D01*
X0193141Y0038263D01*
X0192848Y0038305D01*
X0192554Y0038339D01*
X0192259Y0038366D01*
X0191964Y0038386D01*
X0191668Y0038398D01*
X0191372Y0038404D01*
X0191076Y0038402D01*
X0190780Y0038393D01*
X0190485Y0038377D01*
X0190190Y0038353D01*
X0189896Y0038322D01*
X0189602Y0038284D01*
X0189310Y0038239D01*
X0189018Y0038187D01*
X0188728Y0038128D01*
X0188440Y0038061D01*
X0188153Y0037988D01*
X0187868Y0037907D01*
X0187586Y0037820D01*
X0187305Y0037726D01*
X0187027Y0037625D01*
X0186751Y0037517D01*
X0186479Y0037402D01*
X0186209Y0037281D01*
X0185942Y0037153D01*
X0185678Y0037019D01*
X0185417Y0036878D01*
X0185161Y0036731D01*
X0184907Y0036578D01*
X0184658Y0036419D01*
X0184413Y0036253D01*
X0184171Y0036082D01*
X0183934Y0035905D01*
X0183702Y0035722D01*
X0183474Y0035533D01*
X0183250Y0035339D01*
X0183032Y0035140D01*
X0182818Y0034935D01*
X0182609Y0034725D01*
X0182406Y0034510D01*
X0182208Y0034290D01*
X0182015Y0034065D01*
X0181828Y0033836D01*
X0181647Y0033602D01*
M02*
