G75*
%MOIN*%
%OFA0B0*%
%FSLAX25Y25*%
%IPPOS*%
%LPD*%
%AMOC8*
5,1,8,0,0,1.08239X$1,22.5*
%
%ADD10C,0.00600*%
%ADD11R,0.02756X0.03937*%
%ADD12R,0.04331X0.03937*%
%ADD13R,0.06299X0.01181*%
%ADD14R,0.02500X0.05000*%
%ADD15R,0.03937X0.04331*%
%ADD16R,0.11811X0.10630*%
%ADD17R,0.07480X0.20079*%
D10*
X0026300Y0001300D02*
X0001300Y0026300D01*
X0001300Y0096300D01*
X0031300Y0126300D01*
X0211300Y0126300D01*
X0246300Y0091300D01*
X0246300Y0031300D01*
X0216300Y0001300D01*
X0026300Y0001300D01*
D11*
X0031300Y0081300D03*
X0035040Y0081300D03*
X0038780Y0081300D03*
X0038780Y0090749D03*
X0031300Y0090749D03*
D12*
X0027954Y0099300D03*
X0034646Y0099300D03*
X0031146Y0069300D03*
X0024454Y0069300D03*
X0059954Y0044800D03*
X0066646Y0044800D03*
D13*
X0075276Y0044935D03*
X0075276Y0042376D03*
X0075276Y0047494D03*
X0075276Y0050053D03*
X0075276Y0052612D03*
X0075276Y0055171D03*
X0075276Y0057730D03*
X0075276Y0060289D03*
X0097324Y0060289D03*
X0097324Y0057730D03*
X0097324Y0055171D03*
X0097324Y0052612D03*
X0097324Y0050053D03*
X0097324Y0047494D03*
X0097324Y0044935D03*
X0097324Y0042376D03*
D14*
X0086300Y0051300D03*
D15*
X0111300Y0052954D03*
X0111300Y0059646D03*
X0111300Y0044646D03*
X0111300Y0037954D03*
X0067800Y0033146D03*
X0067800Y0026454D03*
X0052800Y0037954D03*
X0052800Y0044646D03*
X0211300Y0057954D03*
X0221300Y0057954D03*
X0221300Y0064646D03*
X0211300Y0064646D03*
X0211300Y0085954D03*
X0211300Y0092646D03*
D16*
X0131300Y0070473D03*
X0131300Y0042127D03*
D17*
X0065068Y0067300D03*
X0048532Y0067300D03*
M02*
