G75*
%MOIN*%
%OFA0B0*%
%FSLAX25Y25*%
%IPPOS*%
%LPD*%
%AMOC8*
5,1,8,0,0,1.08239X$1,22.5*
%
%ADD10C,0.00600*%
%ADD11R,0.02756X0.03937*%
%ADD12R,0.04331X0.03937*%
%ADD13R,0.06299X0.01181*%
%ADD14R,0.02500X0.05000*%
%ADD15R,0.13386X0.19685*%
%ADD16R,0.03937X0.04331*%
%ADD17R,0.11811X0.10630*%
%ADD18R,0.07480X0.20079*%
%ADD19C,0.07400*%
%ADD20C,0.07400*%
%ADD21C,0.01800*%
%ADD22C,0.03600*%
%ADD23C,0.01200*%
%ADD24C,0.06000*%
%ADD25C,0.02400*%
D10*
X0026300Y0001300D02*
X0001300Y0026300D01*
X0001300Y0096300D01*
X0031300Y0126300D01*
X0211300Y0126300D01*
X0246300Y0091300D01*
X0246300Y0031300D01*
X0216300Y0001300D01*
X0026300Y0001300D01*
X0051300Y0046300D02*
X0045300Y0052800D01*
X0045300Y0076800D01*
X0053800Y0076800D01*
X0054300Y0076300D01*
X0054300Y0057300D01*
X0059800Y0051800D01*
X0059800Y0046300D01*
X0051300Y0046300D01*
X0051242Y0046363D02*
X0059800Y0046363D01*
X0059800Y0046962D02*
X0050689Y0046962D01*
X0050137Y0047560D02*
X0059800Y0047560D01*
X0059800Y0048159D02*
X0049584Y0048159D01*
X0049032Y0048757D02*
X0059800Y0048757D01*
X0059800Y0049356D02*
X0048479Y0049356D01*
X0047927Y0049954D02*
X0059800Y0049954D01*
X0059800Y0050553D02*
X0047375Y0050553D01*
X0046822Y0051151D02*
X0059800Y0051151D01*
X0059800Y0051750D02*
X0046270Y0051750D01*
X0045717Y0052348D02*
X0059252Y0052348D01*
X0058653Y0052947D02*
X0045300Y0052947D01*
X0045300Y0053545D02*
X0058055Y0053545D01*
X0057456Y0054144D02*
X0045300Y0054144D01*
X0045300Y0054742D02*
X0056858Y0054742D01*
X0056259Y0055341D02*
X0045300Y0055341D01*
X0045300Y0055939D02*
X0055661Y0055939D01*
X0055062Y0056538D02*
X0045300Y0056538D01*
X0045300Y0057136D02*
X0054464Y0057136D01*
X0054300Y0057735D02*
X0045300Y0057735D01*
X0045300Y0058333D02*
X0054300Y0058333D01*
X0054300Y0058932D02*
X0045300Y0058932D01*
X0045300Y0059530D02*
X0054300Y0059530D01*
X0054300Y0060129D02*
X0045300Y0060129D01*
X0045300Y0060727D02*
X0054300Y0060727D01*
X0054300Y0061326D02*
X0045300Y0061326D01*
X0045300Y0061924D02*
X0054300Y0061924D01*
X0054300Y0062523D02*
X0045300Y0062523D01*
X0045300Y0063121D02*
X0054300Y0063121D01*
X0054300Y0063720D02*
X0045300Y0063720D01*
X0045300Y0064318D02*
X0054300Y0064318D01*
X0054300Y0064917D02*
X0045300Y0064917D01*
X0045300Y0065515D02*
X0054300Y0065515D01*
X0054300Y0066114D02*
X0045300Y0066114D01*
X0045300Y0066712D02*
X0054300Y0066712D01*
X0054300Y0067311D02*
X0045300Y0067311D01*
X0045300Y0067909D02*
X0054300Y0067909D01*
X0054300Y0068508D02*
X0045300Y0068508D01*
X0045300Y0069106D02*
X0054300Y0069106D01*
X0054300Y0069705D02*
X0045300Y0069705D01*
X0045300Y0070303D02*
X0054300Y0070303D01*
X0054300Y0070902D02*
X0045300Y0070902D01*
X0045300Y0071501D02*
X0054300Y0071501D01*
X0054300Y0072099D02*
X0045300Y0072099D01*
X0045300Y0072698D02*
X0054300Y0072698D01*
X0054300Y0073296D02*
X0045300Y0073296D01*
X0045300Y0073895D02*
X0054300Y0073895D01*
X0054300Y0074493D02*
X0045300Y0074493D01*
X0045300Y0075092D02*
X0054300Y0075092D01*
X0054300Y0075690D02*
X0045300Y0075690D01*
X0045300Y0076289D02*
X0054300Y0076289D01*
X0096800Y0057800D02*
X0096800Y0052300D01*
X0103800Y0052300D01*
X0110300Y0058800D01*
X0137300Y0058800D01*
X0138300Y0059800D01*
X0138300Y0075800D01*
X0137300Y0076800D01*
X0106300Y0076800D01*
X0103300Y0073800D01*
X0103300Y0059800D01*
X0101300Y0057800D01*
X0096800Y0057800D01*
X0096800Y0057735D02*
X0109235Y0057735D01*
X0109833Y0058333D02*
X0101833Y0058333D01*
X0102432Y0058932D02*
X0137432Y0058932D01*
X0138030Y0059530D02*
X0103030Y0059530D01*
X0103300Y0060129D02*
X0138300Y0060129D01*
X0138300Y0060727D02*
X0103300Y0060727D01*
X0103300Y0061326D02*
X0138300Y0061326D01*
X0138300Y0061924D02*
X0103300Y0061924D01*
X0103300Y0062523D02*
X0138300Y0062523D01*
X0138300Y0063121D02*
X0103300Y0063121D01*
X0103300Y0063720D02*
X0138300Y0063720D01*
X0138300Y0064318D02*
X0103300Y0064318D01*
X0103300Y0064917D02*
X0138300Y0064917D01*
X0138300Y0065515D02*
X0103300Y0065515D01*
X0103300Y0066114D02*
X0138300Y0066114D01*
X0138300Y0066712D02*
X0103300Y0066712D01*
X0103300Y0067311D02*
X0138300Y0067311D01*
X0138300Y0067909D02*
X0103300Y0067909D01*
X0103300Y0068508D02*
X0138300Y0068508D01*
X0138300Y0069106D02*
X0103300Y0069106D01*
X0103300Y0069705D02*
X0138300Y0069705D01*
X0138300Y0070303D02*
X0103300Y0070303D01*
X0103300Y0070902D02*
X0138300Y0070902D01*
X0138300Y0071501D02*
X0103300Y0071501D01*
X0103300Y0072099D02*
X0138300Y0072099D01*
X0138300Y0072698D02*
X0103300Y0072698D01*
X0103300Y0073296D02*
X0138300Y0073296D01*
X0138300Y0073895D02*
X0103395Y0073895D01*
X0103993Y0074493D02*
X0138300Y0074493D01*
X0138300Y0075092D02*
X0104592Y0075092D01*
X0105190Y0075690D02*
X0138300Y0075690D01*
X0137811Y0076289D02*
X0105789Y0076289D01*
X0108636Y0057136D02*
X0096800Y0057136D01*
X0096800Y0056538D02*
X0108038Y0056538D01*
X0107439Y0055939D02*
X0096800Y0055939D01*
X0096800Y0055341D02*
X0106841Y0055341D01*
X0106242Y0054742D02*
X0096800Y0054742D01*
X0096800Y0054144D02*
X0105644Y0054144D01*
X0105045Y0053545D02*
X0096800Y0053545D01*
X0096800Y0052947D02*
X0104447Y0052947D01*
X0103848Y0052348D02*
X0096800Y0052348D01*
D11*
X0038780Y0081300D03*
X0035040Y0081300D03*
X0031300Y0081300D03*
X0031300Y0090749D03*
X0038780Y0090749D03*
D12*
X0034646Y0099300D03*
X0027954Y0099300D03*
X0031146Y0069300D03*
X0024454Y0069300D03*
X0059954Y0044800D03*
X0066646Y0044800D03*
D13*
X0075276Y0044935D03*
X0075276Y0042376D03*
X0075276Y0047494D03*
X0075276Y0050053D03*
X0075276Y0052612D03*
X0075276Y0055171D03*
X0075276Y0057730D03*
X0075276Y0060289D03*
X0097324Y0060289D03*
X0097324Y0057730D03*
X0097324Y0055171D03*
X0097324Y0052612D03*
X0097324Y0050053D03*
X0097324Y0047494D03*
X0097324Y0044935D03*
X0097324Y0042376D03*
D14*
X0086300Y0051300D03*
D15*
X0086300Y0051300D03*
D16*
X0111300Y0052954D03*
X0111300Y0059646D03*
X0111300Y0044646D03*
X0111300Y0037954D03*
X0067800Y0033146D03*
X0067800Y0026454D03*
X0052800Y0037954D03*
X0052800Y0044646D03*
X0211300Y0057954D03*
X0221300Y0057954D03*
X0221300Y0064646D03*
X0211300Y0064646D03*
X0211300Y0085954D03*
X0211300Y0092646D03*
D17*
X0131300Y0070473D03*
X0131300Y0042127D03*
D18*
X0065068Y0067300D03*
X0048532Y0067300D03*
D19*
X0046300Y0107600D02*
X0046300Y0115000D01*
X0056300Y0115000D02*
X0056300Y0107600D01*
X0157600Y0096300D02*
X0165000Y0096300D01*
X0165000Y0086300D02*
X0157600Y0086300D01*
X0157600Y0061300D02*
X0165000Y0061300D01*
X0165000Y0051300D02*
X0157600Y0051300D01*
X0156300Y0026300D02*
X0163700Y0026300D01*
D20*
X0186300Y0026300D03*
X0196300Y0026300D03*
X0196300Y0056300D03*
X0186300Y0056300D03*
X0186300Y0086300D03*
X0196300Y0086300D03*
D21*
X0038780Y0081300D02*
X0038780Y0069780D01*
X0038300Y0069300D01*
X0031146Y0069300D01*
X0031146Y0081146D01*
X0031300Y0081300D01*
X0035040Y0081300D02*
X0035040Y0086214D01*
X0034954Y0086300D01*
X0026300Y0086300D01*
X0024454Y0084454D01*
X0024454Y0069300D01*
X0035040Y0086214D02*
X0035040Y0098906D01*
X0034646Y0099300D01*
X0031300Y0095954D02*
X0027954Y0099300D01*
X0031300Y0095954D02*
X0031300Y0090749D01*
D22*
X0059954Y0044800D02*
X0059800Y0044646D01*
X0052800Y0044646D01*
X0052800Y0037954D02*
X0052800Y0028800D01*
X0055146Y0026454D01*
X0067800Y0026454D01*
D23*
X0067954Y0026300D01*
X0070800Y0026300D01*
X0071800Y0027300D01*
X0071800Y0036800D01*
X0070800Y0037800D01*
X0070800Y0041800D01*
X0071376Y0042376D01*
X0075276Y0042376D01*
X0083876Y0042376D01*
X0086300Y0044800D01*
X0086300Y0051300D01*
X0090106Y0047494D01*
X0097324Y0047494D01*
X0105841Y0047494D01*
X0111300Y0052954D01*
X0120473Y0052954D01*
X0131300Y0042127D01*
X0111300Y0044646D02*
X0111011Y0044935D01*
X0097324Y0044935D01*
X0097324Y0042376D02*
X0097324Y0039824D01*
X0096800Y0039300D01*
X0077300Y0039300D01*
X0074800Y0036800D01*
X0074800Y0022800D01*
X0072800Y0020800D01*
X0052300Y0020800D01*
X0047800Y0025300D01*
X0047800Y0066568D01*
X0048532Y0067300D01*
X0052800Y0063032D01*
X0062300Y0063211D02*
X0074800Y0063211D01*
X0074800Y0064409D02*
X0062300Y0064409D01*
X0062300Y0065608D02*
X0074800Y0065608D01*
X0074800Y0066800D02*
X0074800Y0057800D01*
X0062300Y0057800D01*
X0062300Y0075800D01*
X0068300Y0075800D01*
X0074800Y0066800D01*
X0074796Y0066806D02*
X0062300Y0066806D01*
X0062300Y0068005D02*
X0073930Y0068005D01*
X0073064Y0069203D02*
X0062300Y0069203D01*
X0062300Y0070402D02*
X0072199Y0070402D01*
X0071333Y0071600D02*
X0062300Y0071600D01*
X0062300Y0072799D02*
X0070468Y0072799D01*
X0069602Y0073997D02*
X0062300Y0073997D01*
X0062300Y0075196D02*
X0068736Y0075196D01*
X0065068Y0067300D02*
X0065800Y0065068D01*
X0065800Y0059300D01*
X0067370Y0057730D01*
X0075276Y0057730D01*
X0074800Y0058417D02*
X0062300Y0058417D01*
X0062300Y0059615D02*
X0074800Y0059615D01*
X0075276Y0060289D02*
X0070578Y0060289D01*
X0065068Y0067300D01*
X0062300Y0062012D02*
X0074800Y0062012D01*
X0074800Y0060814D02*
X0062300Y0060814D01*
X0075276Y0055171D02*
X0082429Y0055171D01*
X0086300Y0051300D01*
X0084988Y0052612D01*
X0075276Y0052612D01*
X0075276Y0055171D01*
X0075276Y0052612D02*
X0075276Y0050053D01*
X0085053Y0050053D01*
X0086300Y0051300D01*
X0075276Y0047494D02*
X0071106Y0047494D01*
X0070300Y0048300D01*
X0070300Y0049300D01*
X0069300Y0050300D01*
X0059800Y0050300D01*
X0059300Y0049800D01*
X0059300Y0045454D01*
X0059954Y0044800D01*
X0066646Y0044800D02*
X0066781Y0044935D01*
X0067800Y0043916D01*
X0067800Y0033146D01*
X0066781Y0044935D02*
X0075276Y0044935D01*
X0097324Y0052612D02*
X0097324Y0055171D01*
X0097324Y0057730D01*
X0109384Y0057730D01*
X0111300Y0059646D01*
D24*
X0126300Y0066300D02*
X0127127Y0066300D01*
X0131300Y0070473D01*
X0126300Y0066300D02*
X0131300Y0061300D01*
X0161300Y0061300D01*
X0161300Y0051300D02*
X0140473Y0051300D01*
X0131300Y0042127D01*
X0086300Y0051300D02*
X0086300Y0076300D01*
X0096300Y0086300D01*
X0161300Y0086300D01*
X0061300Y0086300D01*
X0056300Y0091300D01*
X0056300Y0111300D01*
X0046300Y0111300D02*
X0046300Y0096300D01*
X0048532Y0094068D01*
X0048532Y0067300D01*
D25*
X0022112Y0010488D02*
X0220488Y0010488D01*
X0218090Y0008090D02*
X0024510Y0008090D01*
X0026300Y0006300D02*
X0006300Y0026300D01*
X0006300Y0096300D01*
X0021300Y0111300D01*
X0039400Y0111300D01*
X0039400Y0106227D01*
X0040100Y0104538D01*
X0040100Y0095917D01*
X0038509Y0095917D01*
X0038572Y0095981D01*
X0038862Y0096482D01*
X0039012Y0097042D01*
X0039012Y0099300D01*
X0039012Y0101558D01*
X0038862Y0102118D01*
X0038572Y0102619D01*
X0038163Y0103029D01*
X0037661Y0103319D01*
X0037101Y0103468D01*
X0034647Y0103468D01*
X0034647Y0099300D01*
X0039012Y0099300D01*
X0034647Y0099300D01*
X0034647Y0099300D01*
X0034646Y0099300D01*
X0034646Y0103468D01*
X0032444Y0103468D01*
X0031932Y0103981D01*
X0030755Y0104468D01*
X0025152Y0104468D01*
X0023976Y0103981D01*
X0023694Y0103700D01*
X0018425Y0103700D01*
X0016808Y0103030D01*
X0015570Y0101792D01*
X0012570Y0098792D01*
X0011900Y0097175D01*
X0011900Y0030425D01*
X0012570Y0028808D01*
X0013808Y0027570D01*
X0028808Y0012570D01*
X0030425Y0011900D01*
X0212175Y0011900D01*
X0213792Y0012570D01*
X0215030Y0013808D01*
X0233792Y0032570D01*
X0233792Y0032570D01*
X0235030Y0033808D01*
X0235700Y0035425D01*
X0235700Y0082175D01*
X0235030Y0083792D01*
X0233792Y0085030D01*
X0223792Y0095030D01*
X0222175Y0095700D01*
X0216364Y0095700D01*
X0215981Y0096624D01*
X0215081Y0097525D01*
X0213905Y0098012D01*
X0212157Y0098012D01*
X0211377Y0098792D01*
X0210139Y0100030D01*
X0208522Y0100700D01*
X0170358Y0100700D01*
X0168909Y0102150D01*
X0166372Y0103200D01*
X0156227Y0103200D01*
X0153691Y0102150D01*
X0151750Y0100209D01*
X0150700Y0097672D01*
X0150700Y0094927D01*
X0151750Y0092391D01*
X0153549Y0090593D01*
X0153100Y0090144D01*
X0152554Y0089392D01*
X0152132Y0088565D01*
X0151845Y0087682D01*
X0151700Y0086764D01*
X0151700Y0086300D01*
X0161300Y0086300D01*
X0186300Y0086300D01*
X0186300Y0080400D01*
X0186764Y0080400D01*
X0187682Y0080545D01*
X0188565Y0080832D01*
X0189392Y0081254D01*
X0190144Y0081800D01*
X0190593Y0082249D01*
X0192391Y0080450D01*
X0194927Y0079400D01*
X0197672Y0079400D01*
X0200209Y0080450D01*
X0201658Y0081900D01*
X0206694Y0081900D01*
X0207519Y0081075D01*
X0208695Y0080588D01*
X0213905Y0080588D01*
X0215081Y0081075D01*
X0215981Y0081976D01*
X0216468Y0083152D01*
X0216468Y0086900D01*
X0219477Y0086900D01*
X0226900Y0079477D01*
X0226900Y0038123D01*
X0209477Y0020700D01*
X0200458Y0020700D01*
X0201658Y0021900D01*
X0207175Y0021900D01*
X0208792Y0022570D01*
X0225030Y0038808D01*
X0225700Y0040425D01*
X0225700Y0042175D01*
X0225700Y0053694D01*
X0225981Y0053976D01*
X0226468Y0055152D01*
X0226468Y0060755D01*
X0226243Y0061300D01*
X0226468Y0061845D01*
X0226468Y0067448D01*
X0225981Y0068624D01*
X0225081Y0069525D01*
X0223905Y0070012D01*
X0222157Y0070012D01*
X0222139Y0070030D01*
X0220522Y0070700D01*
X0175425Y0070700D01*
X0173808Y0070030D01*
X0172570Y0068792D01*
X0169918Y0066140D01*
X0168909Y0067150D01*
X0166372Y0068200D01*
X0156227Y0068200D01*
X0154538Y0067500D01*
X0141800Y0067500D01*
X0141800Y0076496D01*
X0141267Y0077783D01*
X0140283Y0078767D01*
X0140283Y0078767D01*
X0139283Y0079767D01*
X0137996Y0080300D01*
X0105604Y0080300D01*
X0104317Y0079767D01*
X0100333Y0075783D01*
X0099800Y0074496D01*
X0099800Y0064080D01*
X0094263Y0064080D01*
X0093629Y0064343D01*
X0078971Y0064343D01*
X0078600Y0064189D01*
X0078600Y0066495D01*
X0078672Y0066941D01*
X0078600Y0067244D01*
X0078600Y0067556D01*
X0078427Y0067973D01*
X0078323Y0068412D01*
X0078141Y0068665D01*
X0078021Y0068953D01*
X0077702Y0069272D01*
X0072008Y0077156D01*
X0072008Y0077976D01*
X0071521Y0079152D01*
X0070621Y0080052D01*
X0069444Y0080539D01*
X0060691Y0080539D01*
X0059515Y0080052D01*
X0058615Y0079152D01*
X0058128Y0077976D01*
X0058128Y0058422D01*
X0057800Y0058750D01*
X0057800Y0076996D01*
X0057267Y0078283D01*
X0056283Y0079267D01*
X0055783Y0079767D01*
X0054732Y0080202D01*
X0054732Y0095301D01*
X0053788Y0097580D01*
X0052500Y0098868D01*
X0052500Y0103068D01*
X0053208Y0102554D01*
X0054035Y0102132D01*
X0054918Y0101845D01*
X0055836Y0101700D01*
X0056300Y0101700D01*
X0056764Y0101700D01*
X0057682Y0101845D01*
X0058565Y0102132D01*
X0059392Y0102554D01*
X0060144Y0103100D01*
X0060800Y0103756D01*
X0061346Y0104508D01*
X0061768Y0105335D01*
X0062055Y0106218D01*
X0062200Y0107136D01*
X0062200Y0111300D01*
X0056300Y0111300D01*
X0216300Y0111300D01*
X0241300Y0086300D01*
X0241300Y0031300D01*
X0216300Y0006300D01*
X0026300Y0006300D01*
X0028491Y0012887D02*
X0019713Y0012887D01*
X0017315Y0015285D02*
X0026092Y0015285D01*
X0023694Y0017684D02*
X0014916Y0017684D01*
X0012518Y0020082D02*
X0021295Y0020082D01*
X0018897Y0022481D02*
X0010119Y0022481D01*
X0007721Y0024879D02*
X0016498Y0024879D01*
X0014100Y0027278D02*
X0006300Y0027278D01*
X0006300Y0029676D02*
X0012210Y0029676D01*
X0011900Y0032075D02*
X0006300Y0032075D01*
X0006300Y0034473D02*
X0011900Y0034473D01*
X0011900Y0036872D02*
X0006300Y0036872D01*
X0006300Y0039270D02*
X0011900Y0039270D01*
X0011900Y0041669D02*
X0006300Y0041669D01*
X0006300Y0044067D02*
X0011900Y0044067D01*
X0011900Y0046466D02*
X0006300Y0046466D01*
X0006300Y0048864D02*
X0011900Y0048864D01*
X0011900Y0051263D02*
X0006300Y0051263D01*
X0006300Y0053661D02*
X0011900Y0053661D01*
X0011900Y0056060D02*
X0006300Y0056060D01*
X0006300Y0058458D02*
X0011900Y0058458D01*
X0011900Y0060857D02*
X0006300Y0060857D01*
X0006300Y0063255D02*
X0011900Y0063255D01*
X0011900Y0065654D02*
X0006300Y0065654D01*
X0006300Y0068052D02*
X0011900Y0068052D01*
X0011900Y0070451D02*
X0006300Y0070451D01*
X0006300Y0072849D02*
X0011900Y0072849D01*
X0011900Y0075248D02*
X0006300Y0075248D01*
X0006300Y0077646D02*
X0011900Y0077646D01*
X0011900Y0080045D02*
X0006300Y0080045D01*
X0006300Y0082443D02*
X0011900Y0082443D01*
X0011900Y0084842D02*
X0006300Y0084842D01*
X0006300Y0087240D02*
X0011900Y0087240D01*
X0011900Y0089639D02*
X0006300Y0089639D01*
X0006300Y0092037D02*
X0011900Y0092037D01*
X0011900Y0094436D02*
X0006300Y0094436D01*
X0006834Y0096834D02*
X0011900Y0096834D01*
X0013010Y0099233D02*
X0009233Y0099233D01*
X0011632Y0101632D02*
X0015409Y0101632D01*
X0014030Y0104030D02*
X0024093Y0104030D01*
X0031814Y0104030D02*
X0040100Y0104030D01*
X0040100Y0101632D02*
X0038992Y0101632D01*
X0039012Y0099233D02*
X0040100Y0099233D01*
X0040100Y0096834D02*
X0038956Y0096834D01*
X0034647Y0101632D02*
X0034646Y0101632D01*
X0027954Y0099300D02*
X0019300Y0099300D01*
X0016300Y0096300D01*
X0016300Y0031300D01*
X0031300Y0016300D01*
X0111359Y0016300D01*
X0111300Y0016359D01*
X0111300Y0037954D01*
X0117954Y0044646D02*
X0121300Y0041300D01*
X0121300Y0032098D01*
X0127098Y0026300D01*
X0156300Y0026300D01*
X0186300Y0026300D01*
X0191300Y0031058D02*
X0190209Y0032150D01*
X0187672Y0033200D01*
X0184927Y0033200D01*
X0182391Y0032150D01*
X0180942Y0030700D01*
X0169058Y0030700D01*
X0167609Y0032150D01*
X0165072Y0033200D01*
X0154927Y0033200D01*
X0152391Y0032150D01*
X0150942Y0030700D01*
X0128921Y0030700D01*
X0125700Y0033921D01*
X0125700Y0034612D01*
X0130100Y0034612D01*
X0130100Y0040927D01*
X0132500Y0040927D01*
X0132500Y0043327D01*
X0130100Y0043327D01*
X0130100Y0049642D01*
X0125105Y0049642D01*
X0124545Y0049492D01*
X0124044Y0049202D01*
X0123634Y0048793D01*
X0123344Y0048291D01*
X0123194Y0047731D01*
X0123194Y0045628D01*
X0120446Y0048377D01*
X0118829Y0049046D01*
X0115559Y0049046D01*
X0115081Y0049525D01*
X0115080Y0049525D01*
X0115319Y0049939D01*
X0115468Y0050499D01*
X0115468Y0052953D01*
X0111300Y0052953D01*
X0111300Y0052954D01*
X0115468Y0052954D01*
X0115468Y0055156D01*
X0115613Y0055300D01*
X0129584Y0055300D01*
X0130067Y0055100D01*
X0153068Y0055100D01*
X0152554Y0054392D01*
X0152132Y0053565D01*
X0151845Y0052682D01*
X0151700Y0051764D01*
X0151700Y0051300D01*
X0161300Y0051300D01*
X0181300Y0051300D01*
X0186300Y0056300D01*
X0186300Y0050400D01*
X0186764Y0050400D01*
X0187682Y0050545D01*
X0188565Y0050832D01*
X0189392Y0051254D01*
X0190144Y0051800D01*
X0190593Y0052249D01*
X0192391Y0050450D01*
X0194927Y0049400D01*
X0197672Y0049400D01*
X0200209Y0050450D01*
X0201658Y0051900D01*
X0210522Y0051900D01*
X0212139Y0052570D01*
X0212157Y0052588D01*
X0213905Y0052588D01*
X0215081Y0053075D01*
X0215981Y0053976D01*
X0216300Y0054745D01*
X0216619Y0053976D01*
X0216900Y0053694D01*
X0216900Y0043123D01*
X0204477Y0030700D01*
X0201658Y0030700D01*
X0200209Y0032150D01*
X0197672Y0033200D01*
X0194927Y0033200D01*
X0192391Y0032150D01*
X0191300Y0031058D01*
X0190283Y0032075D02*
X0192317Y0032075D01*
X0200283Y0032075D02*
X0205852Y0032075D01*
X0208251Y0034473D02*
X0125700Y0034473D01*
X0127546Y0032075D02*
X0152317Y0032075D01*
X0139256Y0035963D02*
X0138966Y0035461D01*
X0138556Y0035051D01*
X0138055Y0034762D01*
X0137495Y0034612D01*
X0132500Y0034612D01*
X0132500Y0040927D01*
X0139405Y0040927D01*
X0139405Y0036522D01*
X0139256Y0035963D01*
X0139405Y0036872D02*
X0210649Y0036872D01*
X0213048Y0039270D02*
X0139405Y0039270D01*
X0139405Y0043327D02*
X0132500Y0043327D01*
X0132500Y0049642D01*
X0137495Y0049642D01*
X0138055Y0049492D01*
X0138556Y0049202D01*
X0138966Y0048793D01*
X0139256Y0048291D01*
X0139405Y0047731D01*
X0139405Y0043327D01*
X0139405Y0044067D02*
X0216900Y0044067D01*
X0216900Y0046466D02*
X0168384Y0046466D01*
X0168092Y0046254D02*
X0168844Y0046800D01*
X0169500Y0047456D01*
X0170046Y0048208D01*
X0170468Y0049035D01*
X0170755Y0049918D01*
X0170900Y0050836D01*
X0170900Y0051300D01*
X0170900Y0051764D01*
X0170755Y0052682D01*
X0170468Y0053565D01*
X0170046Y0054392D01*
X0169500Y0055144D01*
X0169051Y0055593D01*
X0170358Y0056900D01*
X0172175Y0056900D01*
X0173792Y0057570D01*
X0178123Y0061900D01*
X0184442Y0061900D01*
X0184035Y0061768D01*
X0183208Y0061346D01*
X0182456Y0060800D01*
X0181800Y0060144D01*
X0181254Y0059392D01*
X0180832Y0058565D01*
X0180545Y0057682D01*
X0180400Y0056764D01*
X0180400Y0056300D01*
X0186300Y0056300D01*
X0186300Y0056300D01*
X0186300Y0056300D01*
X0186300Y0050400D01*
X0185836Y0050400D01*
X0184918Y0050545D01*
X0184035Y0050832D01*
X0183208Y0051254D01*
X0182456Y0051800D01*
X0181800Y0052456D01*
X0181254Y0053208D01*
X0180832Y0054035D01*
X0180545Y0054918D01*
X0180400Y0055836D01*
X0180400Y0056300D01*
X0186300Y0056300D01*
X0186300Y0056060D02*
X0186300Y0056060D01*
X0186300Y0053661D02*
X0186300Y0053661D01*
X0186300Y0051263D02*
X0186300Y0051263D01*
X0189405Y0051263D02*
X0191579Y0051263D01*
X0196300Y0056300D02*
X0209646Y0056300D01*
X0211300Y0057954D01*
X0215667Y0053661D02*
X0216900Y0053661D01*
X0216900Y0051263D02*
X0201021Y0051263D01*
X0216900Y0048864D02*
X0170381Y0048864D01*
X0170900Y0051263D02*
X0183195Y0051263D01*
X0181023Y0053661D02*
X0170419Y0053661D01*
X0169518Y0056060D02*
X0180400Y0056060D01*
X0180798Y0058458D02*
X0174681Y0058458D01*
X0177079Y0060857D02*
X0182534Y0060857D01*
X0176300Y0066300D02*
X0211756Y0066300D01*
X0211300Y0065844D01*
X0211300Y0064646D01*
X0211756Y0066300D02*
X0219646Y0066300D01*
X0221300Y0064646D01*
X0226468Y0065654D02*
X0226900Y0065654D01*
X0226900Y0068052D02*
X0226218Y0068052D01*
X0226900Y0070451D02*
X0221123Y0070451D01*
X0226900Y0072849D02*
X0141800Y0072849D01*
X0141800Y0075248D02*
X0226900Y0075248D01*
X0226900Y0077646D02*
X0141324Y0077646D01*
X0138612Y0080045D02*
X0193371Y0080045D01*
X0199229Y0080045D02*
X0226333Y0080045D01*
X0223934Y0082443D02*
X0216175Y0082443D01*
X0216468Y0084842D02*
X0221536Y0084842D01*
X0221300Y0091300D02*
X0231300Y0081300D01*
X0231300Y0036300D01*
X0211300Y0016300D01*
X0111359Y0016300D01*
X0130100Y0036872D02*
X0132500Y0036872D01*
X0132500Y0039270D02*
X0130100Y0039270D01*
X0132500Y0041669D02*
X0215446Y0041669D01*
X0221300Y0041300D02*
X0206300Y0026300D01*
X0196300Y0026300D01*
X0208577Y0022481D02*
X0211258Y0022481D01*
X0211102Y0024879D02*
X0213657Y0024879D01*
X0213500Y0027278D02*
X0216055Y0027278D01*
X0215899Y0029676D02*
X0218454Y0029676D01*
X0218297Y0032075D02*
X0220852Y0032075D01*
X0220696Y0034473D02*
X0223251Y0034473D01*
X0223094Y0036872D02*
X0225649Y0036872D01*
X0225222Y0039270D02*
X0226900Y0039270D01*
X0226900Y0041669D02*
X0225700Y0041669D01*
X0225700Y0044067D02*
X0226900Y0044067D01*
X0226900Y0046466D02*
X0225700Y0046466D01*
X0225700Y0048864D02*
X0226900Y0048864D01*
X0226900Y0051263D02*
X0225700Y0051263D01*
X0225700Y0053661D02*
X0226900Y0053661D01*
X0226900Y0056060D02*
X0226468Y0056060D01*
X0226468Y0058458D02*
X0226900Y0058458D01*
X0226900Y0060857D02*
X0226426Y0060857D01*
X0226468Y0063255D02*
X0226900Y0063255D01*
X0221300Y0057954D02*
X0221300Y0041300D01*
X0235700Y0041669D02*
X0241300Y0041669D01*
X0241300Y0044067D02*
X0235700Y0044067D01*
X0235700Y0046466D02*
X0241300Y0046466D01*
X0241300Y0048864D02*
X0235700Y0048864D01*
X0235700Y0051263D02*
X0241300Y0051263D01*
X0241300Y0053661D02*
X0235700Y0053661D01*
X0235700Y0056060D02*
X0241300Y0056060D01*
X0241300Y0058458D02*
X0235700Y0058458D01*
X0235700Y0060857D02*
X0241300Y0060857D01*
X0241300Y0063255D02*
X0235700Y0063255D01*
X0235700Y0065654D02*
X0241300Y0065654D01*
X0241300Y0068052D02*
X0235700Y0068052D01*
X0235700Y0070451D02*
X0241300Y0070451D01*
X0241300Y0072849D02*
X0235700Y0072849D01*
X0235700Y0075248D02*
X0241300Y0075248D01*
X0241300Y0077646D02*
X0235700Y0077646D01*
X0235700Y0080045D02*
X0241300Y0080045D01*
X0241300Y0082443D02*
X0235589Y0082443D01*
X0233981Y0084842D02*
X0241300Y0084842D01*
X0240360Y0087240D02*
X0231582Y0087240D01*
X0233792Y0085030D02*
X0233792Y0085030D01*
X0237961Y0089639D02*
X0229184Y0089639D01*
X0226785Y0092037D02*
X0235563Y0092037D01*
X0233164Y0094436D02*
X0224387Y0094436D01*
X0221300Y0091300D02*
X0212646Y0091300D01*
X0211300Y0092646D01*
X0207646Y0096300D01*
X0161300Y0096300D01*
X0169051Y0090593D02*
X0170358Y0091900D01*
X0184442Y0091900D01*
X0184035Y0091768D01*
X0183208Y0091346D01*
X0182456Y0090800D01*
X0181800Y0090144D01*
X0181254Y0089392D01*
X0180832Y0088565D01*
X0180545Y0087682D01*
X0180400Y0086764D01*
X0180400Y0086300D01*
X0186300Y0086300D01*
X0186300Y0086300D01*
X0186300Y0086300D01*
X0186300Y0080400D01*
X0185836Y0080400D01*
X0184918Y0080545D01*
X0184035Y0080832D01*
X0183208Y0081254D01*
X0182456Y0081800D01*
X0181800Y0082456D01*
X0181254Y0083208D01*
X0180832Y0084035D01*
X0180545Y0084918D01*
X0180400Y0085836D01*
X0180400Y0086300D01*
X0186300Y0086300D01*
X0186300Y0084842D02*
X0186300Y0084842D01*
X0186300Y0082443D02*
X0186300Y0082443D01*
X0181813Y0082443D02*
X0169487Y0082443D01*
X0169500Y0082456D02*
X0170046Y0083208D01*
X0170468Y0084035D01*
X0170755Y0084918D01*
X0170900Y0085836D01*
X0170900Y0086300D01*
X0170900Y0086764D01*
X0170755Y0087682D01*
X0170468Y0088565D01*
X0170046Y0089392D01*
X0169500Y0090144D01*
X0169051Y0090593D01*
X0169867Y0089639D02*
X0181433Y0089639D01*
X0180475Y0087240D02*
X0170825Y0087240D01*
X0170900Y0086300D02*
X0161300Y0086300D01*
X0161300Y0086300D01*
X0170900Y0086300D01*
X0170730Y0084842D02*
X0180570Y0084842D01*
X0169500Y0082456D02*
X0168844Y0081800D01*
X0168092Y0081254D01*
X0167265Y0080832D01*
X0166382Y0080545D01*
X0165464Y0080400D01*
X0161300Y0080400D01*
X0161300Y0086300D01*
X0161300Y0086300D01*
X0161300Y0086300D01*
X0161300Y0080400D01*
X0157136Y0080400D01*
X0156218Y0080545D01*
X0155335Y0080832D01*
X0154508Y0081254D01*
X0153756Y0081800D01*
X0153100Y0082456D01*
X0152554Y0083208D01*
X0152132Y0084035D01*
X0151845Y0084918D01*
X0151700Y0085836D01*
X0151700Y0086300D01*
X0161300Y0086300D01*
X0161300Y0084842D02*
X0161300Y0084842D01*
X0161300Y0082443D02*
X0161300Y0082443D01*
X0153113Y0082443D02*
X0054732Y0082443D01*
X0054732Y0084842D02*
X0151870Y0084842D01*
X0151775Y0087240D02*
X0054732Y0087240D01*
X0054732Y0089639D02*
X0152733Y0089639D01*
X0152104Y0092037D02*
X0054732Y0092037D01*
X0054732Y0094436D02*
X0150904Y0094436D01*
X0150700Y0096834D02*
X0054097Y0096834D01*
X0052500Y0099233D02*
X0151346Y0099233D01*
X0153173Y0101632D02*
X0052500Y0101632D01*
X0056300Y0101700D02*
X0056300Y0111300D01*
X0056300Y0111300D01*
X0056300Y0101700D01*
X0056300Y0104030D02*
X0056300Y0104030D01*
X0056300Y0106429D02*
X0056300Y0106429D01*
X0056300Y0108827D02*
X0056300Y0108827D01*
X0056300Y0111226D02*
X0056300Y0111226D01*
X0056300Y0111300D02*
X0056300Y0111300D01*
X0062200Y0111226D02*
X0216374Y0111226D01*
X0218773Y0108827D02*
X0062200Y0108827D01*
X0062088Y0106429D02*
X0221171Y0106429D01*
X0223570Y0104030D02*
X0060999Y0104030D01*
X0039400Y0106429D02*
X0016429Y0106429D01*
X0018827Y0108827D02*
X0039400Y0108827D01*
X0039400Y0111226D02*
X0021226Y0111226D01*
X0021123Y0094900D02*
X0023694Y0094900D01*
X0023976Y0094619D01*
X0025152Y0094131D01*
X0027044Y0094131D01*
X0026722Y0093354D01*
X0026722Y0088144D01*
X0027209Y0086968D01*
X0028109Y0086067D01*
X0028213Y0086024D01*
X0028109Y0085981D01*
X0027209Y0085081D01*
X0026722Y0083905D01*
X0026722Y0078695D01*
X0027046Y0077912D01*
X0027046Y0073859D01*
X0026656Y0073468D01*
X0024454Y0073468D01*
X0024454Y0069300D01*
X0024454Y0065131D01*
X0026656Y0065131D01*
X0027168Y0064619D01*
X0028345Y0064131D01*
X0033948Y0064131D01*
X0035124Y0064619D01*
X0035406Y0064900D01*
X0041592Y0064900D01*
X0041592Y0056624D01*
X0041800Y0056122D01*
X0041800Y0052870D01*
X0041775Y0052244D01*
X0041800Y0052176D01*
X0041800Y0052104D01*
X0042040Y0051525D01*
X0042256Y0050938D01*
X0042305Y0050884D01*
X0042333Y0050817D01*
X0042776Y0050375D01*
X0044000Y0049048D01*
X0044000Y0024544D01*
X0044579Y0023147D01*
X0045647Y0022079D01*
X0047026Y0020700D01*
X0033123Y0020700D01*
X0020700Y0033123D01*
X0020700Y0065808D01*
X0020937Y0065571D01*
X0021439Y0065281D01*
X0021999Y0065131D01*
X0024453Y0065131D01*
X0024453Y0069300D01*
X0024454Y0069300D01*
X0024453Y0069300D01*
X0024453Y0073468D01*
X0021999Y0073468D01*
X0021439Y0073319D01*
X0020937Y0073029D01*
X0020700Y0072792D01*
X0020700Y0094477D01*
X0021123Y0094900D01*
X0020700Y0094436D02*
X0024417Y0094436D01*
X0026722Y0092037D02*
X0020700Y0092037D01*
X0020700Y0089639D02*
X0026722Y0089639D01*
X0027096Y0087240D02*
X0020700Y0087240D01*
X0020700Y0084842D02*
X0027110Y0084842D01*
X0026722Y0082443D02*
X0020700Y0082443D01*
X0020700Y0080045D02*
X0026722Y0080045D01*
X0027046Y0077646D02*
X0020700Y0077646D01*
X0020700Y0075248D02*
X0027046Y0075248D01*
X0024454Y0072849D02*
X0024453Y0072849D01*
X0020758Y0072849D02*
X0020700Y0072849D01*
X0024453Y0070451D02*
X0024454Y0070451D01*
X0024453Y0068052D02*
X0024454Y0068052D01*
X0024453Y0065654D02*
X0024454Y0065654D01*
X0020855Y0065654D02*
X0020700Y0065654D01*
X0020700Y0063255D02*
X0041592Y0063255D01*
X0041592Y0060857D02*
X0020700Y0060857D01*
X0020700Y0058458D02*
X0041592Y0058458D01*
X0041800Y0056060D02*
X0020700Y0056060D01*
X0020700Y0053661D02*
X0041800Y0053661D01*
X0042136Y0051263D02*
X0020700Y0051263D01*
X0020700Y0048864D02*
X0044000Y0048864D01*
X0044000Y0046466D02*
X0020700Y0046466D01*
X0020700Y0044067D02*
X0044000Y0044067D01*
X0044000Y0041669D02*
X0020700Y0041669D01*
X0020700Y0039270D02*
X0044000Y0039270D01*
X0044000Y0036872D02*
X0020700Y0036872D01*
X0020700Y0034473D02*
X0044000Y0034473D01*
X0044000Y0032075D02*
X0021748Y0032075D01*
X0024146Y0029676D02*
X0044000Y0029676D01*
X0044000Y0027278D02*
X0026545Y0027278D01*
X0028943Y0024879D02*
X0044000Y0024879D01*
X0045245Y0022481D02*
X0031342Y0022481D01*
X0051600Y0026874D02*
X0051600Y0033588D01*
X0052800Y0033588D01*
X0055058Y0033588D01*
X0055618Y0033738D01*
X0056119Y0034028D01*
X0056529Y0034437D01*
X0056819Y0034939D01*
X0056968Y0035499D01*
X0056968Y0037953D01*
X0052800Y0037953D01*
X0052800Y0033588D01*
X0052800Y0037953D01*
X0052800Y0037953D01*
X0052800Y0037954D01*
X0056968Y0037954D01*
X0056968Y0039646D01*
X0057116Y0039646D01*
X0057152Y0039631D01*
X0062755Y0039631D01*
X0063300Y0039857D01*
X0063845Y0039631D01*
X0064000Y0039631D01*
X0064000Y0038006D01*
X0063119Y0037124D01*
X0062631Y0035948D01*
X0062631Y0030345D01*
X0063119Y0029168D01*
X0063631Y0028656D01*
X0063631Y0026454D01*
X0067800Y0026454D01*
X0067800Y0026453D01*
X0063631Y0026453D01*
X0063631Y0024600D01*
X0053874Y0024600D01*
X0051600Y0026874D01*
X0051600Y0027278D02*
X0063631Y0027278D01*
X0063631Y0024879D02*
X0053595Y0024879D01*
X0051600Y0029676D02*
X0062908Y0029676D01*
X0062631Y0032075D02*
X0051600Y0032075D01*
X0052800Y0034473D02*
X0052800Y0034473D01*
X0052800Y0036872D02*
X0052800Y0036872D01*
X0056550Y0034473D02*
X0062631Y0034473D01*
X0063014Y0036872D02*
X0056968Y0036872D01*
X0056968Y0039270D02*
X0064000Y0039270D01*
X0058128Y0058458D02*
X0058091Y0058458D01*
X0058128Y0060857D02*
X0057800Y0060857D01*
X0057800Y0063255D02*
X0058128Y0063255D01*
X0058128Y0065654D02*
X0057800Y0065654D01*
X0057800Y0068052D02*
X0058128Y0068052D01*
X0058128Y0070451D02*
X0057800Y0070451D01*
X0057800Y0072849D02*
X0058128Y0072849D01*
X0058128Y0075248D02*
X0057800Y0075248D01*
X0057531Y0077646D02*
X0058128Y0077646D01*
X0059508Y0080045D02*
X0055112Y0080045D01*
X0070628Y0080045D02*
X0104988Y0080045D01*
X0102197Y0077646D02*
X0072008Y0077646D01*
X0073386Y0075248D02*
X0100111Y0075248D01*
X0099800Y0072849D02*
X0075118Y0072849D01*
X0076851Y0070451D02*
X0099800Y0070451D01*
X0099800Y0068052D02*
X0078408Y0068052D01*
X0078600Y0065654D02*
X0099800Y0065654D01*
X0115468Y0053661D02*
X0152181Y0053661D01*
X0151700Y0051300D02*
X0151700Y0050836D01*
X0151845Y0049918D01*
X0152132Y0049035D01*
X0152554Y0048208D01*
X0153100Y0047456D01*
X0153756Y0046800D01*
X0154508Y0046254D01*
X0155335Y0045832D01*
X0156218Y0045545D01*
X0157136Y0045400D01*
X0161300Y0045400D01*
X0165464Y0045400D01*
X0166382Y0045545D01*
X0167265Y0045832D01*
X0168092Y0046254D01*
X0161300Y0046466D02*
X0161300Y0046466D01*
X0161300Y0045400D02*
X0161300Y0051300D01*
X0170900Y0051300D01*
X0161300Y0051300D01*
X0161300Y0051300D01*
X0161300Y0051300D01*
X0161300Y0051300D01*
X0161300Y0045400D01*
X0161300Y0048864D02*
X0161300Y0048864D01*
X0161300Y0051263D02*
X0161300Y0051263D01*
X0161300Y0051300D02*
X0151700Y0051300D01*
X0151700Y0051263D02*
X0115468Y0051263D01*
X0119269Y0048864D02*
X0123706Y0048864D01*
X0123194Y0046466D02*
X0122357Y0046466D01*
X0117954Y0044646D02*
X0111300Y0044646D01*
X0130100Y0044067D02*
X0132500Y0044067D01*
X0132500Y0046466D02*
X0130100Y0046466D01*
X0130100Y0048864D02*
X0132500Y0048864D01*
X0138894Y0048864D02*
X0152219Y0048864D01*
X0154216Y0046466D02*
X0139405Y0046466D01*
X0167683Y0032075D02*
X0182317Y0032075D01*
X0216508Y0015285D02*
X0225285Y0015285D01*
X0222887Y0012887D02*
X0214109Y0012887D01*
X0218906Y0017684D02*
X0227684Y0017684D01*
X0230082Y0020082D02*
X0221305Y0020082D01*
X0223703Y0022481D02*
X0232481Y0022481D01*
X0234879Y0024879D02*
X0226102Y0024879D01*
X0228500Y0027278D02*
X0237278Y0027278D01*
X0239676Y0029676D02*
X0230899Y0029676D01*
X0233297Y0032075D02*
X0241300Y0032075D01*
X0241300Y0034473D02*
X0235306Y0034473D01*
X0235700Y0036872D02*
X0241300Y0036872D01*
X0241300Y0039270D02*
X0235700Y0039270D01*
X0176300Y0066300D02*
X0171300Y0061300D01*
X0161300Y0061300D01*
X0155871Y0068052D02*
X0141800Y0068052D01*
X0141800Y0070451D02*
X0174823Y0070451D01*
X0171830Y0068052D02*
X0166729Y0068052D01*
X0196300Y0086300D02*
X0210954Y0086300D01*
X0211300Y0085954D01*
X0215771Y0096834D02*
X0230766Y0096834D01*
X0228367Y0099233D02*
X0210936Y0099233D01*
X0211377Y0098792D02*
X0211377Y0098792D01*
X0225968Y0101632D02*
X0169427Y0101632D01*
X0048532Y0067300D02*
X0046532Y0069300D01*
X0031146Y0069300D01*
X0035040Y0085432D02*
X0035040Y0085432D01*
X0035040Y0085468D01*
X0035003Y0085468D01*
X0034491Y0085981D01*
X0034387Y0086024D01*
X0034491Y0086067D01*
X0035040Y0086617D01*
X0035590Y0086067D01*
X0035694Y0086024D01*
X0035590Y0085981D01*
X0035077Y0085468D01*
X0035040Y0085468D01*
X0035040Y0085432D01*
X0035040Y0085432D01*
M02*
