G75*
%MOIN*%
%OFA0B0*%
%FSLAX25Y25*%
%IPPOS*%
%LPD*%
%AMOC8*
5,1,8,0,0,1.08239X$1,22.5*
%
%ADD10C,0.00600*%
%ADD11C,0.07400*%
%ADD12C,0.07400*%
%ADD13C,0.02400*%
D10*
X0026300Y0001300D02*
X0001300Y0026300D01*
X0001300Y0096300D01*
X0031300Y0126300D01*
X0211300Y0126300D01*
X0246300Y0091300D01*
X0246300Y0031300D01*
X0216300Y0001300D01*
X0026300Y0001300D01*
D11*
X0156300Y0026300D02*
X0163700Y0026300D01*
X0165000Y0051300D02*
X0157600Y0051300D01*
X0157600Y0061300D02*
X0165000Y0061300D01*
X0165000Y0086300D02*
X0157600Y0086300D01*
X0157600Y0096300D02*
X0165000Y0096300D01*
X0056300Y0107600D02*
X0056300Y0115000D01*
X0046300Y0115000D02*
X0046300Y0107600D01*
D12*
X0186300Y0086300D03*
X0196300Y0086300D03*
X0196300Y0056300D03*
X0186300Y0056300D03*
X0186300Y0026300D03*
X0196300Y0026300D03*
D13*
X0220488Y0010488D02*
X0022112Y0010488D01*
X0024510Y0008090D02*
X0218090Y0008090D01*
X0216300Y0006300D02*
X0026300Y0006300D01*
X0006300Y0026300D01*
X0006300Y0096300D01*
X0021300Y0111300D01*
X0039400Y0111300D01*
X0039400Y0106227D01*
X0040450Y0103691D01*
X0042391Y0101750D01*
X0044927Y0100700D01*
X0047672Y0100700D01*
X0050209Y0101750D01*
X0052150Y0103691D01*
X0053200Y0106227D01*
X0053200Y0111300D01*
X0216300Y0111300D01*
X0241300Y0086300D01*
X0241300Y0031300D01*
X0216300Y0006300D01*
X0222887Y0012887D02*
X0019713Y0012887D01*
X0017315Y0015285D02*
X0225285Y0015285D01*
X0227684Y0017684D02*
X0014916Y0017684D01*
X0012518Y0020082D02*
X0153281Y0020082D01*
X0152391Y0020450D02*
X0154927Y0019400D01*
X0165072Y0019400D01*
X0167609Y0020450D01*
X0169550Y0022391D01*
X0170600Y0024927D01*
X0170600Y0027672D01*
X0169550Y0030209D01*
X0167609Y0032150D01*
X0165072Y0033200D01*
X0154927Y0033200D01*
X0152391Y0032150D01*
X0150450Y0030209D01*
X0149400Y0027672D01*
X0149400Y0024927D01*
X0150450Y0022391D01*
X0152391Y0020450D01*
X0150414Y0022481D02*
X0010119Y0022481D01*
X0007721Y0024879D02*
X0149420Y0024879D01*
X0149400Y0027278D02*
X0006300Y0027278D01*
X0006300Y0029676D02*
X0150230Y0029676D01*
X0152317Y0032075D02*
X0006300Y0032075D01*
X0006300Y0034473D02*
X0241300Y0034473D01*
X0241300Y0036872D02*
X0006300Y0036872D01*
X0006300Y0039270D02*
X0241300Y0039270D01*
X0241300Y0041669D02*
X0006300Y0041669D01*
X0006300Y0044067D02*
X0241300Y0044067D01*
X0241300Y0046466D02*
X0006300Y0046466D01*
X0006300Y0048864D02*
X0241300Y0048864D01*
X0241300Y0051263D02*
X0201021Y0051263D01*
X0200209Y0050450D02*
X0202150Y0052391D01*
X0203200Y0054927D01*
X0203200Y0057672D01*
X0202150Y0060209D01*
X0200209Y0062150D01*
X0197672Y0063200D01*
X0194927Y0063200D01*
X0192391Y0062150D01*
X0190450Y0060209D01*
X0189400Y0057672D01*
X0189400Y0054927D01*
X0190450Y0052391D01*
X0192391Y0050450D01*
X0194927Y0049400D01*
X0197672Y0049400D01*
X0200209Y0050450D01*
X0202676Y0053661D02*
X0241300Y0053661D01*
X0241300Y0056060D02*
X0203200Y0056060D01*
X0202874Y0058458D02*
X0241300Y0058458D01*
X0241300Y0060857D02*
X0201501Y0060857D01*
X0191099Y0060857D02*
X0171900Y0060857D01*
X0171900Y0059927D02*
X0171900Y0062672D01*
X0170850Y0065209D01*
X0168909Y0067150D01*
X0166372Y0068200D01*
X0156227Y0068200D01*
X0153691Y0067150D01*
X0151750Y0065209D01*
X0150700Y0062672D01*
X0150700Y0059927D01*
X0151750Y0057391D01*
X0153691Y0055450D01*
X0156227Y0054400D01*
X0166372Y0054400D01*
X0168909Y0055450D01*
X0170850Y0057391D01*
X0171900Y0059927D01*
X0171291Y0058458D02*
X0189726Y0058458D01*
X0189400Y0056060D02*
X0169518Y0056060D01*
X0171659Y0063255D02*
X0241300Y0063255D01*
X0241300Y0065654D02*
X0170404Y0065654D01*
X0166729Y0068052D02*
X0241300Y0068052D01*
X0241300Y0070451D02*
X0006300Y0070451D01*
X0006300Y0072849D02*
X0241300Y0072849D01*
X0241300Y0075248D02*
X0006300Y0075248D01*
X0006300Y0077646D02*
X0241300Y0077646D01*
X0241300Y0080045D02*
X0199229Y0080045D01*
X0200209Y0080450D02*
X0202150Y0082391D01*
X0203200Y0084927D01*
X0203200Y0087672D01*
X0202150Y0090209D01*
X0200209Y0092150D01*
X0197672Y0093200D01*
X0194927Y0093200D01*
X0192391Y0092150D01*
X0190450Y0090209D01*
X0189400Y0087672D01*
X0189400Y0084927D01*
X0190450Y0082391D01*
X0192391Y0080450D01*
X0194927Y0079400D01*
X0197672Y0079400D01*
X0200209Y0080450D01*
X0202171Y0082443D02*
X0241300Y0082443D01*
X0241300Y0084842D02*
X0203165Y0084842D01*
X0203200Y0087240D02*
X0240360Y0087240D01*
X0237961Y0089639D02*
X0202385Y0089639D01*
X0200321Y0092037D02*
X0235563Y0092037D01*
X0233164Y0094436D02*
X0171696Y0094436D01*
X0171900Y0094927D02*
X0171900Y0097672D01*
X0170850Y0100209D01*
X0168909Y0102150D01*
X0166372Y0103200D01*
X0156227Y0103200D01*
X0153691Y0102150D01*
X0151750Y0100209D01*
X0150700Y0097672D01*
X0150700Y0094927D01*
X0151750Y0092391D01*
X0153691Y0090450D01*
X0156227Y0089400D01*
X0166372Y0089400D01*
X0168909Y0090450D01*
X0170850Y0092391D01*
X0171900Y0094927D01*
X0171900Y0096834D02*
X0230766Y0096834D01*
X0228367Y0099233D02*
X0171254Y0099233D01*
X0169427Y0101632D02*
X0225968Y0101632D01*
X0223570Y0104030D02*
X0052290Y0104030D01*
X0053200Y0106429D02*
X0221171Y0106429D01*
X0218773Y0108827D02*
X0053200Y0108827D01*
X0053200Y0111226D02*
X0216374Y0111226D01*
X0192279Y0092037D02*
X0170496Y0092037D01*
X0166949Y0089639D02*
X0190215Y0089639D01*
X0189400Y0087240D02*
X0006300Y0087240D01*
X0006300Y0084842D02*
X0189435Y0084842D01*
X0190429Y0082443D02*
X0006300Y0082443D01*
X0006300Y0080045D02*
X0193371Y0080045D01*
X0155651Y0089639D02*
X0006300Y0089639D01*
X0006300Y0092037D02*
X0152104Y0092037D01*
X0150904Y0094436D02*
X0006300Y0094436D01*
X0006834Y0096834D02*
X0150700Y0096834D01*
X0151346Y0099233D02*
X0009233Y0099233D01*
X0011632Y0101632D02*
X0042679Y0101632D01*
X0040310Y0104030D02*
X0014030Y0104030D01*
X0016429Y0106429D02*
X0039400Y0106429D01*
X0039400Y0108827D02*
X0018827Y0108827D01*
X0021226Y0111226D02*
X0039400Y0111226D01*
X0049921Y0101632D02*
X0153173Y0101632D01*
X0155871Y0068052D02*
X0006300Y0068052D01*
X0006300Y0065654D02*
X0152196Y0065654D01*
X0150941Y0063255D02*
X0006300Y0063255D01*
X0006300Y0060857D02*
X0150700Y0060857D01*
X0151309Y0058458D02*
X0006300Y0058458D01*
X0006300Y0056060D02*
X0153082Y0056060D01*
X0189924Y0053661D02*
X0006300Y0053661D01*
X0006300Y0051263D02*
X0191579Y0051263D01*
X0194927Y0033200D02*
X0192391Y0032150D01*
X0191300Y0031058D01*
X0190209Y0032150D01*
X0187672Y0033200D01*
X0184927Y0033200D01*
X0182391Y0032150D01*
X0180450Y0030209D01*
X0179400Y0027672D01*
X0179400Y0024927D01*
X0180450Y0022391D01*
X0182391Y0020450D01*
X0184927Y0019400D01*
X0187672Y0019400D01*
X0190209Y0020450D01*
X0191300Y0021542D01*
X0192391Y0020450D01*
X0194927Y0019400D01*
X0197672Y0019400D01*
X0200209Y0020450D01*
X0202150Y0022391D01*
X0203200Y0024927D01*
X0203200Y0027672D01*
X0202150Y0030209D01*
X0200209Y0032150D01*
X0197672Y0033200D01*
X0194927Y0033200D01*
X0192317Y0032075D02*
X0190283Y0032075D01*
X0182317Y0032075D02*
X0167683Y0032075D01*
X0169770Y0029676D02*
X0180230Y0029676D01*
X0179400Y0027278D02*
X0170600Y0027278D01*
X0170580Y0024879D02*
X0179420Y0024879D01*
X0180414Y0022481D02*
X0169586Y0022481D01*
X0166719Y0020082D02*
X0183281Y0020082D01*
X0189319Y0020082D02*
X0193281Y0020082D01*
X0199319Y0020082D02*
X0230082Y0020082D01*
X0232481Y0022481D02*
X0202186Y0022481D01*
X0203180Y0024879D02*
X0234879Y0024879D01*
X0237278Y0027278D02*
X0203200Y0027278D01*
X0202370Y0029676D02*
X0239676Y0029676D01*
X0241300Y0032075D02*
X0200283Y0032075D01*
M02*
