G75*
%MOIN*%
%OFA0B0*%
%FSLAX25Y25*%
%IPPOS*%
%LPD*%
%AMOC8*
5,1,8,0,0,1.08239X$1,22.5*
%
%ADD10C,0.00600*%
%ADD11R,0.03156X0.04337*%
%ADD12R,0.04731X0.04337*%
%ADD13R,0.06699X0.01581*%
%ADD14R,0.02900X0.05400*%
%ADD15R,0.04337X0.04731*%
%ADD16R,0.12211X0.11030*%
%ADD17R,0.07880X0.20479*%
%ADD18C,0.07800*%
%ADD19C,0.07800*%
D10*
X0026300Y0001300D02*
X0001300Y0026300D01*
X0001300Y0096300D01*
X0031300Y0126300D01*
X0211300Y0126300D01*
X0246300Y0091300D01*
X0246300Y0031300D01*
X0216300Y0001300D01*
X0026300Y0001300D01*
D11*
X0031300Y0081300D03*
X0035040Y0081300D03*
X0038780Y0081300D03*
X0038780Y0090749D03*
X0031300Y0090749D03*
D12*
X0027954Y0099300D03*
X0034646Y0099300D03*
X0031146Y0069300D03*
X0024454Y0069300D03*
X0059954Y0044800D03*
X0066646Y0044800D03*
D13*
X0075276Y0044935D03*
X0075276Y0042376D03*
X0075276Y0047494D03*
X0075276Y0050053D03*
X0075276Y0052612D03*
X0075276Y0055171D03*
X0075276Y0057730D03*
X0075276Y0060289D03*
X0097324Y0060289D03*
X0097324Y0057730D03*
X0097324Y0055171D03*
X0097324Y0052612D03*
X0097324Y0050053D03*
X0097324Y0047494D03*
X0097324Y0044935D03*
X0097324Y0042376D03*
D14*
X0086300Y0051300D03*
D15*
X0111300Y0052954D03*
X0111300Y0059646D03*
X0111300Y0044646D03*
X0111300Y0037954D03*
X0067800Y0033146D03*
X0067800Y0026454D03*
X0052800Y0037954D03*
X0052800Y0044646D03*
X0211300Y0057954D03*
X0221300Y0057954D03*
X0221300Y0064646D03*
X0211300Y0064646D03*
X0211300Y0085954D03*
X0211300Y0092646D03*
D16*
X0131300Y0070473D03*
X0131300Y0042127D03*
D17*
X0065068Y0067300D03*
X0048532Y0067300D03*
D18*
X0046300Y0107600D02*
X0046300Y0115000D01*
X0056300Y0115000D02*
X0056300Y0107600D01*
X0157600Y0096300D02*
X0165000Y0096300D01*
X0165000Y0086300D02*
X0157600Y0086300D01*
X0157600Y0061300D02*
X0165000Y0061300D01*
X0165000Y0051300D02*
X0157600Y0051300D01*
X0156300Y0026300D02*
X0163700Y0026300D01*
D19*
X0186300Y0026300D03*
X0196300Y0026300D03*
X0196300Y0056300D03*
X0186300Y0056300D03*
X0186300Y0086300D03*
X0196300Y0086300D03*
M02*
