G75*
%MOIN*%
%OFA0B0*%
%FSLAX25Y25*%
%IPPOS*%
%LPD*%
%AMOC8*
5,1,8,0,0,1.08239X$1,22.5*
%
%ADD10C,0.00600*%
%ADD11C,0.07400*%
%ADD12R,0.12500X0.04900*%
%ADD13C,0.04800*%
%ADD14C,0.02578*%
%ADD15C,0.02400*%
%ADD16C,0.01200*%
D10*
X0011300Y0001600D02*
X0001300Y0011600D01*
X0001300Y0041600D01*
X0056300Y0096600D01*
X0121300Y0096600D01*
X0123800Y0094100D01*
X0123800Y0004100D01*
X0121300Y0001600D01*
X0011300Y0001600D01*
D11*
X0017800Y0016600D03*
X0017800Y0026600D03*
X0017800Y0036600D03*
X0105800Y0036600D03*
X0106800Y0026600D03*
X0105800Y0016600D03*
X0106800Y0046600D03*
X0105800Y0056600D03*
X0106800Y0066600D03*
X0105800Y0076600D03*
X0106800Y0086600D03*
D12*
X0031300Y0039150D03*
X0031300Y0014050D03*
D13*
X0020350Y0014050D01*
X0017800Y0016600D01*
X0017800Y0036600D02*
X0020350Y0039150D01*
X0031300Y0039150D01*
D14*
X0042300Y0036100D03*
X0048300Y0021600D03*
X0045300Y0008600D03*
X0079800Y0021600D03*
X0046800Y0053100D03*
D15*
X0046800Y0023100D01*
X0048300Y0021600D01*
X0048300Y0011600D01*
X0045300Y0008600D01*
X0045300Y0012100D01*
X0043300Y0014100D01*
X0031350Y0014100D01*
X0031300Y0014050D01*
X0048300Y0021600D02*
X0079800Y0021600D01*
X0100800Y0021600D01*
X0105800Y0016600D01*
X0042300Y0036100D02*
X0039250Y0039150D01*
X0031300Y0039150D01*
D16*
X0038067Y0034100D02*
X0038674Y0034352D01*
X0038914Y0034112D01*
X0039003Y0033897D01*
X0040097Y0032803D01*
X0041526Y0032211D01*
X0043074Y0032211D01*
X0044503Y0032803D01*
X0045597Y0033897D01*
X0046189Y0035326D01*
X0046189Y0036874D01*
X0045597Y0038303D01*
X0044503Y0039397D01*
X0044288Y0039486D01*
X0041403Y0042371D01*
X0040006Y0042950D01*
X0039805Y0042950D01*
X0039754Y0043073D01*
X0039023Y0043804D01*
X0038067Y0044200D01*
X0024533Y0044200D01*
X0024412Y0044150D01*
X0019355Y0044150D01*
X0017518Y0043389D01*
X0017029Y0042900D01*
X0016547Y0042900D01*
X0016300Y0042798D01*
X0016300Y0051600D01*
X0058400Y0093700D01*
X0104200Y0093700D01*
X0105160Y0092740D01*
X0103231Y0091941D01*
X0101459Y0090169D01*
X0100500Y0087853D01*
X0100500Y0085347D01*
X0101459Y0083031D01*
X0102456Y0082034D01*
X0102231Y0081941D01*
X0100459Y0080169D01*
X0099500Y0077853D01*
X0099500Y0075347D01*
X0100459Y0073031D01*
X0102231Y0071259D01*
X0102456Y0071166D01*
X0101459Y0070169D01*
X0100500Y0067853D01*
X0100500Y0065347D01*
X0101459Y0063031D01*
X0102456Y0062034D01*
X0102231Y0061941D01*
X0100459Y0060169D01*
X0099500Y0057853D01*
X0099500Y0055347D01*
X0100459Y0053031D01*
X0102231Y0051259D01*
X0102456Y0051166D01*
X0101459Y0050169D01*
X0100500Y0047853D01*
X0100500Y0045347D01*
X0101459Y0043031D01*
X0102456Y0042034D01*
X0102231Y0041941D01*
X0100459Y0040169D01*
X0099500Y0037853D01*
X0099500Y0035347D01*
X0100459Y0033031D01*
X0102231Y0031259D01*
X0102456Y0031166D01*
X0101459Y0030169D01*
X0100500Y0027853D01*
X0100500Y0025347D01*
X0101459Y0023031D01*
X0103231Y0021259D01*
X0103253Y0021250D01*
X0103022Y0021133D01*
X0102347Y0020643D01*
X0101757Y0020053D01*
X0101267Y0019378D01*
X0100888Y0018634D01*
X0100630Y0017841D01*
X0100500Y0017017D01*
X0100500Y0017000D01*
X0105400Y0017000D01*
X0105400Y0016200D01*
X0106200Y0016200D01*
X0106200Y0011300D01*
X0106217Y0011300D01*
X0106300Y0011313D01*
X0106300Y0006600D01*
X0104200Y0004500D01*
X0018400Y0004500D01*
X0016300Y0006600D01*
X0016300Y0011515D01*
X0016559Y0011430D01*
X0017383Y0011300D01*
X0017400Y0011300D01*
X0017400Y0016200D01*
X0018200Y0016200D01*
X0018200Y0017000D01*
X0023100Y0017000D01*
X0023100Y0017017D01*
X0022969Y0017841D01*
X0022712Y0018634D01*
X0022333Y0019378D01*
X0021843Y0020053D01*
X0021253Y0020643D01*
X0020754Y0021005D01*
X0021369Y0021259D01*
X0023141Y0023031D01*
X0024100Y0025347D01*
X0024100Y0027853D01*
X0023141Y0030169D01*
X0021710Y0031600D01*
X0023141Y0033031D01*
X0023604Y0034150D01*
X0024412Y0034150D01*
X0024533Y0034100D01*
X0038067Y0034100D01*
X0038977Y0033960D02*
X0023525Y0033960D01*
X0022871Y0032761D02*
X0040198Y0032761D01*
X0044402Y0032761D02*
X0100729Y0032761D01*
X0100075Y0033960D02*
X0045623Y0033960D01*
X0046119Y0035158D02*
X0099578Y0035158D01*
X0099500Y0036357D02*
X0046189Y0036357D01*
X0045907Y0037555D02*
X0099500Y0037555D01*
X0099873Y0038754D02*
X0045146Y0038754D01*
X0043822Y0039952D02*
X0100370Y0039952D01*
X0101441Y0041151D02*
X0042623Y0041151D01*
X0041425Y0042349D02*
X0102141Y0042349D01*
X0101245Y0043548D02*
X0039279Y0043548D01*
X0022945Y0030364D02*
X0101655Y0030364D01*
X0101044Y0029166D02*
X0023556Y0029166D01*
X0024053Y0027967D02*
X0100547Y0027967D01*
X0100500Y0026769D02*
X0024100Y0026769D01*
X0024100Y0025570D02*
X0100500Y0025570D01*
X0100904Y0024372D02*
X0023696Y0024372D01*
X0023200Y0023173D02*
X0101400Y0023173D01*
X0102516Y0021975D02*
X0022084Y0021975D01*
X0021069Y0020776D02*
X0102531Y0020776D01*
X0101412Y0019578D02*
X0022188Y0019578D01*
X0022795Y0018379D02*
X0100805Y0018379D01*
X0100526Y0017181D02*
X0039005Y0017181D01*
X0039041Y0017118D02*
X0038830Y0017482D01*
X0038532Y0017780D01*
X0038168Y0017991D01*
X0037761Y0018100D01*
X0031900Y0018100D01*
X0031900Y0014650D01*
X0030700Y0014650D01*
X0030700Y0018100D01*
X0024839Y0018100D01*
X0024432Y0017991D01*
X0024068Y0017780D01*
X0023770Y0017482D01*
X0023559Y0017118D01*
X0023450Y0016711D01*
X0023450Y0014650D01*
X0030700Y0014650D01*
X0030700Y0013450D01*
X0031900Y0013450D01*
X0031900Y0014650D01*
X0039150Y0014650D01*
X0039150Y0016711D01*
X0039041Y0017118D01*
X0039150Y0015982D02*
X0100532Y0015982D01*
X0100500Y0016183D02*
X0100630Y0015359D01*
X0100888Y0014566D01*
X0101267Y0013822D01*
X0101757Y0013147D01*
X0102347Y0012557D01*
X0103022Y0012067D01*
X0103766Y0011688D01*
X0104559Y0011430D01*
X0105383Y0011300D01*
X0105400Y0011300D01*
X0105400Y0016200D01*
X0100500Y0016200D01*
X0100500Y0016183D01*
X0100817Y0014784D02*
X0039150Y0014784D01*
X0039150Y0013450D02*
X0039150Y0011389D01*
X0039041Y0010982D01*
X0038830Y0010618D01*
X0038532Y0010320D01*
X0038168Y0010109D01*
X0037761Y0010000D01*
X0031900Y0010000D01*
X0031900Y0013450D01*
X0039150Y0013450D01*
X0039150Y0012387D02*
X0102582Y0012387D01*
X0101439Y0013585D02*
X0031900Y0013585D01*
X0031900Y0012387D02*
X0030700Y0012387D01*
X0030700Y0013450D02*
X0030700Y0010000D01*
X0024839Y0010000D01*
X0024432Y0010109D01*
X0024068Y0010320D01*
X0023770Y0010618D01*
X0023559Y0010982D01*
X0023450Y0011389D01*
X0023450Y0013450D01*
X0030700Y0013450D01*
X0030700Y0013585D02*
X0022161Y0013585D01*
X0022333Y0013822D02*
X0021843Y0013147D01*
X0021253Y0012557D01*
X0020578Y0012067D01*
X0019834Y0011688D01*
X0019041Y0011430D01*
X0018217Y0011300D01*
X0018200Y0011300D01*
X0018200Y0016200D01*
X0023100Y0016200D01*
X0023100Y0016183D01*
X0022969Y0015359D01*
X0022712Y0014566D01*
X0022333Y0013822D01*
X0022783Y0014784D02*
X0023450Y0014784D01*
X0023450Y0015982D02*
X0023068Y0015982D01*
X0023074Y0017181D02*
X0023595Y0017181D01*
X0018200Y0015982D02*
X0017400Y0015982D01*
X0017400Y0014784D02*
X0018200Y0014784D01*
X0018200Y0013585D02*
X0017400Y0013585D01*
X0017400Y0012387D02*
X0018200Y0012387D01*
X0016300Y0011188D02*
X0023504Y0011188D01*
X0023450Y0012387D02*
X0021018Y0012387D01*
X0016300Y0009990D02*
X0106300Y0009990D01*
X0106300Y0011188D02*
X0039096Y0011188D01*
X0031900Y0011188D02*
X0030700Y0011188D01*
X0030700Y0014784D02*
X0031900Y0014784D01*
X0031900Y0015982D02*
X0030700Y0015982D01*
X0030700Y0017181D02*
X0031900Y0017181D01*
X0016300Y0008791D02*
X0106300Y0008791D01*
X0106300Y0007593D02*
X0016300Y0007593D01*
X0016506Y0006394D02*
X0106094Y0006394D01*
X0104896Y0005196D02*
X0017704Y0005196D01*
X0021747Y0031563D02*
X0101928Y0031563D01*
X0100749Y0044746D02*
X0016300Y0044746D01*
X0016300Y0043548D02*
X0017902Y0043548D01*
X0016300Y0045945D02*
X0100500Y0045945D01*
X0100500Y0047143D02*
X0016300Y0047143D01*
X0016300Y0048342D02*
X0100702Y0048342D01*
X0101199Y0049540D02*
X0016300Y0049540D01*
X0016300Y0050739D02*
X0102029Y0050739D01*
X0101553Y0051937D02*
X0016637Y0051937D01*
X0017836Y0053136D02*
X0100416Y0053136D01*
X0099919Y0054334D02*
X0019034Y0054334D01*
X0020233Y0055533D02*
X0099500Y0055533D01*
X0099500Y0056732D02*
X0021432Y0056732D01*
X0022630Y0057930D02*
X0099532Y0057930D01*
X0100028Y0059129D02*
X0023829Y0059129D01*
X0025027Y0060327D02*
X0100618Y0060327D01*
X0101816Y0061526D02*
X0026226Y0061526D01*
X0027424Y0062724D02*
X0101766Y0062724D01*
X0101090Y0063923D02*
X0028623Y0063923D01*
X0029821Y0065121D02*
X0100594Y0065121D01*
X0100500Y0066320D02*
X0031020Y0066320D01*
X0032218Y0067518D02*
X0100500Y0067518D01*
X0100858Y0068717D02*
X0033417Y0068717D01*
X0034615Y0069915D02*
X0101354Y0069915D01*
X0102404Y0071114D02*
X0035814Y0071114D01*
X0037012Y0072312D02*
X0101178Y0072312D01*
X0100261Y0073511D02*
X0038211Y0073511D01*
X0039409Y0074709D02*
X0099764Y0074709D01*
X0099500Y0075908D02*
X0040608Y0075908D01*
X0041806Y0077106D02*
X0099500Y0077106D01*
X0099687Y0078305D02*
X0043005Y0078305D01*
X0044203Y0079503D02*
X0100184Y0079503D01*
X0100992Y0080702D02*
X0045402Y0080702D01*
X0046600Y0081900D02*
X0102191Y0081900D01*
X0101431Y0083099D02*
X0047799Y0083099D01*
X0048997Y0084297D02*
X0100935Y0084297D01*
X0100500Y0085496D02*
X0050196Y0085496D01*
X0051394Y0086694D02*
X0100500Y0086694D01*
X0100516Y0087893D02*
X0052593Y0087893D01*
X0053791Y0089091D02*
X0101013Y0089091D01*
X0101580Y0090290D02*
X0054990Y0090290D01*
X0056188Y0091488D02*
X0102779Y0091488D01*
X0105032Y0092687D02*
X0057387Y0092687D01*
X0105400Y0015982D02*
X0106200Y0015982D01*
X0106200Y0014784D02*
X0105400Y0014784D01*
X0105400Y0013585D02*
X0106200Y0013585D01*
X0106200Y0012387D02*
X0105400Y0012387D01*
M02*
