G75*
%MOIN*%
%OFA0B0*%
%FSLAX25Y25*%
%IPPOS*%
%LPD*%
%AMOC8*
5,1,8,0,0,1.08239X$1,22.5*
%
%ADD10C,0.00600*%
%ADD11C,0.07400*%
%ADD12R,0.12500X0.04900*%
%ADD13C,0.04800*%
%ADD14C,0.02578*%
%ADD15C,0.02400*%
D10*
X0011300Y0001300D02*
X0001300Y0011300D01*
X0001300Y0041300D01*
X0056300Y0096300D01*
X0121300Y0096300D01*
X0123800Y0093800D01*
X0123800Y0003800D01*
X0121300Y0001300D01*
X0011300Y0001300D01*
D11*
X0017800Y0016300D03*
X0017800Y0026300D03*
X0017800Y0036300D03*
X0105800Y0036300D03*
X0106800Y0046300D03*
X0105800Y0056300D03*
X0106800Y0066300D03*
X0105800Y0076300D03*
X0106800Y0086300D03*
X0106800Y0026300D03*
X0105800Y0016300D03*
D12*
X0031300Y0013750D03*
X0031300Y0038850D03*
D13*
X0020350Y0038850D01*
X0017800Y0036300D01*
X0017800Y0016300D02*
X0020350Y0013750D01*
X0031300Y0013750D01*
D14*
X0045300Y0008300D03*
X0048300Y0021300D03*
X0042300Y0035800D03*
X0046800Y0052800D03*
X0079800Y0021300D03*
D15*
X0100800Y0021300D01*
X0105800Y0016300D01*
X0079800Y0021300D02*
X0048300Y0021300D01*
X0048300Y0011300D01*
X0045300Y0008300D01*
X0045300Y0011800D01*
X0043300Y0013800D01*
X0031350Y0013800D01*
X0031300Y0013750D01*
X0046800Y0022800D02*
X0048300Y0021300D01*
X0046800Y0022800D02*
X0046800Y0052800D01*
X0039250Y0038850D02*
X0031300Y0038850D01*
X0039250Y0038850D02*
X0042300Y0035800D01*
M02*
