G75*
%MOIN*%
%OFA0B0*%
%FSLAX25Y25*%
%IPPOS*%
%LPD*%
%AMOC8*
5,1,8,0,0,1.08239X$1,22.5*
%
%ADD10C,0.00600*%
%ADD11C,0.00800*%
%ADD12C,0.00200*%
%ADD13C,0.00787*%
%ADD14C,0.00300*%
%ADD15C,0.00500*%
D10*
X0011300Y0001300D02*
X0001300Y0011300D01*
X0001300Y0041300D01*
X0056300Y0096300D01*
X0121300Y0096300D01*
X0123800Y0093800D01*
X0123800Y0003800D01*
X0121300Y0001300D01*
X0011300Y0001300D01*
D11*
X0015300Y0011300D02*
X0012800Y0013800D01*
X0012800Y0018800D01*
X0015300Y0021300D01*
X0012800Y0023800D01*
X0012800Y0028800D01*
X0015300Y0031300D01*
X0012800Y0033800D01*
X0012800Y0038800D01*
X0015300Y0041300D01*
X0020300Y0041300D01*
X0022800Y0038800D01*
X0022800Y0033800D01*
X0020300Y0031300D01*
X0022800Y0028800D01*
X0022800Y0023800D01*
X0020300Y0021300D01*
X0022800Y0018800D01*
X0022800Y0013800D01*
X0020300Y0011300D01*
X0015300Y0011300D01*
X0050800Y0025721D02*
X0070091Y0025721D01*
X0070091Y0027690D01*
X0050800Y0027690D02*
X0050800Y0025721D01*
X0042926Y0045800D02*
X0042928Y0045856D01*
X0042934Y0045911D01*
X0042944Y0045965D01*
X0042957Y0046019D01*
X0042975Y0046072D01*
X0042996Y0046123D01*
X0043020Y0046173D01*
X0043048Y0046221D01*
X0043080Y0046267D01*
X0043114Y0046311D01*
X0043152Y0046352D01*
X0043192Y0046390D01*
X0043235Y0046425D01*
X0043280Y0046457D01*
X0043328Y0046486D01*
X0043377Y0046512D01*
X0043428Y0046534D01*
X0043480Y0046552D01*
X0043534Y0046566D01*
X0043589Y0046577D01*
X0043644Y0046584D01*
X0043699Y0046587D01*
X0043755Y0046586D01*
X0043810Y0046581D01*
X0043865Y0046572D01*
X0043919Y0046560D01*
X0043972Y0046543D01*
X0044024Y0046523D01*
X0044074Y0046499D01*
X0044122Y0046472D01*
X0044169Y0046442D01*
X0044213Y0046408D01*
X0044255Y0046371D01*
X0044293Y0046331D01*
X0044330Y0046289D01*
X0044363Y0046244D01*
X0044392Y0046198D01*
X0044419Y0046149D01*
X0044441Y0046098D01*
X0044461Y0046046D01*
X0044476Y0045992D01*
X0044488Y0045938D01*
X0044496Y0045883D01*
X0044500Y0045828D01*
X0044500Y0045772D01*
X0044496Y0045717D01*
X0044488Y0045662D01*
X0044476Y0045608D01*
X0044461Y0045554D01*
X0044441Y0045502D01*
X0044419Y0045451D01*
X0044392Y0045402D01*
X0044363Y0045356D01*
X0044330Y0045311D01*
X0044293Y0045269D01*
X0044255Y0045229D01*
X0044213Y0045192D01*
X0044169Y0045158D01*
X0044122Y0045128D01*
X0044074Y0045101D01*
X0044024Y0045077D01*
X0043972Y0045057D01*
X0043919Y0045040D01*
X0043865Y0045028D01*
X0043810Y0045019D01*
X0043755Y0045014D01*
X0043699Y0045013D01*
X0043644Y0045016D01*
X0043589Y0045023D01*
X0043534Y0045034D01*
X0043480Y0045048D01*
X0043428Y0045066D01*
X0043377Y0045088D01*
X0043328Y0045114D01*
X0043280Y0045143D01*
X0043235Y0045175D01*
X0043192Y0045210D01*
X0043152Y0045248D01*
X0043114Y0045289D01*
X0043080Y0045333D01*
X0043048Y0045379D01*
X0043020Y0045427D01*
X0042996Y0045477D01*
X0042975Y0045528D01*
X0042957Y0045581D01*
X0042944Y0045635D01*
X0042934Y0045689D01*
X0042928Y0045744D01*
X0042926Y0045800D01*
X0050800Y0048950D02*
X0050800Y0050918D01*
X0070091Y0050918D01*
X0070091Y0048950D01*
X0101300Y0048800D02*
X0101300Y0043800D01*
X0103800Y0041300D01*
X0101300Y0038800D01*
X0101300Y0033800D01*
X0103800Y0031300D01*
X0101300Y0028800D01*
X0101300Y0023800D01*
X0103800Y0021300D01*
X0101300Y0018800D01*
X0101300Y0013800D01*
X0103800Y0011300D01*
X0108800Y0011300D01*
X0111300Y0013800D01*
X0111300Y0018800D01*
X0108800Y0021300D01*
X0111300Y0023800D01*
X0111300Y0028800D01*
X0108800Y0031300D01*
X0111300Y0033800D01*
X0111300Y0038800D01*
X0108800Y0041300D01*
X0111300Y0043800D01*
X0111300Y0048800D01*
X0108800Y0051300D01*
X0111300Y0053800D01*
X0111300Y0058800D01*
X0108800Y0061300D01*
X0111300Y0063800D01*
X0111300Y0068800D01*
X0108800Y0071300D01*
X0111300Y0073800D01*
X0111300Y0078800D01*
X0108800Y0081300D01*
X0111300Y0083800D01*
X0111300Y0088800D01*
X0108800Y0091300D01*
X0103800Y0091300D01*
X0101300Y0088800D01*
X0101300Y0083800D01*
X0103800Y0081300D01*
X0101300Y0078800D01*
X0101300Y0073800D01*
X0103800Y0071300D01*
X0101300Y0068800D01*
X0101300Y0063800D01*
X0103800Y0061300D01*
X0101300Y0058800D01*
X0101300Y0053800D01*
X0103800Y0051300D01*
X0101300Y0048800D01*
D12*
X0057712Y0023655D02*
X0057712Y0020853D01*
X0058179Y0022254D02*
X0056311Y0022254D01*
X0057712Y0023655D01*
X0055416Y0023188D02*
X0054949Y0023655D01*
X0054015Y0023655D01*
X0053548Y0023188D01*
X0053548Y0022721D01*
X0054015Y0022254D01*
X0054949Y0022254D01*
X0055416Y0021787D01*
X0055416Y0021320D01*
X0054949Y0020853D01*
X0054015Y0020853D01*
X0053548Y0021320D01*
X0052654Y0021320D02*
X0052654Y0023655D01*
X0054482Y0024122D02*
X0054482Y0020386D01*
X0052654Y0021320D02*
X0052187Y0020853D01*
X0051253Y0020853D01*
X0050786Y0021320D01*
X0050786Y0023655D01*
D13*
X0040450Y0011300D02*
X0040400Y0011300D01*
X0035250Y0011300D02*
X0035200Y0011300D01*
X0032300Y0017300D02*
X0032300Y0023300D01*
X0026300Y0023300D02*
X0026300Y0017300D01*
X0029331Y0042906D02*
X0029331Y0043694D01*
X0033269Y0043694D02*
X0033269Y0042906D01*
X0034331Y0042906D02*
X0034331Y0043694D01*
X0038269Y0043694D02*
X0038269Y0042906D01*
X0077831Y0038694D02*
X0077831Y0037906D01*
X0081769Y0037906D02*
X0081769Y0038694D01*
X0081769Y0028694D02*
X0081769Y0027906D01*
X0077831Y0027906D02*
X0077831Y0028694D01*
D14*
X0086247Y0027409D02*
X0086247Y0026458D01*
X0086722Y0025983D01*
X0087197Y0025983D01*
X0087673Y0026458D01*
X0087673Y0027884D01*
X0088623Y0027884D02*
X0086722Y0027884D01*
X0086247Y0027409D01*
X0088623Y0027884D02*
X0089099Y0027409D01*
X0089099Y0026458D01*
X0088623Y0025983D01*
X0088623Y0024984D02*
X0088148Y0024984D01*
X0087673Y0024508D01*
X0087673Y0023558D01*
X0087197Y0023082D01*
X0086722Y0023082D01*
X0086247Y0023558D01*
X0086247Y0024508D01*
X0086722Y0024984D01*
X0085771Y0024033D02*
X0089574Y0024033D01*
X0089099Y0023558D02*
X0089099Y0024508D01*
X0088623Y0024984D01*
X0089099Y0023558D02*
X0088623Y0023082D01*
X0088623Y0022084D02*
X0086247Y0022084D01*
X0086247Y0020182D02*
X0088623Y0020182D01*
X0089099Y0020658D01*
X0089099Y0021608D01*
X0088623Y0022084D01*
X0088623Y0030182D02*
X0086247Y0030182D01*
X0086247Y0032084D02*
X0088623Y0032084D01*
X0089099Y0031608D01*
X0089099Y0030658D01*
X0088623Y0030182D01*
X0088623Y0033082D02*
X0089099Y0033558D01*
X0089099Y0034508D01*
X0088623Y0034984D01*
X0088148Y0034984D01*
X0087673Y0034508D01*
X0087673Y0033558D01*
X0087197Y0033082D01*
X0086722Y0033082D01*
X0086247Y0033558D01*
X0086247Y0034508D01*
X0086722Y0034984D01*
X0086722Y0035983D02*
X0087197Y0035983D01*
X0087673Y0036458D01*
X0087673Y0037409D01*
X0088148Y0037884D01*
X0088623Y0037884D01*
X0089099Y0037409D01*
X0089099Y0036458D01*
X0088623Y0035983D01*
X0088148Y0035983D01*
X0087673Y0036458D01*
X0087673Y0037409D02*
X0087197Y0037884D01*
X0086722Y0037884D01*
X0086247Y0037409D01*
X0086247Y0036458D01*
X0086722Y0035983D01*
X0085771Y0034033D02*
X0089574Y0034033D01*
X0048000Y0013276D02*
X0048000Y0012326D01*
X0047525Y0011850D01*
X0046574Y0011850D01*
X0046574Y0013276D01*
X0047049Y0013752D01*
X0047525Y0013752D01*
X0048000Y0013276D01*
X0046574Y0011850D02*
X0045623Y0012801D01*
X0045148Y0013752D01*
X0045623Y0010851D02*
X0045148Y0010376D01*
X0045148Y0009425D01*
X0045623Y0008950D01*
X0046099Y0008950D01*
X0046574Y0009425D01*
X0046574Y0010376D01*
X0047049Y0010851D01*
X0047525Y0010851D01*
X0048000Y0010376D01*
X0048000Y0009425D01*
X0047525Y0008950D01*
X0047525Y0007951D02*
X0045148Y0007951D01*
X0047525Y0007951D02*
X0048000Y0007476D01*
X0048000Y0006525D01*
X0047525Y0006050D01*
X0045148Y0006050D01*
X0044673Y0009901D02*
X0048475Y0009901D01*
X0040650Y0017925D02*
X0040175Y0017450D01*
X0037798Y0017450D01*
X0037798Y0019351D02*
X0040175Y0019351D01*
X0040650Y0018876D01*
X0040650Y0017925D01*
X0040175Y0020350D02*
X0040650Y0020825D01*
X0040650Y0021776D01*
X0040175Y0022251D01*
X0039699Y0022251D01*
X0039224Y0021776D01*
X0039224Y0020825D01*
X0038749Y0020350D01*
X0038273Y0020350D01*
X0037798Y0020825D01*
X0037798Y0021776D01*
X0038273Y0022251D01*
X0037798Y0023250D02*
X0039224Y0023250D01*
X0038749Y0024201D01*
X0038749Y0024676D01*
X0039224Y0025152D01*
X0040175Y0025152D01*
X0040650Y0024676D01*
X0040650Y0023726D01*
X0040175Y0023250D01*
X0041125Y0021301D02*
X0037323Y0021301D01*
X0037798Y0023250D02*
X0037798Y0025152D01*
X0042747Y0035182D02*
X0045123Y0035182D01*
X0045599Y0035658D01*
X0045599Y0036608D01*
X0045123Y0037084D01*
X0042747Y0037084D01*
X0043222Y0038082D02*
X0042747Y0038558D01*
X0042747Y0039508D01*
X0043222Y0039984D01*
X0044173Y0039508D02*
X0044173Y0038558D01*
X0043697Y0038082D01*
X0043222Y0038082D01*
X0042271Y0039033D02*
X0046074Y0039033D01*
X0045599Y0038558D02*
X0045599Y0039508D01*
X0045123Y0039984D01*
X0044648Y0039984D01*
X0044173Y0039508D01*
X0043697Y0040983D02*
X0042747Y0041933D01*
X0045599Y0041933D01*
X0045599Y0040983D02*
X0045599Y0042884D01*
X0045599Y0043883D02*
X0045599Y0045784D01*
X0045599Y0044833D02*
X0042747Y0044833D01*
X0043697Y0043883D01*
X0045599Y0038558D02*
X0045123Y0038082D01*
X0025326Y0046868D02*
X0021523Y0046868D01*
X0021999Y0046393D02*
X0021999Y0047344D01*
X0022474Y0047819D01*
X0023425Y0047344D02*
X0023425Y0046393D01*
X0022949Y0045917D01*
X0022474Y0045917D01*
X0021999Y0046393D01*
X0021999Y0044919D02*
X0024375Y0044919D01*
X0024851Y0044443D01*
X0024851Y0043493D01*
X0024375Y0043017D01*
X0021999Y0043017D01*
X0024375Y0045917D02*
X0024851Y0046393D01*
X0024851Y0047344D01*
X0024375Y0047819D01*
X0023900Y0047819D01*
X0023425Y0047344D01*
X0024375Y0048818D02*
X0024851Y0049293D01*
X0024851Y0050244D01*
X0024375Y0050719D01*
X0023900Y0050719D01*
X0023425Y0050244D01*
X0023425Y0049768D01*
X0023425Y0050244D02*
X0022949Y0050719D01*
X0022474Y0050719D01*
X0021999Y0050244D01*
X0021999Y0049293D01*
X0022474Y0048818D01*
D15*
X0098648Y0019130D02*
X0098648Y0018497D01*
X0098965Y0018180D01*
X0098648Y0019130D02*
X0098965Y0019447D01*
X0099282Y0019447D01*
X0100550Y0018180D01*
X0100550Y0019447D01*
X0100550Y0017238D02*
X0100550Y0015970D01*
X0100550Y0016604D02*
X0098648Y0016604D01*
X0099282Y0015970D01*
X0098965Y0015028D02*
X0098648Y0014711D01*
X0098648Y0014077D01*
X0098965Y0013760D01*
X0099282Y0013760D01*
X0099599Y0014077D01*
X0099599Y0014711D01*
X0099916Y0015028D01*
X0100233Y0015028D01*
X0100550Y0014711D01*
X0100550Y0014077D01*
X0100233Y0013760D01*
X0100867Y0014394D02*
X0098331Y0014394D01*
X0098648Y0012818D02*
X0100233Y0012818D01*
X0100550Y0012501D01*
X0100550Y0011867D01*
X0100233Y0011550D01*
X0098648Y0011550D01*
M02*
