G75*
%MOIN*%
%OFA0B0*%
%FSLAX25Y25*%
%IPPOS*%
%LPD*%
%AMOC8*
5,1,8,0,0,1.08239X$1,22.5*
%
%ADD10C,0.00600*%
%ADD11R,0.07992X0.02402*%
%ADD12R,0.06700X0.03600*%
%ADD13C,0.07400*%
%ADD14R,0.03402X0.03098*%
%ADD15R,0.05200X0.04250*%
%ADD16C,0.03600*%
%ADD17C,0.02400*%
%ADD18C,0.02578*%
%ADD19C,0.04800*%
D10*
X0011300Y0001300D02*
X0001300Y0011300D01*
X0001300Y0041300D01*
X0056300Y0096300D01*
X0121300Y0096300D01*
X0123800Y0093800D01*
X0123800Y0003800D01*
X0121300Y0001300D01*
X0011300Y0001300D01*
D11*
X0050800Y0030839D03*
X0050800Y0035839D03*
X0050800Y0040839D03*
X0050800Y0045839D03*
X0070091Y0045839D03*
X0070091Y0040839D03*
X0070091Y0035839D03*
X0070091Y0030839D03*
D12*
X0029300Y0026300D03*
X0029300Y0014300D03*
D13*
X0017800Y0016300D03*
X0017800Y0026300D03*
X0017800Y0036300D03*
X0105800Y0036300D03*
X0106800Y0046300D03*
X0105800Y0056300D03*
X0106800Y0066300D03*
X0105800Y0076300D03*
X0106800Y0086300D03*
X0106800Y0026300D03*
X0105800Y0016300D03*
D14*
X0079800Y0025252D03*
X0079800Y0031350D03*
X0079800Y0035252D03*
X0079800Y0041350D03*
X0036300Y0040252D03*
X0031300Y0040250D03*
X0031300Y0046348D03*
X0036300Y0046350D03*
D15*
X0037800Y0014425D03*
X0037800Y0008175D03*
D16*
X0037675Y0014300D02*
X0037800Y0014425D01*
X0037675Y0014300D02*
X0029300Y0014300D01*
X0029300Y0026300D02*
X0017800Y0026300D01*
D17*
X0031300Y0040250D02*
X0031302Y0040252D01*
X0036300Y0040252D01*
X0039752Y0040252D01*
X0040339Y0040839D01*
X0050800Y0040839D01*
X0050800Y0035839D02*
X0042339Y0035839D01*
X0042300Y0035800D01*
X0050800Y0030839D02*
X0050839Y0030800D01*
X0056800Y0030800D01*
X0058300Y0029300D01*
X0058300Y0022800D01*
X0056800Y0021300D01*
X0048300Y0021300D01*
X0037675Y0014300D02*
X0064800Y0014300D01*
X0070091Y0019591D01*
X0070091Y0030839D01*
X0070091Y0035839D02*
X0075761Y0035839D01*
X0076348Y0035252D01*
X0079800Y0035252D01*
X0079800Y0031350D01*
X0087300Y0030800D02*
X0091800Y0026300D01*
X0106800Y0026300D01*
X0087300Y0030800D02*
X0087300Y0041300D01*
X0082761Y0045839D01*
X0070091Y0045839D01*
X0070091Y0040839D02*
X0064761Y0040839D01*
X0062300Y0043300D01*
X0062300Y0062300D01*
X0066300Y0066300D01*
X0106800Y0066300D01*
X0105800Y0076300D02*
X0069800Y0076300D01*
X0057800Y0064300D01*
X0057800Y0048300D01*
X0055339Y0045839D01*
X0050800Y0045839D01*
X0040261Y0045839D01*
X0039750Y0046350D01*
X0036300Y0046350D01*
X0031300Y0046348D02*
X0031300Y0050300D01*
X0033800Y0052800D01*
X0046800Y0052800D01*
X0070091Y0040839D02*
X0076339Y0040839D01*
X0076850Y0041350D01*
X0079800Y0041350D01*
X0079800Y0025252D02*
X0079800Y0021300D01*
X0045300Y0008300D02*
X0045175Y0008175D01*
X0037800Y0008175D01*
D18*
X0045300Y0008300D03*
X0048300Y0021300D03*
X0042300Y0035800D03*
X0046800Y0052800D03*
X0079800Y0021300D03*
D19*
X0071300Y0086300D02*
X0106800Y0086300D01*
M02*
