G75*
%MOIN*%
%OFA0B0*%
%FSLAX25Y25*%
%IPPOS*%
%LPD*%
%AMOC8*
5,1,8,0,0,1.08239X$1,22.5*
%
%ADD10C,0.00600*%
%ADD11C,0.00787*%
%ADD12C,0.00300*%
D10*
X0011300Y0001300D02*
X0001300Y0011300D01*
X0001300Y0041300D01*
X0056300Y0096300D01*
X0096300Y0096300D01*
X0103800Y0088800D01*
X0103800Y0003800D01*
X0101300Y0001300D01*
X0011300Y0001300D01*
D11*
X0015300Y0017300D02*
X0015300Y0035300D01*
X0027300Y0035300D02*
X0027300Y0017300D01*
D12*
X0030776Y0032250D02*
X0030300Y0032725D01*
X0030300Y0033676D01*
X0030776Y0034151D01*
X0033152Y0034151D01*
X0033152Y0032250D02*
X0030776Y0032250D01*
X0030776Y0035150D02*
X0030300Y0035625D01*
X0030300Y0036576D01*
X0030776Y0037051D01*
X0031251Y0037051D01*
X0031726Y0036576D01*
X0031726Y0035625D01*
X0032202Y0035150D01*
X0032677Y0035150D01*
X0033152Y0035625D01*
X0033152Y0036576D01*
X0032677Y0037051D01*
X0032677Y0038050D02*
X0033152Y0038525D01*
X0033152Y0039476D01*
X0032677Y0039951D01*
X0032202Y0039951D01*
X0030300Y0038050D01*
X0030300Y0039951D01*
X0029825Y0036100D02*
X0033628Y0036100D01*
M02*
