G75*
%MOIN*%
%OFA0B0*%
%FSLAX25Y25*%
%IPPOS*%
%LPD*%
%AMOC8*
5,1,8,0,0,1.08239X$1,22.5*
%
%ADD10C,0.00600*%
%ADD11R,0.07992X0.02402*%
%ADD12R,0.06700X0.03600*%
%ADD13C,0.07400*%
%ADD14R,0.03402X0.03098*%
%ADD15R,0.05200X0.04250*%
%ADD16C,0.03600*%
%ADD17C,0.02400*%
%ADD18C,0.02578*%
%ADD19C,0.01200*%
%ADD20C,0.04800*%
D10*
X0011300Y0001600D02*
X0001300Y0011600D01*
X0001300Y0041600D01*
X0056300Y0096600D01*
X0121300Y0096600D01*
X0123800Y0094100D01*
X0123800Y0004100D01*
X0121300Y0001600D01*
X0011300Y0001600D01*
D11*
X0050800Y0031139D03*
X0050800Y0036139D03*
X0050800Y0041139D03*
X0050800Y0046139D03*
X0070091Y0046139D03*
X0070091Y0041139D03*
X0070091Y0036139D03*
X0070091Y0031139D03*
D12*
X0029300Y0026600D03*
X0029300Y0014600D03*
D13*
X0017800Y0016600D03*
X0017800Y0026600D03*
X0017800Y0036600D03*
X0105800Y0036600D03*
X0106800Y0026600D03*
X0105800Y0016600D03*
X0106800Y0046600D03*
X0105800Y0056600D03*
X0106800Y0066600D03*
X0105800Y0076600D03*
X0106800Y0086600D03*
D14*
X0079800Y0041650D03*
X0079800Y0035552D03*
X0079800Y0031650D03*
X0079800Y0025552D03*
X0036300Y0040552D03*
X0031300Y0040550D03*
X0031300Y0046648D03*
X0036300Y0046650D03*
D15*
X0037800Y0014725D03*
X0037800Y0008475D03*
D16*
X0037675Y0014600D02*
X0037800Y0014725D01*
X0037675Y0014600D02*
X0029300Y0014600D01*
X0029300Y0026600D02*
X0017800Y0026600D01*
D17*
X0031300Y0040550D02*
X0031302Y0040552D01*
X0036300Y0040552D01*
X0039752Y0040552D01*
X0040339Y0041139D01*
X0050800Y0041139D01*
X0050800Y0036139D02*
X0042339Y0036139D01*
X0042300Y0036100D01*
X0050800Y0031139D02*
X0050839Y0031100D01*
X0056800Y0031100D01*
X0058300Y0029600D01*
X0058300Y0023100D01*
X0056800Y0021600D01*
X0048300Y0021600D01*
X0037675Y0014600D02*
X0064800Y0014600D01*
X0070091Y0019891D01*
X0070091Y0031139D01*
X0070091Y0036139D02*
X0075761Y0036139D01*
X0076348Y0035552D01*
X0079800Y0035552D01*
X0079800Y0031650D01*
X0079800Y0025552D02*
X0079800Y0021600D01*
X0087300Y0031100D02*
X0091800Y0026600D01*
X0106800Y0026600D01*
X0087300Y0031100D02*
X0087300Y0041600D01*
X0082761Y0046139D01*
X0070091Y0046139D01*
X0070091Y0041139D02*
X0064761Y0041139D01*
X0062300Y0043600D01*
X0062300Y0062600D01*
X0066300Y0066600D01*
X0106800Y0066600D01*
X0105800Y0076600D02*
X0069800Y0076600D01*
X0057800Y0064600D01*
X0057800Y0048600D01*
X0055339Y0046139D01*
X0050800Y0046139D01*
X0040261Y0046139D01*
X0039750Y0046650D01*
X0036300Y0046650D01*
X0031300Y0046648D02*
X0031300Y0050600D01*
X0033800Y0053100D01*
X0046800Y0053100D01*
X0070091Y0041139D02*
X0076339Y0041139D01*
X0076850Y0041650D01*
X0079800Y0041650D01*
X0045300Y0008600D02*
X0045175Y0008475D01*
X0037800Y0008475D01*
D18*
X0045300Y0008600D03*
X0048300Y0021600D03*
X0042300Y0036100D03*
X0046800Y0053100D03*
X0079800Y0021600D03*
D19*
X0079975Y0022403D02*
X0081711Y0022403D01*
X0082118Y0022512D01*
X0082483Y0022723D01*
X0082781Y0023021D01*
X0082992Y0023386D01*
X0083101Y0023792D01*
X0083101Y0025378D01*
X0079975Y0025378D01*
X0079975Y0025727D01*
X0083101Y0025727D01*
X0083101Y0027312D01*
X0082992Y0027719D01*
X0082906Y0027868D01*
X0082974Y0027897D01*
X0083705Y0028628D01*
X0083958Y0029239D01*
X0084079Y0028947D01*
X0088579Y0024447D01*
X0089647Y0023379D01*
X0091044Y0022800D01*
X0101690Y0022800D01*
X0103231Y0021259D01*
X0103253Y0021250D01*
X0103022Y0021133D01*
X0102347Y0020643D01*
X0101757Y0020053D01*
X0101267Y0019378D01*
X0100888Y0018634D01*
X0100630Y0017841D01*
X0100500Y0017017D01*
X0100500Y0017000D01*
X0105400Y0017000D01*
X0105400Y0016200D01*
X0106200Y0016200D01*
X0106200Y0011300D01*
X0106217Y0011300D01*
X0106300Y0011313D01*
X0106300Y0006600D01*
X0104200Y0004500D01*
X0018400Y0004500D01*
X0016300Y0006600D01*
X0016300Y0011515D01*
X0016559Y0011430D01*
X0017383Y0011300D01*
X0017400Y0011300D01*
X0017400Y0016200D01*
X0018200Y0016200D01*
X0018200Y0017000D01*
X0023100Y0017000D01*
X0023100Y0017017D01*
X0022969Y0017841D01*
X0022712Y0018634D01*
X0022333Y0019378D01*
X0021843Y0020053D01*
X0021253Y0020643D01*
X0020754Y0021005D01*
X0021369Y0021259D01*
X0022310Y0022200D01*
X0033167Y0022200D01*
X0034123Y0022596D01*
X0034854Y0023327D01*
X0035250Y0024283D01*
X0035250Y0028917D01*
X0034854Y0029873D01*
X0034123Y0030604D01*
X0033167Y0031000D01*
X0022310Y0031000D01*
X0021710Y0031600D01*
X0023141Y0033031D01*
X0024100Y0035347D01*
X0024100Y0037853D01*
X0023141Y0040169D01*
X0021369Y0041941D01*
X0019053Y0042900D01*
X0016547Y0042900D01*
X0016300Y0042798D01*
X0016300Y0052499D01*
X0057501Y0093700D01*
X0104200Y0093700D01*
X0105160Y0092740D01*
X0103231Y0091941D01*
X0102890Y0091600D01*
X0070305Y0091600D01*
X0068468Y0090839D01*
X0067061Y0089432D01*
X0066300Y0087595D01*
X0066300Y0085605D01*
X0067061Y0083768D01*
X0068468Y0082361D01*
X0070305Y0081600D01*
X0101890Y0081600D01*
X0100690Y0080400D01*
X0069044Y0080400D01*
X0067647Y0079821D01*
X0066579Y0078753D01*
X0054579Y0066753D01*
X0054000Y0065356D01*
X0054000Y0050174D01*
X0053766Y0049940D01*
X0046287Y0049940D01*
X0046285Y0049939D01*
X0041739Y0049939D01*
X0040506Y0050450D01*
X0039361Y0050450D01*
X0038518Y0050799D01*
X0034082Y0050799D01*
X0033126Y0050403D01*
X0032520Y0049797D01*
X0031475Y0049797D01*
X0031475Y0046822D01*
X0031125Y0046822D01*
X0031125Y0046473D01*
X0027999Y0046473D01*
X0027999Y0044888D01*
X0028108Y0044481D01*
X0028194Y0044332D01*
X0028126Y0044303D01*
X0027395Y0043572D01*
X0026999Y0042616D01*
X0026999Y0038484D01*
X0027395Y0037528D01*
X0028126Y0036797D01*
X0029082Y0036401D01*
X0033518Y0036401D01*
X0033803Y0036519D01*
X0034082Y0036403D01*
X0038411Y0036403D01*
X0038411Y0035326D01*
X0039003Y0033897D01*
X0040097Y0032803D01*
X0041526Y0032211D01*
X0043074Y0032211D01*
X0043383Y0032339D01*
X0045204Y0032339D01*
X0045204Y0031140D01*
X0050800Y0031140D01*
X0056396Y0031140D01*
X0056396Y0032551D01*
X0056330Y0032796D01*
X0057000Y0033466D01*
X0057396Y0034421D01*
X0057396Y0037857D01*
X0057072Y0038639D01*
X0057396Y0039421D01*
X0057396Y0042857D01*
X0057389Y0042875D01*
X0057492Y0042918D01*
X0058500Y0043926D01*
X0058500Y0042844D01*
X0059079Y0041447D01*
X0060147Y0040379D01*
X0062608Y0037918D01*
X0063495Y0037550D01*
X0063495Y0034421D01*
X0063819Y0033639D01*
X0063495Y0032857D01*
X0063495Y0029421D01*
X0063891Y0028466D01*
X0064622Y0027734D01*
X0065578Y0027339D01*
X0066291Y0027339D01*
X0066291Y0021465D01*
X0063226Y0018400D01*
X0042527Y0018400D01*
X0041873Y0019054D01*
X0040917Y0019450D01*
X0034683Y0019450D01*
X0033727Y0019054D01*
X0033673Y0019000D01*
X0028425Y0019000D01*
X0025433Y0019000D01*
X0024477Y0018604D01*
X0023746Y0017873D01*
X0023350Y0016917D01*
X0023350Y0012283D01*
X0023746Y0011327D01*
X0024477Y0010596D01*
X0025433Y0010200D01*
X0033600Y0010200D01*
X0033600Y0008938D01*
X0037337Y0008938D01*
X0037337Y0008012D01*
X0038263Y0008012D01*
X0038263Y0008938D01*
X0042000Y0008938D01*
X0042000Y0010523D01*
X0042277Y0010800D01*
X0065556Y0010800D01*
X0066953Y0011379D01*
X0068021Y0012447D01*
X0073313Y0017739D01*
X0073891Y0019135D01*
X0073891Y0027339D01*
X0074605Y0027339D01*
X0075560Y0027734D01*
X0076174Y0028349D01*
X0076626Y0027897D01*
X0076694Y0027868D01*
X0076608Y0027719D01*
X0076499Y0027312D01*
X0076499Y0025727D01*
X0079625Y0025727D01*
X0079625Y0025378D01*
X0076499Y0025378D01*
X0076499Y0023792D01*
X0076608Y0023386D01*
X0076819Y0023021D01*
X0077117Y0022723D01*
X0077482Y0022512D01*
X0077889Y0022403D01*
X0079625Y0022403D01*
X0079625Y0025378D01*
X0079975Y0025378D01*
X0079975Y0022403D01*
X0079975Y0023173D02*
X0079625Y0023173D01*
X0079625Y0024372D02*
X0079975Y0024372D01*
X0079975Y0025570D02*
X0087456Y0025570D01*
X0086257Y0026769D02*
X0083101Y0026769D01*
X0083044Y0027967D02*
X0085059Y0027967D01*
X0083988Y0029166D02*
X0083928Y0029166D01*
X0079625Y0025570D02*
X0073891Y0025570D01*
X0073891Y0026769D02*
X0076499Y0026769D01*
X0076556Y0027967D02*
X0075793Y0027967D01*
X0076499Y0024372D02*
X0073891Y0024372D01*
X0073891Y0023173D02*
X0076731Y0023173D01*
X0073891Y0021975D02*
X0102516Y0021975D01*
X0102531Y0020776D02*
X0073891Y0020776D01*
X0073891Y0019578D02*
X0101412Y0019578D01*
X0100805Y0018379D02*
X0073578Y0018379D01*
X0072755Y0017181D02*
X0100526Y0017181D01*
X0100500Y0016200D02*
X0100500Y0016183D01*
X0100630Y0015359D01*
X0100888Y0014566D01*
X0101267Y0013822D01*
X0101757Y0013147D01*
X0102347Y0012557D01*
X0103022Y0012067D01*
X0103766Y0011688D01*
X0104559Y0011430D01*
X0105383Y0011300D01*
X0105400Y0011300D01*
X0105400Y0016200D01*
X0100500Y0016200D01*
X0100532Y0015982D02*
X0071556Y0015982D01*
X0070358Y0014784D02*
X0100817Y0014784D01*
X0101439Y0013585D02*
X0069159Y0013585D01*
X0067961Y0012387D02*
X0102582Y0012387D01*
X0105400Y0012387D02*
X0106200Y0012387D01*
X0106200Y0013585D02*
X0105400Y0013585D01*
X0105400Y0014784D02*
X0106200Y0014784D01*
X0106200Y0015982D02*
X0105400Y0015982D01*
X0106300Y0011188D02*
X0066493Y0011188D01*
X0064404Y0019578D02*
X0022188Y0019578D01*
X0022795Y0018379D02*
X0024252Y0018379D01*
X0023459Y0017181D02*
X0023074Y0017181D01*
X0023100Y0016200D02*
X0018200Y0016200D01*
X0018200Y0011300D01*
X0018217Y0011300D01*
X0019041Y0011430D01*
X0019834Y0011688D01*
X0020578Y0012067D01*
X0021253Y0012557D01*
X0021843Y0013147D01*
X0022333Y0013822D01*
X0022712Y0014566D01*
X0022969Y0015359D01*
X0023100Y0016183D01*
X0023100Y0016200D01*
X0023068Y0015982D02*
X0023350Y0015982D01*
X0023350Y0014784D02*
X0022783Y0014784D01*
X0023350Y0013585D02*
X0022161Y0013585D01*
X0021018Y0012387D02*
X0023350Y0012387D01*
X0023885Y0011188D02*
X0016300Y0011188D01*
X0016300Y0009990D02*
X0033600Y0009990D01*
X0033600Y0008012D02*
X0033600Y0006139D01*
X0033709Y0005732D01*
X0033920Y0005368D01*
X0034218Y0005070D01*
X0034582Y0004859D01*
X0034989Y0004750D01*
X0037337Y0004750D01*
X0037337Y0008012D01*
X0033600Y0008012D01*
X0033600Y0007593D02*
X0016300Y0007593D01*
X0016300Y0008791D02*
X0037337Y0008791D01*
X0038263Y0008791D02*
X0106300Y0008791D01*
X0106300Y0007593D02*
X0042000Y0007593D01*
X0042000Y0008012D02*
X0042000Y0006139D01*
X0041891Y0005732D01*
X0041680Y0005368D01*
X0041382Y0005070D01*
X0041018Y0004859D01*
X0040611Y0004750D01*
X0038263Y0004750D01*
X0038263Y0008012D01*
X0042000Y0008012D01*
X0042000Y0006394D02*
X0106094Y0006394D01*
X0104896Y0005196D02*
X0041508Y0005196D01*
X0038263Y0005196D02*
X0037337Y0005196D01*
X0037337Y0006394D02*
X0038263Y0006394D01*
X0038263Y0007593D02*
X0037337Y0007593D01*
X0034092Y0005196D02*
X0017704Y0005196D01*
X0016506Y0006394D02*
X0033600Y0006394D01*
X0042000Y0009990D02*
X0106300Y0009990D01*
X0090143Y0023173D02*
X0082869Y0023173D01*
X0083101Y0024372D02*
X0088654Y0024372D01*
X0066291Y0024372D02*
X0035250Y0024372D01*
X0034700Y0023173D02*
X0066291Y0023173D01*
X0066291Y0021975D02*
X0022084Y0021975D01*
X0021069Y0020776D02*
X0065602Y0020776D01*
X0066291Y0025570D02*
X0035250Y0025570D01*
X0035250Y0026769D02*
X0066291Y0026769D01*
X0064390Y0027967D02*
X0035250Y0027967D01*
X0035147Y0029166D02*
X0045403Y0029166D01*
X0045313Y0029321D02*
X0045524Y0028956D01*
X0045822Y0028658D01*
X0046186Y0028448D01*
X0046593Y0028339D01*
X0050800Y0028339D01*
X0055007Y0028339D01*
X0055414Y0028448D01*
X0055778Y0028658D01*
X0056076Y0028956D01*
X0056287Y0029321D01*
X0056396Y0029728D01*
X0056396Y0031139D01*
X0050800Y0031139D01*
X0050800Y0028339D01*
X0050800Y0031139D01*
X0050800Y0031139D01*
X0050800Y0031140D01*
X0050800Y0031139D01*
X0045204Y0031139D01*
X0045204Y0029728D01*
X0045313Y0029321D01*
X0045204Y0030364D02*
X0034363Y0030364D01*
X0038977Y0033960D02*
X0023525Y0033960D01*
X0024022Y0035158D02*
X0038481Y0035158D01*
X0038411Y0036357D02*
X0024100Y0036357D01*
X0024100Y0037555D02*
X0027384Y0037555D01*
X0026999Y0038754D02*
X0023727Y0038754D01*
X0023230Y0039952D02*
X0026999Y0039952D01*
X0026999Y0041151D02*
X0022159Y0041151D01*
X0020382Y0042349D02*
X0026999Y0042349D01*
X0027385Y0043548D02*
X0016300Y0043548D01*
X0016300Y0044746D02*
X0028037Y0044746D01*
X0027999Y0045945D02*
X0016300Y0045945D01*
X0016300Y0047143D02*
X0027999Y0047143D01*
X0027999Y0046822D02*
X0031125Y0046822D01*
X0031125Y0049797D01*
X0029389Y0049797D01*
X0028982Y0049688D01*
X0028617Y0049477D01*
X0028319Y0049179D01*
X0028108Y0048814D01*
X0027999Y0048407D01*
X0027999Y0046822D01*
X0027999Y0048342D02*
X0016300Y0048342D01*
X0016300Y0049540D02*
X0028726Y0049540D01*
X0031125Y0049540D02*
X0031475Y0049540D01*
X0031475Y0048342D02*
X0031125Y0048342D01*
X0031125Y0047143D02*
X0031475Y0047143D01*
X0033937Y0050739D02*
X0016300Y0050739D01*
X0016300Y0051937D02*
X0054000Y0051937D01*
X0054000Y0050739D02*
X0038663Y0050739D01*
X0025327Y0061526D02*
X0054000Y0061526D01*
X0054000Y0062724D02*
X0026525Y0062724D01*
X0027724Y0063923D02*
X0054000Y0063923D01*
X0054000Y0065121D02*
X0028922Y0065121D01*
X0030121Y0066320D02*
X0054399Y0066320D01*
X0055344Y0067518D02*
X0031319Y0067518D01*
X0032518Y0068717D02*
X0056543Y0068717D01*
X0057741Y0069915D02*
X0033716Y0069915D01*
X0034915Y0071114D02*
X0058940Y0071114D01*
X0060138Y0072312D02*
X0036113Y0072312D01*
X0037312Y0073511D02*
X0061337Y0073511D01*
X0062535Y0074709D02*
X0038510Y0074709D01*
X0039709Y0075908D02*
X0063734Y0075908D01*
X0064932Y0077106D02*
X0040907Y0077106D01*
X0042106Y0078305D02*
X0066131Y0078305D01*
X0067329Y0079503D02*
X0043304Y0079503D01*
X0044503Y0080702D02*
X0100992Y0080702D01*
X0105032Y0092687D02*
X0056488Y0092687D01*
X0055290Y0091488D02*
X0070036Y0091488D01*
X0067919Y0090290D02*
X0054091Y0090290D01*
X0052893Y0089091D02*
X0066920Y0089091D01*
X0066424Y0087893D02*
X0051694Y0087893D01*
X0050496Y0086694D02*
X0066300Y0086694D01*
X0066345Y0085496D02*
X0049297Y0085496D01*
X0048098Y0084297D02*
X0066842Y0084297D01*
X0067730Y0083099D02*
X0046900Y0083099D01*
X0045701Y0081900D02*
X0069581Y0081900D01*
X0054000Y0060327D02*
X0024128Y0060327D01*
X0022930Y0059129D02*
X0054000Y0059129D01*
X0054000Y0057930D02*
X0021731Y0057930D01*
X0020533Y0056732D02*
X0054000Y0056732D01*
X0054000Y0055533D02*
X0019334Y0055533D01*
X0018136Y0054334D02*
X0054000Y0054334D01*
X0054000Y0053136D02*
X0016937Y0053136D01*
X0022871Y0032761D02*
X0040198Y0032761D01*
X0045204Y0031563D02*
X0021747Y0031563D01*
X0018200Y0015982D02*
X0017400Y0015982D01*
X0017400Y0014784D02*
X0018200Y0014784D01*
X0018200Y0013585D02*
X0017400Y0013585D01*
X0017400Y0012387D02*
X0018200Y0012387D01*
X0050800Y0029166D02*
X0050800Y0029166D01*
X0050800Y0030364D02*
X0050800Y0030364D01*
X0056197Y0029166D02*
X0063601Y0029166D01*
X0063495Y0030364D02*
X0056396Y0030364D01*
X0056396Y0031563D02*
X0063495Y0031563D01*
X0063495Y0032761D02*
X0056340Y0032761D01*
X0057205Y0033960D02*
X0063686Y0033960D01*
X0063495Y0035158D02*
X0057396Y0035158D01*
X0057396Y0036357D02*
X0063495Y0036357D01*
X0063483Y0037555D02*
X0057396Y0037555D01*
X0057120Y0038754D02*
X0061772Y0038754D01*
X0060574Y0039952D02*
X0057396Y0039952D01*
X0057396Y0041151D02*
X0059375Y0041151D01*
X0058705Y0042349D02*
X0057396Y0042349D01*
X0058122Y0043548D02*
X0058500Y0043548D01*
D20*
X0071300Y0086600D02*
X0106800Y0086600D01*
M02*
