G75*
%MOIN*%
%OFA0B0*%
%FSLAX25Y25*%
%IPPOS*%
%LPD*%
%AMOC8*
5,1,8,0,0,1.08239X$1,22.5*
%
%ADD10C,0.00600*%
%ADD11C,0.07400*%
%ADD12R,0.12500X0.04900*%
%ADD13C,0.04800*%
%ADD14C,0.02578*%
%ADD15C,0.02400*%
%ADD16C,0.01200*%
D10*
X0011300Y0001600D02*
X0001300Y0011600D01*
X0001300Y0041600D01*
X0056300Y0096600D01*
X0121300Y0096600D01*
X0123800Y0094100D01*
X0123800Y0004100D01*
X0121300Y0001600D01*
X0011300Y0001600D01*
D11*
X0017800Y0016600D03*
X0017800Y0026600D03*
X0017800Y0036600D03*
X0105800Y0036600D03*
X0106800Y0026600D03*
X0105800Y0016600D03*
X0106800Y0046600D03*
X0105800Y0056600D03*
X0106800Y0066600D03*
X0105800Y0076600D03*
X0106800Y0086600D03*
D12*
X0031300Y0039150D03*
X0031300Y0014050D03*
D13*
X0020350Y0014050D01*
X0017800Y0016600D01*
X0017800Y0036600D02*
X0020350Y0039150D01*
X0031300Y0039150D01*
D14*
X0042300Y0036100D03*
X0048300Y0021600D03*
X0045300Y0008600D03*
X0079800Y0021600D03*
X0046800Y0053100D03*
D15*
X0046800Y0023100D01*
X0048300Y0021600D01*
X0048300Y0011600D01*
X0045300Y0008600D01*
X0045300Y0012100D01*
X0043300Y0014100D01*
X0031350Y0014100D01*
X0031300Y0014050D01*
X0048300Y0021600D02*
X0079800Y0021600D01*
X0100800Y0021600D01*
X0105800Y0016600D01*
X0042300Y0036100D02*
X0039250Y0039150D01*
X0031300Y0039150D01*
D16*
X0038047Y0035500D02*
X0038750Y0036203D01*
X0038750Y0036256D01*
X0040101Y0034905D01*
X0040190Y0034690D01*
X0040890Y0033990D01*
X0041805Y0033611D01*
X0042795Y0033611D01*
X0043710Y0033990D01*
X0044410Y0034690D01*
X0044789Y0035605D01*
X0044789Y0036595D01*
X0044410Y0037510D01*
X0043710Y0038210D01*
X0043495Y0038299D01*
X0040609Y0041185D01*
X0039727Y0041550D01*
X0038750Y0041550D01*
X0038750Y0042097D01*
X0038047Y0042800D01*
X0024553Y0042800D01*
X0024503Y0042750D01*
X0019634Y0042750D01*
X0018311Y0042202D01*
X0017609Y0041500D01*
X0016825Y0041500D01*
X0016300Y0041282D01*
X0016300Y0051600D01*
X0059400Y0094700D01*
X0103200Y0094700D01*
X0106300Y0091600D01*
X0106300Y0091500D01*
X0105825Y0091500D01*
X0104024Y0090754D01*
X0102646Y0089376D01*
X0101900Y0087575D01*
X0101900Y0085625D01*
X0102646Y0083824D01*
X0104024Y0082446D01*
X0105825Y0081700D01*
X0106300Y0081700D01*
X0106300Y0081500D01*
X0104825Y0081500D01*
X0103024Y0080754D01*
X0101646Y0079376D01*
X0100900Y0077575D01*
X0100900Y0075625D01*
X0101646Y0073824D01*
X0103024Y0072446D01*
X0104825Y0071700D01*
X0106300Y0071700D01*
X0106300Y0071500D01*
X0105825Y0071500D01*
X0104024Y0070754D01*
X0102646Y0069376D01*
X0101900Y0067575D01*
X0101900Y0065625D01*
X0102646Y0063824D01*
X0104024Y0062446D01*
X0105825Y0061700D01*
X0106300Y0061700D01*
X0106300Y0061500D01*
X0104825Y0061500D01*
X0103024Y0060754D01*
X0101646Y0059376D01*
X0100900Y0057575D01*
X0100900Y0055625D01*
X0101646Y0053824D01*
X0103024Y0052446D01*
X0104825Y0051700D01*
X0106300Y0051700D01*
X0106300Y0051500D01*
X0105825Y0051500D01*
X0104024Y0050754D01*
X0102646Y0049376D01*
X0101900Y0047575D01*
X0101900Y0045625D01*
X0102646Y0043824D01*
X0104024Y0042446D01*
X0105825Y0041700D01*
X0106300Y0041700D01*
X0106300Y0041500D01*
X0104825Y0041500D01*
X0103024Y0040754D01*
X0101646Y0039376D01*
X0100900Y0037575D01*
X0100900Y0035625D01*
X0101646Y0033824D01*
X0103024Y0032446D01*
X0104825Y0031700D01*
X0106300Y0031700D01*
X0106300Y0031500D01*
X0105825Y0031500D01*
X0104024Y0030754D01*
X0102646Y0029376D01*
X0101900Y0027575D01*
X0101900Y0025625D01*
X0102646Y0023824D01*
X0104024Y0022446D01*
X0105354Y0021895D01*
X0104559Y0021769D01*
X0103766Y0021512D01*
X0103022Y0021133D01*
X0102347Y0020643D01*
X0101757Y0020053D01*
X0101267Y0019378D01*
X0100888Y0018634D01*
X0100630Y0017841D01*
X0100500Y0017017D01*
X0100500Y0017000D01*
X0105400Y0017000D01*
X0105400Y0016200D01*
X0106200Y0016200D01*
X0106200Y0011300D01*
X0106217Y0011300D01*
X0106300Y0011313D01*
X0106300Y0006600D01*
X0103200Y0003500D01*
X0019400Y0003500D01*
X0016300Y0006600D01*
X0016300Y0011515D01*
X0016559Y0011430D01*
X0017383Y0011300D01*
X0017400Y0011300D01*
X0017400Y0016200D01*
X0018200Y0016200D01*
X0018200Y0017000D01*
X0023100Y0017000D01*
X0023100Y0017017D01*
X0022969Y0017841D01*
X0022712Y0018634D01*
X0022333Y0019378D01*
X0021843Y0020053D01*
X0021253Y0020643D01*
X0020578Y0021133D01*
X0019834Y0021512D01*
X0019041Y0021769D01*
X0018970Y0021781D01*
X0020576Y0022446D01*
X0021954Y0023824D01*
X0022700Y0025625D01*
X0022700Y0027575D01*
X0021954Y0029376D01*
X0020576Y0030754D01*
X0018775Y0031500D01*
X0016825Y0031500D01*
X0016300Y0031282D01*
X0016300Y0031918D01*
X0016825Y0031700D01*
X0018775Y0031700D01*
X0020576Y0032446D01*
X0021954Y0033824D01*
X0022669Y0035550D01*
X0024503Y0035550D01*
X0024553Y0035500D01*
X0038047Y0035500D01*
X0039848Y0035158D02*
X0022507Y0035158D01*
X0022010Y0033960D02*
X0040963Y0033960D01*
X0043637Y0033960D02*
X0101590Y0033960D01*
X0101093Y0035158D02*
X0044604Y0035158D01*
X0044789Y0036357D02*
X0100900Y0036357D01*
X0100900Y0037555D02*
X0044365Y0037555D01*
X0043040Y0038754D02*
X0101388Y0038754D01*
X0102223Y0039952D02*
X0041842Y0039952D01*
X0040643Y0041151D02*
X0103982Y0041151D01*
X0104258Y0042349D02*
X0038498Y0042349D01*
X0020891Y0032761D02*
X0102709Y0032761D01*
X0106300Y0031563D02*
X0016300Y0031563D01*
X0020965Y0030364D02*
X0103635Y0030364D01*
X0102559Y0029166D02*
X0022041Y0029166D01*
X0022537Y0027967D02*
X0102063Y0027967D01*
X0101900Y0026769D02*
X0022700Y0026769D01*
X0022677Y0025570D02*
X0101923Y0025570D01*
X0102419Y0024372D02*
X0022181Y0024372D01*
X0021303Y0023173D02*
X0103297Y0023173D01*
X0105162Y0021975D02*
X0019438Y0021975D01*
X0021069Y0020776D02*
X0102531Y0020776D01*
X0101412Y0019578D02*
X0022188Y0019578D01*
X0022795Y0018379D02*
X0100805Y0018379D01*
X0100526Y0017181D02*
X0039005Y0017181D01*
X0039041Y0017118D02*
X0038830Y0017482D01*
X0038532Y0017780D01*
X0038168Y0017991D01*
X0037761Y0018100D01*
X0031900Y0018100D01*
X0031900Y0014650D01*
X0030700Y0014650D01*
X0030700Y0018100D01*
X0024839Y0018100D01*
X0024432Y0017991D01*
X0024068Y0017780D01*
X0023770Y0017482D01*
X0023559Y0017118D01*
X0023450Y0016711D01*
X0023450Y0014650D01*
X0030700Y0014650D01*
X0030700Y0013450D01*
X0031900Y0013450D01*
X0031900Y0014650D01*
X0039150Y0014650D01*
X0039150Y0016711D01*
X0039041Y0017118D01*
X0039150Y0015982D02*
X0100532Y0015982D01*
X0100500Y0016183D02*
X0100630Y0015359D01*
X0100888Y0014566D01*
X0101267Y0013822D01*
X0101757Y0013147D01*
X0102347Y0012557D01*
X0103022Y0012067D01*
X0103766Y0011688D01*
X0104559Y0011430D01*
X0105383Y0011300D01*
X0105400Y0011300D01*
X0105400Y0016200D01*
X0100500Y0016200D01*
X0100500Y0016183D01*
X0100817Y0014784D02*
X0039150Y0014784D01*
X0039150Y0013450D02*
X0039150Y0011389D01*
X0039041Y0010982D01*
X0038830Y0010618D01*
X0038532Y0010320D01*
X0038168Y0010109D01*
X0037761Y0010000D01*
X0031900Y0010000D01*
X0031900Y0013450D01*
X0039150Y0013450D01*
X0039150Y0012387D02*
X0102582Y0012387D01*
X0101439Y0013585D02*
X0031900Y0013585D01*
X0031900Y0012387D02*
X0030700Y0012387D01*
X0030700Y0013450D02*
X0030700Y0010000D01*
X0024839Y0010000D01*
X0024432Y0010109D01*
X0024068Y0010320D01*
X0023770Y0010618D01*
X0023559Y0010982D01*
X0023450Y0011389D01*
X0023450Y0013450D01*
X0030700Y0013450D01*
X0030700Y0013585D02*
X0022161Y0013585D01*
X0022333Y0013822D02*
X0021843Y0013147D01*
X0021253Y0012557D01*
X0020578Y0012067D01*
X0019834Y0011688D01*
X0019041Y0011430D01*
X0018217Y0011300D01*
X0018200Y0011300D01*
X0018200Y0016200D01*
X0023100Y0016200D01*
X0023100Y0016183D01*
X0022969Y0015359D01*
X0022712Y0014566D01*
X0022333Y0013822D01*
X0022783Y0014784D02*
X0023450Y0014784D01*
X0023450Y0015982D02*
X0023068Y0015982D01*
X0023074Y0017181D02*
X0023595Y0017181D01*
X0018200Y0015982D02*
X0017400Y0015982D01*
X0017400Y0014784D02*
X0018200Y0014784D01*
X0018200Y0013585D02*
X0017400Y0013585D01*
X0017400Y0012387D02*
X0018200Y0012387D01*
X0016300Y0011188D02*
X0023504Y0011188D01*
X0023450Y0012387D02*
X0021018Y0012387D01*
X0016300Y0009990D02*
X0106300Y0009990D01*
X0106300Y0011188D02*
X0039096Y0011188D01*
X0031900Y0011188D02*
X0030700Y0011188D01*
X0030700Y0014784D02*
X0031900Y0014784D01*
X0031900Y0015982D02*
X0030700Y0015982D01*
X0030700Y0017181D02*
X0031900Y0017181D01*
X0016300Y0008791D02*
X0106300Y0008791D01*
X0106300Y0007593D02*
X0016300Y0007593D01*
X0016506Y0006394D02*
X0106094Y0006394D01*
X0104896Y0005196D02*
X0017704Y0005196D01*
X0018903Y0003997D02*
X0103697Y0003997D01*
X0105400Y0012387D02*
X0106200Y0012387D01*
X0106200Y0013585D02*
X0105400Y0013585D01*
X0105400Y0014784D02*
X0106200Y0014784D01*
X0106200Y0015982D02*
X0105400Y0015982D01*
X0102922Y0043548D02*
X0016300Y0043548D01*
X0016300Y0044746D02*
X0102264Y0044746D01*
X0101900Y0045945D02*
X0016300Y0045945D01*
X0016300Y0047143D02*
X0101900Y0047143D01*
X0102218Y0048342D02*
X0016300Y0048342D01*
X0016300Y0049540D02*
X0102811Y0049540D01*
X0104009Y0050739D02*
X0016300Y0050739D01*
X0016637Y0051937D02*
X0104252Y0051937D01*
X0102334Y0053136D02*
X0017836Y0053136D01*
X0019034Y0054334D02*
X0101435Y0054334D01*
X0100938Y0055533D02*
X0020233Y0055533D01*
X0021432Y0056732D02*
X0100900Y0056732D01*
X0101047Y0057930D02*
X0022630Y0057930D01*
X0023829Y0059129D02*
X0101544Y0059129D01*
X0102597Y0060327D02*
X0025027Y0060327D01*
X0026226Y0061526D02*
X0106300Y0061526D01*
X0103746Y0062724D02*
X0027424Y0062724D01*
X0028623Y0063923D02*
X0102605Y0063923D01*
X0102109Y0065121D02*
X0029821Y0065121D01*
X0031020Y0066320D02*
X0101900Y0066320D01*
X0101900Y0067518D02*
X0032218Y0067518D01*
X0033417Y0068717D02*
X0102373Y0068717D01*
X0103186Y0069915D02*
X0034615Y0069915D01*
X0035814Y0071114D02*
X0104893Y0071114D01*
X0103347Y0072312D02*
X0037012Y0072312D01*
X0038211Y0073511D02*
X0101960Y0073511D01*
X0101279Y0074709D02*
X0039409Y0074709D01*
X0040608Y0075908D02*
X0100900Y0075908D01*
X0100900Y0077106D02*
X0041806Y0077106D01*
X0043005Y0078305D02*
X0101202Y0078305D01*
X0101774Y0079503D02*
X0044203Y0079503D01*
X0045402Y0080702D02*
X0102972Y0080702D01*
X0103372Y0083099D02*
X0047799Y0083099D01*
X0048997Y0084297D02*
X0102450Y0084297D01*
X0101954Y0085496D02*
X0050196Y0085496D01*
X0051394Y0086694D02*
X0101900Y0086694D01*
X0102032Y0087893D02*
X0052593Y0087893D01*
X0053791Y0089091D02*
X0102528Y0089091D01*
X0103560Y0090290D02*
X0054990Y0090290D01*
X0056188Y0091488D02*
X0105797Y0091488D01*
X0105213Y0092687D02*
X0057387Y0092687D01*
X0058585Y0093885D02*
X0104015Y0093885D01*
X0105342Y0081900D02*
X0046600Y0081900D01*
X0018667Y0042349D02*
X0016300Y0042349D01*
M02*
