G75*
%MOIN*%
%OFA0B0*%
%FSLAX25Y25*%
%IPPOS*%
%LPD*%
%AMOC8*
5,1,8,0,0,1.08239X$1,22.5*
%
%ADD10C,0.00600*%
%ADD11C,0.00800*%
%ADD12C,0.00200*%
%ADD13C,0.00787*%
%ADD14C,0.00300*%
%ADD15C,0.00500*%
D10*
X0011300Y0001600D02*
X0001300Y0011600D01*
X0001300Y0041600D01*
X0056300Y0096600D01*
X0121300Y0096600D01*
X0123800Y0094100D01*
X0123800Y0004100D01*
X0121300Y0001600D01*
X0011300Y0001600D01*
D11*
X0015300Y0011600D02*
X0012800Y0014100D01*
X0012800Y0019100D01*
X0015300Y0021600D01*
X0012800Y0024100D01*
X0012800Y0029100D01*
X0015300Y0031600D01*
X0012800Y0034100D01*
X0012800Y0039100D01*
X0015300Y0041600D01*
X0020300Y0041600D01*
X0022800Y0039100D01*
X0022800Y0034100D01*
X0020300Y0031600D01*
X0022800Y0029100D01*
X0022800Y0024100D01*
X0020300Y0021600D01*
X0022800Y0019100D01*
X0022800Y0014100D01*
X0020300Y0011600D01*
X0015300Y0011600D01*
X0050800Y0026021D02*
X0070091Y0026021D01*
X0070091Y0027990D01*
X0050800Y0027990D02*
X0050800Y0026021D01*
X0042926Y0046100D02*
X0042928Y0046156D01*
X0042934Y0046211D01*
X0042944Y0046265D01*
X0042957Y0046319D01*
X0042975Y0046372D01*
X0042996Y0046423D01*
X0043020Y0046473D01*
X0043048Y0046521D01*
X0043080Y0046567D01*
X0043114Y0046611D01*
X0043152Y0046652D01*
X0043192Y0046690D01*
X0043235Y0046725D01*
X0043280Y0046757D01*
X0043328Y0046786D01*
X0043377Y0046812D01*
X0043428Y0046834D01*
X0043480Y0046852D01*
X0043534Y0046866D01*
X0043589Y0046877D01*
X0043644Y0046884D01*
X0043699Y0046887D01*
X0043755Y0046886D01*
X0043810Y0046881D01*
X0043865Y0046872D01*
X0043919Y0046860D01*
X0043972Y0046843D01*
X0044024Y0046823D01*
X0044074Y0046799D01*
X0044122Y0046772D01*
X0044169Y0046742D01*
X0044213Y0046708D01*
X0044255Y0046671D01*
X0044293Y0046631D01*
X0044330Y0046589D01*
X0044363Y0046544D01*
X0044392Y0046498D01*
X0044419Y0046449D01*
X0044441Y0046398D01*
X0044461Y0046346D01*
X0044476Y0046292D01*
X0044488Y0046238D01*
X0044496Y0046183D01*
X0044500Y0046128D01*
X0044500Y0046072D01*
X0044496Y0046017D01*
X0044488Y0045962D01*
X0044476Y0045908D01*
X0044461Y0045854D01*
X0044441Y0045802D01*
X0044419Y0045751D01*
X0044392Y0045702D01*
X0044363Y0045656D01*
X0044330Y0045611D01*
X0044293Y0045569D01*
X0044255Y0045529D01*
X0044213Y0045492D01*
X0044169Y0045458D01*
X0044122Y0045428D01*
X0044074Y0045401D01*
X0044024Y0045377D01*
X0043972Y0045357D01*
X0043919Y0045340D01*
X0043865Y0045328D01*
X0043810Y0045319D01*
X0043755Y0045314D01*
X0043699Y0045313D01*
X0043644Y0045316D01*
X0043589Y0045323D01*
X0043534Y0045334D01*
X0043480Y0045348D01*
X0043428Y0045366D01*
X0043377Y0045388D01*
X0043328Y0045414D01*
X0043280Y0045443D01*
X0043235Y0045475D01*
X0043192Y0045510D01*
X0043152Y0045548D01*
X0043114Y0045589D01*
X0043080Y0045633D01*
X0043048Y0045679D01*
X0043020Y0045727D01*
X0042996Y0045777D01*
X0042975Y0045828D01*
X0042957Y0045881D01*
X0042944Y0045935D01*
X0042934Y0045989D01*
X0042928Y0046044D01*
X0042926Y0046100D01*
X0050800Y0049250D02*
X0050800Y0051218D01*
X0070091Y0051218D01*
X0070091Y0049250D01*
X0101300Y0049100D02*
X0101300Y0044100D01*
X0103800Y0041600D01*
X0101300Y0039100D01*
X0101300Y0034100D01*
X0103800Y0031600D01*
X0101300Y0029100D01*
X0101300Y0024100D01*
X0103800Y0021600D01*
X0101300Y0019100D01*
X0101300Y0014100D01*
X0103800Y0011600D01*
X0108800Y0011600D01*
X0111300Y0014100D01*
X0111300Y0019100D01*
X0108800Y0021600D01*
X0111300Y0024100D01*
X0111300Y0029100D01*
X0108800Y0031600D01*
X0111300Y0034100D01*
X0111300Y0039100D01*
X0108800Y0041600D01*
X0111300Y0044100D01*
X0111300Y0049100D01*
X0108800Y0051600D01*
X0111300Y0054100D01*
X0111300Y0059100D01*
X0108800Y0061600D01*
X0111300Y0064100D01*
X0111300Y0069100D01*
X0108800Y0071600D01*
X0111300Y0074100D01*
X0111300Y0079100D01*
X0108800Y0081600D01*
X0111300Y0084100D01*
X0111300Y0089100D01*
X0108800Y0091600D01*
X0103800Y0091600D01*
X0101300Y0089100D01*
X0101300Y0084100D01*
X0103800Y0081600D01*
X0101300Y0079100D01*
X0101300Y0074100D01*
X0103800Y0071600D01*
X0101300Y0069100D01*
X0101300Y0064100D01*
X0103800Y0061600D01*
X0101300Y0059100D01*
X0101300Y0054100D01*
X0103800Y0051600D01*
X0101300Y0049100D01*
D12*
X0057712Y0023955D02*
X0057712Y0021153D01*
X0058179Y0022554D02*
X0056311Y0022554D01*
X0057712Y0023955D01*
X0055416Y0023488D02*
X0054949Y0023955D01*
X0054015Y0023955D01*
X0053548Y0023488D01*
X0053548Y0023021D01*
X0054015Y0022554D01*
X0054949Y0022554D01*
X0055416Y0022087D01*
X0055416Y0021620D01*
X0054949Y0021153D01*
X0054015Y0021153D01*
X0053548Y0021620D01*
X0052654Y0021620D02*
X0052654Y0023955D01*
X0054482Y0024422D02*
X0054482Y0020686D01*
X0052654Y0021620D02*
X0052187Y0021153D01*
X0051253Y0021153D01*
X0050786Y0021620D01*
X0050786Y0023955D01*
D13*
X0040450Y0011600D02*
X0040400Y0011600D01*
X0035250Y0011600D02*
X0035200Y0011600D01*
X0032300Y0017600D02*
X0032300Y0023600D01*
X0026300Y0023600D02*
X0026300Y0017600D01*
X0029331Y0043206D02*
X0029331Y0043994D01*
X0033269Y0043994D02*
X0033269Y0043206D01*
X0034331Y0043206D02*
X0034331Y0043994D01*
X0038269Y0043994D02*
X0038269Y0043206D01*
X0077831Y0038994D02*
X0077831Y0038206D01*
X0081769Y0038206D02*
X0081769Y0038994D01*
X0081769Y0028994D02*
X0081769Y0028206D01*
X0077831Y0028206D02*
X0077831Y0028994D01*
D14*
X0086247Y0027709D02*
X0086247Y0026758D01*
X0086722Y0026283D01*
X0087197Y0026283D01*
X0087673Y0026758D01*
X0087673Y0028184D01*
X0088623Y0028184D02*
X0086722Y0028184D01*
X0086247Y0027709D01*
X0088623Y0028184D02*
X0089099Y0027709D01*
X0089099Y0026758D01*
X0088623Y0026283D01*
X0088623Y0025284D02*
X0088148Y0025284D01*
X0087673Y0024808D01*
X0087673Y0023858D01*
X0087197Y0023382D01*
X0086722Y0023382D01*
X0086247Y0023858D01*
X0086247Y0024808D01*
X0086722Y0025284D01*
X0085771Y0024333D02*
X0089574Y0024333D01*
X0089099Y0023858D02*
X0089099Y0024808D01*
X0088623Y0025284D01*
X0089099Y0023858D02*
X0088623Y0023382D01*
X0088623Y0022384D02*
X0086247Y0022384D01*
X0086247Y0020482D02*
X0088623Y0020482D01*
X0089099Y0020958D01*
X0089099Y0021908D01*
X0088623Y0022384D01*
X0088623Y0030482D02*
X0086247Y0030482D01*
X0086247Y0032384D02*
X0088623Y0032384D01*
X0089099Y0031908D01*
X0089099Y0030958D01*
X0088623Y0030482D01*
X0088623Y0033382D02*
X0089099Y0033858D01*
X0089099Y0034808D01*
X0088623Y0035284D01*
X0088148Y0035284D01*
X0087673Y0034808D01*
X0087673Y0033858D01*
X0087197Y0033382D01*
X0086722Y0033382D01*
X0086247Y0033858D01*
X0086247Y0034808D01*
X0086722Y0035284D01*
X0086722Y0036283D02*
X0087197Y0036283D01*
X0087673Y0036758D01*
X0087673Y0037709D01*
X0088148Y0038184D01*
X0088623Y0038184D01*
X0089099Y0037709D01*
X0089099Y0036758D01*
X0088623Y0036283D01*
X0088148Y0036283D01*
X0087673Y0036758D01*
X0087673Y0037709D02*
X0087197Y0038184D01*
X0086722Y0038184D01*
X0086247Y0037709D01*
X0086247Y0036758D01*
X0086722Y0036283D01*
X0085771Y0034333D02*
X0089574Y0034333D01*
X0048000Y0013576D02*
X0048000Y0012626D01*
X0047525Y0012150D01*
X0046574Y0012150D01*
X0046574Y0013576D01*
X0047049Y0014052D01*
X0047525Y0014052D01*
X0048000Y0013576D01*
X0046574Y0012150D02*
X0045623Y0013101D01*
X0045148Y0014052D01*
X0045623Y0011151D02*
X0045148Y0010676D01*
X0045148Y0009725D01*
X0045623Y0009250D01*
X0046099Y0009250D01*
X0046574Y0009725D01*
X0046574Y0010676D01*
X0047049Y0011151D01*
X0047525Y0011151D01*
X0048000Y0010676D01*
X0048000Y0009725D01*
X0047525Y0009250D01*
X0047525Y0008251D02*
X0045148Y0008251D01*
X0047525Y0008251D02*
X0048000Y0007776D01*
X0048000Y0006825D01*
X0047525Y0006350D01*
X0045148Y0006350D01*
X0044673Y0010201D02*
X0048475Y0010201D01*
X0040650Y0018225D02*
X0040650Y0019176D01*
X0040175Y0019651D01*
X0037798Y0019651D01*
X0038273Y0020650D02*
X0037798Y0021125D01*
X0037798Y0022076D01*
X0038273Y0022551D01*
X0039224Y0022076D02*
X0039224Y0021125D01*
X0038749Y0020650D01*
X0038273Y0020650D01*
X0037323Y0021601D02*
X0041125Y0021601D01*
X0040650Y0022076D02*
X0040650Y0021125D01*
X0040175Y0020650D01*
X0040650Y0022076D02*
X0040175Y0022551D01*
X0039699Y0022551D01*
X0039224Y0022076D01*
X0039224Y0023550D02*
X0037798Y0023550D01*
X0037798Y0025452D01*
X0038749Y0024976D02*
X0039224Y0025452D01*
X0040175Y0025452D01*
X0040650Y0024976D01*
X0040650Y0024026D01*
X0040175Y0023550D01*
X0039224Y0023550D02*
X0038749Y0024501D01*
X0038749Y0024976D01*
X0040650Y0018225D02*
X0040175Y0017750D01*
X0037798Y0017750D01*
X0042747Y0035482D02*
X0045123Y0035482D01*
X0045599Y0035958D01*
X0045599Y0036908D01*
X0045123Y0037384D01*
X0042747Y0037384D01*
X0043222Y0038382D02*
X0042747Y0038858D01*
X0042747Y0039808D01*
X0043222Y0040284D01*
X0044173Y0039808D02*
X0044173Y0038858D01*
X0043697Y0038382D01*
X0043222Y0038382D01*
X0042271Y0039333D02*
X0046074Y0039333D01*
X0045599Y0038858D02*
X0045599Y0039808D01*
X0045123Y0040284D01*
X0044648Y0040284D01*
X0044173Y0039808D01*
X0045123Y0038382D02*
X0045599Y0038858D01*
X0045599Y0041283D02*
X0045599Y0043184D01*
X0045599Y0042233D02*
X0042747Y0042233D01*
X0043697Y0041283D01*
X0043697Y0044183D02*
X0042747Y0045133D01*
X0045599Y0045133D01*
X0045599Y0044183D02*
X0045599Y0046084D01*
X0025326Y0047168D02*
X0021523Y0047168D01*
X0021999Y0046693D02*
X0021999Y0047644D01*
X0022474Y0048119D01*
X0022474Y0049118D02*
X0021999Y0049593D01*
X0021999Y0050544D01*
X0022474Y0051019D01*
X0022949Y0051019D01*
X0023425Y0050544D01*
X0023900Y0051019D01*
X0024375Y0051019D01*
X0024851Y0050544D01*
X0024851Y0049593D01*
X0024375Y0049118D01*
X0024375Y0048119D02*
X0023900Y0048119D01*
X0023425Y0047644D01*
X0023425Y0046693D01*
X0022949Y0046217D01*
X0022474Y0046217D01*
X0021999Y0046693D01*
X0021999Y0045219D02*
X0024375Y0045219D01*
X0024851Y0044743D01*
X0024851Y0043793D01*
X0024375Y0043317D01*
X0021999Y0043317D01*
X0024375Y0046217D02*
X0024851Y0046693D01*
X0024851Y0047644D01*
X0024375Y0048119D01*
X0023425Y0050068D02*
X0023425Y0050544D01*
D15*
X0098648Y0019430D02*
X0098648Y0018797D01*
X0098965Y0018480D01*
X0098648Y0019430D02*
X0098965Y0019747D01*
X0099282Y0019747D01*
X0100550Y0018480D01*
X0100550Y0019747D01*
X0100550Y0017538D02*
X0100550Y0016270D01*
X0100550Y0016904D02*
X0098648Y0016904D01*
X0099282Y0016270D01*
X0098965Y0015328D02*
X0098648Y0015011D01*
X0098648Y0014377D01*
X0098965Y0014060D01*
X0099282Y0014060D01*
X0099599Y0014377D01*
X0099599Y0015011D01*
X0099916Y0015328D01*
X0100233Y0015328D01*
X0100550Y0015011D01*
X0100550Y0014377D01*
X0100233Y0014060D01*
X0100867Y0014694D02*
X0098331Y0014694D01*
X0098648Y0013118D02*
X0100233Y0013118D01*
X0100550Y0012801D01*
X0100550Y0012167D01*
X0100233Y0011850D01*
X0098648Y0011850D01*
M02*
